<?xml version="1.0" standalone="no"?>
<!DOCTYPE svg PUBLIC "-//W3C//DTD SVG 20010904//EN"
 "http://www.w3.org/TR/2001/REC-SVG-20010904/DTD/svg10.dtd">
<svg version="1.0" xmlns="http://www.w3.org/2000/svg"
 width="400.000000pt" height="400.000000pt" viewBox="0 0 400.000000 400.000000"
 preserveAspectRatio="xMidYMid meet">

<g transform="translate(0.000000,400.000000) scale(0.100000,-0.100000)"
fill="#000000" stroke="none">
<path d="M0 2000 l0 -2000 2000 0 2000 0 0 2000 0 2000 -2000 0 -2000 0 0
-2000z m1603 946 c4 -10 1 -13 -8 -9 -8 3 -12 9 -9 14 7 12 11 11 17 -5z m-58
-112 c-14 -30 -31 -54 -37 -54 -7 0 -6 6 3 18 11 14 11 15 -1 5 -17 -16 -23
-45 -7 -37 7 3 4 -1 -6 -10 -11 -8 -25 -12 -33 -9 -8 3 -14 0 -14 -6 0 -6 6
-11 13 -12 8 0 8 -2 -2 -6 -21 -9 -51 -36 -51 -48 0 -5 -7 -23 -15 -38 -8 -15
-10 -25 -5 -22 5 3 11 1 15 -5 3 -5 1 -10 -4 -10 -6 0 -10 -3 -10 -7 4 -22 -3
-32 -23 -35 -13 -2 -24 -11 -27 -23 -5 -29 -34 -62 -49 -57 -7 2 -12 0 -10 -5
4 -17 -26 -113 -36 -113 -11 -1 -27 -32 -62 -115 -19 -47 -43 -77 -56 -69 -4
3 -8 2 -6 -3 1 -4 -2 -28 -6 -53 -8 -40 -10 -42 -17 -22 -11 28 -33 24 -37 -6
-3 -17 0 -20 14 -15 15 5 16 2 9 -23 -4 -16 -7 -37 -7 -47 0 -10 -6 -21 -14
-24 -7 -3 -12 -9 -9 -14 3 -4 -3 -6 -14 -4 -15 3 -18 0 -14 -12 4 -11 2 -14
-5 -9 -8 5 -10 2 -5 -10 5 -13 2 -15 -18 -9 -18 5 -20 4 -9 -4 12 -9 13 -14 2
-28 -7 -10 -21 -31 -32 -48 l-20 -30 0 51 c0 34 5 54 13 57 9 3 12 16 9 35 -2
17 3 45 12 63 9 18 16 39 16 48 0 9 23 109 52 224 l52 207 60 58 c34 31 101
93 150 137 48 44 99 90 112 103 13 12 26 21 28 20 2 -2 19 8 38 22 18 14 36
24 39 23 4 -1 6 5 5 15 -1 12 5 16 19 14 15 -2 17 -1 6 6 -8 6 -10 15 -6 23 6
9 11 6 17 -11 6 -16 1 -37 -17 -76z m-45 31 c-7 -9 -23 -21 -34 -27 -15 -8
-12 -2 9 19 31 31 48 36 25 8z m-209 -456 c-9 -22 -10 -22 -10 -3 -1 11 2 24
6 27 12 12 14 0 4 -24z m1859 -266 c28 -109 89 -343 136 -520 46 -176 84 -326
84 -333 0 -6 -143 61 -319 150 -337 170 -335 168 -347 247 -4 27 -2 34 8 31 7
-3 12 -15 12 -26 -2 -31 13 -27 31 8 10 20 12 30 4 30 -7 0 -5 9 5 25 9 13 16
30 16 36 0 7 6 20 14 28 8 9 23 34 35 56 12 22 26 40 33 40 6 0 13 13 15 29 2
16 9 38 14 48 5 10 7 24 3 30 -5 7 -3 8 6 3 10 -6 12 -4 6 10 -6 16 -4 16 11
4 10 -7 15 -9 11 -5 -4 5 -2 16 5 24 10 13 9 15 -3 8 -9 -4 -8 -2 2 7 10 8 15
17 11 20 -3 4 -1 7 5 7 6 0 14 9 17 20 4 11 11 17 17 14 6 -4 8 -2 4 4 -7 12
13 62 26 62 4 0 8 7 8 15 0 9 6 12 17 8 12 -5 15 -2 10 10 -3 9 -3 17 2 17 5
0 12 11 15 24 3 13 9 32 12 43 5 16 4 16 -12 -2 -15 -18 -16 -18 -10 -2 3 10
6 25 6 33 0 9 5 12 10 9 6 -3 10 2 11 12 1 31 15 -14 69 -224z m-2200 -396 c0
-5 -4 -5 -10 -2 -6 3 -10 -4 -11 -17 0 -22 -1 -22 -8 -3 -5 11 -4 22 0 23 5 2
9 11 9 20 0 15 2 15 10 2 5 -8 10 -19 10 -23z m2080 -403 c176 -87 317 -161
313 -165 -5 -3 -55 -20 -113 -37 -58 -17 -267 -79 -465 -138 -198 -58 -375
-111 -393 -116 -19 -5 -40 -7 -48 -4 -9 3 -12 1 -9 -4 3 -6 -1 -10 -9 -10 -8
0 -18 5 -22 12 -5 7 -2 8 7 3 8 -5 3 4 -11 19 -14 15 -20 27 -15 26 25 -5 37
1 31 16 -5 13 -2 15 14 11 22 -6 27 1 33 45 1 15 11 36 21 47 11 12 15 21 11
21 -5 0 0 6 11 14 10 8 19 20 19 28 0 7 7 13 15 13 8 0 16 9 18 20 2 11 8 24
13 30 5 5 9 17 9 26 0 9 6 22 14 29 8 6 12 18 10 25 -3 7 4 23 15 34 13 13 16
21 9 21 -7 0 -5 5 5 11 9 5 17 17 17 25 0 8 5 12 10 9 6 -4 9 -3 8 2 -4 16 14
53 23 48 5 -3 6 2 2 11 -5 13 -3 15 8 9 12 -7 12 -6 1 7 -11 14 -9 18 15 26
l28 10 -32 1 c-23 1 -31 5 -27 14 3 10 27 15 74 16 l70 2 320 -157z m-750
-478 c0 -7 -40 -14 -44 -7 -3 4 6 8 20 9 13 1 24 0 24 -2z"/>
<path d="M1521 2834 c0 -11 3 -14 6 -6 3 7 2 16 -1 19 -3 4 -6 -2 -5 -13z"/>
</g>
</svg>
