<?xml version="1.0" encoding="UTF-8"?>
<!DOCTYPE svg PUBLIC "-//W3C//DTD SVG 1.1//EN" "http://www.w3.org/Graphics/SVG/1.1/DTD/svg11.dtd">
<svg xmlns="http://www.w3.org/2000/svg" version="1.1" width="400px" height="400px" style="shape-rendering:geometricPrecision; text-rendering:geometricPrecision; image-rendering:optimizeQuality; fill-rule:evenodd; clip-rule:evenodd" xmlns:xlink="http://www.w3.org/1999/xlink">
<g><path style="opacity:0.127" fill="#1d1425" d="M 223.5,69.5 C 222.833,69.5 222.167,69.5 221.5,69.5C 218.833,66.1667 215.833,63.1667 212.5,60.5C 211.503,82.9939 211.169,105.661 211.5,128.5C 210.337,105.67 210.17,82.6703 211,59.5C 211.718,58.5494 212.551,58.3828 213.5,59C 217.037,62.3691 220.371,65.8691 223.5,69.5 Z"/></g>
<g><path style="opacity:0.429" fill="#342a47" d="M 202.5,63.5 C 202.123,61.1759 201.123,60.5092 199.5,61.5C 199.843,59.7748 200.843,59.2748 202.5,60C 203.791,61.2917 203.791,62.4583 202.5,63.5 Z"/></g>
<g><path style="opacity:0.369" fill="#28294d" d="M 198.5,62.5 C 198.167,63.1667 197.833,63.8333 197.5,64.5C 195.167,66.1667 193.167,68.1667 191.5,70.5C 190.609,71.1098 189.609,71.4431 188.5,71.5C 191.231,67.7657 194.564,64.7657 198.5,62.5 Z"/></g>
<g><path style="opacity:1" fill="#806dbd" d="M 197.5,64.5 C 198.5,64.5 199.5,64.5 200.5,64.5C 200.528,68.5305 200.194,72.1971 199.5,75.5C 199.702,77.9892 199.202,80.3225 198,82.5C 197.581,81.3279 196.915,80.3279 196,79.5C 194.619,81.6349 193.619,83.9682 193,86.5C 192.25,87.1258 191.416,87.6258 190.5,88C 191.061,89.5655 190.394,90.8989 188.5,92C 188.833,92.3333 189.167,92.6667 189.5,93C 183.8,100.887 178.967,109.387 175,118.5C 170.204,123.649 166.871,129.649 165,136.5C 161.017,139.982 158.517,144.315 157.5,149.5C 156.186,150.313 155.019,151.313 154,152.5C 152.221,159.393 148.888,165.393 144,170.5C 143.644,176.239 141.31,180.906 137,184.5C 134.254,192.367 130.421,198.867 125.5,204C 125.957,204.414 126.291,204.914 126.5,205.5C 124.025,209.096 121.525,212.762 119,216.5C 117.01,223.159 113.843,229.159 109.5,234.5C 108.726,235.711 107.893,235.711 107,234.5C 105.911,242.358 102.744,249.525 97.5,256C 98.2524,256.671 98.5858,257.504 98.5,258.5C 96.1601,260.951 92.8268,262.618 88.5,263.5C 88.5,263.167 88.5,262.833 88.5,262.5C 90.4999,261.357 91.1666,259.857 90.5,258C 91.8721,257.598 93.2054,257.098 94.5,256.5C 97.5864,245.657 102.753,235.99 110,227.5C 110.794,224.529 111.461,221.529 112,218.5C 113.512,217.743 114.846,216.743 116,215.5C 118.449,210.27 120.616,204.937 122.5,199.5C 126.151,194.019 129.984,188.686 134,183.5C 135.517,176.13 138.85,169.797 144,164.5C 149.286,152.595 155.62,141.262 163,130.5C 168.571,118.085 175.071,106.252 182.5,95C 181.328,94.5814 180.328,93.9147 179.5,93C 183.755,89.9975 186.088,85.8308 186.5,80.5C 189.123,78.0375 191.456,75.3709 193.5,72.5C 193.145,71.4777 192.478,70.811 191.5,70.5C 193.167,68.1667 195.167,66.1667 197.5,64.5 Z"/></g>
<g><path style="opacity:0.941" fill="#59466c" d="M 202.5,63.5 C 203.601,85.8163 203.767,108.15 203,130.5C 202.722,131.416 202.222,132.082 201.5,132.5C 201.825,124.981 201.492,117.648 200.5,110.5C 200.227,105.667 200.227,100.667 200.5,95.5C 200.5,92.5 200.5,89.5 200.5,86.5C 200.815,82.6286 200.482,78.9619 199.5,75.5C 200.194,72.1971 200.528,68.5305 200.5,64.5C 199.5,64.5 198.5,64.5 197.5,64.5C 197.833,63.8333 198.167,63.1667 198.5,62.5C 198.5,61.8333 198.833,61.5 199.5,61.5C 201.123,60.5092 202.123,61.1759 202.5,63.5 Z"/></g>
<g><path style="opacity:0.872" fill="#77466b" d="M 221.5,69.5 C 222.167,69.5 222.833,69.5 223.5,69.5C 227.5,72.8333 231.167,76.5 234.5,80.5C 232.565,79.8505 230.565,79.5172 228.5,79.5C 228.066,76.4453 226.399,74.2786 223.5,73C 222.177,72.1841 221.511,71.0174 221.5,69.5 Z"/></g>
<g><path style="opacity:1" fill="#8e62a2" d="M 212.5,60.5 C 215.833,63.1667 218.833,66.1667 221.5,69.5C 219.858,70.8675 218.192,71.2008 216.5,70.5C 215.779,72.686 215.113,74.8526 214.5,77C 215.692,79.6345 215.026,80.4678 212.5,79.5C 212.5,73.1667 212.5,66.8333 212.5,60.5 Z"/></g>
<g><path style="opacity:0.208" fill="#201f3e" d="M 188.5,71.5 C 184.167,76.1667 179.833,80.8333 175.5,85.5C 173.098,87.9092 170.431,89.9092 167.5,91.5C 173.889,84.1094 180.889,77.4427 188.5,71.5 Z"/></g>
<g><path style="opacity:0.403" fill="#5f3859" d="M 212.5,60.5 C 212.5,66.8333 212.5,73.1667 212.5,79.5C 212.5,91.1667 212.5,102.833 212.5,114.5C 211.998,121.677 212.665,128.677 214.5,135.5C 212.166,133.824 211.166,131.491 211.5,128.5C 211.169,105.661 211.503,82.9939 212.5,60.5 Z"/></g>
<g><path style="opacity:1" fill="#9d5895" d="M 221.5,69.5 C 221.511,71.0174 222.177,72.1841 223.5,73C 226.399,74.2786 228.066,76.4453 228.5,79.5C 228.25,80.9221 227.417,81.9221 226,82.5C 225.333,81.1667 224.667,81.1667 224,82.5C 222.955,87.5551 220.955,92.2217 218,96.5C 217.788,99.7577 217.288,102.924 216.5,106C 217.174,107.751 217.507,109.417 217.5,111C 216.874,111.75 216.374,112.584 216,113.5C 215.828,109.129 215.328,104.796 214.5,100.5C 213.833,105.317 213.166,109.983 212.5,114.5C 212.5,102.833 212.5,91.1667 212.5,79.5C 215.026,80.4678 215.692,79.6345 214.5,77C 215.113,74.8526 215.779,72.686 216.5,70.5C 218.192,71.2008 219.858,70.8675 221.5,69.5 Z"/></g>
<g><path style="opacity:1" fill="#a75087" d="M 228.5,79.5 C 230.565,79.5172 232.565,79.8505 234.5,80.5C 234.423,81.7498 233.756,82.5831 232.5,83C 233.056,83.3826 233.389,83.8826 233.5,84.5C 234.118,87.0326 233.952,89.6993 233,92.5C 232.667,91.8333 232.333,91.1667 232,90.5C 227.671,91.9033 226.838,94.2367 229.5,97.5C 227.327,100.172 224.827,102.506 222,104.5C 218.7,111.682 216.7,119.015 216,126.5C 214.781,121.491 213.947,121.824 213.5,127.5C 215.023,130.635 215.69,133.968 215.5,137.5C 214.662,137.158 214.328,136.492 214.5,135.5C 212.665,128.677 211.998,121.677 212.5,114.5C 213.166,109.983 213.833,105.317 214.5,100.5C 215.328,104.796 215.828,109.129 216,113.5C 216.374,112.584 216.874,111.75 217.5,111C 217.507,109.417 217.174,107.751 216.5,106C 217.288,102.924 217.788,99.7577 218,96.5C 220.955,92.2217 222.955,87.5551 224,82.5C 224.667,81.1667 225.333,81.1667 226,82.5C 227.417,81.9221 228.25,80.9221 228.5,79.5 Z"/></g>
<g><path style="opacity:0.962" fill="#864468" d="M 234.5,80.5 C 236.549,81.8818 238.215,83.5484 239.5,85.5C 239.833,86.1667 240.167,86.8333 240.5,87.5C 238.278,86.3124 235.945,85.3124 233.5,84.5C 233.389,83.8826 233.056,83.3826 232.5,83C 233.756,82.5831 234.423,81.7498 234.5,80.5 Z"/></g>
<g><path style="opacity:1" fill="#b04b7f" d="M 233.5,84.5 C 235.945,85.3124 238.278,86.3124 240.5,87.5C 241.167,87.5 241.5,87.8333 241.5,88.5C 239.058,88.3537 238.391,89.187 239.5,91C 237.787,92.3782 236.453,94.0448 235.5,96C 236.5,96.3333 237.5,96.6667 238.5,97C 236.016,99.9843 233.35,102.818 230.5,105.5C 227.076,109.836 224.576,114.836 223,120.5C 218.915,122.76 217.581,126.093 219,130.5C 218.667,130.833 218.333,131.167 218,131.5C 216.693,129.808 215.193,128.475 213.5,127.5C 213.947,121.824 214.781,121.491 216,126.5C 216.7,119.015 218.7,111.682 222,104.5C 224.827,102.506 227.327,100.172 229.5,97.5C 226.838,94.2367 227.671,91.9033 232,90.5C 232.333,91.1667 232.667,91.8333 233,92.5C 233.952,89.6993 234.118,87.0326 233.5,84.5 Z"/></g>
<g><path style="opacity:1" fill="#8569b8" d="M 199.5,75.5 C 200.482,78.9619 200.815,82.6286 200.5,86.5C 199.768,87.8083 198.934,89.1416 198,90.5C 197.405,88.1191 196.905,86.1191 196.5,84.5C 193.115,89.2305 191.615,94.5639 192,100.5C 191.71,98.9559 191.044,97.6226 190,96.5C 189.803,98.8609 188.636,100.528 186.5,101.5C 179.237,115.458 172.071,129.458 165,143.5C 157.397,153.485 151.397,164.485 147,176.5C 141.366,185.478 135.699,194.478 130,203.5C 128.968,209.013 126.468,213.679 122.5,217.5C 120.092,221.935 118.092,226.602 116.5,231.5C 112.652,237.438 108.652,243.272 104.5,249C 105.056,249.383 105.389,249.883 105.5,250.5C 103.16,251.572 102.827,253.239 104.5,255.5C 103.398,256.176 102.398,256.842 101.5,257.5C 101.167,257.5 100.833,257.5 100.5,257.5C 99.8333,257.833 99.1667,258.167 98.5,258.5C 98.5858,257.504 98.2524,256.671 97.5,256C 102.744,249.525 105.911,242.358 107,234.5C 107.893,235.711 108.726,235.711 109.5,234.5C 113.843,229.159 117.01,223.159 119,216.5C 121.525,212.762 124.025,209.096 126.5,205.5C 126.291,204.914 125.957,204.414 125.5,204C 130.421,198.867 134.254,192.367 137,184.5C 141.31,180.906 143.644,176.239 144,170.5C 148.888,165.393 152.221,159.393 154,152.5C 155.019,151.313 156.186,150.313 157.5,149.5C 158.517,144.315 161.017,139.982 165,136.5C 166.871,129.649 170.204,123.649 175,118.5C 178.967,109.387 183.8,100.887 189.5,93C 189.167,92.6667 188.833,92.3333 188.5,92C 190.394,90.8989 191.061,89.5655 190.5,88C 191.416,87.6258 192.25,87.1258 193,86.5C 193.619,83.9682 194.619,81.6349 196,79.5C 196.915,80.3279 197.581,81.3279 198,82.5C 199.202,80.3225 199.702,77.9892 199.5,75.5 Z"/></g>
<g><path style="opacity:0.243" fill="#501f35" d="M 239.5,85.5 C 243.771,88.1009 247.437,91.4342 250.5,95.5C 249.391,95.4431 248.391,95.1098 247.5,94.5C 245.5,92.5 243.5,90.5 241.5,88.5C 241.5,87.8333 241.167,87.5 240.5,87.5C 240.167,86.8333 239.833,86.1667 239.5,85.5 Z"/></g>
<g><path style="opacity:1" fill="#b64774" d="M 241.5,88.5 C 243.5,90.5 245.5,92.5 247.5,94.5C 245.83,94.2488 244.33,93.5822 243,92.5C 242.691,93.7659 242.191,94.9326 241.5,96C 244.651,98.8407 244.151,100.674 240,101.5C 235.258,106.572 231.591,112.905 229,120.5C 228.25,121.126 227.416,121.626 226.5,122C 227.833,123.84 227.666,124.34 226,123.5C 224.716,124.572 224.383,125.905 225,127.5C 224.259,126.359 223.425,126.359 222.5,127.5C 221.537,130.516 221.371,133.516 222,136.5C 220.16,137.833 219.66,137.666 220.5,136C 219.874,135.25 219.374,134.416 219,133.5C 218.333,132.167 217.667,132.167 217,133.5C 216.616,135.197 216.782,136.863 217.5,138.5C 216.833,138.167 216.167,137.833 215.5,137.5C 215.69,133.968 215.023,130.635 213.5,127.5C 215.193,128.475 216.693,129.808 218,131.5C 218.333,131.167 218.667,130.833 219,130.5C 217.581,126.093 218.915,122.76 223,120.5C 224.576,114.836 227.076,109.836 230.5,105.5C 233.35,102.818 236.016,99.9843 238.5,97C 237.5,96.6667 236.5,96.3333 235.5,96C 236.453,94.0448 237.787,92.3782 239.5,91C 238.391,89.187 239.058,88.3537 241.5,88.5 Z"/></g>
<g><path style="opacity:0.439" fill="#333e6f" d="M 167.5,91.5 C 165.833,95.1667 163.167,97.8333 159.5,99.5C 161.833,96.5 164.5,93.8333 167.5,91.5 Z"/></g>
<g><path style="opacity:0.318" fill="#63253b" d="M 250.5,95.5 C 252.167,96.5 253.5,97.8333 254.5,99.5C 253.5,99.5 252.5,99.5 251.5,99.5C 251.167,98.1667 250.833,96.8333 250.5,95.5 Z"/></g>
<g><path style="opacity:1" fill="#c13f62" d="M 251.5,99.5 C 252.5,99.5 253.5,99.5 254.5,99.5C 254.733,101.062 255.4,102.395 256.5,103.5C 253.901,103.451 251.734,102.451 250,100.5C 249.667,100.833 249.333,101.167 249,101.5C 249.333,103.5 249.667,105.5 250,107.5C 249.085,108.328 248.419,109.328 248,110.5C 247.667,109.833 247.333,109.167 247,108.5C 245.188,114.79 242.355,120.457 238.5,125.5C 236.972,126.861 235.305,128.028 233.5,129C 234.167,129.333 234.833,129.667 235.5,130C 234.932,131.652 233.599,133.318 231.5,135C 231.833,135.333 232.167,135.667 232.5,136C 230.646,138.543 229.479,141.376 229,144.5C 227.243,145.119 226.076,146.286 225.5,148C 226.75,150.615 228.083,153.115 229.5,155.5C 229.263,156.791 229.596,157.791 230.5,158.5C 232.892,162.539 234.225,166.873 234.5,171.5C 233.326,170.486 232.66,169.153 232.5,167.5C 230.632,162.932 228.632,158.432 226.5,154C 225.87,152.69 224.87,151.856 223.5,151.5C 223.5,150.167 223.5,148.833 223.5,147.5C 223.421,144.729 223.921,142.063 225,139.5C 228.386,133.338 231.386,127.005 234,120.5C 236.705,117.136 239.372,113.803 242,110.5C 242.456,109.256 241.956,108.423 240.5,108C 241.362,105.266 242.195,105.099 243,107.5C 245.229,104.919 246.396,101.919 246.5,98.5C 248.292,98.366 249.958,98.6993 251.5,99.5 Z"/></g>
<g><path style="opacity:0.482" fill="#631f2f" d="M 254.5,99.5 C 258.105,101.472 261.105,104.139 263.5,107.5C 261.833,106.833 260.167,106.167 258.5,105.5C 258.167,104.5 257.5,103.833 256.5,103.5C 255.4,102.395 254.733,101.062 254.5,99.5 Z"/></g>
<g><path style="opacity:1" fill="#7673ca" d="M 88.5,262.5 C 88.5,262.833 88.5,263.167 88.5,263.5C 88.1583,264.338 87.4916,264.672 86.5,264.5C 85.0034,262.458 83.3367,260.625 81.5,259C 82.5345,258.747 83.5345,257.914 84.5,256.5C 82.0546,254.636 81.8879,252.636 84,250.5C 84.5831,252.002 85.4164,253.335 86.5,254.5C 86.8333,254.167 87.1667,253.833 87.5,253.5C 87.0983,248.669 86.7649,243.336 86.5,237.5C 87.0508,234.193 87.3841,230.86 87.5,227.5C 87.2322,225.901 87.5655,224.568 88.5,223.5C 88.8333,223.5 89.1667,223.5 89.5,223.5C 89.0914,226.855 89.7581,229.855 91.5,232.5C 91.0618,232.435 90.7284,232.601 90.5,233C 92.1022,234.935 93.2689,237.101 94,239.5C 95.7426,236.632 96.2426,233.632 95.5,230.5C 96.5,229.833 97.5,229.167 98.5,228.5C 99.6405,227.575 99.6405,226.741 98.5,226C 102.5,220.333 106.5,214.667 110.5,209C 109.941,208.275 109.608,207.442 109.5,206.5C 114.79,199.379 119.457,191.879 123.5,184C 123.167,183.667 122.833,183.333 122.5,183C 128.986,174.531 134.319,165.365 138.5,155.5C 145.356,145.792 151.19,135.459 156,124.5C 157,123.833 158,123.167 159,122.5C 159.497,120.19 159.663,117.857 159.5,115.5C 159.5,114.167 159.5,112.833 159.5,111.5C 163.079,111.234 163.413,109.901 160.5,107.5C 158.38,108.872 157.38,108.205 157.5,105.5C 156.5,105.5 155.5,105.5 154.5,105.5C 156.219,103.456 157.886,101.456 159.5,99.5C 163.167,97.8333 165.833,95.1667 167.5,91.5C 170.431,89.9092 173.098,87.9092 175.5,85.5C 177.55,85.0388 179.55,84.3721 181.5,83.5C 182.583,84.365 182.749,85.365 182,86.5C 179.6,89.0591 176.767,91.0591 173.5,92.5C 173.846,93.6956 174.346,93.6956 175,92.5C 174.959,95.806 173.126,97.1393 169.5,96.5C 169.351,97.552 169.517,98.552 170,99.5C 170.914,98.3463 171.747,98.513 172.5,100C 170.833,102.333 169.167,104.667 167.5,107C 168.996,107.507 170.163,107.007 171,105.5C 168.945,112.978 165.611,120.312 161,127.5C 159.89,123.721 158.39,123.554 156.5,127C 157.448,127.483 158.448,127.649 159.5,127.5C 160.034,131.478 158.534,134.478 155,136.5C 149.599,147.739 143.599,158.406 137,168.5C 134.091,176.648 130.424,184.315 126,191.5C 125.667,191.167 125.333,190.833 125,190.5C 120.346,201.149 114.679,211.149 108,220.5C 105.458,227.916 102.125,234.916 98,241.5C 97.6758,239.431 96.8425,239.098 95.5,240.5C 94.6786,243.447 94.1786,246.447 94,249.5C 93.3086,247.109 92.3086,247.109 91,249.5C 88.5543,253.671 87.721,258.004 88.5,262.5 Z"/></g>
<g><path style="opacity:1" fill="#8e63ac" d="M 194.5,101.5 C 193.965,105.819 193.465,110.152 193,114.5C 191.933,115.191 190.766,115.691 189.5,116C 181.116,129.233 173.449,143.4 166.5,158.5C 164.443,160.269 162.61,162.269 161,164.5C 152.961,180.578 144.961,196.578 137,212.5C 134.303,215.199 131.97,218.199 130,221.5C 129.508,222.549 129.674,223.549 130.5,224.5C 127.717,228.694 125.217,233.027 123,237.5C 120.913,238.794 118.746,239.961 116.5,241C 117.108,244.453 115.775,247.119 112.5,249C 113.044,249.717 113.711,250.217 114.5,250.5C 113.992,252.233 113.159,252.566 112,251.5C 111.003,253.323 109.836,254.99 108.5,256.5C 106.194,256.993 103.861,257.326 101.5,257.5C 102.398,256.842 103.398,256.176 104.5,255.5C 102.827,253.239 103.16,251.572 105.5,250.5C 109.541,246.799 113.374,242.799 117,238.5C 117.514,235.972 118.68,233.805 120.5,232C 120.167,231.667 119.833,231.333 119.5,231C 124.279,226.494 127.446,220.994 129,214.5C 133.16,208.186 136.827,201.52 140,194.5C 142.848,191.819 144.515,188.486 145,184.5C 148.645,181.973 150.979,177.973 152,172.5C 160.927,158.319 169.093,143.652 176.5,128.5C 181.062,122.391 184.896,115.724 188,108.5C 191.107,106.899 193.273,104.565 194.5,101.5 Z"/></g>
<g><path style="opacity:1" fill="#c93a5c" d="M 256.5,103.5 C 257.5,103.833 258.167,104.5 258.5,105.5C 257.504,105.586 256.671,105.252 256,104.5C 254.878,106.624 253.378,108.457 251.5,110C 251.833,110.333 252.167,110.667 252.5,111C 248.421,116.994 245.254,123.494 243,130.5C 240.134,133.156 238.301,135.989 237.5,139C 235.014,142.137 233.181,145.637 232,149.5C 230.984,148.366 230.317,148.699 230,150.5C 229.506,152.134 229.34,153.801 229.5,155.5C 228.083,153.115 226.75,150.615 225.5,148C 226.076,146.286 227.243,145.119 229,144.5C 229.479,141.376 230.646,138.543 232.5,136C 232.167,135.667 231.833,135.333 231.5,135C 233.599,133.318 234.932,131.652 235.5,130C 234.833,129.667 234.167,129.333 233.5,129C 235.305,128.028 236.972,126.861 238.5,125.5C 242.355,120.457 245.188,114.79 247,108.5C 247.333,109.167 247.667,109.833 248,110.5C 248.419,109.328 249.085,108.328 250,107.5C 249.667,105.5 249.333,103.5 249,101.5C 249.333,101.167 249.667,100.833 250,100.5C 251.734,102.451 253.901,103.451 256.5,103.5 Z"/></g>
<g><path style="opacity:0.353" fill="#5a1317" d="M 263.5,107.5 C 266.5,109.833 269.167,112.5 271.5,115.5C 269.246,114.585 267.246,113.252 265.5,111.5C 264.4,110.395 263.733,109.062 263.5,107.5 Z"/></g>
<g><path style="opacity:1" fill="#985c9f" d="M 199.5,111.5 C 198.011,114.899 197.011,118.566 196.5,122.5C 195.833,123.833 195.167,125.167 194.5,126.5C 193.28,125.289 192.113,125.289 191,126.5C 190.667,128.833 190.333,131.167 190,133.5C 188.418,134.96 187.085,136.627 186,138.5C 185.587,141.232 184.92,143.899 184,146.5C 183.282,145.549 182.449,145.383 181.5,146C 176.137,155.223 171.137,164.723 166.5,174.5C 164.998,175.083 163.665,175.916 162.5,177C 164.672,179.123 164.839,181.289 163,183.5C 162.085,182.672 161.419,181.672 161,180.5C 157.314,189.096 153.314,197.762 149,206.5C 146.213,207.222 145.38,208.722 146.5,211C 145.551,214.958 143.384,218.124 140,220.5C 139.038,224.42 137.038,227.753 134,230.5C 132.085,233.862 131.085,237.529 131,241.5C 130.617,240.944 130.117,240.611 129.5,240.5C 128.602,239.842 127.602,239.176 126.5,238.5C 131.643,231.881 135.477,224.548 138,216.5C 141.714,214.135 143.714,210.802 144,206.5C 148.551,200.065 152.051,193.065 154.5,185.5C 157.872,183.785 159.205,181.285 158.5,178C 159.416,177.626 160.25,177.126 161,176.5C 162.725,172.881 164.558,169.381 166.5,166C 166.167,165.667 165.833,165.333 165.5,165C 174.632,153.881 181.465,141.715 186,128.5C 189.155,126.17 191.322,123.17 192.5,119.5C 193.983,121.946 195.149,121.612 196,118.5C 196.741,115.438 196.575,112.438 195.5,109.5C 196.098,108.205 196.598,106.872 197,105.5C 197.236,107.845 198.07,109.845 199.5,111.5 Z"/></g>
<g><path style="opacity:1" fill="#bd436c" d="M 247.5,94.5 C 248.391,95.1098 249.391,95.4431 250.5,95.5C 250.833,96.8333 251.167,98.1667 251.5,99.5C 249.958,98.6993 248.292,98.366 246.5,98.5C 246.396,101.919 245.229,104.919 243,107.5C 242.195,105.099 241.362,105.266 240.5,108C 241.956,108.423 242.456,109.256 242,110.5C 239.372,113.803 236.705,117.136 234,120.5C 231.386,127.005 228.386,133.338 225,139.5C 223.921,142.063 223.421,144.729 223.5,147.5C 222.391,147.443 221.391,147.11 220.5,146.5C 220.267,143.458 219.267,140.792 217.5,138.5C 216.782,136.863 216.616,135.197 217,133.5C 217.667,132.167 218.333,132.167 219,133.5C 219.374,134.416 219.874,135.25 220.5,136C 219.66,137.666 220.16,137.833 222,136.5C 221.371,133.516 221.537,130.516 222.5,127.5C 223.425,126.359 224.259,126.359 225,127.5C 224.383,125.905 224.716,124.572 226,123.5C 227.666,124.34 227.833,123.84 226.5,122C 227.416,121.626 228.25,121.126 229,120.5C 231.591,112.905 235.258,106.572 240,101.5C 244.151,100.674 244.651,98.8407 241.5,96C 242.191,94.9326 242.691,93.7659 243,92.5C 244.33,93.5822 245.83,94.2488 247.5,94.5 Z"/></g>
<g><path style="opacity:1" fill="#ce3654" d="M 258.5,105.5 C 260.167,106.167 261.833,106.833 263.5,107.5C 263.733,109.062 264.4,110.395 265.5,111.5C 263.692,111.509 262.025,111.009 260.5,110C 261.604,108.869 261.271,108.035 259.5,107.5C 258.24,109.353 258.24,111.186 259.5,113C 258.551,113.617 257.718,113.451 257,112.5C 255.569,116.447 253.236,119.781 250,122.5C 249.502,129.15 246.502,134.817 241,139.5C 238.794,142.768 236.961,146.268 235.5,150C 236.15,151.609 235.65,153.109 234,154.5C 233.259,153.359 232.425,153.359 231.5,154.5C 230.571,155.689 230.238,157.022 230.5,158.5C 229.596,157.791 229.263,156.791 229.5,155.5C 229.34,153.801 229.506,152.134 230,150.5C 230.317,148.699 230.984,148.366 232,149.5C 233.181,145.637 235.014,142.137 237.5,139C 238.301,135.989 240.134,133.156 243,130.5C 245.254,123.494 248.421,116.994 252.5,111C 252.167,110.667 251.833,110.333 251.5,110C 253.378,108.457 254.878,106.624 256,104.5C 256.671,105.252 257.504,105.586 258.5,105.5 Z"/></g>
<g><path style="opacity:1" fill="#945fa5" d="M 200.5,95.5 C 200.227,100.667 200.227,105.667 200.5,110.5C 200.5,110.833 200.5,111.167 200.5,111.5C 200.167,111.5 199.833,111.5 199.5,111.5C 198.07,109.845 197.236,107.845 197,105.5C 196.598,106.872 196.098,108.205 195.5,109.5C 196.575,112.438 196.741,115.438 196,118.5C 195.149,121.612 193.983,121.946 192.5,119.5C 191.322,123.17 189.155,126.17 186,128.5C 181.465,141.715 174.632,153.881 165.5,165C 165.833,165.333 166.167,165.667 166.5,166C 164.558,169.381 162.725,172.881 161,176.5C 160.25,177.126 159.416,177.626 158.5,178C 159.205,181.285 157.872,183.785 154.5,185.5C 152.051,193.065 148.551,200.065 144,206.5C 143.714,210.802 141.714,214.135 138,216.5C 135.477,224.548 131.643,231.881 126.5,238.5C 127.602,239.176 128.602,239.842 129.5,240.5C 127.896,241.287 127.229,242.62 127.5,244.5C 123.584,247.257 119.251,249.257 114.5,250.5C 113.711,250.217 113.044,249.717 112.5,249C 115.775,247.119 117.108,244.453 116.5,241C 118.746,239.961 120.913,238.794 123,237.5C 125.217,233.027 127.717,228.694 130.5,224.5C 129.674,223.549 129.508,222.549 130,221.5C 131.97,218.199 134.303,215.199 137,212.5C 144.961,196.578 152.961,180.578 161,164.5C 162.61,162.269 164.443,160.269 166.5,158.5C 173.449,143.4 181.116,129.233 189.5,116C 190.766,115.691 191.933,115.191 193,114.5C 193.465,110.152 193.965,105.819 194.5,101.5C 194.739,99.5328 194.406,97.6995 193.5,96C 195.903,96.4231 198.237,96.2564 200.5,95.5 Z"/></g>
<g><path style="opacity:1" fill="#d3324b" d="M 265.5,111.5 C 267.246,113.252 269.246,114.585 271.5,115.5C 271.973,116.906 272.973,117.573 274.5,117.5C 274.557,118.609 274.89,119.609 275.5,120.5C 273.589,119.925 271.922,118.925 270.5,117.5C 269.391,116.71 268.058,116.21 266.5,116C 264.05,111.353 262.716,111.353 262.5,116C 260.559,116.743 258.726,116.576 257,115.5C 256.833,116.167 256.667,116.833 256.5,117.5C 257.523,119.003 258.523,120.503 259.5,122C 256.285,124.61 254.785,128.11 255,132.5C 253.667,133.833 252.333,135.167 251,136.5C 247.949,141.934 245.449,147.6 243.5,153.5C 242.448,153.351 241.448,153.517 240.5,154C 240.941,158.332 239.441,162.166 236,165.5C 235.333,167.167 235.333,168.833 236,170.5C 236.667,171.833 237.333,171.833 238,170.5C 238.494,172.134 238.66,173.801 238.5,175.5C 237.717,173.672 236.384,172.339 234.5,171.5C 234.225,166.873 232.892,162.539 230.5,158.5C 230.238,157.022 230.571,155.689 231.5,154.5C 232.425,153.359 233.259,153.359 234,154.5C 235.65,153.109 236.15,151.609 235.5,150C 236.961,146.268 238.794,142.768 241,139.5C 246.502,134.817 249.502,129.15 250,122.5C 253.236,119.781 255.569,116.447 257,112.5C 257.718,113.451 258.551,113.617 259.5,113C 258.24,111.186 258.24,109.353 259.5,107.5C 261.271,108.035 261.604,108.869 260.5,110C 262.025,111.009 263.692,111.509 265.5,111.5 Z"/></g>
<g><path style="opacity:0.012" fill="#350a04" d="M 271.5,115.5 C 273.027,115.427 274.027,116.094 274.5,117.5C 272.973,117.573 271.973,116.906 271.5,115.5 Z"/></g>
<g><path style="opacity:0.271" fill="#470e0d" d="M 274.5,117.5 C 278.167,120.5 281.5,123.833 284.5,127.5C 283.833,127.5 283.167,127.5 282.5,127.5C 280.473,124.806 278.139,122.473 275.5,120.5C 274.89,119.609 274.557,118.609 274.5,117.5 Z"/></g>
<g><path style="opacity:1" fill="#e12a3a" d="M 270.5,117.5 C 271.922,118.925 273.589,119.925 275.5,120.5C 278.139,122.473 280.473,124.806 282.5,127.5C 280.326,127.25 278.659,126.25 277.5,124.5C 276.739,123.609 275.739,122.942 274.5,122.5C 271.49,123.836 268.49,125.169 265.5,126.5C 265.686,131.996 263.686,136.829 259.5,141C 259.833,141.333 260.167,141.667 260.5,142C 259.437,143.188 258.103,143.688 256.5,143.5C 256.93,146.862 255.93,149.695 253.5,152C 253.833,152.333 254.167,152.667 254.5,153C 251.133,157.748 248.133,162.748 245.5,168C 245.833,168.333 246.167,168.667 246.5,169C 245.5,169.333 244.5,169.667 243.5,170C 244.458,171.147 244.125,172.147 242.5,173C 242.784,174.956 242.784,177.123 242.5,179.5C 239.686,176.523 239.186,173.19 241,169.5C 242.713,168.122 244.047,166.455 245,164.5C 246.754,157.652 249.088,150.986 252,144.5C 253.011,143.663 254.178,143.33 255.5,143.5C 255.833,140.833 256.167,138.167 256.5,135.5C 257.822,135.67 258.989,135.337 260,134.5C 261.796,130.149 263.463,125.816 265,121.5C 265.718,122.451 266.551,122.617 267.5,122C 266.62,120.644 266.286,119.144 266.5,117.5C 267.833,117.5 269.167,117.5 270.5,117.5 Z"/></g>
<g><path style="opacity:1" fill="#dd2c41" d="M 270.5,117.5 C 269.167,117.5 267.833,117.5 266.5,117.5C 266.286,119.144 266.62,120.644 267.5,122C 266.551,122.617 265.718,122.451 265,121.5C 263.463,125.816 261.796,130.149 260,134.5C 258.989,135.337 257.822,135.67 256.5,135.5C 256.167,138.167 255.833,140.833 255.5,143.5C 254.178,143.33 253.011,143.663 252,144.5C 249.088,150.986 246.754,157.652 245,164.5C 244.047,166.455 242.713,168.122 241,169.5C 239.186,173.19 239.686,176.523 242.5,179.5C 242.5,180.5 242.5,181.5 242.5,182.5C 241.527,180.861 240.194,179.527 238.5,178.5C 238.5,177.5 238.5,176.5 238.5,175.5C 238.66,173.801 238.494,172.134 238,170.5C 237.333,171.833 236.667,171.833 236,170.5C 235.333,168.833 235.333,167.167 236,165.5C 239.441,162.166 240.941,158.332 240.5,154C 241.448,153.517 242.448,153.351 243.5,153.5C 245.449,147.6 247.949,141.934 251,136.5C 252.333,135.167 253.667,133.833 255,132.5C 254.785,128.11 256.285,124.61 259.5,122C 258.523,120.503 257.523,119.003 256.5,117.5C 256.667,116.833 256.833,116.167 257,115.5C 258.726,116.576 260.559,116.743 262.5,116C 262.716,111.353 264.05,111.353 266.5,116C 268.058,116.21 269.391,116.71 270.5,117.5 Z"/></g>
<g><path style="opacity:0.22" fill="#25315e" d="M 159.5,99.5 C 157.886,101.456 156.219,103.456 154.5,105.5C 148.807,110.861 143.14,116.195 137.5,121.5C 128.473,130.194 119.473,138.861 110.5,147.5C 109.833,147.833 109.167,148.167 108.5,148.5C 110.22,145.269 112.553,142.436 115.5,140C 130.009,126.26 144.676,112.76 159.5,99.5 Z"/></g>
<g><path style="opacity:1" fill="#e72b36" d="M 277.5,124.5 C 273.21,126.292 272.877,129.125 276.5,133C 275.939,134.566 276.606,135.899 278.5,137C 276.364,139.112 274.364,138.945 272.5,136.5C 271.692,136.808 271.025,137.308 270.5,138C 271.5,139 272.5,140 273.5,141C 266.947,149.17 261.447,159.003 257,170.5C 256.683,168.699 256.016,168.366 255,169.5C 255,170.833 255,172.167 255,173.5C 253.025,173.508 251.191,174.508 249.5,176.5C 250.383,177.548 251.05,178.715 251.5,180C 249.801,183.281 248.134,186.447 246.5,189.5C 244.917,187.337 243.584,185.004 242.5,182.5C 242.5,181.5 242.5,180.5 242.5,179.5C 242.784,177.123 242.784,174.956 242.5,173C 244.125,172.147 244.458,171.147 243.5,170C 244.5,169.667 245.5,169.333 246.5,169C 246.167,168.667 245.833,168.333 245.5,168C 248.133,162.748 251.133,157.748 254.5,153C 254.167,152.667 253.833,152.333 253.5,152C 255.93,149.695 256.93,146.862 256.5,143.5C 258.103,143.688 259.437,143.188 260.5,142C 260.167,141.667 259.833,141.333 259.5,141C 263.686,136.829 265.686,131.996 265.5,126.5C 268.49,125.169 271.49,123.836 274.5,122.5C 275.739,122.942 276.739,123.609 277.5,124.5 Z"/></g>
<g><path style="opacity:0.997" fill="#c73e3f" d="M 282.5,127.5 C 283.167,127.5 283.833,127.5 284.5,127.5C 286.795,131.462 289.795,134.795 293.5,137.5C 290.697,137.039 288.363,135.705 286.5,133.5C 283.266,132.911 281.933,130.911 282.5,127.5 Z"/></g>
<g><path style="opacity:1" fill="#e73535" d="M 277.5,124.5 C 278.659,126.25 280.326,127.25 282.5,127.5C 281.933,130.911 283.266,132.911 286.5,133.5C 285.5,133.5 284.5,133.5 283.5,133.5C 282.059,137.536 279.726,141.036 276.5,144C 279.028,145.316 279.028,146.483 276.5,147.5C 275.571,148.689 275.238,150.022 275.5,151.5C 274.448,151.351 273.448,151.517 272.5,152C 272.083,154.989 270.583,157.822 268,160.5C 266.07,167.804 262.403,174.471 257,180.5C 255.214,184.791 254.547,189.124 255,193.5C 253.846,192.257 252.512,191.257 251,190.5C 250.366,193.555 250.532,196.555 251.5,199.5C 250.833,199.5 250.167,199.5 249.5,199.5C 249.5,199.167 249.5,198.833 249.5,198.5C 249.573,196.973 248.906,195.973 247.5,195.5C 247.167,193.5 246.833,191.5 246.5,189.5C 248.134,186.447 249.801,183.281 251.5,180C 251.05,178.715 250.383,177.548 249.5,176.5C 251.191,174.508 253.025,173.508 255,173.5C 255,172.167 255,170.833 255,169.5C 256.016,168.366 256.683,168.699 257,170.5C 261.447,159.003 266.947,149.17 273.5,141C 272.5,140 271.5,139 270.5,138C 271.025,137.308 271.692,136.808 272.5,136.5C 274.364,138.945 276.364,139.112 278.5,137C 276.606,135.899 275.939,134.566 276.5,133C 272.877,129.125 273.21,126.292 277.5,124.5 Z"/></g>
<g><path style="opacity:0.141" fill="#2e1224" d="M 201.5,132.5 C 201.25,134.674 200.25,136.341 198.5,137.5C 198.75,135.326 199.75,133.659 201.5,132.5 Z"/></g>
<g><path style="opacity:0.149" fill="#420f0d" d="M 284.5,127.5 C 291.464,132.797 297.798,138.797 303.5,145.5C 299.897,143.237 296.564,140.57 293.5,137.5C 289.795,134.795 286.795,131.462 284.5,127.5 Z"/></g>
<g><path style="opacity:1" fill="#9d5791" d="M 200.5,110.5 C 201.492,117.648 201.825,124.981 201.5,132.5C 199.75,133.659 198.75,135.326 198.5,137.5C 195.229,139.48 193.562,142.48 193.5,146.5C 193.672,147.492 193.338,148.158 192.5,148.5C 190.412,150.336 189.079,152.669 188.5,155.5C 187.603,156.598 186.77,156.598 186,155.5C 185.506,157.134 185.34,158.801 185.5,160.5C 182.508,163.135 180.508,166.468 179.5,170.5C 178.504,170.414 177.671,170.748 177,171.5C 176.08,173.632 174.913,175.632 173.5,177.5C 172.817,177.137 172.15,176.804 171.5,176.5C 174.286,171.703 176.12,166.37 177,160.5C 178.385,161.551 179.385,162.884 180,164.5C 180.5,164 181,163.5 181.5,163C 181.167,160.667 180.833,158.333 180.5,156C 182.821,155.06 184.988,153.56 187,151.5C 187.833,149.833 188.667,148.167 189.5,146.5C 188.313,145.481 187.313,144.314 186.5,143C 187.227,141.601 187.727,140.101 188,138.5C 189.333,137.833 190.333,136.833 191,135.5C 191.333,135.833 191.667,136.167 192,136.5C 191.686,133.454 191.853,130.454 192.5,127.5C 193.281,128.737 194.281,129.737 195.5,130.5C 198.3,124.514 199.967,118.181 200.5,111.5C 200.5,111.167 200.5,110.833 200.5,110.5 Z"/></g>
<g><path style="opacity:1" fill="#617fd7" d="M 137.5,121.5 C 136.271,124.566 134.437,127.233 132,129.5C 127.5,132.156 124.334,135.822 122.5,140.5C 121.07,140.421 119.736,140.754 118.5,141.5C 117.777,144.07 116.61,146.403 115,148.5C 113.571,148.53 112.071,148.197 110.5,147.5C 119.473,138.861 128.473,130.194 137.5,121.5 Z"/></g>
<g><path style="opacity:0.82" fill="#642638" d="M 215.5,137.5 C 216.167,137.833 216.833,138.167 217.5,138.5C 219.267,140.792 220.267,143.458 220.5,146.5C 218.076,143.992 216.41,140.992 215.5,137.5 Z"/></g>
<g><path style="opacity:1" fill="#eb4133" d="M 286.5,133.5 C 288.363,135.705 290.697,137.039 293.5,137.5C 294.34,139.853 295.674,141.853 297.5,143.5C 297.5,144.167 297.5,144.833 297.5,145.5C 295.374,145.85 293.041,145.85 290.5,145.5C 290.66,147.199 290.494,148.866 290,150.5C 287.293,152.572 286.293,155.239 287,158.5C 287.333,157.833 287.667,157.167 288,156.5C 288.92,156.93 289.753,157.264 290.5,157.5C 288.667,159.05 286.501,160.05 284,160.5C 281.621,165.193 279.287,169.86 277,174.5C 276.25,175.126 275.416,175.626 274.5,176C 274.959,177.943 273.959,179.276 271.5,180C 271.957,180.414 272.291,180.914 272.5,181.5C 270.816,184.612 270.15,187.946 270.5,191.5C 269.022,191.238 267.689,191.571 266.5,192.5C 263.691,196.962 261.358,201.629 259.5,206.5C 258.5,206.5 257.5,206.5 256.5,206.5C 255.27,204.703 254.604,202.703 254.5,200.5C 253.5,200.5 252.5,200.5 251.5,200.5C 251.5,200.167 251.5,199.833 251.5,199.5C 250.532,196.555 250.366,193.555 251,190.5C 252.512,191.257 253.846,192.257 255,193.5C 254.547,189.124 255.214,184.791 257,180.5C 262.403,174.471 266.07,167.804 268,160.5C 270.583,157.822 272.083,154.989 272.5,152C 273.448,151.517 274.448,151.351 275.5,151.5C 275.238,150.022 275.571,148.689 276.5,147.5C 279.028,146.483 279.028,145.316 276.5,144C 279.726,141.036 282.059,137.536 283.5,133.5C 284.5,133.5 285.5,133.5 286.5,133.5 Z"/></g>
<g><path style="opacity:1" fill="#7377d2" d="M 159.5,115.5 C 159.663,117.857 159.497,120.19 159,122.5C 158,123.167 157,123.833 156,124.5C 151.19,135.459 145.356,145.792 138.5,155.5C 134.319,165.365 128.986,174.531 122.5,183C 122.833,183.333 123.167,183.667 123.5,184C 119.457,191.879 114.79,199.379 109.5,206.5C 109.608,207.442 109.941,208.275 110.5,209C 106.5,214.667 102.5,220.333 98.5,226C 99.6405,226.741 99.6405,227.575 98.5,228.5C 97.5,229.167 96.5,229.833 95.5,230.5C 96.2426,233.632 95.7426,236.632 94,239.5C 93.2689,237.101 92.1022,234.935 90.5,233C 90.7284,232.601 91.0618,232.435 91.5,232.5C 94.0036,230.318 94.6703,227.651 93.5,224.5C 93.8773,222.176 94.8773,221.509 96.5,222.5C 97.4776,222.023 98.3109,221.357 99,220.5C 102.23,215.87 105.063,211.037 107.5,206C 107.167,205.667 106.833,205.333 106.5,205C 107.653,203.117 109.319,202.284 111.5,202.5C 110.536,198.743 111.702,195.41 115,192.5C 119.337,182.48 124.67,173.147 131,164.5C 132.595,162.575 132.762,160.575 131.5,158.5C 134.057,153.487 137.39,148.987 141.5,145C 140.941,144.275 140.608,143.442 140.5,142.5C 142.99,139.54 145.49,136.54 148,133.5C 148.333,131.833 148.667,130.167 149,128.5C 150.947,127.89 152.781,127.057 154.5,126C 154.167,125.667 153.833,125.333 153.5,125C 155.376,120.913 157.376,117.746 159.5,115.5 Z"/></g>
<g><path style="opacity:0.592" fill="#4d2a42" d="M 198.5,137.5 C 197.59,140.992 195.924,143.992 193.5,146.5C 193.562,142.48 195.229,139.48 198.5,137.5 Z"/></g>
<g><path style="opacity:0.988" fill="#bc5339" d="M 293.5,137.5 C 296.564,140.57 299.897,143.237 303.5,145.5C 303.5,146.167 303.5,146.833 303.5,147.5C 302.448,147.649 301.448,147.483 300.5,147C 299.837,145.482 298.837,144.315 297.5,143.5C 295.674,141.853 294.34,139.853 293.5,137.5 Z"/></g>
<g><path style="opacity:0.729" fill="#5e2537" d="M 220.5,146.5 C 221.391,147.11 222.391,147.443 223.5,147.5C 223.5,148.833 223.5,150.167 223.5,151.5C 221.75,150.341 220.75,148.674 220.5,146.5 Z"/></g>
<g><path style="opacity:1" fill="#7c70c4" d="M 191.5,70.5 C 192.478,70.811 193.145,71.4777 193.5,72.5C 191.456,75.3709 189.123,78.0375 186.5,80.5C 186.088,85.8308 183.755,89.9975 179.5,93C 180.328,93.9147 181.328,94.5814 182.5,95C 175.071,106.252 168.571,118.085 163,130.5C 155.62,141.262 149.286,152.595 144,164.5C 138.85,169.797 135.517,176.13 134,183.5C 129.984,188.686 126.151,194.019 122.5,199.5C 120.616,204.937 118.449,210.27 116,215.5C 114.846,216.743 113.512,217.743 112,218.5C 111.461,221.529 110.794,224.529 110,227.5C 102.753,235.99 97.5864,245.657 94.5,256.5C 93.2054,257.098 91.8721,257.598 90.5,258C 91.1666,259.857 90.4999,261.357 88.5,262.5C 87.721,258.004 88.5543,253.671 91,249.5C 92.3086,247.109 93.3086,247.109 94,249.5C 94.1786,246.447 94.6786,243.447 95.5,240.5C 96.8425,239.098 97.6758,239.431 98,241.5C 102.125,234.916 105.458,227.916 108,220.5C 114.679,211.149 120.346,201.149 125,190.5C 125.333,190.833 125.667,191.167 126,191.5C 130.424,184.315 134.091,176.648 137,168.5C 143.599,158.406 149.599,147.739 155,136.5C 158.534,134.478 160.034,131.478 159.5,127.5C 158.448,127.649 157.448,127.483 156.5,127C 158.39,123.554 159.89,123.721 161,127.5C 165.611,120.312 168.945,112.978 171,105.5C 170.163,107.007 168.996,107.507 167.5,107C 169.167,104.667 170.833,102.333 172.5,100C 171.747,98.513 170.914,98.3463 170,99.5C 169.517,98.552 169.351,97.552 169.5,96.5C 173.126,97.1393 174.959,95.806 175,92.5C 174.346,93.6956 173.846,93.6956 173.5,92.5C 176.767,91.0591 179.6,89.0591 182,86.5C 182.749,85.365 182.583,84.365 181.5,83.5C 179.55,84.3721 177.55,85.0388 175.5,85.5C 179.833,80.8333 184.167,76.1667 188.5,71.5C 189.609,71.4431 190.609,71.1098 191.5,70.5 Z"/></g>
<g><path style="opacity:0.11" fill="#321428" d="M 192.5,148.5 C 191.921,151.331 190.588,153.664 188.5,155.5C 189.079,152.669 190.412,150.336 192.5,148.5 Z"/></g>
<g><path style="opacity:0.086" fill="#222d59" d="M 108.5,148.5 C 108.267,151.542 107.267,154.208 105.5,156.5C 105.733,153.458 106.733,150.792 108.5,148.5 Z"/></g>
<g><path style="opacity:1" fill="#5a75c4" d="M 110.5,147.5 C 107.521,156.575 105.188,165.908 103.5,175.5C 102.818,176.243 102.151,176.909 101.5,177.5C 101.167,177.5 100.833,177.5 100.5,177.5C 100.216,175.585 100.549,173.919 101.5,172.5C 103.822,167.512 105.155,162.179 105.5,156.5C 107.267,154.208 108.267,151.542 108.5,148.5C 109.167,148.167 109.833,147.833 110.5,147.5 Z"/></g>
<g><path style="opacity:1" fill="#9d5896" d="M 199.5,111.5 C 199.833,111.5 200.167,111.5 200.5,111.5C 199.967,118.181 198.3,124.514 195.5,130.5C 194.281,129.737 193.281,128.737 192.5,127.5C 191.853,130.454 191.686,133.454 192,136.5C 191.667,136.167 191.333,135.833 191,135.5C 190.333,136.833 189.333,137.833 188,138.5C 187.727,140.101 187.227,141.601 186.5,143C 187.313,144.314 188.313,145.481 189.5,146.5C 188.667,148.167 187.833,149.833 187,151.5C 184.988,153.56 182.821,155.06 180.5,156C 180.833,158.333 181.167,160.667 181.5,163C 181,163.5 180.5,164 180,164.5C 179.385,162.884 178.385,161.551 177,160.5C 176.12,166.37 174.286,171.703 171.5,176.5C 170.972,177.721 170.305,178.887 169.5,180C 171.107,181.049 171.773,182.549 171.5,184.5C 169.273,186.229 168.273,188.562 168.5,191.5C 166.657,192.246 165.324,193.579 164.5,195.5C 163.914,195.291 163.414,194.957 163,194.5C 161.338,198.728 160.171,203.061 159.5,207.5C 157.245,209.986 154.911,212.486 152.5,215C 152.957,215.414 153.291,215.914 153.5,216.5C 152.253,218.323 151.586,220.323 151.5,222.5C 148.448,223.777 147.115,226.11 147.5,229.5C 147.672,230.492 147.338,231.158 146.5,231.5C 144.952,231.821 144.285,232.821 144.5,234.5C 141.956,235.708 140.622,237.708 140.5,240.5C 136.155,241.672 131.821,243.005 127.5,244.5C 127.229,242.62 127.896,241.287 129.5,240.5C 130.117,240.611 130.617,240.944 131,241.5C 131.085,237.529 132.085,233.862 134,230.5C 137.038,227.753 139.038,224.42 140,220.5C 143.384,218.124 145.551,214.958 146.5,211C 145.38,208.722 146.213,207.222 149,206.5C 153.314,197.762 157.314,189.096 161,180.5C 161.419,181.672 162.085,182.672 163,183.5C 164.839,181.289 164.672,179.123 162.5,177C 163.665,175.916 164.998,175.083 166.5,174.5C 171.137,164.723 176.137,155.223 181.5,146C 182.449,145.383 183.282,145.549 184,146.5C 184.92,143.899 185.587,141.232 186,138.5C 187.085,136.627 188.418,134.96 190,133.5C 190.333,131.167 190.667,128.833 191,126.5C 192.113,125.289 193.28,125.289 194.5,126.5C 195.167,125.167 195.833,123.833 196.5,122.5C 197.011,118.566 198.011,114.899 199.5,111.5 Z"/></g>
<g><path style="opacity:1" fill="#6c7ad9" d="M 154.5,105.5 C 155.5,105.5 156.5,105.5 157.5,105.5C 157.38,108.205 158.38,108.872 160.5,107.5C 163.413,109.901 163.079,111.234 159.5,111.5C 159.5,112.833 159.5,114.167 159.5,115.5C 157.376,117.746 155.376,120.913 153.5,125C 153.833,125.333 154.167,125.667 154.5,126C 152.781,127.057 150.947,127.89 149,128.5C 148.667,130.167 148.333,131.833 148,133.5C 145.49,136.54 142.99,139.54 140.5,142.5C 140.608,143.442 140.941,144.275 141.5,145C 137.39,148.987 134.057,153.487 131.5,158.5C 132.762,160.575 132.595,162.575 131,164.5C 124.67,173.147 119.337,182.48 115,192.5C 111.702,195.41 110.536,198.743 111.5,202.5C 109.319,202.284 107.653,203.117 106.5,205C 106.833,205.333 107.167,205.667 107.5,206C 105.063,211.037 102.23,215.87 99,220.5C 98.3109,221.357 97.4776,222.023 96.5,222.5C 94.8773,221.509 93.8773,222.176 93.5,224.5C 94.6703,227.651 94.0036,230.318 91.5,232.5C 89.7581,229.855 89.0914,226.855 89.5,223.5C 94.115,218.526 95.7816,212.526 94.5,205.5C 94.5,203.833 94.5,202.167 94.5,200.5C 96.2809,196.8 97.2809,192.8 97.5,188.5C 97.2322,186.901 97.5655,185.568 98.5,184.5C 99.9238,182.485 100.59,180.152 100.5,177.5C 100.833,177.5 101.167,177.5 101.5,177.5C 101.538,180.807 100.872,183.974 99.5,187C 101.037,187.383 102.37,188.216 103.5,189.5C 102.737,190.719 101.737,191.719 100.5,192.5C 101.432,194.795 102.265,197.129 103,199.5C 103.915,198.672 104.581,197.672 105,196.5C 105.671,191.062 106.504,185.728 107.5,180.5C 110.374,180.377 112.874,179.377 115,177.5C 116.53,172.712 118.363,168.045 120.5,163.5C 123.833,158.5 127.167,153.5 130.5,148.5C 131.897,145.119 131.564,141.953 129.5,139C 131.39,137.096 133.724,135.93 136.5,135.5C 137.79,133.343 138.624,131.01 139,128.5C 143.169,126.298 144.169,123.632 142,120.5C 141.333,121.167 140.667,121.833 140,122.5C 139.329,121.748 138.496,121.414 137.5,121.5C 143.14,116.195 148.807,110.861 154.5,105.5 Z"/></g>
<g><path style="opacity:0.765" fill="#5a324f" d="M 188.5,155.5 C 188.25,157.674 187.25,159.341 185.5,160.5C 185.34,158.801 185.506,157.134 186,155.5C 186.77,156.598 187.603,156.598 188.5,155.5 Z"/></g>
<g><path style="opacity:1" fill="#ec4f33" d="M 297.5,145.5 C 298.404,146.209 298.737,147.209 298.5,148.5C 300.429,148.231 302.095,148.731 303.5,150C 300.789,153.712 297.456,156.712 293.5,159C 295.002,159.583 296.335,160.416 297.5,161.5C 295.958,161.694 294.625,162.861 293.5,165C 294.345,166.558 293.679,167.558 291.5,168C 292.299,170.228 291.299,171.561 288.5,172C 288.833,172.333 289.167,172.667 289.5,173C 289.004,174.996 288.004,176.663 286.5,178C 286.833,178.333 287.167,178.667 287.5,179C 286.272,181.14 284.605,182.807 282.5,184C 282.833,184.333 283.167,184.667 283.5,185C 281.996,186.491 281.163,188.324 281,190.5C 280.315,193.057 278.815,194.891 276.5,196C 277.451,196.718 277.617,197.551 277,198.5C 275.951,200.403 274.284,202.403 272,204.5C 272.988,206.92 272.655,209.253 271,211.5C 269.294,210.692 268.461,209.359 268.5,207.5C 267.5,207.5 266.5,207.5 265.5,207.5C 265.539,211.174 266.539,214.507 268.5,217.5C 268.167,218.5 267.833,219.5 267.5,220.5C 267.81,218.799 267.31,217.132 266,215.5C 264.705,216.841 264.205,218.174 264.5,219.5C 263.482,218.807 262.482,218.141 261.5,217.5C 260.833,217.5 260.5,217.167 260.5,216.5C 260.138,212.741 258.805,209.407 256.5,206.5C 257.5,206.5 258.5,206.5 259.5,206.5C 261.358,201.629 263.691,196.962 266.5,192.5C 267.689,191.571 269.022,191.238 270.5,191.5C 270.15,187.946 270.816,184.612 272.5,181.5C 272.291,180.914 271.957,180.414 271.5,180C 273.959,179.276 274.959,177.943 274.5,176C 275.416,175.626 276.25,175.126 277,174.5C 279.287,169.86 281.621,165.193 284,160.5C 286.501,160.05 288.667,159.05 290.5,157.5C 289.753,157.264 288.92,156.93 288,156.5C 287.667,157.167 287.333,157.833 287,158.5C 286.293,155.239 287.293,152.572 290,150.5C 290.494,148.866 290.66,147.199 290.5,145.5C 293.041,145.85 295.374,145.85 297.5,145.5 Z"/></g>
<g><path style="opacity:0.286" fill="#682618" d="M 303.5,145.5 C 305.173,146.343 306.34,147.676 307,149.5C 308.15,153.112 308.983,156.778 309.5,160.5C 308.833,160.167 308.167,159.833 307.5,159.5C 307.074,155.098 305.74,151.098 303.5,147.5C 303.5,146.833 303.5,146.167 303.5,145.5 Z"/></g>
<g><path style="opacity:0.11" fill="#19234a" d="M 105.5,156.5 C 105.155,162.179 103.822,167.512 101.5,172.5C 102.261,166.909 103.595,161.576 105.5,156.5 Z"/></g>
<g><path style="opacity:1" fill="#6182e9" d="M 101.5,177.5 C 102.151,176.909 102.818,176.243 103.5,175.5C 105.188,165.908 107.521,156.575 110.5,147.5C 112.071,148.197 113.571,148.53 115,148.5C 116.61,146.403 117.777,144.07 118.5,141.5C 119.736,140.754 121.07,140.421 122.5,140.5C 124.334,135.822 127.5,132.156 132,129.5C 134.437,127.233 136.271,124.566 137.5,121.5C 138.496,121.414 139.329,121.748 140,122.5C 140.667,121.833 141.333,121.167 142,120.5C 144.169,123.632 143.169,126.298 139,128.5C 138.624,131.01 137.79,133.343 136.5,135.5C 133.724,135.93 131.39,137.096 129.5,139C 131.564,141.953 131.897,145.119 130.5,148.5C 127.167,153.5 123.833,158.5 120.5,163.5C 118.363,168.045 116.53,172.712 115,177.5C 112.874,179.377 110.374,180.377 107.5,180.5C 106.504,185.728 105.671,191.062 105,196.5C 104.581,197.672 103.915,198.672 103,199.5C 102.265,197.129 101.432,194.795 100.5,192.5C 101.737,191.719 102.737,190.719 103.5,189.5C 102.37,188.216 101.037,187.383 99.5,187C 100.872,183.974 101.538,180.807 101.5,177.5 Z"/></g>
<g><path style="opacity:0.157" fill="#631d29" d="M 223.5,151.5 C 224.87,151.856 225.87,152.69 226.5,154C 228.632,158.432 230.632,162.932 232.5,167.5C 228.707,162.684 225.707,157.35 223.5,151.5 Z"/></g>
<g><path style="opacity:1" fill="#ed5b32" d="M 297.5,143.5 C 298.837,144.315 299.837,145.482 300.5,147C 301.448,147.483 302.448,147.649 303.5,147.5C 305.74,151.098 307.074,155.098 307.5,159.5C 307.5,159.833 307.5,160.167 307.5,160.5C 306.883,160.389 306.383,160.056 306,159.5C 305.73,162.224 305.23,164.891 304.5,167.5C 298.525,174.766 293.025,182.433 288,190.5C 287.265,193.887 286.598,197.554 286,201.5C 284.516,204.356 282.516,206.689 280,208.5C 278.744,212.016 276.744,215.016 274,217.5C 273.959,219.888 273.126,222.221 271.5,224.5C 271.167,224.833 270.833,225.167 270.5,225.5C 269.742,224.189 268.742,223.689 267.5,224C 268.085,225.302 268.751,226.469 269.5,227.5C 269.5,227.833 269.5,228.167 269.5,228.5C 268.222,228.218 267.222,227.551 266.5,226.5C 264.089,224.02 262.422,221.02 261.5,217.5C 262.482,218.141 263.482,218.807 264.5,219.5C 264.205,218.174 264.705,216.841 266,215.5C 267.31,217.132 267.81,218.799 267.5,220.5C 267.833,219.5 268.167,218.5 268.5,217.5C 266.539,214.507 265.539,211.174 265.5,207.5C 266.5,207.5 267.5,207.5 268.5,207.5C 268.461,209.359 269.294,210.692 271,211.5C 272.655,209.253 272.988,206.92 272,204.5C 274.284,202.403 275.951,200.403 277,198.5C 277.617,197.551 277.451,196.718 276.5,196C 278.815,194.891 280.315,193.057 281,190.5C 281.163,188.324 281.996,186.491 283.5,185C 283.167,184.667 282.833,184.333 282.5,184C 284.605,182.807 286.272,181.14 287.5,179C 287.167,178.667 286.833,178.333 286.5,178C 288.004,176.663 289.004,174.996 289.5,173C 289.167,172.667 288.833,172.333 288.5,172C 291.299,171.561 292.299,170.228 291.5,168C 293.679,167.558 294.345,166.558 293.5,165C 294.625,162.861 295.958,161.694 297.5,161.5C 296.335,160.416 295.002,159.583 293.5,159C 297.456,156.712 300.789,153.712 303.5,150C 302.095,148.731 300.429,148.231 298.5,148.5C 298.737,147.209 298.404,146.209 297.5,145.5C 297.5,144.833 297.5,144.167 297.5,143.5 Z"/></g>
<g><path style="opacity:0.639" fill="#522d48" d="M 185.5,160.5 C 184.258,164.655 182.258,168.322 179.5,171.5C 179.5,171.167 179.5,170.833 179.5,170.5C 180.508,166.468 182.508,163.135 185.5,160.5 Z"/></g>
<g><path style="opacity:1" fill="#c56033" d="M 307.5,159.5 C 308.167,159.833 308.833,160.167 309.5,160.5C 310.301,162.042 310.634,163.708 310.5,165.5C 310.338,167.527 310.505,169.527 311,171.5C 311.383,172.056 311.883,172.389 312.5,172.5C 313.634,175.37 314.3,178.37 314.5,181.5C 314.674,183.861 315.007,186.194 315.5,188.5C 315.167,188.5 314.833,188.5 314.5,188.5C 313.256,183.027 311.589,177.693 309.5,172.5C 309.631,171.624 309.298,170.957 308.5,170.5C 307.833,171.833 307.167,173.167 306.5,174.5C 306.167,174 305.833,173.5 305.5,173C 307.22,169.025 307.887,164.859 307.5,160.5C 307.5,160.167 307.5,159.833 307.5,159.5 Z"/></g>
<g><path style="opacity:0.169" fill="#561d11" d="M 310.5,165.5 C 311.924,167.515 312.59,169.848 312.5,172.5C 311.883,172.389 311.383,172.056 311,171.5C 310.505,169.527 310.338,167.527 310.5,165.5 Z"/></g>
<g><path style="opacity:0.8" fill="#781f23" d="M 234.5,171.5 C 236.384,172.339 237.717,173.672 238.5,175.5C 238.5,176.5 238.5,177.5 238.5,178.5C 236.412,176.664 235.079,174.331 234.5,171.5 Z"/></g>
<g><path style="opacity:1" fill="#8a66b3" d="M 200.5,86.5 C 200.5,89.5 200.5,92.5 200.5,95.5C 198.237,96.2564 195.903,96.4231 193.5,96C 194.406,97.6995 194.739,99.5328 194.5,101.5C 193.273,104.565 191.107,106.899 188,108.5C 184.896,115.724 181.062,122.391 176.5,128.5C 169.093,143.652 160.927,158.319 152,172.5C 150.979,177.973 148.645,181.973 145,184.5C 144.515,188.486 142.848,191.819 140,194.5C 136.827,201.52 133.16,208.186 129,214.5C 127.446,220.994 124.279,226.494 119.5,231C 119.833,231.333 120.167,231.667 120.5,232C 118.68,233.805 117.514,235.972 117,238.5C 113.374,242.799 109.541,246.799 105.5,250.5C 105.389,249.883 105.056,249.383 104.5,249C 108.652,243.272 112.652,237.438 116.5,231.5C 118.092,226.602 120.092,221.935 122.5,217.5C 126.468,213.679 128.968,209.013 130,203.5C 135.699,194.478 141.366,185.478 147,176.5C 151.397,164.485 157.397,153.485 165,143.5C 172.071,129.458 179.237,115.458 186.5,101.5C 188.636,100.528 189.803,98.8609 190,96.5C 191.044,97.6226 191.71,98.9559 192,100.5C 191.615,94.5639 193.115,89.2305 196.5,84.5C 196.905,86.1191 197.405,88.1191 198,90.5C 198.934,89.1416 199.768,87.8083 200.5,86.5 Z"/></g>
<g><path style="opacity:1" fill="#7d4872" d="M 179.5,170.5 C 179.5,170.833 179.5,171.167 179.5,171.5C 179.34,173.153 178.674,174.486 177.5,175.5C 176.094,175.973 175.427,176.973 175.5,178.5C 175.008,180.819 174.008,182.819 172.5,184.5C 172.167,184.5 171.833,184.5 171.5,184.5C 171.773,182.549 171.107,181.049 169.5,180C 170.305,178.887 170.972,177.721 171.5,176.5C 172.15,176.804 172.817,177.137 173.5,177.5C 174.913,175.632 176.08,173.632 177,171.5C 177.671,170.748 178.504,170.414 179.5,170.5 Z"/></g>
<g><path style="opacity:0.082" fill="#2e1223" d="M 177.5,175.5 C 177.573,177.027 176.906,178.027 175.5,178.5C 175.427,176.973 176.094,175.973 177.5,175.5 Z"/></g>
<g><path style="opacity:0.298" fill="#212c56" d="M 100.5,177.5 C 100.59,180.152 99.9238,182.485 98.5,184.5C 98.4095,181.848 99.0762,179.515 100.5,177.5 Z"/></g>
<g><path style="opacity:0.376" fill="#751e21" d="M 238.5,178.5 C 240.194,179.527 241.527,180.861 242.5,182.5C 243.584,185.004 244.917,187.337 246.5,189.5C 246.833,191.5 247.167,193.5 247.5,195.5C 244.106,190.089 241.106,184.422 238.5,178.5 Z"/></g>
<g><path style="opacity:0.341" fill="#51260e" d="M 314.5,181.5 C 316.614,186.194 317.947,191.194 318.5,196.5C 317.651,194.112 316.651,191.779 315.5,189.5C 315.5,189.167 315.5,188.833 315.5,188.5C 315.007,186.194 314.674,183.861 314.5,181.5 Z"/></g>
<g><path style="opacity:0.735" fill="#58324f" d="M 171.5,184.5 C 171.833,184.5 172.167,184.5 172.5,184.5C 171.416,187.004 170.083,189.337 168.5,191.5C 168.273,188.562 169.273,186.229 171.5,184.5 Z"/></g>
<g><path style="opacity:1" fill="#ef6a32" d="M 305.5,180.5 C 303.88,181.841 302.88,183.674 302.5,186C 303.841,189.262 303.508,189.762 301.5,187.5C 301.891,188.718 301.224,189.552 299.5,190C 300.167,190.333 300.833,190.667 301.5,191C 300.167,191.667 300.167,192.333 301.5,193C 300.5,193.333 299.5,193.667 298.5,194C 299.451,194.718 299.617,195.551 299,196.5C 296.497,199.502 294.497,202.835 293,206.5C 290.169,209.174 288.169,212.841 287,217.5C 283.899,220.175 282.399,223.342 282.5,227C 278.452,230.6 276.785,235.1 277.5,240.5C 276.18,239.058 274.514,238.392 272.5,238.5C 272.5,238.167 272.5,237.833 272.5,237.5C 271.317,234.619 270.317,231.619 269.5,228.5C 269.5,228.167 269.5,227.833 269.5,227.5C 270.999,228.678 271.999,230.345 272.5,232.5C 273.478,232.023 274.311,231.357 275,230.5C 275.333,230.833 275.667,231.167 276,231.5C 277.807,229.231 277.307,227.397 274.5,226C 277.622,220.193 280.789,214.36 284,208.5C 285,208.167 286,207.833 287,207.5C 287.967,200.765 290.467,195.265 294.5,191C 296.432,186.313 298.932,181.479 302,176.5C 303.72,177.384 304.886,178.717 305.5,180.5 Z"/></g>
<g><path style="opacity:0.22" fill="#1c2751" d="M 97.5,188.5 C 97.2809,192.8 96.2809,196.8 94.5,200.5C 94.7191,196.2 95.7191,192.2 97.5,188.5 Z"/></g>
<g><path style="opacity:1" fill="#f17130" d="M 309.5,172.5 C 311.589,177.693 313.256,183.027 314.5,188.5C 313.167,190.5 311.833,192.5 310.5,194.5C 309.883,194.611 309.383,194.944 309,195.5C 308.667,194.167 308.333,192.833 308,191.5C 308.995,195.225 308.661,198.892 307,202.5C 306,202.833 305,203.167 304,203.5C 301.674,208.826 299.34,214.159 297,219.5C 295.334,218.66 295.167,219.16 296.5,221C 293.738,222.345 292.738,224.345 293.5,227C 289.94,229.293 287.773,233.126 287,238.5C 286.667,237.833 286.333,237.167 286,236.5C 285.209,238.604 283.709,239.937 281.5,240.5C 282.09,241.799 283.09,242.632 284.5,243C 283.207,243.49 281.873,243.657 280.5,243.5C 279.833,242.167 278.833,241.167 277.5,240.5C 276.785,235.1 278.452,230.6 282.5,227C 282.399,223.342 283.899,220.175 287,217.5C 288.169,212.841 290.169,209.174 293,206.5C 294.497,202.835 296.497,199.502 299,196.5C 299.617,195.551 299.451,194.718 298.5,194C 299.5,193.667 300.5,193.333 301.5,193C 300.167,192.333 300.167,191.667 301.5,191C 300.833,190.667 300.167,190.333 299.5,190C 301.224,189.552 301.891,188.718 301.5,187.5C 303.508,189.762 303.841,189.262 302.5,186C 302.88,183.674 303.88,181.841 305.5,180.5C 306.078,181.547 306.744,181.38 307.5,180C 307.167,179.667 306.833,179.333 306.5,179C 307.422,176.706 308.422,174.539 309.5,172.5 Z"/></g>
<g><path style="opacity:0.063" fill="#490d0f" d="M 247.5,195.5 C 248.906,195.973 249.573,196.973 249.5,198.5C 248.094,198.027 247.427,197.027 247.5,195.5 Z"/></g>
<g><path style="opacity:0.697" fill="#704063" d="M 168.5,191.5 C 166.003,197.165 163.003,202.498 159.5,207.5C 160.171,203.061 161.338,198.728 163,194.5C 163.414,194.957 163.914,195.291 164.5,195.5C 165.324,193.579 166.657,192.246 168.5,191.5 Z"/></g>
<g><path style="opacity:1" fill="#ba6a31" d="M 315.5,189.5 C 316.651,191.779 317.651,194.112 318.5,196.5C 320.102,200.239 321.102,204.239 321.5,208.5C 320.391,208.443 319.391,208.11 318.5,207.5C 316.857,201.641 315.857,195.641 315.5,189.5 Z"/></g>
<g><path style="opacity:0.298" fill="#63191b" d="M 249.5,199.5 C 250.167,199.5 250.833,199.5 251.5,199.5C 251.5,199.833 251.5,200.167 251.5,200.5C 253.975,203.785 255.642,207.452 256.5,211.5C 253.677,207.864 251.344,203.864 249.5,199.5 Z"/></g>
<g><path style="opacity:0.235" fill="#202b55" d="M 94.5,200.5 C 94.5,202.167 94.5,203.833 94.5,205.5C 93.7972,207.629 92.7972,209.629 91.5,211.5C 91.7424,207.521 92.7424,203.854 94.5,200.5 Z"/></g>
<g><path style="opacity:0.937" fill="#d24e3e" d="M 251.5,200.5 C 252.5,200.5 253.5,200.5 254.5,200.5C 254.604,202.703 255.27,204.703 256.5,206.5C 258.805,209.407 260.138,212.741 260.5,216.5C 260.167,216.5 259.833,216.5 259.5,216.5C 259.25,214.326 258.25,212.659 256.5,211.5C 255.642,207.452 253.975,203.785 251.5,200.5 Z"/></g>
<g><path style="opacity:1" fill="#f06331" d="M 307.5,160.5 C 307.887,164.859 307.22,169.025 305.5,173C 305.833,173.5 306.167,174 306.5,174.5C 307.167,173.167 307.833,171.833 308.5,170.5C 309.298,170.957 309.631,171.624 309.5,172.5C 308.422,174.539 307.422,176.706 306.5,179C 306.833,179.333 307.167,179.667 307.5,180C 306.744,181.38 306.078,181.547 305.5,180.5C 304.886,178.717 303.72,177.384 302,176.5C 298.932,181.479 296.432,186.313 294.5,191C 290.467,195.265 287.967,200.765 287,207.5C 286,207.833 285,208.167 284,208.5C 280.789,214.36 277.622,220.193 274.5,226C 277.307,227.397 277.807,229.231 276,231.5C 275.667,231.167 275.333,230.833 275,230.5C 274.311,231.357 273.478,232.023 272.5,232.5C 271.999,230.345 270.999,228.678 269.5,227.5C 268.751,226.469 268.085,225.302 267.5,224C 268.742,223.689 269.742,224.189 270.5,225.5C 270.833,225.167 271.167,224.833 271.5,224.5C 273.126,222.221 273.959,219.888 274,217.5C 276.744,215.016 278.744,212.016 280,208.5C 282.516,206.689 284.516,204.356 286,201.5C 286.598,197.554 287.265,193.887 288,190.5C 293.025,182.433 298.525,174.766 304.5,167.5C 305.23,164.891 305.73,162.224 306,159.5C 306.383,160.056 306.883,160.389 307.5,160.5 Z"/></g>
<g><path style="opacity:0.809" fill="#5a314e" d="M 159.5,207.5 C 157.084,212.667 154.418,217.667 151.5,222.5C 151.586,220.323 152.253,218.323 153.5,216.5C 153.291,215.914 152.957,215.414 152.5,215C 154.911,212.486 157.245,209.986 159.5,207.5 Z"/></g>
<g><path style="opacity:0.11" fill="#47110e" d="M 256.5,211.5 C 258.25,212.659 259.25,214.326 259.5,216.5C 257.75,215.341 256.75,213.674 256.5,211.5 Z"/></g>
<g><path style="opacity:0.988" fill="#5662a8" d="M 94.5,205.5 C 95.7816,212.526 94.115,218.526 89.5,223.5C 89.1667,223.5 88.8333,223.5 88.5,223.5C 88.8984,219.239 89.8984,215.239 91.5,211.5C 92.7972,209.629 93.7972,207.629 94.5,205.5 Z"/></g>
<g><path style="opacity:1" fill="#f48330" d="M 314.5,188.5 C 314.833,188.5 315.167,188.5 315.5,188.5C 315.5,188.833 315.5,189.167 315.5,189.5C 315.857,195.641 316.857,201.641 318.5,207.5C 317.559,212.053 316.059,216.387 314,220.5C 313.016,218.205 312.183,218.539 311.5,221.5C 312.025,222.192 312.692,222.692 313.5,223C 309.049,226.642 306.716,230.642 306.5,235C 305.328,235.419 304.328,236.085 303.5,237C 304.89,239.994 303.89,241.994 300.5,243C 300.957,243.414 301.291,243.914 301.5,244.5C 299.022,246.436 299.022,248.436 301.5,250.5C 300.311,251.429 298.978,251.762 297.5,251.5C 294.417,250.024 291.417,248.357 288.5,246.5C 288.586,245.504 288.252,244.671 287.5,244C 288.833,243.667 290.167,243.333 291.5,243C 288.85,239.793 289.016,239.293 292,241.5C 294.096,240.285 293.929,239.451 291.5,239C 293.774,237.248 295.774,235.248 297.5,233C 295.122,232.026 295.456,231.359 298.5,231C 298.167,230.667 297.833,230.333 297.5,230C 301.676,222.916 306.01,215.416 310.5,207.5C 310.518,203.158 310.518,198.824 310.5,194.5C 311.833,192.5 313.167,190.5 314.5,188.5 Z"/></g>
<g><path style="opacity:1" fill="#f37c2f" d="M 310.5,194.5 C 310.518,198.824 310.518,203.158 310.5,207.5C 306.01,215.416 301.676,222.916 297.5,230C 297.833,230.333 298.167,230.667 298.5,231C 295.456,231.359 295.122,232.026 297.5,233C 295.774,235.248 293.774,237.248 291.5,239C 293.929,239.451 294.096,240.285 292,241.5C 289.016,239.293 288.85,239.793 291.5,243C 290.167,243.333 288.833,243.667 287.5,244C 288.252,244.671 288.586,245.504 288.5,246.5C 287.833,246.5 287.167,246.5 286.5,246.5C 284.858,244.919 282.858,244.253 280.5,244.5C 280.5,244.167 280.5,243.833 280.5,243.5C 281.873,243.657 283.207,243.49 284.5,243C 283.09,242.632 282.09,241.799 281.5,240.5C 283.709,239.937 285.209,238.604 286,236.5C 286.333,237.167 286.667,237.833 287,238.5C 287.773,233.126 289.94,229.293 293.5,227C 292.738,224.345 293.738,222.345 296.5,221C 295.167,219.16 295.334,218.66 297,219.5C 299.34,214.159 301.674,208.826 304,203.5C 305,203.167 306,202.833 307,202.5C 308.661,198.892 308.995,195.225 308,191.5C 308.333,192.833 308.667,194.167 309,195.5C 309.383,194.944 309.883,194.611 310.5,194.5 Z"/></g>
<g><path style="opacity:0.278" fill="#75451a" d="M 323.5,216.5 C 324.768,218.905 325.435,221.572 325.5,224.5C 325.167,224.5 324.833,224.5 324.5,224.5C 323.908,221.873 323.575,219.206 323.5,216.5 Z"/></g>
<g><path style="opacity:0.89" fill="#752a1e" d="M 259.5,216.5 C 259.833,216.5 260.167,216.5 260.5,216.5C 260.5,217.167 260.833,217.5 261.5,217.5C 262.422,221.02 264.089,224.02 266.5,226.5C 266.5,227.5 266.5,228.5 266.5,229.5C 263.407,225.653 261.074,221.32 259.5,216.5 Z"/></g>
<g><path style="opacity:0.714" fill="#552d49" d="M 151.5,222.5 C 150.416,225.004 149.083,227.337 147.5,229.5C 147.115,226.11 148.448,223.777 151.5,222.5 Z"/></g>
<g><path style="opacity:1" fill="#f49131" d="M 318.5,207.5 C 319.391,208.11 320.391,208.443 321.5,208.5C 322.768,210.905 323.435,213.572 323.5,216.5C 323.575,219.206 323.908,221.873 324.5,224.5C 324.5,227.5 324.5,230.5 324.5,233.5C 323.08,235.766 321.413,237.933 319.5,240C 320.634,241.016 320.301,241.683 318.5,242C 319.167,242.333 319.833,242.667 320.5,243C 318.695,243.972 317.028,245.139 315.5,246.5C 315.709,247.086 316.043,247.586 316.5,248C 314.368,251.3 311.702,254.133 308.5,256.5C 305.166,254.337 301.5,253.004 297.5,252.5C 297.5,252.167 297.5,251.833 297.5,251.5C 298.978,251.762 300.311,251.429 301.5,250.5C 299.022,248.436 299.022,246.436 301.5,244.5C 301.291,243.914 300.957,243.414 300.5,243C 303.89,241.994 304.89,239.994 303.5,237C 304.328,236.085 305.328,235.419 306.5,235C 306.716,230.642 309.049,226.642 313.5,223C 312.692,222.692 312.025,222.192 311.5,221.5C 312.183,218.539 313.016,218.205 314,220.5C 316.059,216.387 317.559,212.053 318.5,207.5 Z"/></g>
<g><path style="opacity:0.518" fill="#7a491c" d="M 325.5,224.5 C 327.102,228.239 328.102,232.239 328.5,236.5C 326.584,232.837 325.584,228.837 325.5,224.5 Z"/></g>
<g><path style="opacity:0.922" fill="#bd5a38" d="M 266.5,226.5 C 267.222,227.551 268.222,228.218 269.5,228.5C 270.317,231.619 271.317,234.619 272.5,237.5C 271.833,237.167 271.167,236.833 270.5,236.5C 270.25,234.326 269.25,232.659 267.5,231.5C 266.662,231.158 266.328,230.492 266.5,229.5C 266.5,228.5 266.5,227.5 266.5,226.5 Z"/></g>
<g><path style="opacity:0.008" fill="#321527" d="M 146.5,231.5 C 146.573,233.027 145.906,234.027 144.5,234.5C 144.285,232.821 144.952,231.821 146.5,231.5 Z"/></g>
<g><path style="opacity:0.086" fill="#45180c" d="M 267.5,231.5 C 269.25,232.659 270.25,234.326 270.5,236.5C 268.75,235.341 267.75,233.674 267.5,231.5 Z"/></g>
<g><path style="opacity:0.885" fill="#e3a243" d="M 324.5,224.5 C 324.833,224.5 325.167,224.5 325.5,224.5C 325.584,228.837 326.584,232.837 328.5,236.5C 328.294,239.495 328.96,242.162 330.5,244.5C 330.5,246.167 330.5,247.833 330.5,249.5C 329.599,248.71 328.932,247.71 328.5,246.5C 327.92,241.823 326.587,237.49 324.5,233.5C 324.5,230.5 324.5,227.5 324.5,224.5 Z"/></g>
<g><path style="opacity:0.282" fill="#222a53" d="M 87.5,227.5 C 87.3841,230.86 87.0508,234.193 86.5,237.5C 85.4469,240.608 84.1136,243.608 82.5,246.5C 83.4089,239.859 85.0756,233.526 87.5,227.5 Z"/></g>
<g><path style="opacity:0.384" fill="#613554" d="M 144.5,234.5 C 144.155,237.198 142.822,239.198 140.5,240.5C 140.622,237.708 141.956,235.708 144.5,234.5 Z"/></g>
<g><path style="opacity:0.094" fill="#572310" d="M 270.5,236.5 C 271.167,236.833 271.833,237.167 272.5,237.5C 272.5,237.833 272.5,238.167 272.5,238.5C 272.5,238.833 272.5,239.167 272.5,239.5C 271.094,239.027 270.427,238.027 270.5,236.5 Z"/></g>
<g><path style="opacity:0.888" fill="#b15d33" d="M 272.5,238.5 C 274.514,238.392 276.18,239.058 277.5,240.5C 278.833,241.167 279.833,242.167 280.5,243.5C 280.5,243.833 280.5,244.167 280.5,244.5C 279.508,244.672 278.842,244.338 278.5,243.5C 278.027,242.094 277.027,241.427 275.5,241.5C 273.973,241.573 272.973,240.906 272.5,239.5C 272.5,239.167 272.5,238.833 272.5,238.5 Z"/></g>
<g><path style="opacity:0.133" fill="#522b0f" d="M 275.5,241.5 C 277.027,241.427 278.027,242.094 278.5,243.5C 276.973,243.573 275.973,242.906 275.5,241.5 Z"/></g>
<g><path style="opacity:0.322" fill="#82571f" d="M 328.5,236.5 C 329.768,238.905 330.435,241.572 330.5,244.5C 328.96,242.162 328.294,239.495 328.5,236.5 Z"/></g>
<g><path style="opacity:0.569" fill="#783b1e" d="M 280.5,244.5 C 282.858,244.253 284.858,244.919 286.5,246.5C 286.5,246.833 286.5,247.167 286.5,247.5C 284.456,246.492 282.456,245.492 280.5,244.5 Z"/></g>
<g><path style="opacity:0.91" fill="#b46933" d="M 286.5,247.5 C 286.5,247.167 286.5,246.833 286.5,246.5C 287.167,246.5 287.833,246.5 288.5,246.5C 291.417,248.357 294.417,250.024 297.5,251.5C 297.5,251.833 297.5,252.167 297.5,252.5C 295.046,251.773 292.713,250.773 290.5,249.5C 290.027,248.094 289.027,247.427 287.5,247.5C 287.167,247.5 286.833,247.5 286.5,247.5 Z"/></g>
<g><path style="opacity:0.778" fill="#674267" d="M 140.5,240.5 C 132.333,245.573 123.667,249.906 114.5,253.5C 112.973,253.427 111.973,254.094 111.5,255.5C 110.609,256.11 109.609,256.443 108.5,256.5C 109.836,254.99 111.003,253.323 112,251.5C 113.159,252.566 113.992,252.233 114.5,250.5C 119.251,249.257 123.584,247.257 127.5,244.5C 131.821,243.005 136.155,241.672 140.5,240.5 Z"/></g>
<g><path style="opacity:0.236" fill="#4d171d" d="M 272.5,249.5 C 271.833,249.5 271.167,249.5 270.5,249.5C 255.167,249.5 239.833,249.5 224.5,249.5C 211.833,249.5 199.167,249.5 186.5,249.5C 181.833,249.5 177.167,249.5 172.5,249.5C 168.167,249.5 163.833,249.5 159.5,249.5C 153.491,249.334 147.491,249.501 141.5,250C 139.559,251.903 137.226,252.736 134.5,252.5C 139.578,248.534 145.411,246.867 152,247.5C 191.836,248.082 232.003,248.749 272.5,249.5 Z"/></g>
<g><path style="opacity:0.11" fill="#55300e" d="M 287.5,247.5 C 289.027,247.427 290.027,248.094 290.5,249.5C 288.973,249.573 287.973,248.906 287.5,247.5 Z"/></g>
<g><path style="opacity:0.6" fill="#945428" d="M 270.5,250.5 C 270.5,250.167 270.5,249.833 270.5,249.5C 271.167,249.5 271.833,249.5 272.5,249.5C 274.5,250.167 276.5,250.833 278.5,251.5C 278.5,252.167 278.5,252.833 278.5,253.5C 276.95,252.559 275.284,251.893 273.5,251.5C 272.791,250.596 271.791,250.263 270.5,250.5 Z"/></g>
<g><path style="opacity:0.999" fill="#b64776" d="M 156.5,250.5 C 155.4,251.558 154.066,252.392 152.5,253C 152.957,253.414 153.291,253.914 153.5,254.5C 152.387,257.492 151.054,260.325 149.5,263C 149.833,263.333 150.167,263.667 150.5,264C 148.683,265.8 147.516,267.966 147,270.5C 146,271.167 145,271.833 144,272.5C 143.489,274.878 142.822,277.212 142,279.5C 141.667,279.167 141.333,278.833 141,278.5C 139.833,280.833 138.667,283.167 137.5,285.5C 138.341,288.251 137.341,290.418 134.5,292C 133.875,293.64 133.875,295.473 134.5,297.5C 132.236,296.781 129.903,296.448 127.5,296.5C 126.5,295.833 125.5,295.167 124.5,294.5C 124.33,293.178 124.663,292.011 125.5,291C 123.122,290.026 123.456,289.359 126.5,289C 126.167,288.667 125.833,288.333 125.5,288C 127.008,286.493 128.341,284.827 129.5,283C 128.549,282.282 128.383,281.449 129,280.5C 130.333,279.167 131.667,277.833 133,276.5C 133.617,275.551 133.451,274.718 132.5,274C 134.301,273.683 134.634,273.016 133.5,272C 135.938,267.644 138.771,263.478 142,259.5C 143.398,257.186 143.565,254.853 142.5,252.5C 143.242,251.713 144.075,251.047 145,250.5C 148.578,250.588 152.412,250.588 156.5,250.5 Z"/></g>
<g><path style="opacity:0.294" fill="#77461a" d="M 330.5,244.5 C 332.434,248.888 333.767,253.555 334.5,258.5C 334.167,258.5 333.833,258.5 333.5,258.5C 332.946,255.254 331.946,252.254 330.5,249.5C 330.5,247.833 330.5,246.167 330.5,244.5 Z"/></g>
<g><path style="opacity:1" fill="#d43248" d="M 186.5,249.5 C 199.167,249.5 211.833,249.5 224.5,249.5C 224.5,249.833 224.5,250.167 224.5,250.5C 223.833,250.5 223.167,250.5 222.5,250.5C 215.5,250.5 208.5,250.5 201.5,250.5C 200.167,250.5 198.833,250.5 197.5,250.5C 193.384,250.541 189.384,251.207 185.5,252.5C 185.09,259.653 182.257,265.653 177,270.5C 176.449,274.709 174.449,278.042 171,280.5C 167.459,288.732 163.626,296.732 159.5,304.5C 157.986,303.32 156.319,302.32 154.5,301.5C 155.995,301.522 157.662,301.189 159.5,300.5C 158.559,300.511 157.892,300.011 157.5,299C 157.892,297.989 158.559,297.489 159.5,297.5C 159.069,296.707 158.735,295.873 158.5,295C 159.249,291.348 161.082,288.515 164,286.5C 170.415,274.39 176.915,262.39 183.5,250.5C 184.791,250.737 185.791,250.404 186.5,249.5 Z"/></g>
<g><path style="opacity:1" fill="#e83235" d="M 201.5,250.5 C 208.5,250.5 215.5,250.5 222.5,250.5C 220.449,251.849 218.449,252.682 216.5,253C 216.833,253.333 217.167,253.667 217.5,254C 214.742,259.416 211.242,264.25 207,268.5C 208.114,270.669 207.614,272.502 205.5,274C 204.317,277.584 201.984,281.584 198.5,286C 198.833,286.333 199.167,286.667 199.5,287C 197.994,289.425 196.327,291.758 194.5,294C 194.833,294.333 195.167,294.667 195.5,295C 194.5,295.333 193.5,295.667 192.5,296C 192.833,296.333 193.167,296.667 193.5,297C 192.072,299.185 190.405,301.185 188.5,303C 190.481,303.605 190.815,304.605 189.5,306C 191.945,309.717 191.279,310.217 187.5,307.5C 186.571,308.689 186.238,310.022 186.5,311.5C 187.791,311.263 188.791,311.596 189.5,312.5C 184.589,311.748 179.922,310.415 175.5,308.5C 173.708,307.691 171.708,307.191 169.5,307C 168.288,305.893 168.621,305.393 170.5,305.5C 172.39,305.703 173.89,305.037 175,303.5C 176.637,297.619 179.804,292.785 184.5,289C 183.424,287.274 183.257,285.441 184,283.5C 185.595,279.741 187.762,277.074 190.5,275.5C 191.308,273.577 191.808,271.577 192,269.5C 192.333,270.5 192.667,271.5 193,272.5C 195.596,266.3 197.929,259.967 200,253.5C 201.193,255.443 202.693,255.276 204.5,253C 203.167,252.667 201.833,252.333 200.5,252C 201.056,251.617 201.389,251.117 201.5,250.5 Z"/></g>
<g><path style="opacity:1" fill="#eb5b33" d="M 224.5,250.5 C 224.5,250.167 224.5,249.833 224.5,249.5C 239.833,249.5 255.167,249.5 270.5,249.5C 270.5,249.833 270.5,250.167 270.5,250.5C 265.821,250.334 261.155,250.501 256.5,251C 256.167,251.333 255.833,251.667 255.5,252C 257.5,252.333 259.5,252.667 261.5,253C 260.552,253.483 259.552,253.649 258.5,253.5C 257.127,253.343 255.793,253.51 254.5,254C 254.833,254.333 255.167,254.667 255.5,255C 252.354,255.11 251.354,256.443 252.5,259C 250.321,259.442 249.655,260.442 250.5,262C 246.623,265.343 244.123,269.509 243,274.5C 240.624,277.528 238.79,280.361 237.5,283C 235.045,285.383 234.045,288.049 234.5,291C 230.027,294.824 228.36,299.491 229.5,305C 227.567,305.251 225.734,305.751 224,306.5C 222.719,305.353 222.386,305.687 223,307.5C 223.75,308.126 224.584,308.626 225.5,309C 222.716,310.248 222.05,312.081 223.5,314.5C 223.5,314.833 223.5,315.167 223.5,315.5C 222.791,316.404 221.791,316.737 220.5,316.5C 218.833,316.5 217.167,316.5 215.5,316.5C 214.386,315.115 213.386,313.615 212.5,312C 219.75,311.164 220.417,308.331 214.5,303.5C 215.956,303.678 217.289,302.844 218.5,301C 218.167,300.667 217.833,300.333 217.5,300C 220.477,298.855 222.144,296.688 222.5,293.5C 223.425,294.641 224.259,294.641 225,293.5C 225.72,291.888 225.554,290.388 224.5,289C 225.416,288.626 226.25,288.126 227,287.5C 230.752,278.327 235.252,269.66 240.5,261.5C 241.552,261.649 242.552,261.483 243.5,261C 242.655,259.442 243.321,258.442 245.5,258C 244.833,257 244.167,256 243.5,255C 245.246,254.529 246.913,253.862 248.5,253C 242.294,250.97 235.627,250.136 228.5,250.5C 227.167,250.5 225.833,250.5 224.5,250.5 Z"/></g>
<g><path style="opacity:0.196" fill="#192043" d="M 81.5,250.5 C 81.2809,254.8 80.2809,258.8 78.5,262.5C 78.7191,258.2 79.7191,254.2 81.5,250.5 Z"/></g>
<g><path style="opacity:1" fill="#f06b32" d="M 270.5,250.5 C 271.791,250.263 272.791,250.596 273.5,251.5C 271.868,252.908 270.202,254.408 268.5,256C 268.833,256.333 269.167,256.667 269.5,257C 265.318,263.029 261.652,269.362 258.5,276C 258.833,276.333 259.167,276.667 259.5,277C 258.354,277.645 257.354,278.478 256.5,279.5C 253.245,286.937 249.245,293.937 244.5,300.5C 243.515,302.098 243.349,303.765 244,305.5C 244.725,303.842 245.892,303.342 247.5,304C 246.944,304.383 246.611,304.883 246.5,305.5C 244.054,306.688 241.72,308.021 239.5,309.5C 236.402,309.756 233.402,310.422 230.5,311.5C 229.652,309.907 228.319,308.74 226.5,308C 228.889,306.904 231.389,306.071 234,305.5C 232.676,301.795 233.509,298.628 236.5,296C 236.5,294.667 236.5,293.333 236.5,292C 238.959,291.276 239.959,289.943 239.5,288C 240,287.5 240.5,287 241,286.5C 241.667,287.833 242.333,287.833 243,286.5C 244.165,282.318 245.999,278.485 248.5,275C 247.553,272.223 248.553,270.223 251.5,269C 250.833,268.667 250.167,268.333 249.5,268C 252.473,264.356 255.473,260.689 258.5,257C 258.167,256.667 257.833,256.333 257.5,256C 258.833,255.667 260.167,255.333 261.5,255C 260.263,254.768 259.263,254.268 258.5,253.5C 259.552,253.649 260.552,253.483 261.5,253C 259.5,252.667 257.5,252.333 255.5,252C 255.833,251.667 256.167,251.333 256.5,251C 261.155,250.501 265.821,250.334 270.5,250.5 Z"/></g>
<g><path style="opacity:0.161" fill="#5d2814" d="M 278.5,251.5 C 282.201,253.012 285.534,255.012 288.5,257.5C 285.978,256.989 283.645,255.989 281.5,254.5C 280.609,253.89 279.609,253.557 278.5,253.5C 278.5,252.833 278.5,252.167 278.5,251.5 Z"/></g>
<g><path style="opacity:0.012" fill="#251b37" d="M 114.5,253.5 C 114.027,254.906 113.027,255.573 111.5,255.5C 111.973,254.094 112.973,253.427 114.5,253.5 Z"/></g>
<g><path style="opacity:1" fill="#f27630" d="M 273.5,251.5 C 275.284,251.893 276.95,252.559 278.5,253.5C 279.609,253.557 280.609,253.89 281.5,254.5C 281.5,255.167 281.5,255.833 281.5,256.5C 278.427,257.733 278.094,259.233 280.5,261C 279.809,262.067 279.309,263.234 279,264.5C 278.333,265.833 277.667,265.833 277,264.5C 276.276,266.959 274.943,267.959 273,267.5C 272.14,271.027 269.973,273.193 266.5,274C 267.022,274.561 267.355,275.228 267.5,276C 266.067,279.467 264.734,282.967 263.5,286.5C 263.931,288.766 265.264,290.266 267.5,291C 266.584,291.374 265.75,291.874 265,292.5C 262.936,291.409 260.769,291.242 258.5,292C 257.788,293.425 257.621,294.925 258,296.5C 257.08,296.93 256.247,297.264 255.5,297.5C 256.833,298.5 256.833,299.5 255.5,300.5C 256.025,301.192 256.692,301.692 257.5,302C 254.14,304.064 250.474,305.231 246.5,305.5C 246.611,304.883 246.944,304.383 247.5,304C 245.892,303.342 244.725,303.842 244,305.5C 243.349,303.765 243.515,302.098 244.5,300.5C 249.245,293.937 253.245,286.937 256.5,279.5C 257.354,278.478 258.354,277.645 259.5,277C 259.167,276.667 258.833,276.333 258.5,276C 261.652,269.362 265.318,263.029 269.5,257C 269.167,256.667 268.833,256.333 268.5,256C 270.202,254.408 271.868,252.908 273.5,251.5 Z"/></g>
<g><path style="opacity:1" fill="#f7a430" d="M 324.5,233.5 C 326.587,237.49 327.92,241.823 328.5,246.5C 326.986,249.909 327.32,253.242 329.5,256.5C 328.726,257.711 327.893,257.711 327,256.5C 324.264,258.029 324.098,259.529 326.5,261C 324.893,262.049 324.227,263.549 324.5,265.5C 323.833,265.5 323.167,265.5 322.5,265.5C 322.027,264.094 321.027,263.427 319.5,263.5C 319.5,262.5 319.5,261.5 319.5,260.5C 316.833,260.167 314.167,259.833 311.5,259.5C 310.71,258.599 309.71,257.932 308.5,257.5C 308.5,257.167 308.5,256.833 308.5,256.5C 311.702,254.133 314.368,251.3 316.5,248C 316.043,247.586 315.709,247.086 315.5,246.5C 317.028,245.139 318.695,243.972 320.5,243C 319.833,242.667 319.167,242.333 318.5,242C 320.301,241.683 320.634,241.016 319.5,240C 321.413,237.933 323.08,235.766 324.5,233.5 Z"/></g>
<g><path style="opacity:1" fill="#ac4e82" d="M 159.5,249.5 C 158.791,250.404 157.791,250.737 156.5,250.5C 152.412,250.588 148.578,250.588 145,250.5C 144.075,251.047 143.242,251.713 142.5,252.5C 143.565,254.853 143.398,257.186 142,259.5C 138.771,263.478 135.938,267.644 133.5,272C 134.634,273.016 134.301,273.683 132.5,274C 133.451,274.718 133.617,275.551 133,276.5C 131.667,277.833 130.333,279.167 129,280.5C 128.383,281.449 128.549,282.282 129.5,283C 128.341,284.827 127.008,286.493 125.5,288C 125.833,288.333 126.167,288.667 126.5,289C 123.456,289.359 123.122,290.026 125.5,291C 124.663,292.011 124.33,293.178 124.5,294.5C 121.215,294.072 118.215,293.072 115.5,291.5C 116.718,290.269 118.051,289.102 119.5,288C 119.167,287.667 118.833,287.333 118.5,287C 123.681,278.223 128.681,269.89 133.5,262C 133.167,261.667 132.833,261.333 132.5,261C 135.381,258.954 135.714,256.787 133.5,254.5C 134.338,254.158 134.672,253.492 134.5,252.5C 137.226,252.736 139.559,251.903 141.5,250C 147.491,249.501 153.491,249.334 159.5,249.5 Z"/></g>
<g><path style="opacity:1" fill="#ef6231" d="M 258.5,253.5 C 259.263,254.268 260.263,254.768 261.5,255C 260.167,255.333 258.833,255.667 257.5,256C 257.833,256.333 258.167,256.667 258.5,257C 255.473,260.689 252.473,264.356 249.5,268C 250.167,268.333 250.833,268.667 251.5,269C 248.553,270.223 247.553,272.223 248.5,275C 245.999,278.485 244.165,282.318 243,286.5C 242.333,287.833 241.667,287.833 241,286.5C 240.5,287 240,287.5 239.5,288C 239.959,289.943 238.959,291.276 236.5,292C 236.5,293.333 236.5,294.667 236.5,296C 233.509,298.628 232.676,301.795 234,305.5C 231.389,306.071 228.889,306.904 226.5,308C 228.319,308.74 229.652,309.907 230.5,311.5C 228.847,311.66 227.514,312.326 226.5,313.5C 225.609,314.11 224.609,314.443 223.5,314.5C 222.05,312.081 222.716,310.248 225.5,309C 224.584,308.626 223.75,308.126 223,307.5C 222.386,305.687 222.719,305.353 224,306.5C 225.734,305.751 227.567,305.251 229.5,305C 228.36,299.491 230.027,294.824 234.5,291C 234.045,288.049 235.045,285.383 237.5,283C 238.79,280.361 240.624,277.528 243,274.5C 244.123,269.509 246.623,265.343 250.5,262C 249.655,260.442 250.321,259.442 252.5,259C 251.354,256.443 252.354,255.11 255.5,255C 255.167,254.667 254.833,254.333 254.5,254C 255.793,253.51 257.127,253.343 258.5,253.5 Z"/></g>
<g><path style="opacity:0.999" fill="#a4538c" d="M 133.5,254.5 C 135.714,256.787 135.381,258.954 132.5,261C 132.833,261.333 133.167,261.667 133.5,262C 128.681,269.89 123.681,278.223 118.5,287C 118.833,287.333 119.167,287.667 119.5,288C 118.051,289.102 116.718,290.269 115.5,291.5C 114.833,291.5 114.167,291.5 113.5,291.5C 113.047,290.542 112.381,289.708 111.5,289C 115.375,284.09 118.375,278.59 120.5,272.5C 123.282,270.997 124.115,268.663 123,265.5C 126.366,264.335 128.532,262.501 129.5,260C 128.244,259.583 127.577,258.75 127.5,257.5C 129.5,256.5 131.5,255.5 133.5,254.5 Z"/></g>
<g><path style="opacity:0.616" fill="#a1682e" d="M 297.5,252.5 C 301.5,253.004 305.166,254.337 308.5,256.5C 308.5,256.833 308.5,257.167 308.5,257.5C 308.167,257.5 307.833,257.5 307.5,257.5C 303.749,256.588 300.416,254.922 297.5,252.5 Z"/></g>
<g><path style="opacity:0.935" fill="#55416c" d="M 108.5,256.5 C 106.388,258.771 103.721,260.104 100.5,260.5C 100.5,259.5 100.5,258.5 100.5,257.5C 100.833,257.5 101.167,257.5 101.5,257.5C 103.861,257.326 106.194,256.993 108.5,256.5 Z"/></g>
<g><path style="opacity:0.122" fill="#663c14" d="M 307.5,257.5 C 307.833,257.5 308.167,257.5 308.5,257.5C 309.71,257.932 310.71,258.599 311.5,259.5C 309.62,259.771 308.287,259.104 307.5,257.5 Z"/></g>
<g><path style="opacity:0.949" fill="#c58a39" d="M 311.5,259.5 C 314.167,259.833 316.833,260.167 319.5,260.5C 319.5,261.5 319.5,262.5 319.5,263.5C 316.515,262.674 313.849,261.341 311.5,259.5 Z"/></g>
<g><path style="opacity:1" fill="#6f6eb8" d="M 86.5,237.5 C 86.7649,243.336 87.0983,248.669 87.5,253.5C 87.1667,253.833 86.8333,254.167 86.5,254.5C 85.4164,253.335 84.5831,252.002 84,250.5C 81.8879,252.636 82.0546,254.636 84.5,256.5C 83.5345,257.914 82.5345,258.747 81.5,259C 83.3367,260.625 85.0034,262.458 86.5,264.5C 84.7706,265.236 83.7706,266.57 83.5,268.5C 81.5956,268.738 80.2623,269.738 79.5,271.5C 78.3509,271.209 77.6842,270.376 77.5,269C 78.0767,266.863 78.41,264.696 78.5,262.5C 80.2809,258.8 81.2809,254.8 81.5,250.5C 81.2322,248.901 81.5655,247.568 82.5,246.5C 84.1136,243.608 85.4469,240.608 86.5,237.5 Z"/></g>
<g><path style="opacity:0.694" fill="#583351" d="M 134.5,252.5 C 134.672,253.492 134.338,254.158 133.5,254.5C 131.5,255.5 129.5,256.5 127.5,257.5C 122.625,260.104 117.625,262.438 112.5,264.5C 112.5,264.167 112.5,263.833 112.5,263.5C 119.516,259.325 126.849,255.659 134.5,252.5 Z"/></g>
<g><path style="opacity:0.761" fill="#72629c" d="M 100.5,257.5 C 100.5,258.5 100.5,259.5 100.5,260.5C 100.158,261.338 99.4916,261.672 98.5,261.5C 96.9731,261.427 95.9731,262.094 95.5,263.5C 94.8333,263.833 94.1667,264.167 93.5,264.5C 89.9475,265.276 86.6142,266.609 83.5,268.5C 83.7706,266.57 84.7706,265.236 86.5,264.5C 87.4916,264.672 88.1583,264.338 88.5,263.5C 92.8268,262.618 96.1601,260.951 98.5,258.5C 99.1667,258.167 99.8333,257.833 100.5,257.5 Z"/></g>
<g><path style="opacity:0.016" fill="#251b37" d="M 98.5,261.5 C 98.0269,262.906 97.0269,263.573 95.5,263.5C 95.9731,262.094 96.9731,261.427 98.5,261.5 Z"/></g>
<g><path style="opacity:1" fill="#f38430" d="M 281.5,256.5 C 281.33,257.822 281.663,258.989 282.5,260C 285.354,261.054 288.021,262.554 290.5,264.5C 286.248,267.324 283.748,271.324 283,276.5C 281.242,277.469 280.742,278.636 281.5,280C 278.902,282.701 276.569,285.534 274.5,288.5C 275.441,288.489 276.108,288.989 276.5,290C 275.079,291.623 273.412,292.79 271.5,293.5C 270.395,295.3 271.061,296.467 273.5,297C 272.619,297.708 271.953,298.542 271.5,299.5C 271.167,300.167 270.833,300.833 270.5,301.5C 270.167,301.5 269.833,301.5 269.5,301.5C 267.473,301.338 265.473,301.505 263.5,302C 260.499,302.738 257.832,303.904 255.5,305.5C 250.167,306.833 244.833,308.167 239.5,309.5C 241.72,308.021 244.054,306.688 246.5,305.5C 250.474,305.231 254.14,304.064 257.5,302C 256.692,301.692 256.025,301.192 255.5,300.5C 256.833,299.5 256.833,298.5 255.5,297.5C 256.247,297.264 257.08,296.93 258,296.5C 257.621,294.925 257.788,293.425 258.5,292C 260.769,291.242 262.936,291.409 265,292.5C 265.75,291.874 266.584,291.374 267.5,291C 265.264,290.266 263.931,288.766 263.5,286.5C 264.734,282.967 266.067,279.467 267.5,276C 267.355,275.228 267.022,274.561 266.5,274C 269.973,273.193 272.14,271.027 273,267.5C 274.943,267.959 276.276,266.959 277,264.5C 277.667,265.833 278.333,265.833 279,264.5C 279.309,263.234 279.809,262.067 280.5,261C 278.094,259.233 278.427,257.733 281.5,256.5 Z"/></g>
<g><path style="opacity:1" fill="#f48d31" d="M 281.5,254.5 C 283.645,255.989 285.978,256.989 288.5,257.5C 293.372,260.767 298.372,263.767 303.5,266.5C 302.292,267.234 300.959,267.567 299.5,267.5C 296.03,266.875 293.196,267.875 291,270.5C 290.383,271.449 290.549,272.282 291.5,273C 288.293,274.135 286.959,276.135 287.5,279C 284.015,282.014 281.515,285.181 280,288.5C 279.837,290.676 279.004,292.509 277.5,294C 277.833,294.333 278.167,294.667 278.5,295C 276.241,294.561 273.908,294.061 271.5,293.5C 273.412,292.79 275.079,291.623 276.5,290C 276.108,288.989 275.441,288.489 274.5,288.5C 276.569,285.534 278.902,282.701 281.5,280C 280.742,278.636 281.242,277.469 283,276.5C 283.748,271.324 286.248,267.324 290.5,264.5C 288.021,262.554 285.354,261.054 282.5,260C 281.663,258.989 281.33,257.822 281.5,256.5C 281.5,255.833 281.5,255.167 281.5,254.5 Z"/></g>
<g><path style="opacity:1" fill="#f9b130" d="M 328.5,246.5 C 328.932,247.71 329.599,248.71 330.5,249.5C 331.946,252.254 332.946,255.254 333.5,258.5C 334.192,261.897 334.192,265.23 333.5,268.5C 330.881,266.427 327.881,265.427 324.5,265.5C 324.227,263.549 324.893,262.049 326.5,261C 324.098,259.529 324.264,258.029 327,256.5C 327.893,257.711 328.726,257.711 329.5,256.5C 327.32,253.242 326.986,249.909 328.5,246.5 Z"/></g>
<g><path style="opacity:1" fill="#e42838" d="M 197.5,250.5 C 198.833,250.5 200.167,250.5 201.5,250.5C 201.389,251.117 201.056,251.617 200.5,252C 201.833,252.333 203.167,252.667 204.5,253C 202.693,255.276 201.193,255.443 200,253.5C 197.929,259.967 195.596,266.3 193,272.5C 192.667,271.5 192.333,270.5 192,269.5C 191.808,271.577 191.308,273.577 190.5,275.5C 187.762,277.074 185.595,279.741 184,283.5C 183.257,285.441 183.424,287.274 184.5,289C 179.804,292.785 176.637,297.619 175,303.5C 173.89,305.037 172.39,305.703 170.5,305.5C 170.918,304.778 171.584,304.278 172.5,304C 170.998,303.417 169.665,302.584 168.5,301.5C 170.227,298.713 171.394,295.713 172,292.5C 174.952,290.583 176.119,288.083 175.5,285C 179.999,280.834 182.499,275.667 183,269.5C 184.959,267.474 185.793,265.308 185.5,263C 187.043,261.122 188.876,259.622 191,258.5C 191.743,256.559 191.576,254.726 190.5,253C 192.927,252.098 195.26,251.264 197.5,250.5 Z"/></g>
<g><path style="opacity:0.122" fill="#5c3310" d="M 319.5,263.5 C 321.027,263.427 322.027,264.094 322.5,265.5C 320.973,265.573 319.973,264.906 319.5,263.5 Z"/></g>
<g><path style="opacity:0.604" fill="#8a5623" d="M 288.5,257.5 C 296.282,260.285 303.615,263.952 310.5,268.5C 308.079,268.122 305.746,267.455 303.5,266.5C 298.372,263.767 293.372,260.767 288.5,257.5 Z"/></g>
<g><path style="opacity:0.85" fill="#9f712f" d="M 333.5,258.5 C 333.833,258.5 334.167,258.5 334.5,258.5C 335.894,262.553 337.228,266.72 338.5,271C 336.663,272.48 334.663,272.48 332.5,271C 328.944,269.392 325.611,267.559 322.5,265.5C 323.167,265.5 323.833,265.5 324.5,265.5C 327.881,265.427 330.881,266.427 333.5,268.5C 334.192,265.23 334.192,261.897 333.5,258.5 Z"/></g>
<g><path style="opacity:0.129" fill="#2f2343" d="M 93.5,264.5 C 89.1511,267.341 84.4844,269.674 79.5,271.5C 80.2623,269.738 81.5956,268.738 83.5,268.5C 86.6142,266.609 89.9475,265.276 93.5,264.5 Z"/></g>
<g><path style="opacity:0.149" fill="#231f40" d="M 78.5,262.5 C 78.41,264.696 78.0767,266.863 77.5,269C 77.6842,270.376 78.3509,271.209 79.5,271.5C 78.791,272.404 77.791,272.737 76.5,272.5C 76.1588,268.84 76.8255,265.507 78.5,262.5 Z"/></g>
<g><path style="opacity:1" fill="#c73b5d" d="M 172.5,249.5 C 177.167,249.5 181.833,249.5 186.5,249.5C 185.791,250.404 184.791,250.737 183.5,250.5C 181.143,250.337 178.81,250.503 176.5,251C 175.012,252.717 173.179,253.884 171,254.5C 170.508,255.549 170.674,256.549 171.5,257.5C 169.051,261.757 166.884,266.09 165,270.5C 164.075,271.047 163.242,271.713 162.5,272.5C 160.516,276.773 158.682,281.107 157,285.5C 154.738,287.384 152.572,289.384 150.5,291.5C 153.171,294.545 152.504,296.878 148.5,298.5C 149.245,301.246 150.912,302.912 153.5,303.5C 152.5,303.5 151.5,303.5 150.5,303.5C 150.167,303.5 149.833,303.5 149.5,303.5C 149.167,302.5 148.5,301.833 147.5,301.5C 144.615,300.029 141.948,298.029 139.5,295.5C 140.035,293.729 140.869,293.396 142,294.5C 142.412,290.597 144.579,288.93 148.5,289.5C 148.579,288.07 148.246,286.736 147.5,285.5C 152.224,275.05 157.724,265.05 164,255.5C 167.291,254.025 170.125,252.025 172.5,249.5 Z"/></g>
<g><path style="opacity:1" fill="#9c5997" d="M 127.5,257.5 C 127.577,258.75 128.244,259.583 129.5,260C 128.532,262.501 126.366,264.335 123,265.5C 124.115,268.663 123.282,270.997 120.5,272.5C 118.375,278.59 115.375,284.09 111.5,289C 112.381,289.708 113.047,290.542 113.5,291.5C 112.833,291.5 112.167,291.5 111.5,291.5C 109.574,290.514 107.574,289.514 105.5,288.5C 103.701,287.73 102.368,286.397 101.5,284.5C 104.118,277.589 107.451,271.256 111.5,265.5C 112.167,265.5 112.5,265.167 112.5,264.5C 117.625,262.438 122.625,260.104 127.5,257.5 Z"/></g>
<g><path style="opacity:1" fill="#be4169" d="M 159.5,249.5 C 163.833,249.5 168.167,249.5 172.5,249.5C 170.125,252.025 167.291,254.025 164,255.5C 157.724,265.05 152.224,275.05 147.5,285.5C 148.246,286.736 148.579,288.07 148.5,289.5C 144.579,288.93 142.412,290.597 142,294.5C 140.869,293.396 140.035,293.729 139.5,295.5C 141.948,298.029 144.615,300.029 147.5,301.5C 144.302,300.213 140.969,299.547 137.5,299.5C 137.167,299.5 136.833,299.5 136.5,299.5C 135.833,298.833 135.167,298.167 134.5,297.5C 133.875,295.473 133.875,293.64 134.5,292C 137.341,290.418 138.341,288.251 137.5,285.5C 138.667,283.167 139.833,280.833 141,278.5C 141.333,278.833 141.667,279.167 142,279.5C 142.822,277.212 143.489,274.878 144,272.5C 145,271.833 146,271.167 147,270.5C 147.516,267.966 148.683,265.8 150.5,264C 150.167,263.667 149.833,263.333 149.5,263C 151.054,260.325 152.387,257.492 153.5,254.5C 153.291,253.914 152.957,253.414 152.5,253C 154.066,252.392 155.4,251.558 156.5,250.5C 157.791,250.737 158.791,250.404 159.5,249.5 Z"/></g>
<g><path style="opacity:0.365" fill="#845920" d="M 314.5,270.5 C 316.819,270.992 318.819,271.992 320.5,273.5C 317.911,273.539 315.911,272.539 314.5,270.5 Z"/></g>
<g><path style="opacity:0.663" fill="#523e65" d="M 112.5,263.5 C 112.5,263.833 112.5,264.167 112.5,264.5C 112.5,265.167 112.167,265.5 111.5,265.5C 107.638,267.262 103.972,269.262 100.5,271.5C 95.2432,273.462 90.2432,275.962 85.5,279C 84.2068,279.49 82.8734,279.657 81.5,279.5C 91.3551,273.405 101.688,268.071 112.5,263.5 Z"/></g>
<g><path style="opacity:1" fill="#9060a1" d="M 111.5,265.5 C 107.451,271.256 104.118,277.589 101.5,284.5C 102.368,286.397 103.701,287.73 105.5,288.5C 104.167,288.5 102.833,288.5 101.5,288.5C 99.901,288.768 98.5676,288.434 97.5,287.5C 95.5,286.5 93.5,285.5 91.5,284.5C 95.1867,283.824 98.5201,282.324 101.5,280C 98.3455,279.019 98.0122,277.685 100.5,276C 100.264,274.549 100.264,273.049 100.5,271.5C 103.972,269.262 107.638,267.262 111.5,265.5 Z"/></g>
<g><path style="opacity:1" fill="#f39e31" d="M 303.5,266.5 C 305.746,267.455 308.079,268.122 310.5,268.5C 312.153,268.66 313.486,269.326 314.5,270.5C 315.911,272.539 317.911,273.539 320.5,273.5C 320.5,274.167 320.5,274.833 320.5,275.5C 318.473,275.662 316.473,275.495 314.5,275C 312.872,271.85 310.538,271.017 307.5,272.5C 308.665,273.584 309.998,274.417 311.5,275C 310.167,275.667 309.167,276.667 308.5,278C 306.392,278.36 304.392,279.027 302.5,280C 303.766,280.309 304.933,280.809 306,281.5C 306.333,281.167 306.667,280.833 307,280.5C 308.365,281.593 308.699,282.926 308,284.5C 305.21,284.748 302.376,284.748 299.5,284.5C 300.939,286.553 302.939,287.553 305.5,287.5C 302.295,289.464 298.962,291.131 295.5,292.5C 293.58,293.065 291.913,294.065 290.5,295.5C 289.432,296.434 288.099,296.768 286.5,296.5C 284.5,296.5 282.5,296.5 280.5,296.5C 283.296,294.977 286.296,293.644 289.5,292.5C 289.023,291.522 288.357,290.689 287.5,290C 289.443,290.305 291.443,290.305 293.5,290C 291.842,289.275 291.342,288.108 292,286.5C 293.147,287.458 294.147,287.125 295,285.5C 297.189,281.468 299.022,277.635 300.5,274C 298.998,271.994 299.331,270.328 301.5,269C 300.584,268.722 299.918,268.222 299.5,267.5C 300.959,267.567 302.292,267.234 303.5,266.5 Z"/></g>
<g><path style="opacity:0.659" fill="#8b6026" d="M 320.5,273.5 C 322.403,273.796 324.07,274.463 325.5,275.5C 324.833,275.5 324.167,275.5 323.5,275.5C 323.167,275.5 322.833,275.5 322.5,275.5C 321.833,275.5 321.167,275.5 320.5,275.5C 320.5,274.833 320.5,274.167 320.5,273.5 Z"/></g>
<g><path style="opacity:1" fill="#faab2b" d="M 320.5,275.5 C 321.167,275.5 321.833,275.5 322.5,275.5C 319.067,278.872 316.401,282.372 314.5,286C 311.456,286.363 308.456,286.863 305.5,287.5C 302.939,287.553 300.939,286.553 299.5,284.5C 302.376,284.748 305.21,284.748 308,284.5C 308.699,282.926 308.365,281.593 307,280.5C 306.667,280.833 306.333,281.167 306,281.5C 304.933,280.809 303.766,280.309 302.5,280C 304.392,279.027 306.392,278.36 308.5,278C 309.167,276.667 310.167,275.667 311.5,275C 309.998,274.417 308.665,273.584 307.5,272.5C 310.538,271.017 312.872,271.85 314.5,275C 316.473,275.495 318.473,275.662 320.5,275.5 Z"/></g>
<g><path style="opacity:1" fill="#d03552" d="M 183.5,250.5 C 176.915,262.39 170.415,274.39 164,286.5C 161.082,288.515 159.249,291.348 158.5,295C 158.735,295.873 159.069,296.707 159.5,297.5C 158.559,297.489 157.892,297.989 157.5,299C 157.892,300.011 158.559,300.511 159.5,300.5C 157.662,301.189 155.995,301.522 154.5,301.5C 156.319,302.32 157.986,303.32 159.5,304.5C 161.786,304.595 163.786,305.262 165.5,306.5C 162.833,306.167 160.167,305.833 157.5,305.5C 156.486,304.326 155.153,303.66 153.5,303.5C 150.912,302.912 149.245,301.246 148.5,298.5C 152.504,296.878 153.171,294.545 150.5,291.5C 152.572,289.384 154.738,287.384 157,285.5C 158.682,281.107 160.516,276.773 162.5,272.5C 163.242,271.713 164.075,271.047 165,270.5C 166.884,266.09 169.051,261.757 171.5,257.5C 170.674,256.549 170.508,255.549 171,254.5C 173.179,253.884 175.012,252.717 176.5,251C 178.81,250.503 181.143,250.337 183.5,250.5 Z"/></g>
<g><path style="opacity:1" fill="#8866ac" d="M 100.5,271.5 C 100.264,273.049 100.264,274.549 100.5,276C 98.0122,277.685 98.3455,279.019 101.5,280C 98.5201,282.324 95.1867,283.824 91.5,284.5C 87.0845,284.139 83.0845,282.806 79.5,280.5C 79.8417,279.662 80.5084,279.328 81.5,279.5C 82.8734,279.657 84.2068,279.49 85.5,279C 90.2432,275.962 95.2432,273.462 100.5,271.5 Z"/></g>
<g><path style="opacity:1" fill="#f3b239" d="M 322.5,275.5 C 322.833,275.5 323.167,275.5 323.5,275.5C 325.59,277.39 327.923,279.057 330.5,280.5C 329.807,281.518 329.141,282.518 328.5,283.5C 325.514,283.903 322.848,284.903 320.5,286.5C 317.848,286.41 315.515,287.076 313.5,288.5C 307.351,289.246 301.351,290.579 295.5,292.5C 298.962,291.131 302.295,289.464 305.5,287.5C 308.456,286.863 311.456,286.363 314.5,286C 316.401,282.372 319.067,278.872 322.5,275.5 Z"/></g>
<g><path style="opacity:0.86" fill="#a77934" d="M 323.5,275.5 C 324.167,275.5 324.833,275.5 325.5,275.5C 327.75,276.13 329.75,277.13 331.5,278.5C 332.287,280.104 333.62,280.771 335.5,280.5C 334.952,283.084 333.285,284.084 330.5,283.5C 329.833,283.5 329.167,283.5 328.5,283.5C 329.141,282.518 329.807,281.518 330.5,280.5C 327.923,279.057 325.59,277.39 323.5,275.5 Z"/></g>
<g><path style="opacity:0.129" fill="#4d2d0d" d="M 331.5,278.5 C 333.153,278.66 334.486,279.326 335.5,280.5C 333.62,280.771 332.287,280.104 331.5,278.5 Z"/></g>
<g><path style="opacity:0.443" fill="#423255" d="M 79.5,280.5 C 83.0845,282.806 87.0845,284.139 91.5,284.5C 93.5,285.5 95.5,286.5 97.5,287.5C 91.4409,286.319 85.4409,284.819 79.5,283C 78.2264,282.023 78.2264,281.189 79.5,280.5 Z"/></g>
<g><path style="opacity:1" fill="#eb4133" d="M 222.5,250.5 C 223.167,250.5 223.833,250.5 224.5,250.5C 225.833,250.5 227.167,250.5 228.5,250.5C 229.688,251.364 230.855,252.364 232,253.5C 232.333,252.833 232.667,252.167 233,251.5C 234.399,252.227 235.899,252.727 237.5,253C 233.148,253.419 232.815,254.086 236.5,255C 234.899,255.273 233.399,255.773 232,256.5C 227.145,264.083 222.479,271.749 218,279.5C 216.605,281.14 215.105,282.64 213.5,284C 214.167,284.333 214.833,284.667 215.5,285C 213.954,286.44 213.121,288.273 213,290.5C 209.075,293.09 206.908,296.756 206.5,301.5C 208.453,302.761 210.453,303.927 212.5,305C 209.621,305.957 207.121,305.457 205,303.5C 204.228,304.849 203.061,305.682 201.5,306C 202.833,306.667 202.833,307.333 201.5,308C 202.5,309 203.5,310 204.5,311C 200.995,311.119 197.995,312.286 195.5,314.5C 193.142,314.747 191.142,314.081 189.5,312.5C 188.791,311.596 187.791,311.263 186.5,311.5C 186.238,310.022 186.571,308.689 187.5,307.5C 191.279,310.217 191.945,309.717 189.5,306C 190.815,304.605 190.481,303.605 188.5,303C 190.405,301.185 192.072,299.185 193.5,297C 193.167,296.667 192.833,296.333 192.5,296C 193.5,295.667 194.5,295.333 195.5,295C 195.167,294.667 194.833,294.333 194.5,294C 196.327,291.758 197.994,289.425 199.5,287C 199.167,286.667 198.833,286.333 198.5,286C 201.984,281.584 204.317,277.584 205.5,274C 207.614,272.502 208.114,270.669 207,268.5C 211.242,264.25 214.742,259.416 217.5,254C 217.167,253.667 216.833,253.333 216.5,253C 218.449,252.682 220.449,251.849 222.5,250.5 Z"/></g>
<g><path style="opacity:0.141" fill="#724a1a" d="M 328.5,283.5 C 329.167,283.5 329.833,283.5 330.5,283.5C 327.45,285.101 324.116,286.101 320.5,286.5C 322.848,284.903 325.514,283.903 328.5,283.5 Z"/></g>
<g><path style="opacity:0.243" fill="#744619" d="M 320.5,286.5 C 318.485,287.924 316.152,288.59 313.5,288.5C 315.515,287.076 317.848,286.41 320.5,286.5 Z"/></g>
<g><path style="opacity:0.278" fill="#653958" d="M 101.5,288.5 C 102.833,288.5 104.167,288.5 105.5,288.5C 107.574,289.514 109.574,290.514 111.5,291.5C 107.838,291.277 104.505,290.277 101.5,288.5 Z"/></g>
<g><path style="opacity:1" fill="#dc2d42" d="M 197.5,250.5 C 195.26,251.264 192.927,252.098 190.5,253C 191.576,254.726 191.743,256.559 191,258.5C 188.876,259.622 187.043,261.122 185.5,263C 185.793,265.308 184.959,267.474 183,269.5C 182.499,275.667 179.999,280.834 175.5,285C 176.119,288.083 174.952,290.583 172,292.5C 171.394,295.713 170.227,298.713 168.5,301.5C 169.665,302.584 170.998,303.417 172.5,304C 171.584,304.278 170.918,304.778 170.5,305.5C 168.621,305.393 168.288,305.893 169.5,307C 171.708,307.191 173.708,307.691 175.5,308.5C 174.167,308.5 172.833,308.5 171.5,308.5C 169.102,308.741 167.102,308.074 165.5,306.5C 163.786,305.262 161.786,304.595 159.5,304.5C 163.626,296.732 167.459,288.732 171,280.5C 174.449,278.042 176.449,274.709 177,270.5C 182.257,265.653 185.09,259.653 185.5,252.5C 189.384,251.207 193.384,250.541 197.5,250.5 Z"/></g>
<g><path style="opacity:0.412" fill="#5d304c" d="M 111.5,291.5 C 112.167,291.5 112.833,291.5 113.5,291.5C 114.167,291.5 114.833,291.5 115.5,291.5C 118.215,293.072 121.215,294.072 124.5,294.5C 125.5,295.167 126.5,295.833 127.5,296.5C 121.834,295.61 116.5,293.943 111.5,291.5 Z"/></g>
<g><path style="opacity:1" fill="#f79431" d="M 299.5,267.5 C 299.918,268.222 300.584,268.722 301.5,269C 299.331,270.328 298.998,271.994 300.5,274C 299.022,277.635 297.189,281.468 295,285.5C 294.147,287.125 293.147,287.458 292,286.5C 291.342,288.108 291.842,289.275 293.5,290C 291.443,290.305 289.443,290.305 287.5,290C 288.357,290.689 289.023,291.522 289.5,292.5C 286.296,293.644 283.296,294.977 280.5,296.5C 277.702,297.953 274.702,298.953 271.5,299.5C 271.953,298.542 272.619,297.708 273.5,297C 271.061,296.467 270.395,295.3 271.5,293.5C 273.908,294.061 276.241,294.561 278.5,295C 278.167,294.667 277.833,294.333 277.5,294C 279.004,292.509 279.837,290.676 280,288.5C 281.515,285.181 284.015,282.014 287.5,279C 286.959,276.135 288.293,274.135 291.5,273C 290.549,272.282 290.383,271.449 291,270.5C 293.196,267.875 296.03,266.875 299.5,267.5 Z"/></g>
<g><path style="opacity:0.075" fill="#794d1b" d="M 313.5,288.5 C 306.109,291.406 298.442,293.739 290.5,295.5C 291.913,294.065 293.58,293.065 295.5,292.5C 301.351,290.579 307.351,289.246 313.5,288.5 Z"/></g>
<g><path style="opacity:0.341" fill="#5e2840" d="M 127.5,296.5 C 129.903,296.448 132.236,296.781 134.5,297.5C 135.167,298.167 135.833,298.833 136.5,299.5C 133.215,299.072 130.215,298.072 127.5,296.5 Z"/></g>
<g><path style="opacity:0.541" fill="#9f612c" d="M 280.5,296.5 C 282.5,296.5 284.5,296.5 286.5,296.5C 281.453,298.767 276.12,300.434 270.5,301.5C 270.833,300.833 271.167,300.167 271.5,299.5C 274.702,298.953 277.702,297.953 280.5,296.5 Z"/></g>
<g><path style="opacity:0.529" fill="#6e2333" d="M 137.5,299.5 C 140.969,299.547 144.302,300.213 147.5,301.5C 148.5,301.833 149.167,302.5 149.5,303.5C 145.215,302.738 141.215,301.405 137.5,299.5 Z"/></g>
<g><path style="opacity:0.467" fill="#7a2025" d="M 150.5,303.5 C 151.5,303.5 152.5,303.5 153.5,303.5C 155.153,303.66 156.486,304.326 157.5,305.5C 154.848,305.59 152.515,304.924 150.5,303.5 Z"/></g>
<g><path style="opacity:0.698" fill="#9b5a2b" d="M 269.5,301.5 C 265.784,303.405 261.784,304.739 257.5,305.5C 256.833,305.5 256.167,305.5 255.5,305.5C 257.832,303.904 260.499,302.738 263.5,302C 265.473,301.505 267.473,301.338 269.5,301.5 Z"/></g>
<g><path style="opacity:0.475" fill="#6b191c" d="M 157.5,305.5 C 160.167,305.833 162.833,306.167 165.5,306.5C 167.102,308.074 169.102,308.741 171.5,308.5C 175.5,310.167 179.5,311.833 183.5,313.5C 174.566,311.438 165.9,308.771 157.5,305.5 Z"/></g>
<g><path style="opacity:1" fill="#ec5133" d="M 228.5,250.5 C 235.627,250.136 242.294,250.97 248.5,253C 246.913,253.862 245.246,254.529 243.5,255C 244.167,256 244.833,257 245.5,258C 243.321,258.442 242.655,259.442 243.5,261C 242.552,261.483 241.552,261.649 240.5,261.5C 235.252,269.66 230.752,278.327 227,287.5C 226.25,288.126 225.416,288.626 224.5,289C 225.554,290.388 225.72,291.888 225,293.5C 224.259,294.641 223.425,294.641 222.5,293.5C 222.144,296.688 220.477,298.855 217.5,300C 217.833,300.333 218.167,300.667 218.5,301C 217.289,302.844 215.956,303.678 214.5,303.5C 220.417,308.331 219.75,311.164 212.5,312C 213.386,313.615 214.386,315.115 215.5,316.5C 214.833,317.167 214.167,317.833 213.5,318.5C 212.432,319.434 211.099,319.768 209.5,319.5C 206.123,319.041 202.789,318.374 199.5,317.5C 198.564,316.026 197.23,315.026 195.5,314.5C 197.995,312.286 200.995,311.119 204.5,311C 203.5,310 202.5,309 201.5,308C 202.833,307.333 202.833,306.667 201.5,306C 203.061,305.682 204.228,304.849 205,303.5C 207.121,305.457 209.621,305.957 212.5,305C 210.453,303.927 208.453,302.761 206.5,301.5C 206.908,296.756 209.075,293.09 213,290.5C 213.121,288.273 213.954,286.44 215.5,285C 214.833,284.667 214.167,284.333 213.5,284C 215.105,282.64 216.605,281.14 218,279.5C 222.479,271.749 227.145,264.083 232,256.5C 233.399,255.773 234.899,255.273 236.5,255C 232.815,254.086 233.148,253.419 237.5,253C 235.899,252.727 234.399,252.227 233,251.5C 232.667,252.167 232.333,252.833 232,253.5C 230.855,252.364 229.688,251.364 228.5,250.5 Z"/></g>
<g><path style="opacity:0.216" fill="#6c3717" d="M 255.5,305.5 C 256.167,305.5 256.833,305.5 257.5,305.5C 250.817,308.258 243.817,310.258 236.5,311.5C 237.5,310.833 238.5,310.167 239.5,309.5C 244.833,308.167 250.167,306.833 255.5,305.5 Z"/></g>
<g><path style="opacity:0.902" fill="#b35632" d="M 239.5,309.5 C 238.5,310.167 237.5,310.833 236.5,311.5C 234.898,313.074 232.898,313.741 230.5,313.5C 229.167,313.5 227.833,313.5 226.5,313.5C 227.514,312.326 228.847,311.66 230.5,311.5C 233.402,310.422 236.402,309.756 239.5,309.5 Z"/></g>
<g><path style="opacity:0.082" fill="#641a16" d="M 183.5,313.5 C 186.152,313.41 188.485,314.076 190.5,315.5C 187.848,315.59 185.515,314.924 183.5,313.5 Z"/></g>
<g><path style="opacity:0.976" fill="#cc4440" d="M 171.5,308.5 C 172.833,308.5 174.167,308.5 175.5,308.5C 179.922,310.415 184.589,311.748 189.5,312.5C 191.142,314.081 193.142,314.747 195.5,314.5C 197.23,315.026 198.564,316.026 199.5,317.5C 196.692,316.071 193.692,315.405 190.5,315.5C 188.485,314.076 186.152,313.41 183.5,313.5C 179.5,311.833 175.5,310.167 171.5,308.5 Z"/></g>
<g><path style="opacity:0.21" fill="#672817" d="M 226.5,313.5 C 227.833,313.5 229.167,313.5 230.5,313.5C 228.485,314.924 226.152,315.59 223.5,315.5C 223.5,315.167 223.5,314.833 223.5,314.5C 224.609,314.443 225.609,314.11 226.5,313.5 Z"/></g>
<g><path style="opacity:0.498" fill="#72291d" d="M 190.5,315.5 C 193.692,315.405 196.692,316.071 199.5,317.5C 202.789,318.374 206.123,319.041 209.5,319.5C 202.922,319.944 196.588,318.61 190.5,315.5 Z"/></g>
<g><path style="opacity:0.149" fill="#652c14" d="M 215.5,316.5 C 217.167,316.5 218.833,316.5 220.5,316.5C 218.485,317.924 216.152,318.59 213.5,318.5C 214.167,317.833 214.833,317.167 215.5,316.5 Z"/></g>
</svg>
