<?xml version="1.0" encoding="UTF-8"?>
<!DOCTYPE svg PUBLIC "-//W3C//DTD SVG 1.1//EN" "http://www.w3.org/Graphics/SVG/1.1/DTD/svg11.dtd">
<svg xmlns="http://www.w3.org/2000/svg" version="1.1" width="400px" height="400px" style="shape-rendering:geometricPrecision; text-rendering:geometricPrecision; image-rendering:optimizeQuality; fill-rule:evenodd; clip-rule:evenodd" xmlns:xlink="http://www.w3.org/1999/xlink">
<g><path style="opacity:0.994" fill="#f0e0d3" d="M 170.5,-0.5 C 189.833,-0.5 209.167,-0.5 228.5,-0.5C 235.388,0.471764 242.388,1.63843 249.5,3C 256.741,6.12756 264.407,8.62756 272.5,10.5C 276.987,12.9476 281.654,14.7809 286.5,16C 291.324,19.8064 296.658,22.8064 302.5,25C 303.126,25.7504 303.626,26.5838 304,27.5C 304.333,27.1667 304.667,26.8333 305,26.5C 307.517,29.5151 310.684,31.5151 314.5,32.5C 319.682,36.1486 324.682,40.6486 329.5,46C 330.833,46.3333 332.167,46.6667 333.5,47C 339.342,53.5428 345.509,59.7095 352,65.5C 352.774,69.45 354.941,72.45 358.5,74.5C 363.102,82.1818 368.269,89.5152 374,96.5C 379.62,107.839 384.62,118.839 389,129.5C 390.271,134.469 391.438,139.469 392.5,144.5C 393.086,144.709 393.586,145.043 394,145.5C 395.195,151.823 396.362,158.156 397.5,164.5C 398.833,187.833 398.833,211.167 397.5,234.5C 396.362,240.844 395.195,247.177 394,253.5C 390.842,260.131 388.342,267.131 386.5,274.5C 385.766,276.815 384.432,278.648 382.5,280C 383.821,281.545 383.488,282.711 381.5,283.5C 380.692,285.423 380.192,287.423 380,289.5C 372.084,302.333 363.917,315 355.5,327.5C 345.833,336.5 336.5,345.833 327.5,355.5C 321.513,360.83 314.847,365.163 307.5,368.5C 306.147,369.685 304.98,371.019 304,372.5C 303.586,372.043 303.086,371.709 302.5,371.5C 297.016,374.905 291.516,378.239 286,381.5C 284.387,380.378 283.22,380.878 282.5,383C 281.551,383.617 280.718,383.451 280,382.5C 278.648,384.432 276.815,385.766 274.5,386.5C 267.131,388.342 260.131,390.842 253.5,394C 247.177,395.195 240.844,396.362 234.5,397.5C 211.167,398.833 187.833,398.833 164.5,397.5C 160.833,396.833 157.167,396.167 153.5,395.5C 153.192,394.692 152.692,394.025 152,393.5C 149.619,394.435 147.119,394.768 144.5,394.5C 144.5,393.5 144.5,392.5 144.5,391.5C 141.881,391.232 139.381,391.565 137,392.5C 136.308,391.975 135.808,391.308 135.5,390.5C 130.213,388.674 124.88,386.841 119.5,385C 112.559,380.956 104.892,377.289 96.5,374C 91.0168,369.425 85.3502,365.092 79.5,361C 78.5509,360.383 77.7175,360.549 77,361.5C 73.3616,357.526 69.6949,353.526 66,349.5C 65.2588,350.641 64.4255,350.641 63.5,349.5C 58.1787,344.012 52.6787,338.679 47,333.5C 46.3828,332.551 46.5494,331.718 47.5,331C 41.6517,325.682 36.6517,320.182 32.5,314.5C 28.4736,307.002 23.9736,299.335 19,291.5C 18.8821,288.292 17.7154,285.626 15.5,283.5C 15.7093,282.914 16.0426,282.414 16.5,282C 14.5676,280.648 13.2343,278.815 12.5,276.5C 10.5203,270.927 8.68696,265.26 7,259.5C 4.39733,257.051 3.89733,254.218 5.5,251C 4.58377,250.626 3.75044,250.126 3,249.5C 1.83633,241.688 0.669664,234.021 -0.5,226.5C -0.5,207.833 -0.5,189.167 -0.5,170.5C 0.471764,163.612 1.63843,156.612 3,149.5C 6.79042,138.768 10.4571,127.768 14,116.5C 17.4961,110.841 20.4961,104.841 23,98.5C 24.5,97.3333 26,96.1667 27.5,95C 27.1667,94.6667 26.8333,94.3333 26.5,94C 39.2849,72.8769 55.6183,54.8769 75.5,40C 77.3513,38.3163 79.018,36.4829 80.5,34.5C 84.7973,32.0357 88.964,29.3691 93,26.5C 93.414,26.9574 93.914,27.2907 94.5,27.5C 96.019,26.1487 97.3523,24.6487 98.5,23C 104.822,20.5647 110.822,17.5647 116.5,14C 124.004,11.1417 131.67,8.80838 139.5,7C 139.957,6.58605 140.291,6.08605 140.5,5.5C 150.435,2.84651 160.435,0.846511 170.5,-0.5 Z"/></g>
<g><path style="opacity:1" fill="#968b83" d="M 208.5,74.5 C 207.833,74.5 207.167,74.5 206.5,74.5C 201.203,73.4911 195.869,73.4911 190.5,74.5C 190.5,74.1667 190.5,73.8333 190.5,73.5C 190.833,73.5 191.167,73.5 191.5,73.5C 194.302,73.0177 197.135,72.6843 200,72.5C 203.15,72.3603 205.983,73.027 208.5,74.5 Z"/></g>
<g><path style="opacity:1" fill="#d1c3b7" d="M 217.5,76.5 C 214.785,74.877 211.785,74.2104 208.5,74.5C 205.983,73.027 203.15,72.3603 200,72.5C 197.135,72.6843 194.302,73.0177 191.5,73.5C 193.743,72.1883 196.41,71.5217 199.5,71.5C 202.167,71.6667 204.833,71.8333 207.5,72C 210.044,73.092 212.711,73.7586 215.5,74C 216.381,74.7083 217.047,75.5416 217.5,76.5 Z"/></g>
<g><path style="opacity:1" fill="#c6b9ae" d="M 190.5,73.5 C 190.5,73.8333 190.5,74.1667 190.5,74.5C 190.167,74.5 189.833,74.5 189.5,74.5C 187.071,74.8844 184.737,75.551 182.5,76.5C 184.391,73.8283 187.058,72.8283 190.5,73.5 Z"/></g>
<g><path style="opacity:1" fill="#4d4643" d="M 206.5,74.5 C 206.5,74.8333 206.5,75.1667 206.5,75.5C 200.833,75.5 195.167,75.5 189.5,75.5C 189.5,75.1667 189.5,74.8333 189.5,74.5C 189.833,74.5 190.167,74.5 190.5,74.5C 195.869,73.4911 201.203,73.4911 206.5,74.5 Z"/></g>
<g><path style="opacity:1" fill="#7b716b" d="M 206.5,75.5 C 206.5,75.1667 206.5,74.8333 206.5,74.5C 207.167,74.5 207.833,74.5 208.5,74.5C 211.785,74.2104 214.785,74.877 217.5,76.5C 218.167,76.5 218.5,76.8333 218.5,77.5C 214.626,76.2387 210.626,75.572 206.5,75.5 Z"/></g>
<g><path style="opacity:1" fill="#655e59" d="M 189.5,74.5 C 189.5,74.8333 189.5,75.1667 189.5,75.5C 187.833,76.1667 186.167,76.8333 184.5,77.5C 183.833,77.5 183.167,77.5 182.5,77.5C 182.5,77.1667 182.5,76.8333 182.5,76.5C 184.737,75.551 187.071,74.8844 189.5,74.5 Z"/></g>
<g><path style="opacity:1" fill="#25211f" d="M 189.5,75.5 C 195.167,75.5 200.833,75.5 206.5,75.5C 210.626,75.572 214.626,76.2387 218.5,77.5C 220.566,79.1991 222.9,80.5324 225.5,81.5C 226.833,83.5 228.5,85.1667 230.5,86.5C 234.053,91.1489 237.053,96.1489 239.5,101.5C 240.975,108.987 241.641,116.654 241.5,124.5C 240.85,126.435 240.517,128.435 240.5,130.5C 238.078,134.076 236.411,138.076 235.5,142.5C 230.881,146.452 226.548,150.785 222.5,155.5C 220.5,155.5 219.5,156.5 219.5,158.5C 219.167,159.5 218.5,160.167 217.5,160.5C 215.015,161.26 215.015,162.26 217.5,163.5C 218.167,163.833 218.833,164.167 219.5,164.5C 219.833,165.167 220.167,165.833 220.5,166.5C 221.833,168.5 223.5,170.167 225.5,171.5C 226.5,173.167 227.833,174.5 229.5,175.5C 229.5,176.167 229.833,176.5 230.5,176.5C 230.5,178.5 231.5,179.5 233.5,179.5C 234.509,182.166 236.176,182.833 238.5,181.5C 238.842,180.662 239.508,180.328 240.5,180.5C 242.543,179.421 243.876,177.754 244.5,175.5C 245.5,175.167 246.167,174.5 246.5,173.5C 248.833,171.5 251.167,169.5 253.5,167.5C 254.833,166.833 255.833,165.833 256.5,164.5C 258.98,163.758 261.313,162.758 263.5,161.5C 266.247,160.034 269.247,159.201 272.5,159C 273.056,158.617 273.389,158.117 273.5,157.5C 278.833,157.5 284.167,157.5 289.5,157.5C 289.611,158.117 289.944,158.617 290.5,159C 292.81,159.497 295.143,159.663 297.5,159.5C 298.635,161.213 300.302,161.88 302.5,161.5C 303.585,163.587 305.251,164.92 307.5,165.5C 307.5,167.5 308.5,168.5 310.5,168.5C 311.097,171.427 312.764,173.427 315.5,174.5C 316.167,174.833 316.833,175.167 317.5,175.5C 317.707,178.241 318.707,180.574 320.5,182.5C 321.038,184.117 321.371,185.784 321.5,187.5C 322.653,195.51 322.653,203.51 321.5,211.5C 320.536,216.233 318.703,220.566 316,224.5C 312.946,228.379 309.779,232.045 306.5,235.5C 304.034,236.298 302.034,237.631 300.5,239.5C 299.833,239.5 299.167,239.5 298.5,239.5C 295.759,239.707 293.426,240.707 291.5,242.5C 290.5,242.5 289.5,242.5 288.5,242.5C 282.833,242.5 277.167,242.5 271.5,242.5C 271.167,242.5 270.833,242.5 270.5,242.5C 268.824,240.166 266.491,239.166 263.5,239.5C 263.5,238.833 263.167,238.5 262.5,238.5C 260.178,236.336 257.511,234.669 254.5,233.5C 250.5,230.167 246.833,226.5 243.5,222.5C 242.44,219.112 240.107,217.112 236.5,216.5C 235.702,216.957 235.369,217.624 235.5,218.5C 233.167,220.167 231.167,222.167 229.5,224.5C 225.548,227.785 221.881,231.452 218.5,235.5C 217.307,235.97 216.64,236.97 216.5,238.5C 216.531,241.175 217.864,242.509 220.5,242.5C 220.833,242.5 221.167,242.5 221.5,242.5C 221.5,244.5 222.5,245.5 224.5,245.5C 224.525,248.179 225.858,249.512 228.5,249.5C 228.738,251.404 229.738,252.738 231.5,253.5C 231.738,255.404 232.738,256.738 234.5,257.5C 235.167,258.167 235.833,258.833 236.5,259.5C 236.833,260.167 237.167,260.833 237.5,261.5C 237.229,263.38 237.896,264.713 239.5,265.5C 239.41,268.152 240.076,270.485 241.5,272.5C 241.5,272.833 241.5,273.167 241.5,273.5C 241.72,280.543 241.386,287.543 240.5,294.5C 240.5,295.833 240.5,297.167 240.5,298.5C 240.167,298.5 239.833,298.5 239.5,298.5C 237.787,299.635 237.12,301.302 237.5,303.5C 236.449,304.222 235.782,305.222 235.5,306.5C 233.457,307.579 232.124,309.246 231.5,311.5C 230.5,311.833 229.833,312.5 229.5,313.5C 227.451,314.882 225.785,316.548 224.5,318.5C 221.708,318.622 219.708,319.956 218.5,322.5C 216.214,322.595 214.214,323.262 212.5,324.5C 212.167,324.5 211.833,324.5 211.5,324.5C 209.784,324.629 208.117,324.962 206.5,325.5C 200.131,325.653 193.797,325.32 187.5,324.5C 187.167,324.5 186.833,324.5 186.5,324.5C 185.101,323.11 183.434,322.11 181.5,321.5C 181.167,321.5 180.833,321.5 180.5,321.5C 177.193,319.203 173.86,316.87 170.5,314.5C 169.833,313.5 169.167,312.5 168.5,311.5C 168.5,309.5 167.5,308.5 165.5,308.5C 165.5,308.167 165.5,307.833 165.5,307.5C 165.155,304.802 163.822,302.802 161.5,301.5C 161.122,299.079 160.455,296.746 159.5,294.5C 159.5,286.167 159.5,277.833 159.5,269.5C 160.227,267.046 161.227,264.713 162.5,262.5C 162.5,261.833 162.5,261.167 162.5,260.5C 165.209,257.792 167.542,254.792 169.5,251.5C 174.486,248.179 178.82,244.179 182.5,239.5C 183.788,237.965 183.788,236.299 182.5,234.5C 181.583,233.873 180.583,233.539 179.5,233.5C 179.5,231.5 178.5,230.5 176.5,230.5C 176.19,228.856 175.19,227.856 173.5,227.5C 172.5,225.833 171.167,224.5 169.5,223.5C 168.598,221.659 167.264,220.326 165.5,219.5C 165.209,218.351 164.376,217.684 163,217.5C 160.12,218.21 157.953,219.877 156.5,222.5C 156.672,223.492 156.338,224.158 155.5,224.5C 154.167,224.5 153.5,225.167 153.5,226.5C 152.167,226.5 151.5,227.167 151.5,228.5C 148.5,230.833 145.5,233.167 142.5,235.5C 138.134,237.088 134.134,239.088 130.5,241.5C 121.46,241.748 112.46,241.415 103.5,240.5C 102.508,240.672 101.842,240.338 101.5,239.5C 99.4336,237.801 97.1003,236.468 94.5,235.5C 94.0269,234.094 93.0269,233.427 91.5,233.5C 91.0269,232.094 90.0269,231.427 88.5,231.5C 86.479,228.159 84.1457,225.159 81.5,222.5C 81.5,221.833 81.5,221.167 81.5,220.5C 80.8897,218.566 79.8897,216.899 78.5,215.5C 77.7347,212.904 77.4013,210.237 77.5,207.5C 77.1315,199.72 77.7982,192.053 79.5,184.5C 80.7005,179.768 82.7005,175.434 85.5,171.5C 88.2347,169.479 90.9014,167.479 93.5,165.5C 95.8525,164.66 97.8525,163.326 99.5,161.5C 99.5,161.167 99.5,160.833 99.5,160.5C 99.8333,160.5 100.167,160.5 100.5,160.5C 101.71,160.068 102.71,159.401 103.5,158.5C 103.833,158.5 104.167,158.5 104.5,158.5C 107.167,158.167 109.833,157.833 112.5,157.5C 119.928,157.302 127.261,157.969 134.5,159.5C 137.612,162.224 141.279,164.224 145.5,165.5C 145.833,167.833 147.167,169.167 149.5,169.5C 152.436,174.105 156.102,178.105 160.5,181.5C 160.962,182.88 161.962,183.547 163.5,183.5C 166.877,182.123 169.211,179.79 170.5,176.5C 171.5,174.833 172.833,173.5 174.5,172.5C 177.692,170.828 180.525,168.495 183,165.5C 183.667,163.5 183.667,161.5 183,159.5C 182.329,158.748 181.496,158.414 180.5,158.5C 180.5,156.5 179.5,155.5 177.5,155.5C 177.167,152.5 175.5,150.833 172.5,150.5C 172.573,148.973 171.906,147.973 170.5,147.5C 169.774,144.712 168.107,142.712 165.5,141.5C 164.85,139.565 164.517,137.565 164.5,135.5C 163.5,135.5 162.5,135.5 161.5,135.5C 161.923,133.219 161.256,131.552 159.5,130.5C 159.672,129.508 159.338,128.842 158.5,128.5C 158.5,128.167 158.5,127.833 158.5,127.5C 158.543,119.152 158.876,110.819 159.5,102.5C 159.5,101.833 159.833,101.5 160.5,101.5C 161.492,99.5439 162.492,97.5439 163.5,95.5C 163.833,94.1667 164.167,92.8333 164.5,91.5C 167.167,89.1667 169.833,86.8333 172.5,84.5C 175.703,82.732 179.037,81.232 182.5,80C 183.381,79.2917 184.047,78.4584 184.5,77.5C 186.167,76.8333 187.833,76.1667 189.5,75.5 Z"/></g>
<g><path style="opacity:1" fill="#a2978e" d="M 218.5,77.5 C 221.546,77.7247 223.879,79.058 225.5,81.5C 222.9,80.5324 220.566,79.1991 218.5,77.5 Z"/></g>
<g><path style="opacity:1" fill="#9f948b" d="M 182.5,76.5 C 182.5,76.8333 182.5,77.1667 182.5,77.5C 179.366,78.9009 176.366,80.5675 173.5,82.5C 175.391,78.9587 178.391,76.9587 182.5,76.5 Z"/></g>
<g><path style="opacity:1" fill="#3e3936" d="M 182.5,77.5 C 183.167,77.5 183.833,77.5 184.5,77.5C 184.047,78.4584 183.381,79.2917 182.5,80C 179.037,81.232 175.703,82.732 172.5,84.5C 172.833,83.8333 173.167,83.1667 173.5,82.5C 176.366,80.5675 179.366,78.9009 182.5,77.5 Z"/></g>
<g><path style="opacity:1" fill="#a1958d" d="M 225.5,81.5 C 228.089,82.4194 230.089,84.086 231.5,86.5C 231.167,86.5 230.833,86.5 230.5,86.5C 228.5,85.1667 226.833,83.5 225.5,81.5 Z"/></g>
<g><path style="opacity:1" fill="#978c84" d="M 173.5,82.5 C 173.167,83.1667 172.833,83.8333 172.5,84.5C 169.833,86.8333 167.167,89.1667 164.5,91.5C 166.5,87.5 169.5,84.5 173.5,82.5 Z"/></g>
<g><path style="opacity:1" fill="#837a73" d="M 230.5,86.5 C 230.833,86.5 231.167,86.5 231.5,86.5C 235.612,90.8348 238.612,95.8348 240.5,101.5C 240.167,101.5 239.833,101.5 239.5,101.5C 237.053,96.1489 234.053,91.1489 230.5,86.5 Z"/></g>
<g><path style="opacity:1" fill="#9e938b" d="M 164.5,91.5 C 164.167,92.8333 163.833,94.1667 163.5,95.5C 162.5,96.1667 161.5,96.8333 160.5,97.5C 161.34,95.1475 162.674,93.1475 164.5,91.5 Z"/></g>
<g><path style="opacity:1" fill="#7c736d" d="M 205.5,98.5 C 201.241,96.9709 197.241,97.3042 193.5,99.5C 190.615,100.382 187.948,101.716 185.5,103.5C 187.316,100.348 189.983,98.3484 193.5,97.5C 197.078,96.4113 200.745,96.2446 204.5,97C 205.056,97.3826 205.389,97.8826 205.5,98.5 Z"/></g>
<g><path style="opacity:1" fill="#c9bbb1" d="M 205.5,98.5 C 205.5,98.8333 205.5,99.1667 205.5,99.5C 201.5,99.5 197.5,99.5 193.5,99.5C 197.241,97.3042 201.241,96.9709 205.5,98.5 Z"/></g>
<g><path style="opacity:1" fill="#423c39" d="M 211.5,100.5 C 209.718,99.2804 207.718,98.6138 205.5,98.5C 205.389,97.8826 205.056,97.3826 204.5,97C 200.745,96.2446 197.078,96.4113 193.5,97.5C 195.223,96.1999 197.39,95.5332 200,95.5C 203.651,95.7655 207.151,96.5989 210.5,98C 211.252,98.6708 211.586,99.5041 211.5,100.5 Z"/></g>
<g><path style="opacity:1" fill="#5e5752" d="M 163.5,95.5 C 162.492,97.5439 161.492,99.5439 160.5,101.5C 160.5,100.833 160.5,100.167 160.5,99.5C 160.5,98.8333 160.5,98.1667 160.5,97.5C 161.5,96.8333 162.5,96.1667 163.5,95.5 Z"/></g>
<g><path style="opacity:1" fill="#aea298" d="M 205.5,99.5 C 205.5,99.1667 205.5,98.8333 205.5,98.5C 207.718,98.6138 209.718,99.2804 211.5,100.5C 212.833,102.167 214.167,103.833 215.5,105.5C 212.416,103.082 209.082,101.082 205.5,99.5 Z"/></g>
<g><path style="opacity:1" fill="#5b5450" d="M 211.5,100.5 C 214.167,101.167 215.833,102.833 216.5,105.5C 216.167,105.5 215.833,105.5 215.5,105.5C 214.167,103.833 212.833,102.167 211.5,100.5 Z"/></g>
<g><path style="opacity:1" fill="#9b9088" d="M 160.5,99.5 C 160.5,100.167 160.5,100.833 160.5,101.5C 159.833,101.5 159.5,101.833 159.5,102.5C 159.167,102.5 158.833,102.5 158.5,102.5C 158.427,100.973 159.094,99.9731 160.5,99.5 Z"/></g>
<g><path style="opacity:1" fill="#eeded1" d="M 193.5,99.5 C 197.5,99.5 201.5,99.5 205.5,99.5C 209.082,101.082 212.416,103.082 215.5,105.5C 216.508,107.544 217.508,109.544 218.5,111.5C 219.833,114.833 219.833,118.167 218.5,121.5C 217.656,123.843 216.656,126.176 215.5,128.5C 214.094,128.973 213.427,129.973 213.5,131.5C 210.167,134.167 207.167,137.167 204.5,140.5C 200.26,142.523 197.26,141.357 195.5,137C 194.255,136.209 192.922,135.709 191.5,135.5C 190.109,133.11 188.109,131.443 185.5,130.5C 184.434,128.148 183.267,125.814 182,123.5C 181.501,119.514 181.334,115.514 181.5,111.5C 182.847,108.807 184.18,106.14 185.5,103.5C 187.948,101.716 190.615,100.382 193.5,99.5 Z"/></g>
<g><path style="opacity:1" fill="#90867e" d="M 215.5,105.5 C 215.833,105.5 216.167,105.5 216.5,105.5C 218.081,107.142 218.747,109.142 218.5,111.5C 217.508,109.544 216.508,107.544 215.5,105.5 Z"/></g>
<g><path style="opacity:1" fill="#c1b4a9" d="M 240.5,102.5 C 243.092,104.036 244.092,106.369 243.5,109.5C 242.935,107.58 241.935,105.913 240.5,104.5C 240.5,103.833 240.5,103.167 240.5,102.5 Z"/></g>
<g><path style="opacity:1" fill="#7e756e" d="M 185.5,103.5 C 184.18,106.14 182.847,108.807 181.5,111.5C 181.167,111.5 180.833,111.5 180.5,111.5C 180.557,110.391 180.89,109.391 181.5,108.5C 182.124,106.246 183.457,104.579 185.5,103.5 Z"/></g>
<g><path style="opacity:1" fill="#887f78" d="M 157.5,105.5 C 157.833,105.5 158.167,105.5 158.5,105.5C 157.708,111.13 157.375,116.797 157.5,122.5C 156.238,116.963 156.238,111.297 157.5,105.5 Z"/></g>
<g><path style="opacity:1" fill="#9a8f86" d="M 240.5,104.5 C 241.935,105.913 242.935,107.58 243.5,109.5C 243.5,110.5 243.5,111.5 243.5,112.5C 243.806,115.385 243.473,118.052 242.5,120.5C 242.754,115.031 242.087,109.697 240.5,104.5 Z"/></g>
<g><path style="opacity:1" fill="#c6b8ae" d="M 157.5,105.5 C 156.238,111.297 156.238,116.963 157.5,122.5C 157.5,124.167 157.5,125.833 157.5,127.5C 155.945,123.797 155.278,119.797 155.5,115.5C 155.667,112.5 155.833,109.5 156,106.5C 156.383,105.944 156.883,105.611 157.5,105.5 Z"/></g>
<g><path style="opacity:1" fill="#46403d" d="M 239.5,101.5 C 239.833,101.5 240.167,101.5 240.5,101.5C 240.5,101.833 240.5,102.167 240.5,102.5C 240.5,103.167 240.5,103.833 240.5,104.5C 242.087,109.697 242.754,115.031 242.5,120.5C 242.5,121.833 242.5,123.167 242.5,124.5C 242.167,124.5 241.833,124.5 241.5,124.5C 241.641,116.654 240.975,108.987 239.5,101.5 Z"/></g>
<g><path style="opacity:1" fill="#564f4b" d="M 158.5,102.5 C 158.833,102.5 159.167,102.5 159.5,102.5C 158.876,110.819 158.543,119.152 158.5,127.5C 158.167,127.5 157.833,127.5 157.5,127.5C 157.5,125.833 157.5,124.167 157.5,122.5C 157.375,116.797 157.708,111.13 158.5,105.5C 158.5,104.5 158.5,103.5 158.5,102.5 Z"/></g>
<g><path style="opacity:1" fill="#4c4642" d="M 181.5,108.5 C 180.89,109.391 180.557,110.391 180.5,111.5C 180.5,115.5 180.5,119.5 180.5,123.5C 179.836,121.19 179.503,118.69 179.5,116C 179.525,113.071 180.191,110.571 181.5,108.5 Z"/></g>
<g><path style="opacity:1" fill="#49423f" d="M 216.5,105.5 C 217.496,105.414 218.329,105.748 219,106.5C 223.493,117.46 221.327,126.793 212.5,134.5C 212.557,133.391 212.89,132.391 213.5,131.5C 214.906,131.027 215.573,130.027 215.5,128.5C 218.092,126.964 219.092,124.631 218.5,121.5C 219.833,118.167 219.833,114.833 218.5,111.5C 218.747,109.142 218.081,107.142 216.5,105.5 Z"/></g>
<g><path style="opacity:1" fill="#9e938b" d="M 218.5,121.5 C 219.092,124.631 218.092,126.964 215.5,128.5C 216.656,126.176 217.656,123.843 218.5,121.5 Z"/></g>
<g><path style="opacity:1" fill="#8d837b" d="M 180.5,111.5 C 180.833,111.5 181.167,111.5 181.5,111.5C 181.334,115.514 181.501,119.514 182,123.5C 183.267,125.814 184.434,128.148 185.5,130.5C 183.297,128.583 181.631,126.25 180.5,123.5C 180.5,119.5 180.5,115.5 180.5,111.5 Z"/></g>
<g><path style="opacity:1" fill="#c7baaf" d="M 243.5,112.5 C 244.638,115.304 244.805,118.304 244,121.5C 243.667,124.167 243.333,126.833 243,129.5C 242.617,130.056 242.117,130.389 241.5,130.5C 242.15,128.565 242.483,126.565 242.5,124.5C 242.5,123.167 242.5,121.833 242.5,120.5C 243.473,118.052 243.806,115.385 243.5,112.5 Z"/></g>
<g><path style="opacity:1" fill="#988d85" d="M 215.5,128.5 C 215.573,130.027 214.906,131.027 213.5,131.5C 213.427,129.973 214.094,128.973 215.5,128.5 Z"/></g>
<g><path style="opacity:1" fill="#7a716b" d="M 241.5,124.5 C 241.833,124.5 242.167,124.5 242.5,124.5C 242.483,126.565 242.15,128.565 241.5,130.5C 241.167,130.5 240.833,130.5 240.5,130.5C 240.517,128.435 240.85,126.435 241.5,124.5 Z"/></g>
<g><path style="opacity:1" fill="#827972" d="M 158.5,128.5 C 159.338,128.842 159.672,129.508 159.5,130.5C 160.11,131.391 160.443,132.391 160.5,133.5C 158.787,132.365 158.12,130.698 158.5,128.5 Z"/></g>
<g><path style="opacity:1" fill="#807770" d="M 185.5,130.5 C 188.109,131.443 190.109,133.11 191.5,135.5C 191.5,135.833 191.5,136.167 191.5,136.5C 188.5,135.5 186.5,133.5 185.5,130.5 Z"/></g>
<g><path style="opacity:1" fill="#bfb2a7" d="M 240.5,130.5 C 240.833,130.5 241.167,130.5 241.5,130.5C 242.092,133.631 241.092,135.964 238.5,137.5C 239.933,135.442 240.6,133.108 240.5,130.5 Z"/></g>
<g><path style="opacity:1" fill="#3c3634" d="M 159.5,130.5 C 161.256,131.552 161.923,133.219 161.5,135.5C 162.5,135.5 163.5,135.5 164.5,135.5C 164.517,137.565 164.85,139.565 165.5,141.5C 164.167,139.833 162.833,138.167 161.5,136.5C 160.596,135.791 160.263,134.791 160.5,133.5C 160.443,132.391 160.11,131.391 159.5,130.5 Z"/></g>
<g><path style="opacity:1" fill="#716963" d="M 213.5,131.5 C 212.89,132.391 212.557,133.391 212.5,134.5C 210.167,136.167 208.167,138.167 206.5,140.5C 205.833,140.5 205.167,140.5 204.5,140.5C 207.167,137.167 210.167,134.167 213.5,131.5 Z"/></g>
<g><path style="opacity:1" fill="#8e847c" d="M 191.5,136.5 C 193.5,137.167 194.833,138.5 195.5,140.5C 194.833,140.5 194.167,140.5 193.5,140.5C 192.833,139.167 192.167,137.833 191.5,136.5 Z"/></g>
<g><path style="opacity:1" fill="#d3c5ba" d="M 157.5,127.5 C 157.833,127.5 158.167,127.5 158.5,127.5C 158.5,127.833 158.5,128.167 158.5,128.5C 158.12,130.698 158.787,132.365 160.5,133.5C 160.263,134.791 160.596,135.791 161.5,136.5C 161.833,137.833 162.167,139.167 162.5,140.5C 158.573,137.191 156.906,132.858 157.5,127.5 Z"/></g>
<g><path style="opacity:1" fill="#948981" d="M 161.5,136.5 C 162.833,138.167 164.167,139.833 165.5,141.5C 165.5,142.167 165.5,142.833 165.5,143.5C 164.167,142.833 163.167,141.833 162.5,140.5C 162.167,139.167 161.833,137.833 161.5,136.5 Z"/></g>
<g><path style="opacity:1" fill="#79706a" d="M 240.5,130.5 C 240.6,133.108 239.933,135.442 238.5,137.5C 237.89,139.434 236.89,141.101 235.5,142.5C 236.411,138.076 238.078,134.076 240.5,130.5 Z"/></g>
<g><path style="opacity:1" fill="#5d5652" d="M 193.5,140.5 C 194.167,140.5 194.833,140.5 195.5,140.5C 196.338,140.842 196.672,141.508 196.5,142.5C 195.29,142.068 194.29,141.401 193.5,140.5 Z"/></g>
<g><path style="opacity:1" fill="#cec0b5" d="M 191.5,136.5 C 191.5,136.167 191.5,135.833 191.5,135.5C 192.922,135.709 194.255,136.209 195.5,137C 197.26,141.357 200.26,142.523 204.5,140.5C 204.167,141.5 203.5,142.167 202.5,142.5C 200.5,142.5 198.5,142.5 196.5,142.5C 196.672,141.508 196.338,140.842 195.5,140.5C 194.833,138.5 193.5,137.167 191.5,136.5 Z"/></g>
<g><path style="opacity:1" fill="#423c39" d="M 204.5,140.5 C 205.167,140.5 205.833,140.5 206.5,140.5C 204.53,144.151 201.53,146.151 197.5,146.5C 197.5,145.5 197.5,144.5 197.5,143.5C 199.586,145.023 201.252,144.69 202.5,142.5C 203.5,142.167 204.167,141.5 204.5,140.5 Z"/></g>
<g><path style="opacity:1" fill="#443e3b" d="M 165.5,141.5 C 168.107,142.712 169.774,144.712 170.5,147.5C 169.5,146.833 168.5,146.167 167.5,145.5C 166.5,145.167 165.833,144.5 165.5,143.5C 165.5,142.833 165.5,142.167 165.5,141.5 Z"/></g>
<g><path style="opacity:1" fill="#a79b92" d="M 196.5,142.5 C 198.5,142.5 200.5,142.5 202.5,142.5C 201.252,144.69 199.586,145.023 197.5,143.5C 196.833,143.5 196.5,143.167 196.5,142.5 Z"/></g>
<g><path style="opacity:1" fill="#6d6560" d="M 167.5,145.5 C 168.5,146.167 169.5,146.833 170.5,147.5C 171.906,147.973 172.573,148.973 172.5,150.5C 171.833,150.167 171.167,149.833 170.5,149.5C 168.738,148.738 167.738,147.404 167.5,145.5 Z"/></g>
<g><path style="opacity:1" fill="#887e77" d="M 235.5,142.5 C 231.874,147.461 227.874,152.128 223.5,156.5C 223.167,156.5 222.833,156.5 222.5,156.5C 222.5,156.167 222.5,155.833 222.5,155.5C 226.548,150.785 230.881,146.452 235.5,142.5 Z"/></g>
<g><path style="opacity:1" fill="#4d4643" d="M 172.5,150.5 C 175.5,150.833 177.167,152.5 177.5,155.5C 175.5,154.167 173.833,152.5 172.5,150.5 Z"/></g>
<g><path style="opacity:1" fill="#afa399" d="M 130.5,157.5 C 124.545,156.637 118.545,156.303 112.5,156.5C 110.097,156.448 107.764,156.781 105.5,157.5C 105.611,156.883 105.944,156.383 106.5,156C 113.833,155.333 121.167,155.333 128.5,156C 129.416,156.278 130.082,156.778 130.5,157.5 Z"/></g>
<g><path style="opacity:1" fill="#cdbfb4" d="M 170.5,149.5 C 171.167,149.833 171.833,150.167 172.5,150.5C 173.833,152.5 175.5,154.167 177.5,155.5C 177.5,155.833 177.5,156.167 177.5,156.5C 175.302,155.986 173.302,154.986 171.5,153.5C 170.571,152.311 170.238,150.978 170.5,149.5 Z"/></g>
<g><path style="opacity:1" fill="#524b47" d="M 177.5,156.5 C 177.5,156.167 177.5,155.833 177.5,155.5C 179.5,155.5 180.5,156.5 180.5,158.5C 179.5,157.833 178.5,157.167 177.5,156.5 Z"/></g>
<g><path style="opacity:1" fill="#ab9f96" d="M 271.5,156.5 C 277.653,155.347 283.986,155.18 290.5,156C 292.32,156.2 293.653,157.034 294.5,158.5C 292.784,158.371 291.117,158.038 289.5,157.5C 283.69,156.51 277.69,156.177 271.5,156.5 Z"/></g>
<g><path style="opacity:1" fill="#564f4b" d="M 112.5,157.5 C 112.5,157.167 112.5,156.833 112.5,156.5C 118.545,156.303 124.545,156.637 130.5,157.5C 131.568,158.434 132.901,158.768 134.5,158.5C 134.5,158.833 134.5,159.167 134.5,159.5C 127.261,157.969 119.928,157.302 112.5,157.5 Z"/></g>
<g><path style="opacity:1" fill="#807770" d="M 112.5,156.5 C 112.5,156.833 112.5,157.167 112.5,157.5C 109.833,157.833 107.167,158.167 104.5,158.5C 104.5,157.833 104.833,157.5 105.5,157.5C 107.764,156.781 110.097,156.448 112.5,156.5 Z"/></g>
<g><path style="opacity:1" fill="#504a46" d="M 222.5,155.5 C 222.5,155.833 222.5,156.167 222.5,156.5C 221.5,157.167 220.5,157.833 219.5,158.5C 219.5,156.5 220.5,155.5 222.5,155.5 Z"/></g>
<g><path style="opacity:1" fill="#b3a79d" d="M 222.5,156.5 C 222.833,156.5 223.167,156.5 223.5,156.5C 222.542,157.962 221.376,159.295 220,160.5C 219.51,161.793 219.343,163.127 219.5,164.5C 218.833,164.167 218.167,163.833 217.5,163.5C 217.5,162.5 217.5,161.5 217.5,160.5C 218.5,160.167 219.167,159.5 219.5,158.5C 220.5,157.833 221.5,157.167 222.5,156.5 Z"/></g>
<g><path style="opacity:1" fill="#6c645f" d="M 271.5,156.5 C 277.69,156.177 283.69,156.51 289.5,157.5C 284.167,157.5 278.833,157.5 273.5,157.5C 271.565,158.15 269.565,158.483 267.5,158.5C 268.514,157.326 269.847,156.66 271.5,156.5 Z"/></g>
<g><path style="opacity:1" fill="#958b83" d="M 103.5,158.5 C 102.71,159.401 101.71,160.068 100.5,160.5C 100.821,158.952 101.821,158.285 103.5,158.5 Z"/></g>
<g><path style="opacity:1" fill="#9d9289" d="M 134.5,159.5 C 134.5,159.167 134.5,158.833 134.5,158.5C 136.027,158.427 137.027,159.094 137.5,160.5C 136.391,160.443 135.391,160.11 134.5,159.5 Z"/></g>
<g><path style="opacity:1" fill="#57504c" d="M 289.5,157.5 C 291.117,158.038 292.784,158.371 294.5,158.5C 295.791,158.263 296.791,158.596 297.5,159.5C 295.143,159.663 292.81,159.497 290.5,159C 289.944,158.617 289.611,158.117 289.5,157.5 Z"/></g>
<g><path style="opacity:1" fill="#b4a79e" d="M 265.5,158.5 C 265.167,159.5 264.5,160.167 263.5,160.5C 262.5,160.5 261.5,160.5 260.5,160.5C 261.93,159.463 263.597,158.796 265.5,158.5 Z"/></g>
<g><path style="opacity:1" fill="#47413e" d="M 273.5,157.5 C 273.389,158.117 273.056,158.617 272.5,159C 269.247,159.201 266.247,160.034 263.5,161.5C 263.5,161.167 263.5,160.833 263.5,160.5C 264.5,160.167 265.167,159.5 265.5,158.5C 266.167,158.5 266.833,158.5 267.5,158.5C 269.565,158.483 271.565,158.15 273.5,157.5 Z"/></g>
<g><path style="opacity:1" fill="#79706a" d="M 297.5,159.5 C 299.403,159.796 301.07,160.463 302.5,161.5C 300.302,161.88 298.635,161.213 297.5,159.5 Z"/></g>
<g><path style="opacity:1" fill="#968c84" d="M 99.5,160.5 C 99.5,160.833 99.5,161.167 99.5,161.5C 98.1667,161.833 96.8333,162.167 95.5,162.5C 96.287,160.896 97.6203,160.229 99.5,160.5 Z"/></g>
<g><path style="opacity:1" fill="#726964" d="M 134.5,159.5 C 135.391,160.11 136.391,160.443 137.5,160.5C 139.58,161.044 141.58,161.878 143.5,163C 144.381,163.708 145.047,164.542 145.5,165.5C 141.279,164.224 137.612,162.224 134.5,159.5 Z"/></g>
<g><path style="opacity:1" fill="#cbbdb2" d="M 177.5,156.5 C 178.5,157.167 179.5,157.833 180.5,158.5C 181.942,159.82 182.608,161.486 182.5,163.5C 181.391,163.557 180.391,163.89 179.5,164.5C 179.713,161.549 179.046,158.882 177.5,156.5 Z"/></g>
<g><path style="opacity:1" fill="#6b635e" d="M 260.5,160.5 C 261.5,160.5 262.5,160.5 263.5,160.5C 263.5,160.833 263.5,161.167 263.5,161.5C 261.313,162.758 258.98,163.758 256.5,164.5C 257.833,163.167 259.167,161.833 260.5,160.5 Z"/></g>
<g><path style="opacity:1" fill="#58514d" d="M 217.5,160.5 C 217.5,161.5 217.5,162.5 217.5,163.5C 215.015,162.26 215.015,161.26 217.5,160.5 Z"/></g>
<g><path style="opacity:1" fill="#968b83" d="M 95.5,162.5 C 94.8333,163.5 94.1667,164.5 93.5,165.5C 90.9014,167.479 88.2347,169.479 85.5,171.5C 85.5106,169.983 86.1772,168.816 87.5,168C 89.7673,165.563 92.4339,163.729 95.5,162.5 Z"/></g>
<g><path style="opacity:1" fill="#807770" d="M 302.5,161.5 C 304.749,162.08 306.415,163.413 307.5,165.5C 305.251,164.92 303.585,163.587 302.5,161.5 Z"/></g>
<g><path style="opacity:1" fill="#48423f" d="M 99.5,161.5 C 97.8525,163.326 95.8525,164.66 93.5,165.5C 94.1667,164.5 94.8333,163.5 95.5,162.5C 96.8333,162.167 98.1667,161.833 99.5,161.5 Z"/></g>
<g><path style="opacity:1" fill="#6a625d" d="M 256.5,164.5 C 255.833,165.833 254.833,166.833 253.5,167.5C 253.5,167.167 253.5,166.833 253.5,166.5C 253.973,165.094 254.973,164.427 256.5,164.5 Z"/></g>
<g><path style="opacity:1" fill="#716963" d="M 145.5,165.5 C 147.341,166.402 148.674,167.736 149.5,169.5C 147.167,169.167 145.833,167.833 145.5,165.5 Z"/></g>
<g><path style="opacity:1" fill="#8f857d" d="M 220.5,166.5 C 223.167,167.167 224.833,168.833 225.5,171.5C 223.5,170.167 221.833,168.5 220.5,166.5 Z"/></g>
<g><path style="opacity:1" fill="#544d49" d="M 307.5,165.5 C 308.167,165.833 308.833,166.167 309.5,166.5C 309.833,167.167 310.167,167.833 310.5,168.5C 308.5,168.5 307.5,167.5 307.5,165.5 Z"/></g>
<g><path style="opacity:1" fill="#3a3532" d="M 180.5,158.5 C 181.496,158.414 182.329,158.748 183,159.5C 183.667,161.5 183.667,163.5 183,165.5C 180.525,168.495 177.692,170.828 174.5,172.5C 177.167,169.5 179.833,166.5 182.5,163.5C 182.608,161.486 181.942,159.82 180.5,158.5 Z"/></g>
<g><path style="opacity:1" fill="#c5b7ad" d="M 309.5,166.5 C 312.179,166.525 313.512,167.858 313.5,170.5C 312.5,169.833 311.5,169.167 310.5,168.5C 310.167,167.833 309.833,167.167 309.5,166.5 Z"/></g>
<g><path style="opacity:1" fill="#877e77" d="M 182.5,163.5 C 179.833,166.5 177.167,169.5 174.5,172.5C 172.833,173.5 171.5,174.833 170.5,176.5C 168.833,177.833 167.167,179.167 165.5,180.5C 169.772,174.89 174.438,169.557 179.5,164.5C 180.391,163.89 181.391,163.557 182.5,163.5 Z"/></g>
<g><path style="opacity:1" fill="#6c645e" d="M 149.5,169.5 C 153.898,172.895 157.564,176.895 160.5,181.5C 156.102,178.105 152.436,174.105 149.5,169.5 Z"/></g>
<g><path style="opacity:1" fill="#9f948b" d="M 253.5,166.5 C 253.5,166.833 253.5,167.167 253.5,167.5C 251.167,169.5 248.833,171.5 246.5,173.5C 247.833,170.167 250.167,167.833 253.5,166.5 Z"/></g>
<g><path style="opacity:1" fill="#b9aca2" d="M 313.5,170.5 C 315.816,171.422 317.483,173.089 318.5,175.5C 318.167,175.5 317.833,175.5 317.5,175.5C 316.833,175.167 316.167,174.833 315.5,174.5C 315.267,172.938 314.6,171.605 313.5,170.5 Z"/></g>
<g><path style="opacity:1" fill="#443e3b" d="M 310.5,168.5 C 311.5,169.167 312.5,169.833 313.5,170.5C 314.6,171.605 315.267,172.938 315.5,174.5C 312.764,173.427 311.097,171.427 310.5,168.5 Z"/></g>
<g><path style="opacity:1" fill="#988d85" d="M 85.5,171.5 C 82.7005,175.434 80.7005,179.768 79.5,184.5C 78.8333,184.833 78.1667,185.167 77.5,185.5C 78.4904,179.849 81.157,175.182 85.5,171.5 Z"/></g>
<g><path style="opacity:1" fill="#a99e94" d="M 225.5,171.5 C 228.179,171.525 229.512,172.858 229.5,175.5C 227.833,174.5 226.5,173.167 225.5,171.5 Z"/></g>
<g><path style="opacity:1" fill="#90867e" d="M 246.5,173.5 C 246.167,174.5 245.5,175.167 244.5,175.5C 244.5,174.167 245.167,173.5 246.5,173.5 Z"/></g>
<g><path style="opacity:1" fill="#cabdb2" d="M 229.5,175.5 C 232.546,175.183 234.213,176.516 234.5,179.5C 234.167,179.5 233.833,179.5 233.5,179.5C 232.833,178.167 231.833,177.167 230.5,176.5C 229.833,176.5 229.5,176.167 229.5,175.5 Z"/></g>
<g><path style="opacity:1" fill="#615955" d="M 230.5,176.5 C 231.833,177.167 232.833,178.167 233.5,179.5C 231.5,179.5 230.5,178.5 230.5,176.5 Z"/></g>
<g><path style="opacity:1" fill="#756c66" d="M 244.5,175.5 C 243.876,177.754 242.543,179.421 240.5,180.5C 240.5,180.167 240.5,179.833 240.5,179.5C 241.402,177.659 242.736,176.326 244.5,175.5 Z"/></g>
<g><path style="opacity:1" fill="#453f3c" d="M 284.5,180.5 C 279.456,180.173 274.456,180.506 269.5,181.5C 268.757,182.182 268.091,182.849 267.5,183.5C 266.391,183.557 265.391,183.89 264.5,184.5C 266.617,181.417 269.617,179.417 273.5,178.5C 276.833,177.167 280.167,177.167 283.5,178.5C 283.863,179.183 284.196,179.85 284.5,180.5 Z"/></g>
<g><path style="opacity:1" fill="#504946" d="M 170.5,176.5 C 169.211,179.79 166.877,182.123 163.5,183.5C 161.962,183.547 160.962,182.88 160.5,181.5C 162.292,181.634 163.958,181.301 165.5,180.5C 167.167,179.167 168.833,177.833 170.5,176.5 Z"/></g>
<g><path style="opacity:1" fill="#524b48" d="M 114.5,180.5 C 118.646,179.353 122.98,179.186 127.5,180C 128.056,180.383 128.389,180.883 128.5,181.5C 126.883,180.962 125.216,180.629 123.5,180.5C 120.5,180.5 117.5,180.5 114.5,180.5 Z"/></g>
<g><path style="opacity:1" fill="#c9bcb1" d="M 234.5,179.5 C 236.5,179.5 238.5,179.5 240.5,179.5C 240.5,179.833 240.5,180.167 240.5,180.5C 239.508,180.328 238.842,180.662 238.5,181.5C 236.847,181.34 235.514,180.674 234.5,179.5 Z"/></g>
<g><path style="opacity:1" fill="#b7aba1" d="M 112.5,180.5 C 113.167,180.5 113.833,180.5 114.5,180.5C 117.5,180.5 120.5,180.5 123.5,180.5C 123.5,180.833 123.5,181.167 123.5,181.5C 118.275,181.186 113.275,181.853 108.5,183.5C 110.076,182.857 111.41,181.857 112.5,180.5 Z"/></g>
<g><path style="opacity:1" fill="#aea299" d="M 284.5,180.5 C 287.649,180.415 290.316,181.415 292.5,183.5C 284.169,180.923 275.836,180.923 267.5,183.5C 268.091,182.849 268.757,182.182 269.5,181.5C 274.456,180.506 279.456,180.173 284.5,180.5 Z"/></g>
<g><path style="opacity:1" fill="#827972" d="M 317.5,175.5 C 317.833,175.5 318.167,175.5 318.5,175.5C 319.455,177.746 320.122,180.079 320.5,182.5C 318.707,180.574 317.707,178.241 317.5,175.5 Z"/></g>
<g><path style="opacity:1" fill="#948982" d="M 123.5,181.5 C 123.5,181.167 123.5,180.833 123.5,180.5C 125.216,180.629 126.883,180.962 128.5,181.5C 129.694,182.272 130.694,183.272 131.5,184.5C 130.391,184.443 129.391,184.11 128.5,183.5C 126.486,183.608 124.82,182.942 123.5,181.5 Z"/></g>
<g><path style="opacity:1" fill="#857c75" d="M 233.5,179.5 C 233.833,179.5 234.167,179.5 234.5,179.5C 235.514,180.674 236.847,181.34 238.5,181.5C 236.176,182.833 234.509,182.166 233.5,179.5 Z"/></g>
<g><path style="opacity:1" fill="#958b83" d="M 204.5,183.5 C 202.689,182.178 200.689,181.678 198.5,182C 193,187.5 187.5,193 182,198.5C 181.421,199.928 181.588,201.262 182.5,202.5C 181.833,202.5 181.167,202.5 180.5,202.5C 180.34,200.801 180.506,199.134 181,197.5C 186.833,191.667 192.667,185.833 198.5,180C 201.196,179.851 203.196,181.018 204.5,183.5 Z"/></g>
<g><path style="opacity:1" fill="#edded1" d="M 204.5,183.5 C 204.554,185.632 205.554,186.965 207.5,187.5C 209.341,188.402 210.674,189.736 211.5,191.5C 214.267,194.588 216.6,197.922 218.5,201.5C 216.861,202.473 215.527,203.806 214.5,205.5C 209.77,209.227 205.77,213.56 202.5,218.5C 202.167,218.5 201.833,218.5 201.5,218.5C 199.784,218.371 198.117,218.038 196.5,217.5C 195.167,215.833 193.833,214.167 192.5,212.5C 190.167,208.167 186.833,204.833 182.5,202.5C 181.588,201.262 181.421,199.928 182,198.5C 187.5,193 193,187.5 198.5,182C 200.689,181.678 202.689,182.178 204.5,183.5 Z"/></g>
<g><path style="opacity:1" fill="#efdfd2" d="M 123.5,181.5 C 124.82,182.942 126.486,183.608 128.5,183.5C 129.539,185.531 131.205,186.864 133.5,187.5C 133.369,188.239 133.536,188.906 134,189.5C 136.839,191.869 139.672,194.203 142.5,196.5C 143.038,198.117 143.371,199.784 143.5,201.5C 142.833,202.5 142.167,203.5 141.5,204.5C 138.909,206.424 136.575,208.758 134.5,211.5C 132.833,212.5 131.5,213.833 130.5,215.5C 128.566,216.11 126.899,217.11 125.5,218.5C 124.5,218.5 123.5,218.5 122.5,218.5C 118.466,218.495 114.466,218.162 110.5,217.5C 109.609,216.89 108.609,216.557 107.5,216.5C 106.738,214.738 105.404,213.738 103.5,213.5C 103.5,213.167 103.5,212.833 103.5,212.5C 102.067,210.442 101.4,208.108 101.5,205.5C 100.327,200.858 100.327,196.191 101.5,191.5C 101.328,190.508 101.662,189.842 102.5,189.5C 103.833,188.833 104.833,187.833 105.5,186.5C 106.167,185.167 107.167,184.167 108.5,183.5C 113.275,181.853 118.275,181.186 123.5,181.5 Z"/></g>
<g><path style="opacity:1" fill="#f0e0d3" d="M 292.5,183.5 C 292.833,184.167 293.167,184.833 293.5,185.5C 295.177,188.025 296.677,190.691 298,193.5C 299.599,200.852 298.266,207.519 294,213.5C 291.974,213.915 290.474,214.915 289.5,216.5C 289.158,217.338 288.492,217.672 287.5,217.5C 281.5,217.5 275.5,217.5 269.5,217.5C 267.853,215.674 265.853,214.34 263.5,213.5C 262.931,210.665 261.264,208.999 258.5,208.5C 258.512,205.858 257.179,204.525 254.5,204.5C 254.08,202.906 253.414,201.406 252.5,200C 252.743,199.098 253.077,198.265 253.5,197.5C 257.86,192.473 262.527,187.806 267.5,183.5C 275.836,180.923 284.169,180.923 292.5,183.5 Z"/></g>
<g><path style="opacity:1" fill="#706762" d="M 112.5,180.5 C 111.41,181.857 110.076,182.857 108.5,183.5C 107.167,184.167 106.167,185.167 105.5,186.5C 104.391,186.557 103.391,186.89 102.5,187.5C 104.699,183.646 108.033,181.313 112.5,180.5 Z"/></g>
<g><path style="opacity:1" fill="#c9bbb1" d="M 128.5,183.5 C 129.391,184.11 130.391,184.443 131.5,184.5C 132.167,185.5 132.833,186.5 133.5,187.5C 131.205,186.864 129.539,185.531 128.5,183.5 Z"/></g>
<g><path style="opacity:1" fill="#5c5651" d="M 131.5,184.5 C 134.427,185.757 136.761,187.757 138.5,190.5C 136.589,189.925 134.922,188.925 133.5,187.5C 132.833,186.5 132.167,185.5 131.5,184.5 Z"/></g>
<g><path style="opacity:1" fill="#6e6661" d="M 292.5,183.5 C 295.5,184.5 297.5,186.5 298.5,189.5C 296.833,188.167 295.167,186.833 293.5,185.5C 293.167,184.833 292.833,184.167 292.5,183.5 Z"/></g>
<g><path style="opacity:1" fill="#887e77" d="M 320.5,182.5 C 321.167,182.833 321.833,183.167 322.5,183.5C 322.5,184.833 322.5,186.167 322.5,187.5C 322.167,187.5 321.833,187.5 321.5,187.5C 321.371,185.784 321.038,184.117 320.5,182.5 Z"/></g>
<g><path style="opacity:1" fill="#b9ada3" d="M 204.5,183.5 C 205.833,184.167 206.833,185.167 207.5,186.5C 207.5,186.833 207.5,187.167 207.5,187.5C 205.554,186.965 204.554,185.632 204.5,183.5 Z"/></g>
<g><path style="opacity:1" fill="#887e77" d="M 267.5,183.5 C 262.527,187.806 257.86,192.473 253.5,197.5C 253.167,197.5 252.833,197.5 252.5,197.5C 255.77,192.56 259.77,188.227 264.5,184.5C 265.391,183.89 266.391,183.557 267.5,183.5 Z"/></g>
<g><path style="opacity:1" fill="#a4988f" d="M 105.5,186.5 C 104.833,187.833 103.833,188.833 102.5,189.5C 102.5,189.167 102.5,188.833 102.5,188.5C 102.5,188.167 102.5,187.833 102.5,187.5C 103.391,186.89 104.391,186.557 105.5,186.5 Z"/></g>
<g><path style="opacity:1" fill="#655e59" d="M 102.5,188.5 C 102.5,188.833 102.5,189.167 102.5,189.5C 101.662,189.842 101.328,190.508 101.5,191.5C 101.167,191.5 100.833,191.5 100.5,191.5C 100.285,189.821 100.952,188.821 102.5,188.5 Z"/></g>
<g><path style="opacity:1" fill="#988d85" d="M 133.5,187.5 C 134.922,188.925 136.589,189.925 138.5,190.5C 139.92,192.709 141.587,194.709 143.5,196.5C 143.167,196.5 142.833,196.5 142.5,196.5C 139.672,194.203 136.839,191.869 134,189.5C 133.536,188.906 133.369,188.239 133.5,187.5 Z"/></g>
<g><path style="opacity:1" fill="#544e4a" d="M 207.5,187.5 C 207.5,187.167 207.5,186.833 207.5,186.5C 210.288,187.226 212.288,188.893 213.5,191.5C 212.833,191.5 212.167,191.5 211.5,191.5C 210.674,189.736 209.341,188.402 207.5,187.5 Z"/></g>
<g><path style="opacity:1" fill="#59524e" d="M 79.5,184.5 C 77.7982,192.053 77.1315,199.72 77.5,207.5C 75.9666,205.366 75.2999,202.866 75.5,200C 75.804,196.489 76.1373,192.989 76.5,189.5C 76.2322,187.901 76.5655,186.568 77.5,185.5C 78.1667,185.167 78.8333,184.833 79.5,184.5 Z"/></g>
<g><path style="opacity:1" fill="#a49890" d="M 76.5,189.5 C 76.1373,192.989 75.804,196.489 75.5,200C 75.2999,202.866 75.9666,205.366 77.5,207.5C 77.4013,210.237 77.7347,212.904 78.5,215.5C 77.8826,215.389 77.3826,215.056 77,214.5C 74.6988,206.986 74.0322,199.319 75,191.5C 75.2784,190.584 75.7784,189.918 76.5,189.5 Z"/></g>
<g><path style="opacity:1" fill="#756c66" d="M 100.5,191.5 C 99.6167,196.103 99.2834,200.77 99.5,205.5C 98.353,201.354 98.1864,197.02 99,192.5C 99.3826,191.944 99.8826,191.611 100.5,191.5 Z"/></g>
<g><path style="opacity:1" fill="#5d5651" d="M 298.5,189.5 C 300.68,192.177 302.013,195.344 302.5,199C 302.613,200.699 301.947,201.866 300.5,202.5C 300.731,198.007 300.064,193.674 298.5,189.5 Z"/></g>
<g><path style="opacity:1" fill="#37322f" d="M 321.5,187.5 C 321.833,187.5 322.167,187.5 322.5,187.5C 322.999,191.475 323.332,195.475 323.5,199.5C 323.663,203.777 322.997,207.777 321.5,211.5C 322.653,203.51 322.653,195.51 321.5,187.5 Z"/></g>
<g><path style="opacity:1" fill="#bdb0a6" d="M 142.5,196.5 C 142.833,196.5 143.167,196.5 143.5,196.5C 144.942,197.82 145.608,199.486 145.5,201.5C 144.833,201.5 144.167,201.5 143.5,201.5C 143.371,199.784 143.038,198.117 142.5,196.5 Z"/></g>
<g><path style="opacity:1" fill="#a1968d" d="M 211.5,191.5 C 212.167,191.5 212.833,191.5 213.5,191.5C 215.461,193.963 217.628,196.297 220,198.5C 220.74,199.749 220.573,200.749 219.5,201.5C 219.167,201.5 218.833,201.5 218.5,201.5C 216.6,197.922 214.267,194.588 211.5,191.5 Z"/></g>
<g><path style="opacity:1" fill="#afa39a" d="M 252.5,197.5 C 252.833,197.5 253.167,197.5 253.5,197.5C 253.077,198.265 252.743,199.098 252.5,200C 253.414,201.406 254.08,202.906 254.5,204.5C 250.471,202.783 249.805,200.45 252.5,197.5 Z"/></g>
<g><path style="opacity:1" fill="#746b65" d="M 143.5,201.5 C 144.167,201.5 144.833,201.5 145.5,201.5C 144.5,203.167 143.167,204.5 141.5,205.5C 141.5,205.167 141.5,204.833 141.5,204.5C 142.167,203.5 142.833,202.5 143.5,201.5 Z"/></g>
<g><path style="opacity:1" fill="#bbaea4" d="M 182.5,202.5 C 186.833,204.833 190.167,208.167 192.5,212.5C 192.167,212.5 191.833,212.5 191.5,212.5C 190.833,211.167 189.833,210.167 188.5,209.5C 188.167,208.5 187.5,207.833 186.5,207.5C 185.167,205.833 183.833,204.167 182.5,202.5 Z"/></g>
<g><path style="opacity:1" fill="#635c57" d="M 218.5,201.5 C 218.833,201.5 219.167,201.5 219.5,201.5C 218.581,204.089 216.914,206.089 214.5,207.5C 214.5,206.833 214.5,206.167 214.5,205.5C 215.527,203.806 216.861,202.473 218.5,201.5 Z"/></g>
<g><path style="opacity:1" fill="#c5b8ad" d="M 100.5,191.5 C 100.833,191.5 101.167,191.5 101.5,191.5C 100.327,196.191 100.327,200.858 101.5,205.5C 100.833,205.5 100.167,205.5 99.5,205.5C 99.2834,200.77 99.6167,196.103 100.5,191.5 Z"/></g>
<g><path style="opacity:1" fill="#46403d" d="M 180.5,202.5 C 181.167,202.5 181.833,202.5 182.5,202.5C 183.833,204.167 185.167,205.833 186.5,207.5C 184.883,206.962 183.216,206.629 181.5,206.5C 181.567,205.041 181.234,203.708 180.5,202.5 Z"/></g>
<g><path style="opacity:1" fill="#c2b5ab" d="M 254.5,204.5 C 257.179,204.525 258.512,205.858 258.5,208.5C 256.833,207.5 255.5,206.167 254.5,204.5 Z"/></g>
<g><path style="opacity:1" fill="#504a46" d="M 141.5,205.5 C 141.573,207.027 140.906,208.027 139.5,208.5C 139.427,206.973 140.094,205.973 141.5,205.5 Z"/></g>
<g><path style="opacity:1" fill="#8f857d" d="M 141.5,204.5 C 141.5,204.833 141.5,205.167 141.5,205.5C 140.094,205.973 139.427,206.973 139.5,208.5C 138.078,209.925 136.411,210.925 134.5,211.5C 136.575,208.758 138.909,206.424 141.5,204.5 Z"/></g>
<g><path style="opacity:1" fill="#c9bcb1" d="M 293.5,185.5 C 295.167,186.833 296.833,188.167 298.5,189.5C 300.064,193.674 300.731,198.007 300.5,202.5C 300.5,203.5 300.5,204.5 300.5,205.5C 298.836,208.159 297.17,210.825 295.5,213.5C 295.167,214.5 294.5,215.167 293.5,215.5C 292.167,215.833 290.833,216.167 289.5,216.5C 290.474,214.915 291.974,213.915 294,213.5C 298.266,207.519 299.599,200.852 298,193.5C 296.677,190.691 295.177,188.025 293.5,185.5 Z"/></g>
<g><path style="opacity:1" fill="#867d76" d="M 99.5,205.5 C 100.167,205.5 100.833,205.5 101.5,205.5C 101.4,208.108 102.067,210.442 103.5,212.5C 101.058,210.879 99.7247,208.546 99.5,205.5 Z"/></g>
<g><path style="opacity:1" fill="#58514d" d="M 188.5,209.5 C 189.833,210.167 190.833,211.167 191.5,212.5C 189.5,212.5 188.5,211.5 188.5,209.5 Z"/></g>
<g><path style="opacity:1" fill="#857c75" d="M 214.5,205.5 C 214.5,206.167 214.5,206.833 214.5,207.5C 211.167,210.167 208.167,213.167 205.5,216.5C 204.5,217.167 203.5,217.833 202.5,218.5C 205.77,213.56 209.77,209.227 214.5,205.5 Z"/></g>
<g><path style="opacity:1" fill="#bbaea4" d="M 258.5,208.5 C 261.264,208.999 262.931,210.665 263.5,213.5C 261.5,212.167 259.833,210.5 258.5,208.5 Z"/></g>
<g><path style="opacity:1" fill="#d1c3b8" d="M 322.5,183.5 C 323.158,184.398 323.824,185.398 324.5,186.5C 325.665,195.147 325.832,203.814 325,212.5C 323.951,215.187 322.451,217.52 320.5,219.5C 324.914,208.949 325.581,198.282 322.5,187.5C 322.5,186.167 322.5,184.833 322.5,183.5 Z"/></g>
<g><path style="opacity:1" fill="#5b544f" d="M 300.5,205.5 C 300.798,209.601 299.132,212.267 295.5,213.5C 297.17,210.825 298.836,208.159 300.5,205.5 Z"/></g>
<g><path style="opacity:1" fill="#776e68" d="M 103.5,213.5 C 105.404,213.738 106.738,214.738 107.5,216.5C 105.596,216.262 104.262,215.262 103.5,213.5 Z"/></g>
<g><path style="opacity:1" fill="#877d76" d="M 134.5,211.5 C 134.267,213.062 133.6,214.395 132.5,215.5C 131.833,215.5 131.167,215.5 130.5,215.5C 131.5,213.833 132.833,212.5 134.5,211.5 Z"/></g>
<g><path style="opacity:1" fill="#9e938b" d="M 263.5,213.5 C 265.853,214.34 267.853,215.674 269.5,217.5C 269.5,217.833 269.5,218.167 269.5,218.5C 267.938,218.267 266.605,217.6 265.5,216.5C 264.599,215.71 263.932,214.71 263.5,213.5 Z"/></g>
<g><path style="opacity:1" fill="#453f3c" d="M 191.5,212.5 C 191.833,212.5 192.167,212.5 192.5,212.5C 193.833,214.167 195.167,215.833 196.5,217.5C 196.833,218.167 197.167,218.833 197.5,219.5C 196.5,219.5 195.5,219.5 194.5,219.5C 193.523,217.179 192.523,214.846 191.5,212.5 Z"/></g>
<g><path style="opacity:1" fill="#8e847c" d="M 130.5,215.5 C 129.599,217.727 127.933,218.727 125.5,218.5C 126.899,217.11 128.566,216.11 130.5,215.5 Z"/></g>
<g><path style="opacity:1" fill="#8e837c" d="M 293.5,215.5 C 291.882,217.316 289.882,218.649 287.5,219.5C 286.5,219.5 285.5,219.5 284.5,219.5C 285.5,218.833 286.5,218.167 287.5,217.5C 288.492,217.672 289.158,217.338 289.5,216.5C 290.833,216.167 292.167,215.833 293.5,215.5 Z"/></g>
<g><path style="opacity:1" fill="#7f766f" d="M 107.5,216.5 C 108.609,216.557 109.609,216.89 110.5,217.5C 110.5,217.833 110.5,218.167 110.5,218.5C 108.973,218.573 107.973,217.906 107.5,216.5 Z"/></g>
<g><path style="opacity:1" fill="#5b544f" d="M 243.5,222.5 C 242.038,221.542 240.705,220.376 239.5,219C 238.207,218.51 236.873,218.343 235.5,218.5C 235.369,217.624 235.702,216.957 236.5,216.5C 240.107,217.112 242.44,219.112 243.5,222.5 Z"/></g>
<g><path style="opacity:1" fill="#c9bbb0" d="M 269.5,218.5 C 269.5,218.167 269.5,217.833 269.5,217.5C 275.5,217.5 281.5,217.5 287.5,217.5C 286.5,218.167 285.5,218.833 284.5,219.5C 279.438,219.726 274.438,219.392 269.5,218.5 Z"/></g>
<g><path style="opacity:1" fill="#6e6661" d="M 78.5,215.5 C 79.8897,216.899 80.8897,218.566 81.5,220.5C 80.5,219.833 79.5,219.167 78.5,218.5C 78.5,217.5 78.5,216.5 78.5,215.5 Z"/></g>
<g><path style="opacity:1" fill="#b3a79d" d="M 110.5,218.5 C 110.5,218.167 110.5,217.833 110.5,217.5C 114.466,218.162 118.466,218.495 122.5,218.5C 118.967,219.715 115.301,219.715 111.5,218.5C 111.167,218.5 110.833,218.5 110.5,218.5 Z"/></g>
<g><path style="opacity:1" fill="#a3978f" d="M 196.5,217.5 C 198.117,218.038 199.784,218.371 201.5,218.5C 200.789,220.842 199.456,221.175 197.5,219.5C 197.167,218.833 196.833,218.167 196.5,217.5 Z"/></g>
<g><path style="opacity:1" fill="#4f4845" d="M 265.5,216.5 C 266.605,217.6 267.938,218.267 269.5,218.5C 274.438,219.392 279.438,219.726 284.5,219.5C 285.5,219.5 286.5,219.5 287.5,219.5C 287.082,220.222 286.416,220.722 285.5,221C 278.978,221.952 272.645,221.285 266.5,219C 265.748,218.329 265.414,217.496 265.5,216.5 Z"/></g>
<g><path style="opacity:1" fill="#b1a49b" d="M 78.5,218.5 C 79.5,219.167 80.5,219.833 81.5,220.5C 81.5,221.167 81.5,221.833 81.5,222.5C 79.7376,221.738 78.7376,220.404 78.5,218.5 Z"/></g>
<g><path style="opacity:1" fill="#766d67" d="M 111.5,218.5 C 115.301,219.715 118.967,219.715 122.5,218.5C 123.5,218.5 124.5,218.5 125.5,218.5C 125.389,219.117 125.056,219.617 124.5,220C 120.848,220.499 117.182,220.665 113.5,220.5C 112.5,220.167 111.833,219.5 111.5,218.5 Z"/></g>
<g><path style="opacity:1" fill="#aa9e95" d="M 235.5,218.5 C 236.873,218.343 238.207,218.51 239.5,219C 240.705,220.376 242.038,221.542 243.5,222.5C 246.833,226.5 250.5,230.167 254.5,233.5C 254.5,233.833 254.5,234.167 254.5,234.5C 248.576,229.917 242.909,224.917 237.5,219.5C 234.816,221.193 232.149,222.86 229.5,224.5C 231.167,222.167 233.167,220.167 235.5,218.5 Z"/></g>
<g><path style="opacity:1" fill="#413b38" d="M 130.5,215.5 C 131.167,215.5 131.833,215.5 132.5,215.5C 130.905,218.26 128.572,220.093 125.5,221C 121.311,221.812 117.311,221.645 113.5,220.5C 117.182,220.665 120.848,220.499 124.5,220C 125.056,219.617 125.389,219.117 125.5,218.5C 127.933,218.727 129.599,217.727 130.5,215.5 Z"/></g>
<g><path style="opacity:1" fill="#3c3634" d="M 205.5,216.5 C 204.944,219.279 203.278,220.946 200.5,221.5C 198.97,221.36 197.97,220.693 197.5,219.5C 199.456,221.175 200.789,220.842 201.5,218.5C 201.833,218.5 202.167,218.5 202.5,218.5C 203.5,217.833 204.5,217.167 205.5,216.5 Z"/></g>
<g><path style="opacity:1" fill="#746b65" d="M 322.5,187.5 C 325.581,198.282 324.914,208.949 320.5,219.5C 320.5,219.833 320.5,220.167 320.5,220.5C 318.14,223.218 316.14,226.218 314.5,229.5C 312.116,231.885 309.45,233.885 306.5,235.5C 309.779,232.045 312.946,228.379 316,224.5C 318.703,220.566 320.536,216.233 321.5,211.5C 322.997,207.777 323.663,203.777 323.5,199.5C 323.332,195.475 322.999,191.475 322.5,187.5 Z"/></g>
<g><path style="opacity:1" fill="#776e68" d="M 165.5,219.5 C 164.735,219.077 163.902,218.743 163,218.5C 160.941,220.07 158.774,221.403 156.5,222.5C 157.953,219.877 160.12,218.21 163,217.5C 164.376,217.684 165.209,218.351 165.5,219.5 Z"/></g>
<g><path style="opacity:1" fill="#968b83" d="M 165.5,219.5 C 167.264,220.326 168.598,221.659 169.5,223.5C 167.29,223.106 165.957,221.773 165.5,219.5 Z"/></g>
<g><path style="opacity:1" fill="#786f69" d="M 155.5,224.5 C 155.167,225.5 154.5,226.167 153.5,226.5C 153.5,225.167 154.167,224.5 155.5,224.5 Z"/></g>
<g><path style="opacity:1" fill="#ccbeb3" d="M 320.5,220.5 C 319.589,224.25 317.589,227.25 314.5,229.5C 316.14,226.218 318.14,223.218 320.5,220.5 Z"/></g>
<g><path style="opacity:1" fill="#998e86" d="M 81.5,222.5 C 84.1457,225.159 86.479,228.159 88.5,231.5C 84.9819,229.484 82.6486,226.484 81.5,222.5 Z"/></g>
<g><path style="opacity:1" fill="#786f69" d="M 153.5,226.5 C 153.167,227.5 152.5,228.167 151.5,228.5C 151.5,227.167 152.167,226.5 153.5,226.5 Z"/></g>
<g><path style="opacity:1" fill="#b6a9a0" d="M 169.5,223.5 C 171.167,224.5 172.5,225.833 173.5,227.5C 170.858,227.512 169.525,226.179 169.5,223.5 Z"/></g>
<g><path style="opacity:1" fill="#79716b" d="M 173.5,227.5 C 175.19,227.856 176.19,228.856 176.5,230.5C 174.81,230.144 173.81,229.144 173.5,227.5 Z"/></g>
<g><path style="opacity:1" fill="#635c57" d="M 176.5,230.5 C 178.5,230.5 179.5,231.5 179.5,233.5C 178.167,232.833 177.167,231.833 176.5,230.5 Z"/></g>
<g><path style="opacity:1" fill="#797069" d="M 88.5,231.5 C 90.0269,231.427 91.0269,232.094 91.5,233.5C 90.8333,233.5 90.1667,233.5 89.5,233.5C 89.1667,232.833 88.8333,232.167 88.5,231.5 Z"/></g>
<g><path style="opacity:1" fill="#5a534f" d="M 91.5,233.5 C 93.0269,233.427 94.0269,234.094 94.5,235.5C 92.9731,235.573 91.9731,234.906 91.5,233.5 Z"/></g>
<g><path style="opacity:1" fill="#625a56" d="M 254.5,234.5 C 254.5,234.167 254.5,233.833 254.5,233.5C 257.511,234.669 260.178,236.336 262.5,238.5C 261.833,238.5 261.167,238.5 260.5,238.5C 258.228,237.559 256.228,236.226 254.5,234.5 Z"/></g>
<g><path style="opacity:1" fill="#978d85" d="M 229.5,224.5 C 226.917,228.589 223.75,232.256 220,235.5C 219.4,238.095 219.9,240.429 221.5,242.5C 221.167,242.5 220.833,242.5 220.5,242.5C 218.287,240.458 217.62,238.125 218.5,235.5C 221.881,231.452 225.548,227.785 229.5,224.5 Z"/></g>
<g><path style="opacity:1" fill="#c0b3a9" d="M 89.5,233.5 C 90.1667,233.5 90.8333,233.5 91.5,233.5C 91.9731,234.906 92.9731,235.573 94.5,235.5C 95.1667,236.5 95.8333,237.5 96.5,238.5C 93.4838,237.727 91.1505,236.061 89.5,233.5 Z"/></g>
<g><path style="opacity:1" fill="#453f3c" d="M 142.5,235.5 C 141.694,236.728 140.694,237.728 139.5,238.5C 137.973,238.427 136.973,239.094 136.5,240.5C 135.833,240.5 135.167,240.5 134.5,240.5C 133.041,240.433 131.708,240.766 130.5,241.5C 134.134,239.088 138.134,237.088 142.5,235.5 Z"/></g>
<g><path style="opacity:1" fill="#a3988f" d="M 151.5,228.5 C 149.057,233.719 145.057,237.052 139.5,238.5C 140.694,237.728 141.694,236.728 142.5,235.5C 145.5,233.167 148.5,230.833 151.5,228.5 Z"/></g>
<g><path style="opacity:1" fill="#c5b8ad" d="M 179.5,234.5 C 181.262,235.262 182.262,236.596 182.5,238.5C 181.833,238.833 181.167,239.167 180.5,239.5C 180.371,237.784 180.038,236.117 179.5,234.5 Z"/></g>
<g><path style="opacity:1" fill="#91867f" d="M 306.5,235.5 C 305.198,237.822 303.198,239.155 300.5,239.5C 302.034,237.631 304.034,236.298 306.5,235.5 Z"/></g>
<g><path style="opacity:1" fill="#5c5450" d="M 179.5,234.5 C 179.5,234.167 179.5,233.833 179.5,233.5C 180.583,233.539 181.583,233.873 182.5,234.5C 183.788,236.299 183.788,237.965 182.5,239.5C 182.5,239.167 182.5,238.833 182.5,238.5C 182.262,236.596 181.262,235.262 179.5,234.5 Z"/></g>
<g><path style="opacity:1" fill="#554e4a" d="M 94.5,235.5 C 97.1003,236.468 99.4336,237.801 101.5,239.5C 100.167,239.167 98.8333,238.833 97.5,238.5C 97.1667,238.5 96.8333,238.5 96.5,238.5C 95.8333,237.5 95.1667,236.5 94.5,235.5 Z"/></g>
<g><path style="opacity:1" fill="#a69b92" d="M 139.5,238.5 C 139.027,239.906 138.027,240.573 136.5,240.5C 136.973,239.094 137.973,238.427 139.5,238.5 Z"/></g>
<g><path style="opacity:1" fill="#d6c7bc" d="M 254.5,234.5 C 256.228,236.226 258.228,237.559 260.5,238.5C 260.973,239.906 261.973,240.573 263.5,240.5C 265.746,241.455 268.079,242.122 270.5,242.5C 270.833,242.5 271.167,242.5 271.5,242.5C 271.5,242.833 271.5,243.167 271.5,243.5C 266.006,243.37 261.006,241.703 256.5,238.5C 255.37,237.378 254.703,236.044 254.5,234.5 Z"/></g>
<g><path style="opacity:1" fill="#968c84" d="M 260.5,238.5 C 261.167,238.5 261.833,238.5 262.5,238.5C 263.167,238.5 263.5,238.833 263.5,239.5C 263.5,239.833 263.5,240.167 263.5,240.5C 261.973,240.573 260.973,239.906 260.5,238.5 Z"/></g>
<g><path style="opacity:1" fill="#b3a79e" d="M 97.5,238.5 C 98.8333,238.833 100.167,239.167 101.5,239.5C 101.842,240.338 102.508,240.672 103.5,240.5C 103.5,240.833 103.5,241.167 103.5,241.5C 100.68,241.913 98.6798,240.913 97.5,238.5 Z"/></g>
<g><path style="opacity:1" fill="#48423f" d="M 218.5,235.5 C 217.62,238.125 218.287,240.458 220.5,242.5C 217.864,242.509 216.531,241.175 216.5,238.5C 216.64,236.97 217.307,235.97 218.5,235.5 Z"/></g>
<g><path style="opacity:1" fill="#6b635d" d="M 263.5,240.5 C 263.5,240.167 263.5,239.833 263.5,239.5C 266.491,239.166 268.824,240.166 270.5,242.5C 268.079,242.122 265.746,241.455 263.5,240.5 Z"/></g>
<g><path style="opacity:1" fill="#4f4845" d="M 103.5,241.5 C 103.5,241.167 103.5,240.833 103.5,240.5C 112.46,241.415 121.46,241.748 130.5,241.5C 130.5,241.833 130.5,242.167 130.5,242.5C 121.418,244.017 112.418,243.684 103.5,241.5 Z"/></g>
<g><path style="opacity:1" fill="#8f847d" d="M 134.5,240.5 C 133.713,242.104 132.38,242.771 130.5,242.5C 130.5,242.167 130.5,241.833 130.5,241.5C 131.708,240.766 133.041,240.433 134.5,240.5 Z"/></g>
<g><path style="opacity:1" fill="#7a716b" d="M 298.5,239.5 C 297.306,240.272 296.306,241.272 295.5,242.5C 294.167,242.5 292.833,242.5 291.5,242.5C 293.426,240.707 295.759,239.707 298.5,239.5 Z"/></g>
<g><path style="opacity:1" fill="#a69a91" d="M 103.5,241.5 C 112.418,243.684 121.418,244.017 130.5,242.5C 122.039,244.942 113.372,245.109 104.5,243C 103.944,242.617 103.611,242.117 103.5,241.5 Z"/></g>
<g><path style="opacity:1" fill="#8f857d" d="M 271.5,243.5 C 271.5,243.167 271.5,242.833 271.5,242.5C 277.167,242.5 282.833,242.5 288.5,242.5C 286.193,244.047 283.527,244.713 280.5,244.5C 277.783,244.386 275.116,244.052 272.5,243.5C 272.167,243.5 271.833,243.5 271.5,243.5 Z"/></g>
<g><path style="opacity:1" fill="#7e746e" d="M 182.5,238.5 C 182.5,238.833 182.5,239.167 182.5,239.5C 178.82,244.179 174.486,248.179 169.5,251.5C 173.145,247.52 176.811,243.52 180.5,239.5C 181.167,239.167 181.833,238.833 182.5,238.5 Z"/></g>
<g><path style="opacity:1" fill="#766e68" d="M 221.5,242.5 C 222.833,243.167 223.833,244.167 224.5,245.5C 222.5,245.5 221.5,244.5 221.5,242.5 Z"/></g>
<g><path style="opacity:1" fill="#cfc1b6" d="M 288.5,242.5 C 289.5,242.5 290.5,242.5 291.5,242.5C 292.833,242.5 294.167,242.5 295.5,242.5C 288.557,245.337 281.224,246.17 273.5,245C 272.944,244.617 272.611,244.117 272.5,243.5C 275.116,244.052 277.783,244.386 280.5,244.5C 283.527,244.713 286.193,244.047 288.5,242.5 Z"/></g>
<g><path style="opacity:1" fill="#615954" d="M 224.5,245.5 C 226.167,246.5 227.5,247.833 228.5,249.5C 225.858,249.512 224.525,248.179 224.5,245.5 Z"/></g>
<g><path style="opacity:1" fill="#7a716b" d="M 228.5,249.5 C 229.167,249.833 229.833,250.167 230.5,250.5C 231.11,251.391 231.443,252.391 231.5,253.5C 229.738,252.738 228.738,251.404 228.5,249.5 Z"/></g>
<g><path style="opacity:1" fill="#3a3432" d="M 203.5,256.5 C 200.477,254.839 198.143,255.505 196.5,258.5C 195.833,258.833 195.167,259.167 194.5,259.5C 195.957,257.372 196.957,255.038 197.5,252.5C 200.554,252.354 202.554,253.687 203.5,256.5 Z"/></g>
<g><path style="opacity:1" fill="#bfb2a8" d="M 230.5,250.5 C 232.531,251.539 233.864,253.205 234.5,255.5C 233.5,254.833 232.5,254.167 231.5,253.5C 231.443,252.391 231.11,251.391 230.5,250.5 Z"/></g>
<g><path style="opacity:1" fill="#958a82" d="M 169.5,251.5 C 167.542,254.792 165.209,257.792 162.5,260.5C 163.75,256.592 166.083,253.592 169.5,251.5 Z"/></g>
<g><path style="opacity:1" fill="#58504d" d="M 231.5,253.5 C 232.5,254.167 233.5,254.833 234.5,255.5C 234.5,256.167 234.5,256.833 234.5,257.5C 232.738,256.738 231.738,255.404 231.5,253.5 Z"/></g>
<g><path style="opacity:1" fill="#9a8f87" d="M 203.5,256.5 C 203.833,257.167 204.167,257.833 204.5,258.5C 202.956,258.297 201.622,257.63 200.5,256.5C 199.378,257.63 198.044,258.297 196.5,258.5C 198.143,255.505 200.477,254.839 203.5,256.5 Z"/></g>
<g><path style="opacity:1" fill="#efdfd2" d="M 204.5,258.5 C 207.056,262.729 210.389,266.396 214.5,269.5C 218.026,277.382 218.359,285.382 215.5,293.5C 214.833,294.5 214.167,295.5 213.5,296.5C 211.019,296.774 209.353,298.107 208.5,300.5C 202.833,301.833 197.167,301.833 191.5,300.5C 191.167,300.5 190.833,300.5 190.5,300.5C 189.833,299.5 189.167,298.5 188.5,297.5C 184.503,291.861 182.503,285.527 182.5,278.5C 183.393,274.958 184.726,271.624 186.5,268.5C 188.914,267.089 190.581,265.089 191.5,262.5C 192.167,262.5 192.833,262.5 193.5,262.5C 195.262,261.738 196.262,260.404 196.5,258.5C 198.044,258.297 199.378,257.63 200.5,256.5C 201.622,257.63 202.956,258.297 204.5,258.5 Z"/></g>
<g><path style="opacity:1" fill="#a49890" d="M 234.5,255.5 C 236.104,256.287 236.771,257.62 236.5,259.5C 235.833,258.833 235.167,258.167 234.5,257.5C 234.5,256.833 234.5,256.167 234.5,255.5 Z"/></g>
<g><path style="opacity:1" fill="#bbaea4" d="M 162.5,260.5 C 162.5,261.167 162.5,261.833 162.5,262.5C 161.833,262.5 161.167,262.5 160.5,262.5C 160.5,261.167 161.167,260.5 162.5,260.5 Z"/></g>
<g><path style="opacity:1" fill="#68605b" d="M 194.5,259.5 C 193.89,260.391 193.557,261.391 193.5,262.5C 192.833,262.5 192.167,262.5 191.5,262.5C 191.856,260.81 192.856,259.81 194.5,259.5 Z"/></g>
<g><path style="opacity:1" fill="#aca097" d="M 196.5,258.5 C 196.262,260.404 195.262,261.738 193.5,262.5C 193.557,261.391 193.89,260.391 194.5,259.5C 195.167,259.167 195.833,258.833 196.5,258.5 Z"/></g>
<g><path style="opacity:1" fill="#877d76" d="M 204.5,258.5 C 208.566,261.563 211.899,265.229 214.5,269.5C 210.389,266.396 207.056,262.729 204.5,258.5 Z"/></g>
<g><path style="opacity:1" fill="#c7b9af" d="M 236.5,259.5 C 237.5,259.5 238.5,259.5 239.5,259.5C 240.461,262.426 241.127,265.426 241.5,268.5C 240.833,267.5 240.167,266.5 239.5,265.5C 239.34,263.847 238.674,262.514 237.5,261.5C 237.167,260.833 236.833,260.167 236.5,259.5 Z"/></g>
<g><path style="opacity:1" fill="#736b65" d="M 191.5,262.5 C 190.581,265.089 188.914,267.089 186.5,268.5C 187.419,265.911 189.086,263.911 191.5,262.5 Z"/></g>
<g><path style="opacity:1" fill="#776e68" d="M 237.5,261.5 C 238.674,262.514 239.34,263.847 239.5,265.5C 237.896,264.713 237.229,263.38 237.5,261.5 Z"/></g>
<g><path style="opacity:1" fill="#988d85" d="M 160.5,262.5 C 161.167,262.5 161.833,262.5 162.5,262.5C 161.227,264.713 160.227,267.046 159.5,269.5C 159.167,269.5 158.833,269.5 158.5,269.5C 158.4,266.892 159.067,264.558 160.5,262.5 Z"/></g>
<g><path style="opacity:1" fill="#453f3c" d="M 184.5,269.5 C 180.966,274.919 179.633,280.919 180.5,287.5C 179.837,285.527 179.504,283.361 179.5,281C 179.431,276.947 180.098,273.114 181.5,269.5C 182.5,269.5 183.5,269.5 184.5,269.5 Z"/></g>
<g><path style="opacity:1" fill="#6f6761" d="M 239.5,265.5 C 240.167,266.5 240.833,267.5 241.5,268.5C 241.5,268.833 241.5,269.167 241.5,269.5C 241.5,270.5 241.5,271.5 241.5,272.5C 240.076,270.485 239.41,268.152 239.5,265.5 Z"/></g>
<g><path style="opacity:1" fill="#6f6761" d="M 216.5,271.5 C 217.906,271.973 218.573,272.973 218.5,274.5C 217.094,274.027 216.427,273.027 216.5,271.5 Z"/></g>
<g><path style="opacity:1" fill="#c5b7ad" d="M 157.5,271.5 C 156.289,277.31 156.289,282.977 157.5,288.5C 157.5,289.833 157.5,291.167 157.5,292.5C 156.778,292.082 156.278,291.416 156,290.5C 155.833,287.333 155.667,284.167 155.5,281C 155.515,277.424 156.182,274.258 157.5,271.5 Z"/></g>
<g><path style="opacity:1" fill="#645c57" d="M 218.5,274.5 C 219.952,276.848 220.618,279.514 220.5,282.5C 220.684,285.205 220.017,287.538 218.5,289.5C 219.833,284.5 219.833,279.5 218.5,274.5 Z"/></g>
<g><path style="opacity:1" fill="#514b47" d="M 241.5,273.5 C 242.653,279.653 242.82,285.986 242,292.5C 241.722,293.416 241.222,294.082 240.5,294.5C 241.386,287.543 241.72,280.543 241.5,273.5 Z"/></g>
<g><path style="opacity:1" fill="#7d756e" d="M 157.5,271.5 C 157.833,271.5 158.167,271.5 158.5,271.5C 157.708,277.13 157.375,282.797 157.5,288.5C 156.289,282.977 156.289,277.31 157.5,271.5 Z"/></g>
<g><path style="opacity:1" fill="#443e3b" d="M 158.5,269.5 C 158.833,269.5 159.167,269.5 159.5,269.5C 159.5,277.833 159.5,286.167 159.5,294.5C 159.167,294.5 158.833,294.5 158.5,294.5C 158.672,293.508 158.338,292.842 157.5,292.5C 157.5,291.167 157.5,289.833 157.5,288.5C 157.375,282.797 157.708,277.13 158.5,271.5C 158.5,270.833 158.5,270.167 158.5,269.5 Z"/></g>
<g><path style="opacity:1" fill="#9e938a" d="M 186.5,268.5 C 184.726,271.624 183.393,274.958 182.5,278.5C 181.264,282.701 181.264,287.035 182.5,291.5C 180.896,290.713 180.229,289.38 180.5,287.5C 179.633,280.919 180.966,274.919 184.5,269.5C 184.842,268.662 185.508,268.328 186.5,268.5 Z"/></g>
<g><path style="opacity:1" fill="#b7aaa0" d="M 214.5,269.5 C 215.5,269.833 216.167,270.5 216.5,271.5C 216.427,273.027 217.094,274.027 218.5,274.5C 219.833,279.5 219.833,284.5 218.5,289.5C 218.5,290.167 218.5,290.833 218.5,291.5C 217.5,292.167 216.5,292.833 215.5,293.5C 218.359,285.382 218.026,277.382 214.5,269.5 Z"/></g>
<g><path style="opacity:1" fill="#d8cabe" d="M 182.5,278.5 C 182.503,285.527 184.503,291.861 188.5,297.5C 185.467,296.468 183.467,294.468 182.5,291.5C 181.264,287.035 181.264,282.701 182.5,278.5 Z"/></g>
<g><path style="opacity:1" fill="#665e5a" d="M 182.5,291.5 C 183.467,294.468 185.467,296.468 188.5,297.5C 189.167,298.5 189.833,299.5 190.5,300.5C 189.833,300.5 189.167,300.5 188.5,300.5C 186.645,298.967 184.812,297.3 183,295.5C 182.51,294.207 182.343,292.873 182.5,291.5 Z"/></g>
<g><path style="opacity:1" fill="#675f5a" d="M 218.5,291.5 C 217.19,294.473 215.19,296.807 212.5,298.5C 212.833,297.833 213.167,297.167 213.5,296.5C 214.167,295.5 214.833,294.5 215.5,293.5C 216.5,292.833 217.5,292.167 218.5,291.5 Z"/></g>
<g><path style="opacity:1" fill="#ada097" d="M 241.5,269.5 C 242.222,269.918 242.722,270.584 243,271.5C 243.667,279.5 243.667,287.5 243,295.5C 242.148,296.571 241.315,297.571 240.5,298.5C 240.5,297.167 240.5,295.833 240.5,294.5C 241.222,294.082 241.722,293.416 242,292.5C 242.82,285.986 242.653,279.653 241.5,273.5C 241.5,273.167 241.5,272.833 241.5,272.5C 241.5,271.5 241.5,270.5 241.5,269.5 Z"/></g>
<g><path style="opacity:1" fill="#6e6661" d="M 158.5,294.5 C 158.833,294.5 159.167,294.5 159.5,294.5C 160.455,296.746 161.122,299.079 161.5,301.5C 159.707,299.574 158.707,297.241 158.5,294.5 Z"/></g>
<g><path style="opacity:1" fill="#a1968e" d="M 213.5,296.5 C 213.167,297.167 212.833,297.833 212.5,298.5C 211.395,299.6 210.062,300.267 208.5,300.5C 209.353,298.107 211.019,296.774 213.5,296.5 Z"/></g>
<g><path style="opacity:1" fill="#554e4b" d="M 239.5,298.5 C 239.204,300.403 238.537,302.07 237.5,303.5C 237.12,301.302 237.787,299.635 239.5,298.5 Z"/></g>
<g><path style="opacity:1" fill="#948981" d="M 191.5,300.5 C 197.167,301.833 202.833,301.833 208.5,300.5C 208.167,301.5 207.5,302.167 206.5,302.5C 201.821,302.666 197.155,302.499 192.5,302C 191.944,301.617 191.611,301.117 191.5,300.5 Z"/></g>
<g><path style="opacity:1" fill="#c4b7ac" d="M 157.5,292.5 C 158.338,292.842 158.672,293.508 158.5,294.5C 158.707,297.241 159.707,299.574 161.5,301.5C 162.167,303.167 162.833,304.833 163.5,306.5C 158.534,303.25 156.534,298.583 157.5,292.5 Z"/></g>
<g><path style="opacity:1" fill="#48423f" d="M 188.5,300.5 C 189.167,300.5 189.833,300.5 190.5,300.5C 190.833,300.5 191.167,300.5 191.5,300.5C 191.611,301.117 191.944,301.617 192.5,302C 197.155,302.499 201.821,302.666 206.5,302.5C 201.684,303.65 196.684,303.816 191.5,303C 190.429,302.148 189.429,301.315 188.5,300.5 Z"/></g>
<g><path style="opacity:1" fill="#4c4642" d="M 161.5,301.5 C 163.822,302.802 165.155,304.802 165.5,307.5C 164.833,307.167 164.167,306.833 163.5,306.5C 162.833,304.833 162.167,303.167 161.5,301.5 Z"/></g>
<g><path style="opacity:1" fill="#bfb3a8" d="M 239.5,298.5 C 239.833,298.5 240.167,298.5 240.5,298.5C 240.471,304.234 238.138,308.567 233.5,311.5C 234.167,309.833 234.833,308.167 235.5,306.5C 235.782,305.222 236.449,304.222 237.5,303.5C 238.537,302.07 239.204,300.403 239.5,298.5 Z"/></g>
<g><path style="opacity:1" fill="#635c57" d="M 235.5,306.5 C 234.833,308.167 234.167,309.833 233.5,311.5C 232.833,311.5 232.167,311.5 231.5,311.5C 232.124,309.246 233.457,307.579 235.5,306.5 Z"/></g>
<g><path style="opacity:1" fill="#a1968d" d="M 163.5,306.5 C 164.167,306.833 164.833,307.167 165.5,307.5C 165.5,307.833 165.5,308.167 165.5,308.5C 165.5,308.833 165.5,309.167 165.5,309.5C 164.094,309.027 163.427,308.027 163.5,306.5 Z"/></g>
<g><path style="opacity:1" fill="#4f4845" d="M 165.5,309.5 C 165.5,309.167 165.5,308.833 165.5,308.5C 167.5,308.5 168.5,309.5 168.5,311.5C 167.5,310.833 166.5,310.167 165.5,309.5 Z"/></g>
<g><path style="opacity:1" fill="#a0958c" d="M 165.5,309.5 C 166.5,310.167 167.5,310.833 168.5,311.5C 169.167,312.5 169.833,313.5 170.5,314.5C 170.5,314.833 170.5,315.167 170.5,315.5C 168.086,314.089 166.419,312.089 165.5,309.5 Z"/></g>
<g><path style="opacity:1" fill="#9e938b" d="M 231.5,311.5 C 232.167,311.5 232.833,311.5 233.5,311.5C 232.5,313.167 231.167,314.5 229.5,315.5C 229.5,314.833 229.5,314.167 229.5,313.5C 229.833,312.5 230.5,311.833 231.5,311.5 Z"/></g>
<g><path style="opacity:1" fill="#766d67" d="M 229.5,313.5 C 229.5,314.167 229.5,314.833 229.5,315.5C 228.5,315.833 227.833,316.5 227.5,317.5C 226.391,317.557 225.391,317.89 224.5,318.5C 225.785,316.548 227.451,314.882 229.5,313.5 Z"/></g>
<g><path style="opacity:1" fill="#7c736d" d="M 170.5,315.5 C 170.5,315.167 170.5,314.833 170.5,314.5C 173.86,316.87 177.193,319.203 180.5,321.5C 179.833,321.5 179.167,321.5 178.5,321.5C 175.596,319.945 172.93,317.945 170.5,315.5 Z"/></g>
<g><path style="opacity:1" fill="#6e6660" d="M 224.5,318.5 C 222.861,319.473 221.527,320.806 220.5,322.5C 219.833,322.5 219.167,322.5 218.5,322.5C 219.708,319.956 221.708,318.622 224.5,318.5 Z"/></g>
<g><path style="opacity:1" fill="#c6b9ae" d="M 227.5,317.5 C 225.704,319.9 223.37,321.567 220.5,322.5C 221.527,320.806 222.861,319.473 224.5,318.5C 225.391,317.89 226.391,317.557 227.5,317.5 Z"/></g>
<g><path style="opacity:1" fill="#7c736d" d="M 181.5,321.5 C 183.434,322.11 185.101,323.11 186.5,324.5C 184.011,324.759 182.344,323.759 181.5,321.5 Z"/></g>
<g><path style="opacity:1" fill="#988d85" d="M 218.5,322.5 C 217.01,324.28 215.01,324.946 212.5,324.5C 214.214,323.262 216.214,322.595 218.5,322.5 Z"/></g>
<g><path style="opacity:1" fill="#c4b7ac" d="M 178.5,321.5 C 179.167,321.5 179.833,321.5 180.5,321.5C 180.833,321.5 181.167,321.5 181.5,321.5C 182.344,323.759 184.011,324.759 186.5,324.5C 186.833,324.5 187.167,324.5 187.5,324.5C 187.5,324.833 187.5,325.167 187.5,325.5C 183.606,325.88 180.606,324.546 178.5,321.5 Z"/></g>
<g><path style="opacity:1" fill="#787069" d="M 187.5,325.5 C 187.5,325.167 187.5,324.833 187.5,324.5C 193.797,325.32 200.131,325.653 206.5,325.5C 201.36,326.488 196.026,326.821 190.5,326.5C 189.391,326.443 188.391,326.11 187.5,325.5 Z"/></g>
<g><path style="opacity:1" fill="#a1968d" d="M 211.5,324.5 C 211.047,325.458 210.381,326.292 209.5,327C 202.986,327.82 196.653,327.653 190.5,326.5C 196.026,326.821 201.36,326.488 206.5,325.5C 208.117,324.962 209.784,324.629 211.5,324.5 Z"/></g>
</svg>
