<?xml version="1.0" encoding="UTF-8"?>
<!DOCTYPE svg PUBLIC "-//W3C//DTD SVG 1.1//EN" "http://www.w3.org/Graphics/SVG/1.1/DTD/svg11.dtd">
<svg xmlns="http://www.w3.org/2000/svg" version="1.1" width="500px" height="500px" style="shape-rendering:geometricPrecision; text-rendering:geometricPrecision; image-rendering:optimizeQuality; fill-rule:evenodd; clip-rule:evenodd" xmlns:xlink="http://www.w3.org/1999/xlink">
<g><path style="opacity:1" fill="#fdfefe" d="M -0.5,-0.5 C 166.167,-0.5 332.833,-0.5 499.5,-0.5C 499.5,166.167 499.5,332.833 499.5,499.5C 332.833,499.5 166.167,499.5 -0.5,499.5C -0.5,332.833 -0.5,166.167 -0.5,-0.5 Z"/></g>
<g><path style="opacity:1" fill="#135032" d="M 369.5,100.5 C 369.5,108.167 369.5,115.833 369.5,123.5C 369.5,130.833 369.5,138.167 369.5,145.5C 351.705,126.707 330.705,112.707 306.5,103.5C 306.829,90.9887 306.495,78.6554 305.5,66.5C 298.132,63.7538 290.465,61.7538 282.5,60.5C 265.924,57.4808 249.257,56.8142 232.5,58.5C 229.615,58.1936 226.948,58.5269 224.5,59.5C 221.721,59.2786 219.054,59.612 216.5,60.5C 206.065,61.9403 196.065,64.607 186.5,68.5C 133.96,86.7053 95.9598,121.039 72.5,171.5C 67.1432,181.56 63.1432,192.226 60.5,203.5C 58.3975,210.346 57.0642,217.346 56.5,224.5C 55.5386,226.265 55.2053,228.265 55.5,230.5C 53.9718,247.541 54.3052,264.541 56.5,281.5C 56.3284,282.492 56.6618,283.158 57.5,283.5C 58.0696,289.584 59.0696,295.584 60.5,301.5C 63.4156,312.648 67.4156,323.315 72.5,333.5C 73.8951,337.29 75.5617,340.957 77.5,344.5C 82.9111,354.319 89.0778,363.653 96,372.5C 96.5,396.831 96.6666,421.164 96.5,445.5C 47.0263,405.783 16.8596,354.449 6,291.5C -6.35258,188.816 29.1474,107.316 112.5,47C 176.425,6.0895 245.092,-4.24384 318.5,16C 336.014,21.7639 353.014,28.5972 369.5,36.5C 369.5,57.8333 369.5,79.1667 369.5,100.5 Z"/></g>
<g><path style="opacity:1" fill="#2e644a" d="M 400.5,58.5 C 399.502,81.6607 399.169,104.994 399.5,128.5C 398.337,104.67 398.17,80.6702 399,56.5C 399.717,57.0442 400.217,57.7109 400.5,58.5 Z"/></g>
<g><path style="opacity:1" fill="#135032" d="M 400.5,58.5 C 451.285,98.6892 482.119,151.023 493,215.5C 503.672,310.211 472.505,387.711 399.5,448C 329.297,498.704 252.63,511.371 169.5,486C 155.446,481.136 142.112,474.969 129.5,467.5C 129.5,431.5 129.5,395.5 129.5,359.5C 146.927,378.904 167.927,393.237 192.5,402.5C 192.5,402.833 192.5,403.167 192.5,403.5C 192.5,409.167 192.5,414.833 192.5,420.5C 192.5,426.833 192.5,433.167 192.5,439.5C 202.423,441.885 212.423,443.885 222.5,445.5C 223.167,445.5 223.833,445.5 224.5,445.5C 240.171,448.067 255.837,448.067 271.5,445.5C 274.237,445.599 276.904,445.265 279.5,444.5C 291.619,442.887 303.286,439.887 314.5,435.5C 318.313,434.562 321.979,433.229 325.5,431.5C 336.643,427.099 346.977,421.433 356.5,414.5C 360.221,412.646 363.554,410.313 366.5,407.5C 376.146,400.519 384.813,392.519 392.5,383.5C 395.861,381.105 398.528,378.105 400.5,374.5C 408.336,365.321 415.003,355.321 420.5,344.5C 422.692,341.45 424.358,338.117 425.5,334.5C 430.801,323.272 435.134,311.606 438.5,299.5C 439.295,295.524 439.962,291.524 440.5,287.5C 443.397,268.991 444.231,250.325 443,231.5C 442.646,226.611 441.813,221.944 440.5,217.5C 439.94,213.807 439.273,210.14 438.5,206.5C 435.726,193.837 431.392,181.837 425.5,170.5C 424.439,167.378 423.105,164.378 421.5,161.5C 415.641,150.323 408.641,139.99 400.5,130.5C 400.167,129.833 399.833,129.167 399.5,128.5C 399.169,104.994 399.502,81.6607 400.5,58.5 Z"/></g>
<g><path style="opacity:1" fill="#b1cabe" d="M 224.5,59.5 C 226.948,58.5269 229.615,58.1936 232.5,58.5C 243.654,59.4948 254.988,59.8281 266.5,59.5C 266.785,64.8968 266.451,70.2302 265.5,75.5C 254.854,76.4987 244.187,76.832 233.5,76.5C 233.564,70.7377 232.897,65.0711 231.5,59.5C 229.167,59.5 226.833,59.5 224.5,59.5 Z"/></g>
<g><path style="opacity:1" fill="#b2cbbe" d="M 216.5,60.5 C 217.531,61.2485 218.698,61.9152 220,62.5C 220.684,67.8222 221.184,73.1556 221.5,78.5C 210.911,79.7307 200.578,82.0641 190.5,85.5C 189.438,80.3137 187.771,75.3137 185.5,70.5C 186.025,69.8076 186.692,69.3076 187.5,69C 187.272,68.6012 186.938,68.4346 186.5,68.5C 196.065,64.607 206.065,61.9403 216.5,60.5 Z"/></g>
<g><path style="opacity:1" fill="#b1cabe" d="M 282.5,60.5 C 290.465,61.7538 298.132,63.7538 305.5,66.5C 305.5,72.5 305.5,78.5 305.5,84.5C 296.295,81.8651 286.962,79.8651 277.5,78.5C 278.275,72.8469 278.942,67.1803 279.5,61.5C 280.791,61.7373 281.791,61.404 282.5,60.5 Z"/></g>
<g><path style="opacity:1" fill="#b0c9bc" d="M 172.5,74.5 C 175.451,78.9055 177.784,83.7388 179.5,89C 179.167,89.5 178.833,90 178.5,90.5C 169.323,95.0883 160.323,99.5883 151.5,104C 148.877,100.588 146.377,97.088 144,93.5C 143.333,92.5 143.333,91.5 144,90.5C 153.32,84.7591 162.82,79.4257 172.5,74.5 Z"/></g>
<g><path style="opacity:1" fill="#b0c9bc" d="M 305.5,102.5 C 305.5,108.5 305.5,114.5 305.5,120.5C 267.64,105.649 229.974,105.982 192.5,121.5C 192.5,119.833 192.5,118.167 192.5,116.5C 171.5,116.5 150.5,116.5 129.5,116.5C 128.527,118.948 128.194,121.615 128.5,124.5C 125.203,127.296 122.036,130.296 119,133.5C 114.533,130.035 110.367,126.202 106.5,122C 114.4,113.431 122.9,105.597 132,98.5C 135.621,102.91 139.121,107.41 142.5,112C 141.167,113 139.833,114 138.5,115C 148.5,115.667 158.5,115.667 168.5,115C 212.2,89.7275 257.866,85.5609 305.5,102.5 Z"/></g>
<g><path style="opacity:1" fill="#afc9bc" d="M 369.5,100.5 C 377.651,107.151 385.317,114.317 392.5,122C 388.917,126.09 384.917,129.59 380.5,132.5C 377.18,129.19 373.514,126.19 369.5,123.5C 369.5,115.833 369.5,108.167 369.5,100.5 Z"/></g>
<g><path style="opacity:1" fill="#0f5231" d="M 306.5,103.5 C 330.705,112.707 351.705,126.707 369.5,145.5C 369.5,145.833 369.5,146.167 369.5,146.5C 369.5,155.5 369.5,164.5 369.5,173.5C 353.393,150.274 332.393,132.941 306.5,121.5C 306.5,115.5 306.5,109.5 306.5,103.5 Z"/></g>
<g><path style="opacity:1" fill="#fefefe" d="M 305.5,120.5 C 305.5,126.5 305.5,132.5 305.5,138.5C 289.417,130.697 272.417,126.363 254.5,125.5C 254.5,131.167 254.5,136.833 254.5,142.5C 270.088,143.183 284.921,146.85 299,153.5C 301.429,150.302 303.595,146.968 305.5,143.5C 305.5,161.833 305.5,180.167 305.5,198.5C 319.504,198.333 333.504,198.5 347.5,199C 347.167,199.333 346.833,199.667 346.5,200C 350.43,206.02 353.096,212.52 354.5,219.5C 300.5,219.5 246.5,219.5 192.5,219.5C 192.5,193.5 192.5,167.5 192.5,141.5C 194.973,145.771 197.473,150.104 200,154.5C 213.858,146.939 228.691,142.939 244.5,142.5C 244.5,136.833 244.5,131.167 244.5,125.5C 226.335,126.533 209.001,130.866 192.5,138.5C 192.5,132.833 192.5,127.167 192.5,121.5C 229.974,105.982 267.64,105.649 305.5,120.5 Z"/></g>
<g><path style="opacity:1" fill="#0f5131" d="M 129.5,116.5 C 150.5,116.5 171.5,116.5 192.5,116.5C 192.5,118.167 192.5,119.833 192.5,121.5C 166.66,133.01 145.66,150.343 129.5,173.5C 129.5,154.5 129.5,135.5 129.5,116.5 Z"/></g>
<g><path style="opacity:1" fill="#135032" d="M 192.5,121.5 C 192.5,127.167 192.5,132.833 192.5,138.5C 192.5,139.5 192.5,140.5 192.5,141.5C 192.5,167.5 192.5,193.5 192.5,219.5C 246.5,219.5 300.5,219.5 354.5,219.5C 359.695,219.179 364.695,219.513 369.5,220.5C 364.786,220.173 360.12,220.507 355.5,221.5C 363.939,250.95 360.939,279.116 346.5,306C 351.416,308.707 356.249,311.541 361,314.5C 364.134,308.896 366.967,303.229 369.5,297.5C 369.5,308.5 369.5,319.5 369.5,330.5C 369.5,331.167 369.5,331.833 369.5,332.5C 353.34,355.657 332.34,372.99 306.5,384.5C 306.832,350.663 306.498,316.996 305.5,283.5C 251.336,282.501 197.003,282.168 142.5,282.5C 135.657,253.871 138.99,226.371 152.5,200C 147.913,196.788 143.08,193.955 138,191.5C 134.846,197.47 132.012,203.47 129.5,209.5C 129.5,197.5 129.5,185.5 129.5,173.5C 145.66,150.343 166.66,133.01 192.5,121.5 Z"/></g>
<g><path style="opacity:1" fill="#125031" d="M 306.5,121.5 C 332.393,132.941 353.393,150.274 369.5,173.5C 369.5,173.833 369.5,174.167 369.5,174.5C 369.5,182.167 369.5,189.833 369.5,197.5C 348.5,197.5 327.5,197.5 306.5,197.5C 306.5,172.167 306.5,146.833 306.5,121.5 Z"/></g>
<g><path style="opacity:1" fill="#b0cabd" d="M 192.5,141.5 C 192.5,140.5 192.5,139.5 192.5,138.5C 209.001,130.866 226.335,126.533 244.5,125.5C 244.5,131.167 244.5,136.833 244.5,142.5C 228.691,142.939 213.858,146.939 200,154.5C 197.473,150.104 194.973,145.771 192.5,141.5 Z"/></g>
<g><path style="opacity:1" fill="#b0c9bd" d="M 305.5,138.5 C 305.5,140.167 305.5,141.833 305.5,143.5C 303.595,146.968 301.429,150.302 299,153.5C 284.921,146.85 270.088,143.183 254.5,142.5C 254.5,136.833 254.5,131.167 254.5,125.5C 272.417,126.363 289.417,130.697 305.5,138.5 Z"/></g>
<g><path style="opacity:1" fill="#b0c9bc" d="M 97.5,132.5 C 101.202,134.024 104.536,136.19 107.5,139C 108.899,140.062 109.899,141.395 110.5,143C 104.655,151.508 98.8218,160.008 93,168.5C 88.233,166.203 83.733,163.536 79.5,160.5C 84.5132,150.459 90.5132,141.125 97.5,132.5 Z"/></g>
<g><path style="opacity:1" fill="#b0c9bd" d="M 400.5,130.5 C 408.641,139.99 415.641,150.323 421.5,161.5C 416.321,163.319 411.321,165.652 406.5,168.5C 400.513,159.871 394.513,151.204 388.5,142.5C 391.329,139.841 394.329,137.341 397.5,135C 399.141,133.871 400.141,132.371 400.5,130.5 Z"/></g>
<g><path style="opacity:1" fill="#0f5231" d="M 180.5,145.5 C 181.675,145.281 182.675,145.614 183.5,146.5C 186.291,150.582 188.958,154.749 191.5,159C 178.083,167.748 166.583,178.582 157,191.5C 152.5,188.333 148,185.167 143.5,182C 153.736,167.597 166.069,155.43 180.5,145.5 Z"/></g>
<g><path style="opacity:1" fill="#0f5231" d="M 316.5,144.5 C 331.914,154.413 344.914,166.913 355.5,182C 351,185.167 346.5,188.333 342,191.5C 333.177,178.588 322.177,167.922 309,159.5C 310.913,154.34 313.413,149.34 316.5,144.5 Z"/></g>
<g><path style="opacity:1" fill="#acc7b9" d="M 128.5,148.5 C 128.5,157.833 128.5,167.167 128.5,176.5C 109.082,207.085 102.249,240.418 108,276.5C 111.471,295.393 118.138,313.06 128,329.5C 128.5,322.174 128.666,314.841 128.5,307.5C 128.833,307.5 129.167,307.5 129.5,307.5C 129.5,315.833 129.5,324.167 129.5,332.5C 129.5,341.5 129.5,350.5 129.5,359.5C 129.5,395.5 129.5,431.5 129.5,467.5C 128.503,446.34 128.169,425.007 128.5,403.5C 128.5,396.167 128.5,388.833 128.5,381.5C 128.666,373.493 128.5,365.493 128,357.5C 95.5044,317.771 83.5044,272.438 92,221.5C 97.8484,193.803 110.015,169.47 128.5,148.5 Z"/></g>
<g><path style="opacity:1" fill="#afc9bc" d="M 369.5,146.5 C 411.817,197.52 420.984,254.187 397,316.5C 390.048,332.104 380.881,346.104 369.5,358.5C 369.5,349.833 369.5,341.167 369.5,332.5C 369.5,331.833 369.5,331.167 369.5,330.5C 373.533,325.271 377.033,319.604 380,313.5C 397.998,273.145 397.998,232.812 380,192.5C 376.726,186.273 373.226,180.273 369.5,174.5C 369.5,174.167 369.5,173.833 369.5,173.5C 369.5,164.5 369.5,155.5 369.5,146.5 Z"/></g>
<g><path style="opacity:1" fill="#b0c9bd" d="M 74.5,173.5 C 79.2957,175.398 83.9624,177.565 88.5,180C 83.6706,189.321 80.3373,199.155 78.5,209.5C 73.1121,208.653 67.7788,207.487 62.5,206C 61.7476,205.329 61.4142,204.496 61.5,203.5C 64.6487,194.959 67.8154,186.293 71,177.5C 71.4983,175.456 72.665,174.122 74.5,173.5 Z"/></g>
<g><path style="opacity:1" fill="#afc8bb" d="M 425.5,170.5 C 431.392,181.837 435.726,193.837 438.5,206.5C 433.162,206.49 427.828,207.49 422.5,209.5C 422.167,209.167 421.833,208.833 421.5,208.5C 418.351,198.385 415.017,188.385 411.5,178.5C 415.804,176.782 420.137,174.948 424.5,173C 425.252,172.329 425.586,171.496 425.5,170.5 Z"/></g>
<g><path style="opacity:1" fill="#fdfefd" d="M 128.5,176.5 C 128.5,189.167 128.5,201.833 128.5,214.5C 125.909,221.869 124.076,229.536 123,237.5C 120.869,261.418 124.369,284.418 133.5,306.5C 131.585,306.216 129.919,306.549 128.5,307.5C 128.666,314.841 128.5,322.174 128,329.5C 118.138,313.06 111.471,295.393 108,276.5C 102.249,240.418 109.082,207.085 128.5,176.5 Z"/></g>
<g><path style="opacity:1" fill="#fcfdfd" d="M 369.5,174.5 C 373.226,180.273 376.726,186.273 380,192.5C 397.998,232.812 397.998,273.145 380,313.5C 377.033,319.604 373.533,325.271 369.5,330.5C 369.5,319.5 369.5,308.5 369.5,297.5C 369.5,296.5 369.5,295.5 369.5,294.5C 371.678,290.519 373.178,286.185 374,281.5C 379.603,253.24 376.769,225.907 365.5,199.5C 366.949,198.828 368.282,198.161 369.5,197.5C 369.5,189.833 369.5,182.167 369.5,174.5 Z"/></g>
<g><path style="opacity:1" fill="#0f5231" d="M 142.5,282.5 C 138.167,282.5 133.833,282.5 129.5,282.5C 129.5,258.167 129.5,233.833 129.5,209.5C 132.012,203.47 134.846,197.47 138,191.5C 143.08,193.955 147.913,196.788 152.5,200C 138.99,226.371 135.657,253.871 142.5,282.5 Z"/></g>
<g><path style="opacity:1" fill="#dde6e2" d="M 72.5,171.5 C 73.1667,172.167 73.8333,172.833 74.5,173.5C 72.665,174.122 71.4983,175.456 71,177.5C 67.8154,186.293 64.6487,194.959 61.5,203.5C 61.1667,203.5 60.8333,203.5 60.5,203.5C 63.1432,192.226 67.1432,181.56 72.5,171.5 Z"/></g>
<g><path style="opacity:1" fill="#a7c2b5" d="M 305.5,66.5 C 306.495,78.6554 306.829,90.9887 306.5,103.5C 306.5,109.5 306.5,115.5 306.5,121.5C 306.5,146.833 306.5,172.167 306.5,197.5C 327.5,197.5 348.5,197.5 369.5,197.5C 368.282,198.161 366.949,198.828 365.5,199.5C 376.769,225.907 379.603,253.24 374,281.5C 373.178,286.185 371.678,290.519 369.5,294.5C 369.5,269.833 369.5,245.167 369.5,220.5C 364.695,219.513 359.695,219.179 354.5,219.5C 353.096,212.52 350.43,206.02 346.5,200C 346.833,199.667 347.167,199.333 347.5,199C 333.504,198.5 319.504,198.333 305.5,198.5C 305.5,180.167 305.5,161.833 305.5,143.5C 305.5,141.833 305.5,140.167 305.5,138.5C 305.5,132.5 305.5,126.5 305.5,120.5C 305.5,114.5 305.5,108.5 305.5,102.5C 305.5,96.5 305.5,90.5 305.5,84.5C 305.5,78.5 305.5,72.5 305.5,66.5 Z"/></g>
<g><path style="opacity:1" fill="#b0c9bd" d="M 128.5,214.5 C 128.5,237.5 128.5,260.5 128.5,283.5C 133.5,283.5 138.5,283.5 143.5,283.5C 145.934,291.04 148.934,298.373 152.5,305.5C 165.994,306.167 179.327,306.833 192.5,307.5C 171.5,307.5 150.5,307.5 129.5,307.5C 129.167,307.5 128.833,307.5 128.5,307.5C 129.919,306.549 131.585,306.216 133.5,306.5C 124.369,284.418 120.869,261.418 123,237.5C 124.076,229.536 125.909,221.869 128.5,214.5 Z"/></g>
<g><path style="opacity:1" fill="#afc9bc" d="M 57.5,283.5 C 56.6618,283.158 56.3284,282.492 56.5,281.5C 57.1582,280.207 57.4915,278.707 57.5,277C 56.904,261.341 56.2373,245.841 55.5,230.5C 55.2053,228.265 55.5386,226.265 56.5,224.5C 56.3398,226.199 56.5065,227.866 57,229.5C 57.7189,225.855 58.2189,222.188 58.5,218.5C 64.1002,219.686 69.7669,220.353 75.5,220.5C 71.5658,242.154 71.5658,263.821 75.5,285.5C 69.798,285.921 64.1313,286.588 58.5,287.5C 58.8545,285.233 58.5211,283.899 57.5,283.5 Z"/></g>
<g><path style="opacity:1" fill="#afc8bc" d="M 440.5,217.5 C 441.813,221.944 442.646,226.611 443,231.5C 444.231,250.325 443.397,268.991 440.5,287.5C 435.43,287.075 430.43,286.241 425.5,285C 424.884,283.6 424.551,282.1 424.5,280.5C 426.927,260.828 427.094,241.161 425,221.5C 430.241,220.065 435.408,218.732 440.5,217.5 Z"/></g>
<g><path style="opacity:1" fill="#0f5131" d="M 369.5,220.5 C 369.5,245.167 369.5,269.833 369.5,294.5C 369.5,295.5 369.5,296.5 369.5,297.5C 366.967,303.229 364.134,308.896 361,314.5C 356.249,311.541 351.416,308.707 346.5,306C 360.939,279.116 363.939,250.95 355.5,221.5C 360.12,220.507 364.786,220.173 369.5,220.5 Z"/></g>
<g><path style="opacity:1" fill="#d3dfd9" d="M 55.5,230.5 C 56.2373,245.841 56.904,261.341 57.5,277C 57.4915,278.707 57.1582,280.207 56.5,281.5C 54.3052,264.541 53.9718,247.541 55.5,230.5 Z"/></g>
<g><path style="opacity:1" fill="#4d7d66" d="M 129.5,116.5 C 129.5,135.5 129.5,154.5 129.5,173.5C 129.5,185.5 129.5,197.5 129.5,209.5C 129.5,233.833 129.5,258.167 129.5,282.5C 133.833,282.5 138.167,282.5 142.5,282.5C 197.003,282.168 251.336,282.501 305.5,283.5C 251.5,283.5 197.5,283.5 143.5,283.5C 138.5,283.5 133.5,283.5 128.5,283.5C 128.5,260.5 128.5,237.5 128.5,214.5C 128.5,201.833 128.5,189.167 128.5,176.5C 128.5,167.167 128.5,157.833 128.5,148.5C 128.5,140.5 128.5,132.5 128.5,124.5C 128.194,121.615 128.527,118.948 129.5,116.5 Z"/></g>
<g><path style="opacity:1" fill="#fefefe" d="M 143.5,283.5 C 197.5,283.5 251.5,283.5 305.5,283.5C 305.5,309.833 305.5,336.167 305.5,362.5C 303.27,359.046 301.27,355.38 299.5,351.5C 285.279,358.472 270.279,362.472 254.5,363.5C 254.5,369.167 254.5,374.833 254.5,380.5C 272.466,379.759 289.466,375.425 305.5,367.5C 305.5,373.5 305.5,379.5 305.5,385.5C 267.62,400.374 229.953,400.04 192.5,384.5C 192.5,378.833 192.5,373.167 192.5,367.5C 208.961,375.282 226.294,379.615 244.5,380.5C 244.5,374.833 244.5,369.167 244.5,363.5C 228.735,362.851 213.902,358.851 200,351.5C 197.473,355.896 194.973,360.229 192.5,364.5C 192.5,345.5 192.5,326.5 192.5,307.5C 179.327,306.833 165.994,306.167 152.5,305.5C 148.934,298.373 145.934,291.04 143.5,283.5 Z"/></g>
<g><path style="opacity:1" fill="#759a88" d="M 305.5,283.5 C 306.498,316.996 306.832,350.663 306.5,384.5C 306.5,385.833 306.5,387.167 306.5,388.5C 315.833,388.5 325.167,388.5 334.5,388.5C 334.5,388.833 334.5,389.167 334.5,389.5C 333.833,389.5 333.167,389.5 332.5,389.5C 323.5,389.5 314.5,389.5 305.5,389.5C 305.5,388.167 305.5,386.833 305.5,385.5C 305.5,379.5 305.5,373.5 305.5,367.5C 305.5,365.833 305.5,364.167 305.5,362.5C 305.5,336.167 305.5,309.833 305.5,283.5 Z"/></g>
<g><path style="opacity:1" fill="#b2cbbf" d="M 72.5,333.5 C 67.4156,323.315 63.4156,312.648 60.5,301.5C 66.296,299.217 72.296,297.55 78.5,296.5C 80.7374,306.712 84.0708,316.546 88.5,326C 83.2962,328.768 77.9629,331.268 72.5,333.5 Z"/></g>
<g><path style="opacity:1" fill="#afc8bc" d="M 438.5,299.5 C 435.134,311.606 430.801,323.272 425.5,334.5C 425.631,333.624 425.298,332.957 424.5,332.5C 419.683,330.59 415.016,328.424 410.5,326C 414.856,316.764 418.523,307.264 421.5,297.5C 422.167,297.167 422.833,296.833 423.5,296.5C 428.419,297.98 433.419,298.98 438.5,299.5 Z"/></g>
<g><path style="opacity:1" fill="#125031" d="M 129.5,307.5 C 150.5,307.5 171.5,307.5 192.5,307.5C 192.5,326.5 192.5,345.5 192.5,364.5C 192.5,365.5 192.5,366.5 192.5,367.5C 192.5,373.167 192.5,378.833 192.5,384.5C 166.664,372.994 145.664,355.661 129.5,332.5C 129.5,324.167 129.5,315.833 129.5,307.5 Z"/></g>
<g><path style="opacity:1" fill="#0f5231" d="M 341.5,314.5 C 346.311,317.409 350.978,320.576 355.5,324C 345.833,337.667 334.167,349.333 320.5,359C 319.241,359.982 317.908,360.315 316.5,360C 313.031,355.882 310.531,351.382 309,346.5C 321.667,337.666 332.5,326.999 341.5,314.5 Z"/></g>
<g><path style="opacity:1" fill="#0f5231" d="M 156.5,314.5 C 166.341,327.169 178.007,338.003 191.5,347C 188.938,351.968 185.772,356.468 182,360.5C 166.601,351.103 153.768,338.936 143.5,324C 148.015,320.97 152.349,317.803 156.5,314.5 Z"/></g>
<g><path style="opacity:1" fill="#0f5231" d="M 129.5,332.5 C 145.664,355.661 166.664,372.994 192.5,384.5C 192.5,390.5 192.5,396.5 192.5,402.5C 167.927,393.237 146.927,378.904 129.5,359.5C 129.5,350.5 129.5,341.5 129.5,332.5 Z"/></g>
<g><path style="opacity:1" fill="#0f5131" d="M 369.5,332.5 C 369.5,341.167 369.5,349.833 369.5,358.5C 369.5,366.5 369.5,374.5 369.5,382.5C 369.5,384.5 369.5,386.5 369.5,388.5C 357.833,388.5 346.167,388.5 334.5,388.5C 325.167,388.5 315.833,388.5 306.5,388.5C 306.5,387.167 306.5,385.833 306.5,384.5C 332.34,372.99 353.34,355.657 369.5,332.5 Z"/></g>
<g><path style="opacity:1" fill="#acc6b9" d="M 96.5,445.5 C 96.6666,421.164 96.5,396.831 96,372.5C 89.0778,363.653 82.9111,354.319 77.5,344.5C 82.9614,342.853 88.1281,340.52 93,337.5C 98.8218,345.992 104.655,354.492 110.5,363C 107.007,366.988 103.007,370.488 98.5,373.5C 97.8427,398.233 97.1761,422.233 96.5,445.5 Z"/></g>
<g><path style="opacity:1" fill="#aec8bb" d="M 420.5,344.5 C 415.003,355.321 408.336,365.321 400.5,374.5C 397.019,370.83 393.186,367.497 389,364.5C 388.685,363.092 389.018,361.759 390,360.5C 395.557,353.275 400.724,345.775 405.5,338C 410.673,339.582 415.673,341.749 420.5,344.5 Z"/></g>
<g><path style="opacity:1" fill="#b0cabd" d="M 192.5,367.5 C 192.5,366.5 192.5,365.5 192.5,364.5C 194.973,360.229 197.473,355.896 200,351.5C 213.902,358.851 228.735,362.851 244.5,363.5C 244.5,369.167 244.5,374.833 244.5,380.5C 226.294,379.615 208.961,375.282 192.5,367.5 Z"/></g>
<g><path style="opacity:1" fill="#b0cabd" d="M 305.5,362.5 C 305.5,364.167 305.5,365.833 305.5,367.5C 289.466,375.425 272.466,379.759 254.5,380.5C 254.5,374.833 254.5,369.167 254.5,363.5C 270.279,362.472 285.279,358.472 299.5,351.5C 301.27,355.38 303.27,359.046 305.5,362.5 Z"/></g>
<g><path style="opacity:1" fill="#b0c9bd" d="M 128.5,381.5 C 128.5,388.833 128.5,396.167 128.5,403.5C 120.464,397.974 113.13,391.474 106.5,384C 110.367,379.798 114.533,375.965 119,372.5C 122.036,375.704 125.203,378.704 128.5,381.5 Z"/></g>
<g><path style="opacity:1" fill="#afc8bc" d="M 392.5,383.5 C 384.813,392.519 376.146,400.519 366.5,407.5C 363.628,402.926 360.628,398.426 357.5,394C 358.799,392.674 360.132,391.34 361.5,390C 352.506,389.5 343.506,389.334 334.5,389.5C 334.5,389.167 334.5,388.833 334.5,388.5C 346.167,388.5 357.833,388.5 369.5,388.5C 369.5,386.5 369.5,384.5 369.5,382.5C 373.472,379.53 377.138,376.196 380.5,372.5C 384.546,376.217 388.546,379.884 392.5,383.5 Z"/></g>
<g><path style="opacity:1" fill="#b0c9bc" d="M 192.5,384.5 C 229.953,400.04 267.62,400.374 305.5,385.5C 305.5,386.833 305.5,388.167 305.5,389.5C 314.5,389.5 323.5,389.5 332.5,389.5C 302.621,408.183 269.954,416.016 234.5,413C 220.181,411.225 206.181,408.058 192.5,403.5C 192.5,403.167 192.5,402.833 192.5,402.5C 192.5,396.5 192.5,390.5 192.5,384.5 Z"/></g>
<g><path style="opacity:1" fill="#fdfefd" d="M 332.5,389.5 C 333.167,389.5 333.833,389.5 334.5,389.5C 343.506,389.334 352.506,389.5 361.5,390C 360.132,391.34 358.799,392.674 357.5,394C 360.628,398.426 363.628,402.926 366.5,407.5C 363.554,410.313 360.221,412.646 356.5,414.5C 353.555,409.714 350.388,405.048 347,400.5C 338.243,406.464 329.076,411.798 319.5,416.5C 321.79,421.409 323.79,426.409 325.5,431.5C 321.979,433.229 318.313,434.562 314.5,435.5C 312.201,431.12 310.368,426.453 309,421.5C 308.275,420.941 307.442,420.608 306.5,420.5C 297.011,423.622 287.344,425.956 277.5,427.5C 278.427,433.134 279.093,438.801 279.5,444.5C 276.904,445.265 274.237,445.599 271.5,445.5C 269.833,445.5 268.167,445.5 266.5,445.5C 266.528,440.138 266.194,434.805 265.5,429.5C 254.833,429.5 244.167,429.5 233.5,429.5C 232.902,434.813 232.569,440.146 232.5,445.5C 229.833,445.5 227.167,445.5 224.5,445.5C 223.833,445.5 223.167,445.5 222.5,445.5C 221.602,444.842 220.602,444.176 219.5,443.5C 220.657,438.24 221.324,432.907 221.5,427.5C 211.595,426.053 201.929,423.72 192.5,420.5C 192.5,414.833 192.5,409.167 192.5,403.5C 206.181,408.058 220.181,411.225 234.5,413C 269.954,416.016 302.621,408.183 332.5,389.5 Z"/></g>
<g><path style="opacity:1" fill="#aec8bb" d="M 356.5,414.5 C 346.977,421.433 336.643,427.099 325.5,431.5C 323.79,426.409 321.79,421.409 319.5,416.5C 329.076,411.798 338.243,406.464 347,400.5C 350.388,405.048 353.555,409.714 356.5,414.5 Z"/></g>
<g><path style="opacity:1" fill="#afc9bc" d="M 314.5,435.5 C 303.286,439.887 291.619,442.887 279.5,444.5C 279.093,438.801 278.427,433.134 277.5,427.5C 287.344,425.956 297.011,423.622 306.5,420.5C 307.442,420.608 308.275,420.941 309,421.5C 310.368,426.453 312.201,431.12 314.5,435.5 Z"/></g>
<g><path style="opacity:1" fill="#aec8bb" d="M 192.5,420.5 C 201.929,423.72 211.595,426.053 221.5,427.5C 221.324,432.907 220.657,438.24 219.5,443.5C 220.602,444.176 221.602,444.842 222.5,445.5C 212.423,443.885 202.423,441.885 192.5,439.5C 192.5,433.167 192.5,426.833 192.5,420.5 Z"/></g>
<g><path style="opacity:1" fill="#afc9bc" d="M 271.5,445.5 C 255.837,448.067 240.171,448.067 224.5,445.5C 227.167,445.5 229.833,445.5 232.5,445.5C 232.569,440.146 232.902,434.813 233.5,429.5C 244.167,429.5 254.833,429.5 265.5,429.5C 266.194,434.805 266.528,440.138 266.5,445.5C 268.167,445.5 269.833,445.5 271.5,445.5 Z"/></g>
</svg>
