<?xml version="1.0" standalone="no"?>
<!DOCTYPE svg PUBLIC "-//W3C//DTD SVG 20010904//EN"
 "http://www.w3.org/TR/2001/REC-SVG-20010904/DTD/svg10.dtd">
<svg version="1.0" xmlns="http://www.w3.org/2000/svg"
 width="500.000000pt" height="500.000000pt" viewBox="0 0 500.000000 500.000000"
 preserveAspectRatio="xMidYMid meet">

<g transform="translate(0.000000,500.000000) scale(0.100000,-0.100000)"
fill="#000000" stroke="none">
<path d="M30 2500 l0 -2470 2470 0 2470 0 0 2470 0 2470 -2470 0 -2470 0 0
-2470z m1880 615 l0 -495 590 0 590 0 0 495 0 495 110 0 110 0 0 -495 0 -495
815 0 815 0 0 -185 0 -185 -815 0 -815 0 0 -535 0 -535 -110 0 -110 0 0 535 0
535 -590 0 -590 0 0 -535 0 -535 -110 0 -110 0 0 535 0 535 -815 0 -815 0 0
185 0 185 815 0 815 0 0 495 0 495 110 0 110 0 0 -495z"/>
<path d="M460 2435 l0 -135 35 0 35 0 0 50 0 50 40 0 40 0 0 -50 c0 -49 1 -50
30 -50 l30 0 0 135 0 135 -30 0 c-29 0 -30 -1 -30 -50 l0 -50 -40 0 -40 0 0
50 0 50 -35 0 -35 0 0 -135z"/>
<path d="M1020 2435 l0 -135 90 0 90 0 0 30 c0 30 -1 30 -55 30 -52 0 -55 1
-55 25 0 24 3 25 55 25 54 0 55 0 55 30 0 30 -1 30 -55 30 -48 0 -55 2 -55 20
0 18 7 20 55 20 54 0 55 0 55 30 l0 30 -90 0 -90 0 0 -135z"/>
<path d="M1540 2564 c0 -3 18 -32 40 -65 45 -65 45 -62 -11 -146 -16 -23 -29
-44 -29 -47 0 -3 15 -6 34 -6 28 0 38 6 56 35 12 19 25 35 30 35 5 0 18 -16
30 -35 18 -29 28 -35 56 -35 19 0 34 2 34 4 0 3 -18 34 -41 70 l-41 65 41 60
c23 33 41 62 41 65 0 4 -15 6 -34 6 -27 0 -38 -7 -57 -35 -13 -19 -27 -35 -31
-35 -3 0 -16 16 -28 35 -18 29 -28 35 -56 35 -19 0 -34 -2 -34 -6z"/>
<path d="M2120 2435 l0 -135 35 0 34 0 3 63 3 62 44 -62 c33 -47 50 -63 67
-63 l24 0 0 135 0 135 -30 0 c-29 0 -29 0 -32 -65 l-3 -65 -44 65 c-37 54 -49
65 -73 65 l-28 0 0 -135z"/>
<path d="M2729 2531 c-36 -36 -39 -43 -39 -95 0 -50 4 -60 33 -92 57 -62 156
-58 212 8 20 24 25 41 25 85 0 51 -3 58 -39 94 -36 36 -43 39 -96 39 -53 0
-60 -3 -96 -39z m146 -46 c14 -13 25 -36 25 -50 0 -35 -42 -75 -79 -75 -34 0
-71 39 -71 75 0 12 9 34 21 49 27 34 71 35 104 1z"/>
<path d="M3310 2435 l0 -135 74 0 c81 0 129 22 153 70 19 37 16 101 -7 137
-28 46 -67 63 -150 63 l-70 0 0 -135z m151 56 c52 -42 17 -131 -52 -131 l-29
0 0 75 0 75 29 0 c16 0 39 -8 52 -19z"/>
<path d="M3890 2435 l0 -135 90 0 90 0 0 30 c0 30 -1 30 -55 30 -52 0 -55 1
-55 25 0 24 3 25 55 25 54 0 55 0 55 30 0 30 -1 30 -55 30 -48 0 -55 2 -55 20
0 18 7 20 55 20 54 0 55 0 55 30 l0 30 -90 0 -90 0 0 -135z"/>
<path d="M4445 2545 c-28 -27 -34 -80 -12 -108 6 -9 36 -22 66 -29 61 -15 76
-34 36 -44 -17 -4 -32 -1 -44 10 -22 20 -71 21 -71 2 0 -63 90 -97 159 -61 32
16 41 33 41 74 0 42 -21 62 -81 75 -34 8 -54 18 -54 27 0 17 43 25 58 10 11
-11 77 -16 77 -5 0 12 -24 50 -39 61 -9 7 -38 13 -64 13 -38 0 -53 -5 -72 -25z"/>
</g>
</svg>
