<?xml version="1.0" encoding="UTF-8"?>
<!DOCTYPE svg PUBLIC "-//W3C//DTD SVG 1.1//EN" "http://www.w3.org/Graphics/SVG/1.1/DTD/svg11.dtd">
<svg xmlns="http://www.w3.org/2000/svg" version="1.1" width="400px" height="400px" style="shape-rendering:geometricPrecision; text-rendering:geometricPrecision; image-rendering:optimizeQuality; fill-rule:evenodd; clip-rule:evenodd" xmlns:xlink="http://www.w3.org/1999/xlink">
<g><path style="opacity:0.992" fill="#bcfcfe" d="M 193.5,-0.5 C 197.5,-0.5 201.5,-0.5 205.5,-0.5C 205.866,0.694594 206.699,1.36126 208,1.5C 211.056,0.717922 214.223,0.717922 217.5,1.5C 217.33,2.82207 217.663,3.98873 218.5,5C 222.167,5.33333 225.833,5.66667 229.5,6C 228.542,7.14748 228.875,8.14748 230.5,9C 233.817,9.49834 237.15,9.66501 240.5,9.5C 240.36,11.1238 241.027,12.2904 242.5,13C 244.81,13.4966 247.143,13.6633 249.5,13.5C 249.33,14.8221 249.663,15.9887 250.5,17C 254.152,17.4986 257.818,17.6653 261.5,17.5C 261.33,18.8221 261.663,19.9887 262.5,21C 267.199,20.7214 271.199,22.0548 274.5,25C 276.81,25.4966 279.143,25.6633 281.5,25.5C 281.33,26.8221 281.663,27.9887 282.5,29C 286.152,29.4986 289.818,29.6653 293.5,29.5C 293.33,30.8221 293.663,31.9887 294.5,33C 298.167,33.3333 301.833,33.6667 305.5,34C 304.542,35.1475 304.875,36.1475 306.5,37C 309.146,37.4974 311.813,37.6641 314.5,37.5C 314.5,38.5 314.5,39.5 314.5,40.5C 318.135,41.1143 321.802,41.4476 325.5,41.5C 325.167,44.5 326.5,45.8333 329.5,45.5C 330.425,48.9517 332.425,51.785 335.5,54C 335.167,54.3333 334.833,54.6667 334.5,55C 343.433,65.9361 353.1,76.2695 363.5,86C 363.167,86.3333 362.833,86.6667 362.5,87C 364.116,87.6152 365.449,88.6152 366.5,90C 366.5,91.3333 366.5,92.6667 366.5,94C 369.564,97.1878 373.23,99.3545 377.5,100.5C 377.5,101.5 377.5,102.5 377.5,103.5C 377.167,103.5 376.833,103.5 376.5,103.5C 376.631,102.624 376.298,101.957 375.5,101.5C 373.929,102.309 372.262,102.643 370.5,102.5C 370.5,103.833 370.5,105.167 370.5,106.5C 368.143,106.337 365.81,106.503 363.5,107C 362.915,108.302 362.249,109.469 361.5,110.5C 359.473,110.338 357.473,110.505 355.5,111C 351.448,114.606 347.114,117.44 342.5,119.5C 342.5,120.5 342.5,121.5 342.5,122.5C 340.143,122.337 337.81,122.503 335.5,123C 334.447,126.367 332.114,128.034 328.5,128C 325.695,129.382 323.361,131.216 321.5,133.5C 318.833,133.5 316.167,133.5 313.5,133.5C 313.5,134.833 313.5,136.167 313.5,137.5C 310.136,136.789 307.803,137.956 306.5,141C 303.392,143.106 300.059,144.772 296.5,146C 295.177,146.816 294.511,147.983 294.5,149.5C 294.5,149.833 294.5,150.167 294.5,150.5C 292.143,150.337 289.81,150.503 287.5,151C 282.586,152.875 277.92,155.042 273.5,157.5C 273.5,158.833 273.5,160.167 273.5,161.5C 271.396,161.201 269.396,161.534 267.5,162.5C 266.873,163.417 266.539,164.417 266.5,165.5C 264.974,167.13 262.974,167.963 260.5,168C 259.619,168.708 258.953,169.542 258.5,170.5C 256.345,170.372 254.345,170.872 252.5,172C 251.284,173.74 249.618,174.74 247.5,175C 246.748,175.671 246.414,176.504 246.5,177.5C 244.369,178.314 242.036,178.814 239.5,179C 238.748,179.671 238.414,180.504 238.5,181.5C 236.409,181.318 234.409,181.652 232.5,182.5C 230.088,185.178 227.421,187.512 224.5,189.5C 222.885,190.154 221.218,190.654 219.5,191C 218.748,191.671 218.414,192.504 218.5,193.5C 218.5,194.167 218.167,194.5 217.5,194.5C 212.933,195.615 208.266,196.781 203.5,198C 202.418,199.33 201.751,200.83 201.5,202.5C 198.393,202.826 196.06,201.659 194.5,199C 192.527,198.505 190.527,198.338 188.5,198.5C 188.489,196.983 187.823,195.816 186.5,195C 181.99,193.058 177.99,190.392 174.5,187C 171.096,186.986 168.43,185.653 166.5,183C 164.423,182.808 162.423,182.308 160.5,181.5C 157.913,178.244 154.58,176.244 150.5,175.5C 148.668,171.286 145.334,169.286 140.5,169.5C 134.95,161.941 127.95,156.274 119.5,152.5C 117.973,152.573 116.973,151.906 116.5,150.5C 113.772,146.263 110.439,142.429 106.5,139C 104.697,138.363 103.364,137.197 102.5,135.5C 100.885,134.846 99.2182,134.346 97.5,134C 89.2999,124.701 79.9665,116.868 69.5,110.5C 65.9486,106.571 62.282,102.737 58.5,99C 48.0928,98.0742 37.7595,98.4075 27.5,100C 26.1772,100.816 25.5106,101.983 25.5,103.5C 24.5,103.5 23.5,103.5 22.5,103.5C 22.5,116.167 22.5,128.833 22.5,141.5C 22.1667,141.5 21.8333,141.5 21.5,141.5C 21.3625,123.808 21.3625,106.475 21.5,89.5C 22.8221,89.67 23.9887,89.3366 25,88.5C 24.6204,85.0442 24.7871,81.3776 25.5,77.5C 26.8221,77.67 27.9887,77.3366 29,76.5C 28.2084,74.1538 28.3751,71.8205 29.5,69.5C 31.8568,69.6633 34.1902,69.4966 36.5,69C 37.91,68.6322 38.91,67.7989 39.5,66.5C 41.1667,66.1667 42.8333,65.8333 44.5,65.5C 47.0086,64.998 49.3419,64.998 51.5,65.5C 53.2759,64.6852 53.9426,63.5185 53.5,62C 57.1667,61.6667 60.8333,61.3333 64.5,61C 65.3366,59.9887 65.67,58.8221 65.5,57.5C 69.1817,57.6653 72.8484,57.4986 76.5,57C 77.3366,55.9887 77.67,54.8221 77.5,53.5C 79.8568,53.6633 82.1902,53.4966 84.5,53C 85.3366,51.9887 85.67,50.8221 85.5,49.5C 87.8568,49.6633 90.1902,49.4966 92.5,49C 93.3366,47.9887 93.67,46.8221 93.5,45.5C 95.8568,45.6633 98.1902,45.4966 100.5,45C 101.337,43.9887 101.67,42.8221 101.5,41.5C 103.857,41.6633 106.19,41.4966 108.5,41C 109.337,39.9887 109.67,38.8221 109.5,37.5C 111.857,37.6633 114.19,37.4966 116.5,37C 117.337,35.9887 117.67,34.8221 117.5,33.5C 119.857,33.6633 122.19,33.4966 124.5,33C 125.337,31.9887 125.67,30.8221 125.5,29.5C 127.857,29.6633 130.19,29.4966 132.5,29C 133.337,27.9887 133.67,26.8221 133.5,25.5C 136.167,25.5 138.833,25.5 141.5,25.5C 141.5,24.1667 141.5,22.8333 141.5,21.5C 144.983,22.0841 147.983,21.2508 150.5,19C 150.167,18.6667 149.833,18.3333 149.5,18C 152.226,17.8184 154.893,17.3184 157.5,16.5C 157.833,15.8333 158.167,15.1667 158.5,14.5C 161.212,13.7719 163.879,12.9385 166.5,12C 167.833,11.3333 167.833,10.6667 166.5,10C 169.513,9.49782 172.513,8.99782 175.5,8.5C 175.5,7.5 175.5,6.5 175.5,5.5C 178.607,5.64877 181.607,5.14877 184.5,4C 185.833,3.33333 185.833,2.66667 184.5,2C 187.167,1.66667 189.833,1.33333 192.5,1C 193.056,0.617425 193.389,0.117425 193.5,-0.5 Z"/></g>
<g><path style="opacity:0.486" fill="#bdf8f9" d="M 329.5,45.5 C 330.833,45.5 332.167,45.5 333.5,45.5C 333.167,48.5 334.5,49.8333 337.5,49.5C 337.167,52.5 338.5,53.8333 341.5,53.5C 343.91,56.5894 345.41,60.256 346,64.5C 347.011,65.3366 348.178,65.67 349.5,65.5C 349.167,68.5 350.5,69.8333 353.5,69.5C 353.167,72.5 354.5,73.8333 357.5,73.5C 357.167,76.5 358.5,77.8333 361.5,77.5C 361.167,80.5 362.5,81.8333 365.5,81.5C 365.167,84.5 366.5,85.8333 369.5,85.5C 369.674,87.861 370.007,90.1944 370.5,92.5C 371.5,92.5 372.5,92.5 373.5,92.5C 372.756,95.9496 374.09,97.6162 377.5,97.5C 377.5,98.5 377.5,99.5 377.5,100.5C 373.23,99.3545 369.564,97.1878 366.5,94C 366.5,92.6667 366.5,91.3333 366.5,90C 365.449,88.6152 364.116,87.6152 362.5,87C 362.833,86.6667 363.167,86.3333 363.5,86C 353.1,76.2695 343.433,65.9361 334.5,55C 334.833,54.6667 335.167,54.3333 335.5,54C 332.425,51.785 330.425,48.9517 329.5,45.5 Z"/></g>
<g><path style="opacity:0.995" fill="#9cfbfe" d="M 116.5,150.5 C 116.973,151.906 117.973,152.573 119.5,152.5C 119.33,153.822 119.663,154.989 120.5,156C 123.611,156.444 126.277,157.777 128.5,160C 132.728,163.806 136.728,167.806 140.5,172C 142.5,172 144.5,172 146.5,172C 147.337,173.011 147.67,174.178 147.5,175.5C 148.5,175.5 149.5,175.5 150.5,175.5C 154.349,177.611 157.682,180.444 160.5,184C 164.137,183.684 166.804,185.018 168.5,188C 173.2,189.013 177.2,191.346 180.5,195C 183.749,195.003 186.416,196.17 188.5,198.5C 190.527,198.338 192.527,198.505 194.5,199C 196.06,201.659 198.393,202.826 201.5,202.5C 204.038,201.957 206.372,200.957 208.5,199.5C 207.71,200.794 206.71,201.961 205.5,203C 202.993,203.093 200.826,203.926 199,205.5C 198.5,217.495 198.333,229.495 198.5,241.5C 197.167,241.5 195.833,241.5 194.5,241.5C 192.14,238.794 189.473,236.294 186.5,234C 184.833,233.667 183.167,233.333 181.5,233C 180.663,231.989 180.33,230.822 180.5,229.5C 177.084,230.106 174.418,229.106 172.5,226.5C 170.577,225.692 168.577,225.192 166.5,225C 163.561,223.334 161.228,221.001 159.5,218C 155.082,215.82 150.415,213.987 145.5,212.5C 141.172,209.201 136.838,205.868 132.5,202.5C 130.234,201.686 127.9,201.186 125.5,201C 124.663,199.989 124.33,198.822 124.5,197.5C 118.973,197.011 113.973,195.011 109.5,191.5C 108.522,191.977 107.689,192.643 107,193.5C 106.637,196.544 106.137,199.544 105.5,202.5C 104.504,202.414 103.671,202.748 103,203.5C 102.667,208.167 102.333,212.833 102,217.5C 101,218.167 100,218.833 99,219.5C 98.5007,224.489 98.3341,229.489 98.5,234.5C 97.5084,234.328 96.8417,234.662 96.5,235.5C 95.2502,235.577 94.4169,236.244 94,237.5C 93.6667,237.167 93.3333,236.833 93,236.5C 92.6667,232.5 92.3333,228.5 92,224.5C 91,223.833 90,223.167 89,222.5C 88.5007,217.511 88.3341,212.511 88.5,207.5C 85.7374,207.256 83.5707,205.923 82,203.5C 80.9887,204.337 79.8221,204.67 78.5,204.5C 78.9836,209.759 78.3169,214.759 76.5,219.5C 74.8746,222.891 73.8746,226.558 73.5,230.5C 72.2794,231.028 71.1127,231.695 70,232.5C 69.501,236.821 69.3343,241.154 69.5,245.5C 68.1779,245.33 67.0113,245.663 66,246.5C 65.6667,251.167 65.3333,255.833 65,260.5C 63.9887,261.337 62.8221,261.67 61.5,261.5C 61.6666,242.497 61.4999,223.497 61,204.5C 60,200.167 59,195.833 58,191.5C 57.6667,180.5 57.3333,169.5 57,158.5C 53.9143,158.004 51.0809,157.004 48.5,155.5C 45.1754,155.292 42.5087,153.959 40.5,151.5C 35.0601,149.885 30.2268,147.218 26,143.5C 24.85,142.576 23.85,142.576 23,143.5C 22.5357,142.906 22.369,142.239 22.5,141.5C 22.5,128.833 22.5,116.167 22.5,103.5C 23.5,103.5 24.5,103.5 25.5,103.5C 27.8068,102.347 30.1401,101.18 32.5,100C 40.8333,99.3333 49.1667,99.3333 57.5,100C 60.9336,104.19 64.6002,108.19 68.5,112C 78.7329,118.023 87.7329,125.689 95.5,135C 97.8127,135.662 100.146,136.162 102.5,136.5C 106.162,142.032 110.829,146.699 116.5,150.5 Z"/></g>
<g><path style="opacity:0.997" fill="#46f7fd" d="M 376.5,103.5 C 376.833,103.5 377.167,103.5 377.5,103.5C 377.5,116.833 377.5,130.167 377.5,143.5C 373.097,145.21 369.097,147.71 365.5,151C 363.618,151.198 361.952,151.698 360.5,152.5C 359.833,153.167 359.167,153.833 358.5,154.5C 355.881,154.232 353.381,154.565 351,155.5C 350.667,163.833 350.333,172.167 350,180.5C 349,182.833 348,185.167 347,187.5C 346.667,199.5 346.333,211.5 346,223.5C 343.569,229.96 342.069,236.626 341.5,243.5C 340.668,235.521 340.168,227.521 340,219.5C 339,218.5 338,217.5 337,216.5C 336.667,208.167 336.333,199.833 336,191.5C 334.615,190.449 333.615,189.116 333,187.5C 332.667,184.5 332.333,181.5 332,178.5C 329.858,176.382 328.358,173.882 327.5,171C 326.167,170.333 324.833,170.333 323.5,171C 321.03,173.833 318.197,176.333 315,178.5C 315.271,183.116 313.937,187.116 311,190.5C 310.667,196.167 310.333,201.833 310,207.5C 307.361,210.281 305.861,213.614 305.5,217.5C 303.768,215.717 302.268,213.717 301,211.5C 300.667,203.833 300.333,196.167 300,188.5C 299.163,186.993 297.996,186.493 296.5,187C 294.957,188.878 293.124,190.378 291,191.5C 290.517,192.448 290.351,193.448 290.5,194.5C 288.143,194.337 285.81,194.503 283.5,195C 282.663,196.011 282.33,197.178 282.5,198.5C 280.143,198.337 277.81,198.503 275.5,199C 272.229,202.644 268.229,205.311 263.5,207C 262.663,208.011 262.33,209.178 262.5,210.5C 260.708,211.309 258.708,211.809 256.5,212C 255.833,213 255.167,214 254.5,215C 250.766,216.263 247.433,218.096 244.5,220.5C 243.733,221.172 243.066,222.005 242.5,223C 238.863,222.684 236.196,224.018 234.5,227C 232.833,227.333 231.167,227.667 229.5,228C 225.672,231.418 221.339,234.084 216.5,236C 215.663,237.011 215.33,238.178 215.5,239.5C 213.143,239.337 210.81,239.503 208.5,240C 207.934,240.995 207.267,241.828 206.5,242.5C 204.5,242.5 202.5,242.5 200.5,242.5C 200.333,230.162 200.5,217.829 201,205.5C 202.734,204.751 204.567,204.251 206.5,204C 208.063,202.264 209.73,200.764 211.5,199.5C 212.267,198.828 212.934,197.995 213.5,197C 217.137,197.316 219.804,195.982 221.5,193C 223.473,192.505 225.473,192.338 227.5,192.5C 227.33,191.178 227.663,190.011 228.5,189C 232.141,187.381 235.807,185.714 239.5,184C 241.196,181.018 243.863,179.684 247.5,180C 248.167,179 248.833,178 249.5,177C 251.382,176.802 253.048,176.302 254.5,175.5C 254.5,174.833 254.833,174.5 255.5,174.5C 258.119,173.355 260.119,171.521 261.5,169C 265.137,169.316 267.804,167.982 269.5,165C 273.137,165.316 275.804,163.982 277.5,161C 282.229,159.311 286.229,156.644 289.5,153C 293.137,153.316 295.804,151.982 297.5,149C 303.489,146.005 309.489,143.005 315.5,140C 317.196,137.018 319.863,135.684 323.5,136C 324.499,133.239 326.499,131.906 329.5,132C 330.731,130.595 332.064,129.429 333.5,128.5C 335.765,125.062 339.098,123.562 343.5,124C 344.842,121.108 347.175,119.775 350.5,120C 354.569,116.937 358.902,114.27 363.5,112C 365.196,109.018 367.863,107.684 371.5,108C 372.161,105.328 373.828,103.828 376.5,103.5 Z"/></g>
<g><path style="opacity:1" fill="#81f9fd" d="M 376.5,103.5 C 373.828,103.828 372.161,105.328 371.5,108C 367.863,107.684 365.196,109.018 363.5,112C 358.902,114.27 354.569,116.937 350.5,120C 347.175,119.775 344.842,121.108 343.5,124C 339.098,123.562 335.765,125.062 333.5,128.5C 332.127,128.343 330.793,128.51 329.5,129C 326.676,130.751 324.009,132.584 321.5,134.5C 321.5,134.167 321.5,133.833 321.5,133.5C 323.361,131.216 325.695,129.382 328.5,128C 332.114,128.034 334.447,126.367 335.5,123C 337.81,122.503 340.143,122.337 342.5,122.5C 342.5,121.5 342.5,120.5 342.5,119.5C 344.746,118.79 347.08,118.29 349.5,118C 351.009,116.076 353.009,114.909 355.5,114.5C 356.386,113.675 356.719,112.675 356.5,111.5C 358.415,111.784 360.081,111.451 361.5,110.5C 362.249,109.469 362.915,108.302 363.5,107C 365.81,106.503 368.143,106.337 370.5,106.5C 370.5,105.167 370.5,103.833 370.5,102.5C 372.262,102.643 373.929,102.309 375.5,101.5C 376.298,101.957 376.631,102.624 376.5,103.5 Z"/></g>
<g><path style="opacity:1" fill="#a5fcfe" d="M 361.5,110.5 C 360.081,111.451 358.415,111.784 356.5,111.5C 356.719,112.675 356.386,113.675 355.5,114.5C 353.009,114.909 351.009,116.076 349.5,118C 347.08,118.29 344.746,118.79 342.5,119.5C 347.114,117.44 351.448,114.606 355.5,111C 357.473,110.505 359.473,110.338 361.5,110.5 Z"/></g>
<g><path style="opacity:1" fill="#acfcff" d="M 116.5,150.5 C 110.829,146.699 106.162,142.032 102.5,136.5C 100.146,136.162 97.8127,135.662 95.5,135C 87.7329,125.689 78.7329,118.023 68.5,112C 64.6002,108.19 60.9336,104.19 57.5,100C 49.1667,99.3333 40.8333,99.3333 32.5,100C 30.1401,101.18 27.8068,102.347 25.5,103.5C 25.5106,101.983 26.1772,100.816 27.5,100C 37.7595,98.4075 48.0928,98.0742 58.5,99C 62.282,102.737 65.9486,106.571 69.5,110.5C 79.9665,116.868 89.2999,124.701 97.5,134C 99.2182,134.346 100.885,134.846 102.5,135.5C 103.364,137.197 104.697,138.363 106.5,139C 110.439,142.429 113.772,146.263 116.5,150.5 Z"/></g>
<g><path style="opacity:1" fill="#a0fbfe" d="M 321.5,133.5 C 321.5,133.833 321.5,134.167 321.5,134.5C 320.048,135.302 318.382,135.802 316.5,136C 309.633,141.138 302.299,145.638 294.5,149.5C 294.511,147.983 295.177,146.816 296.5,146C 300.059,144.772 303.392,143.106 306.5,141C 307.803,137.956 310.136,136.789 313.5,137.5C 313.5,136.167 313.5,134.833 313.5,133.5C 316.167,133.5 318.833,133.5 321.5,133.5 Z"/></g>
<g><path style="opacity:0.247" fill="#13e0e8" d="M 377.5,143.5 C 377.5,196.167 377.5,248.833 377.5,301.5C 375.459,301.854 373.626,301.854 372,301.5C 370.294,302.308 369.461,303.641 369.5,305.5C 368.041,305.433 366.708,305.766 365.5,306.5C 364.599,307.29 363.932,308.29 363.5,309.5C 359.759,308.599 357.759,309.932 357.5,313.5C 356.5,313.5 355.5,313.5 354.5,313.5C 354.389,312.883 354.056,312.383 353.5,312C 355.538,310.764 356.705,308.931 357,306.5C 357.333,306.833 357.667,307.167 358,307.5C 362.297,305.196 365.964,302.196 369,298.5C 371.267,299.935 373.267,299.602 375,297.5C 375.833,247.163 375.667,196.83 374.5,146.5C 373.024,148.571 371.024,149.571 368.5,149.5C 368.5,150.5 368.5,151.5 368.5,152.5C 365.833,152.5 363.167,152.5 360.5,152.5C 361.952,151.698 363.618,151.198 365.5,151C 369.097,147.71 373.097,145.21 377.5,143.5 Z"/></g>
<g><path style="opacity:0.246" fill="#43e1e8" d="M 21.5,144.5 C 22.1667,144.833 22.8333,145.167 23.5,145.5C 23.4868,196.148 23.4868,246.648 23.5,297C 22.9558,297.717 22.2891,298.217 21.5,298.5C 21.0706,247.285 21.0706,195.952 21.5,144.5 Z"/></g>
<g><path style="opacity:0.995" fill="#00d8df" d="M 354.5,313.5 C 353.167,313.5 351.833,313.5 350.5,313.5C 349.732,312.737 349.232,311.737 349,310.5C 348.812,314.511 346.979,315.844 343.5,314.5C 340.214,316.451 337.214,318.785 334.5,321.5C 333.193,322.865 333.193,324.198 334.5,325.5C 333.167,325.5 331.833,325.5 330.5,325.5C 329.732,324.737 329.232,323.737 329,322.5C 327.986,327.063 325.319,328.397 321,326.5C 319.833,328 318.667,329.5 317.5,331C 313.348,331.381 311.015,333.547 310.5,337.5C 309.766,338.708 309.433,340.041 309.5,341.5C 307.167,341.5 304.833,341.5 302.5,341.5C 301.732,340.737 301.232,339.737 301,338.5C 300.812,342.511 298.979,343.844 295.5,342.5C 291.166,345.774 286.666,348.774 282,351.5C 281.667,351.167 281.333,350.833 281,350.5C 279.418,351.96 278.085,353.627 277,355.5C 275.732,355.384 274.398,355.051 273,354.5C 271.667,356.167 270.333,357.833 269,359.5C 268.667,359.167 268.333,358.833 268,358.5C 264.433,360.225 261.267,362.559 258.5,365.5C 257.193,366.865 257.193,368.198 258.5,369.5C 257.167,369.5 255.833,369.5 254.5,369.5C 253.732,368.737 253.232,367.737 253,366.5C 252.735,368.651 251.735,370.318 250,371.5C 246.485,369.84 243.985,370.84 242.5,374.5C 239.297,375.537 236.463,377.203 234,379.5C 233.667,379.167 233.333,378.833 233,378.5C 231.438,379.931 229.938,381.431 228.5,383C 227.216,383.684 226.049,383.517 225,382.5C 224.812,386.511 222.979,387.844 219.5,386.5C 215.569,388.632 212.236,391.465 209.5,395C 207.5,395.333 205.5,395.667 203.5,396C 202.829,396.986 202.829,398.153 203.5,399.5C 202.5,399.5 201.5,399.5 200.5,399.5C 200.333,349.499 200.5,299.499 201,249.5C 205.046,245.125 209.879,242.292 215.5,241C 216.842,238.108 219.175,236.775 222.5,237C 228.351,230.952 235.351,226.952 243.5,225C 244.38,223.644 244.714,222.144 244.5,220.5C 247.433,218.096 250.766,216.263 254.5,215C 255.167,214 255.833,213 256.5,212C 258.708,211.809 260.708,211.309 262.5,210.5C 263.267,209.828 263.934,208.995 264.5,208C 270.252,208.237 274.585,205.904 277.5,201C 279.5,200.667 281.5,200.333 283.5,200C 288.607,198.146 293.274,195.646 297.5,192.5C 297.334,200.174 297.5,207.841 298,215.5C 299.848,217.018 301.348,218.851 302.5,221C 308.1,221.906 310.767,219.406 310.5,213.5C 311.478,213.023 312.311,212.357 313,211.5C 312.978,203.623 313.812,195.956 315.5,188.5C 315.431,183.711 317.431,179.878 321.5,177C 322.944,176.219 324.277,176.386 325.5,177.5C 326.137,179.303 327.303,180.636 329,181.5C 329.333,184.833 329.667,188.167 330,191.5C 330.615,193.116 331.615,194.449 333,195.5C 333.333,203.5 333.667,211.5 334,219.5C 334.684,221.359 335.684,223.026 337,224.5C 337.333,232.5 337.667,240.5 338,248.5C 338.329,252.04 340.162,253.206 343.5,252C 345.108,247.352 345.942,242.519 346,237.5C 347.74,236.284 348.74,234.618 349,232.5C 349.333,219.833 349.667,207.167 350,194.5C 351.751,192.51 352.751,190.177 353,187.5C 353.5,177.506 353.666,167.506 353.5,157.5C 357.833,158.315 360.166,156.648 360.5,152.5C 363.167,152.5 365.833,152.5 368.5,152.5C 368.5,151.5 368.5,150.5 368.5,149.5C 371.024,149.571 373.024,148.571 374.5,146.5C 375.667,196.83 375.833,247.163 375,297.5C 373.267,299.602 371.267,299.935 369,298.5C 365.964,302.196 362.297,305.196 358,307.5C 357.667,307.167 357.333,306.833 357,306.5C 356.705,308.931 355.538,310.764 353.5,312C 354.056,312.383 354.389,312.883 354.5,313.5 Z"/></g>
<g><path style="opacity:1" fill="#02e7f1" d="M 23.5,145.5 C 27.5822,146.383 30.9156,148.549 33.5,152C 35.1667,152.333 36.8333,152.667 38.5,153C 39.3366,154.011 39.67,155.178 39.5,156.5C 41.5273,156.338 43.5273,156.505 45.5,157C 48.3885,159.501 51.2218,162.001 54,164.5C 54.3333,179.5 54.6667,194.5 55,209.5C 55.7977,212.893 56.7977,216.226 58,219.5C 58.3333,238.5 58.6667,257.5 59,276.5C 60.6667,277.833 62.3333,277.833 64,276.5C 64.0905,271.618 64.9238,266.951 66.5,262.5C 67.1515,261.909 67.8182,261.243 68.5,260.5C 69.4909,256.555 69.8242,252.555 69.5,248.5C 70.5,248.5 71.5,248.5 72.5,248.5C 72.3347,244.818 72.5014,241.152 73,237.5C 73.6667,236.833 74.3333,236.167 75,235.5C 75.2151,230.085 75.7151,224.752 76.5,219.5C 77.4584,219.047 78.2917,218.381 79,217.5C 79.4986,213.848 79.6653,210.182 79.5,206.5C 82.0725,207.219 84.5725,208.219 87,209.5C 87.3333,214.167 87.6667,218.833 88,223.5C 89,224.5 90,225.5 91,226.5C 91.499,230.821 91.6657,235.154 91.5,239.5C 92.8333,239.5 94.1667,239.5 95.5,239.5C 95.4326,238.041 95.7659,236.708 96.5,235.5C 96.8417,234.662 97.5084,234.328 98.5,234.5C 99.3255,230.018 99.8255,225.351 100,220.5C 101,219.833 102,219.167 103,218.5C 103.053,212.957 103.886,207.623 105.5,202.5C 107.141,200.797 108.141,198.63 108.5,196C 111.649,194.965 114.316,195.632 116.5,198C 120.413,197.56 123.079,199.06 124.5,202.5C 126.833,203.167 129.167,203.833 131.5,204.5C 135.171,208.65 139.504,211.817 144.5,214C 148.413,213.56 151.079,215.06 152.5,218.5C 157.847,219.512 162.18,222.179 165.5,226.5C 168.243,226.928 170.576,228.095 172.5,230C 176.413,229.56 179.079,231.06 180.5,234.5C 181.325,235.386 182.325,235.719 183.5,235.5C 183.414,236.496 183.748,237.329 184.5,238C 187.21,239.015 189.543,240.515 191.5,242.5C 194.537,243.741 197.537,243.741 200.5,242.5C 202.5,242.5 204.5,242.5 206.5,242.5C 204.438,243.776 202.104,244.61 199.5,245C 198.833,246 198.167,247 197.5,248C 197.297,298.065 197.63,348.565 198.5,399.5C 196.833,399.5 195.167,399.5 193.5,399.5C 193.027,398.094 192.027,397.427 190.5,397.5C 189.766,396.292 189.433,394.959 189.5,393.5C 188.167,393.5 186.833,393.5 185.5,393.5C 185.405,390.642 184.238,388.309 182,386.5C 180.612,387.554 179.112,387.72 177.5,387C 176.333,385.5 175.167,384 174,382.5C 173.667,382.833 173.333,383.167 173,383.5C 168.274,379.645 163.274,376.979 158,375.5C 156.667,373.833 155.333,372.167 154,370.5C 152.506,371.747 151.006,371.747 149.5,370.5C 148.234,369.276 147.067,367.943 146,366.5C 145.667,366.833 145.333,367.167 145,367.5C 140.895,364.862 137.061,361.862 133.5,358.5C 132.284,359.002 131.117,359.335 130,359.5C 128.201,355.475 125.367,353.975 121.5,355C 118.323,351.092 114.823,348.259 111,346.5C 109.701,346.966 108.201,346.966 106.5,346.5C 106.657,345.127 106.49,343.793 106,342.5C 104.612,343.554 103.112,343.72 101.5,343C 99.9586,339.59 97.6253,338.257 94.5,339C 92.3773,336.755 90.0439,334.755 87.5,333C 85.9343,332.235 84.6009,332.402 83.5,333.5C 82.8333,333.5 82.1667,333.5 81.5,333.5C 81.8682,330.376 80.7016,328.043 78,326.5C 76.6124,327.554 75.1124,327.72 73.5,327C 72.3333,325.5 71.1667,324 70,322.5C 68.3333,322.5 66.6667,322.5 65,322.5C 64.7508,321.376 64.2508,320.376 63.5,319.5C 60.3219,318.817 57.8219,317.15 56,314.5C 55.228,314.645 54.5613,314.978 54,315.5C 52.6667,313.833 51.3333,312.167 50,310.5C 48.5064,311.747 47.0064,311.747 45.5,310.5C 44.2338,309.276 43.0672,307.943 42,306.5C 41.6667,306.833 41.3333,307.167 41,307.5C 36.9262,304.968 33.2595,301.968 30,298.5C 27.0402,299.828 24.2069,300.495 21.5,300.5C 21.5,299.833 21.5,299.167 21.5,298.5C 22.2891,298.217 22.9558,297.717 23.5,297C 23.4868,246.648 23.4868,196.148 23.5,145.5 Z"/></g>
<g><path style="opacity:1" fill="#acfcff" d="M 119.5,152.5 C 127.95,156.274 134.95,161.941 140.5,169.5C 145.334,169.286 148.668,171.286 150.5,175.5C 149.5,175.5 148.5,175.5 147.5,175.5C 147.67,174.178 147.337,173.011 146.5,172C 144.5,172 142.5,172 140.5,172C 136.728,167.806 132.728,163.806 128.5,160C 126.277,157.777 123.611,156.444 120.5,156C 119.663,154.989 119.33,153.822 119.5,152.5 Z"/></g>
<g><path style="opacity:1" fill="#a1fbfe" d="M 294.5,150.5 C 287.113,153.546 280.113,157.713 273.5,163C 270.849,163.153 268.516,163.987 266.5,165.5C 266.539,164.417 266.873,163.417 267.5,162.5C 269.396,161.534 271.396,161.201 273.5,161.5C 273.5,160.167 273.5,158.833 273.5,157.5C 277.92,155.042 282.586,152.875 287.5,151C 289.81,150.503 292.143,150.337 294.5,150.5 Z"/></g>
<g><path style="opacity:1" fill="#70f7fd" d="M 333.5,128.5 C 332.064,129.429 330.731,130.595 329.5,132C 326.499,131.906 324.499,133.239 323.5,136C 319.863,135.684 317.196,137.018 315.5,140C 309.489,143.005 303.489,146.005 297.5,149C 295.804,151.982 293.137,153.316 289.5,153C 286.229,156.644 282.229,159.311 277.5,161C 275.804,163.982 273.137,165.316 269.5,165C 267.804,167.982 265.137,169.316 261.5,169C 260.119,171.521 258.119,173.355 255.5,174.5C 255.771,172.57 256.771,171.236 258.5,170.5C 258.953,169.542 259.619,168.708 260.5,168C 262.974,167.963 264.974,167.13 266.5,165.5C 268.516,163.987 270.849,163.153 273.5,163C 280.113,157.713 287.113,153.546 294.5,150.5C 294.5,150.167 294.5,149.833 294.5,149.5C 302.299,145.638 309.633,141.138 316.5,136C 318.382,135.802 320.048,135.302 321.5,134.5C 324.009,132.584 326.676,130.751 329.5,129C 330.793,128.51 332.127,128.343 333.5,128.5 Z"/></g>
<g><path style="opacity:1" fill="#40f0f6" d="M 21.5,141.5 C 21.8333,141.5 22.1667,141.5 22.5,141.5C 22.369,142.239 22.5357,142.906 23,143.5C 23.85,142.576 24.85,142.576 26,143.5C 30.2268,147.218 35.0601,149.885 40.5,151.5C 42.5087,153.959 45.1754,155.292 48.5,155.5C 48.5,156.5 48.5,157.5 48.5,158.5C 51.0855,159.039 53.2521,160.372 55,162.5C 55.3333,177.167 55.6667,191.833 56,206.5C 56.7393,208.221 57.5726,209.887 58.5,211.5C 59.3331,232.492 59.8331,253.492 60,274.5C 61,275.833 62,275.833 63,274.5C 63.4983,271.183 63.665,267.85 63.5,264.5C 63.9731,263.094 64.9731,262.427 66.5,262.5C 64.9238,266.951 64.0905,271.618 64,276.5C 62.3333,277.833 60.6667,277.833 59,276.5C 58.6667,257.5 58.3333,238.5 58,219.5C 56.7977,216.226 55.7977,212.893 55,209.5C 54.6667,194.5 54.3333,179.5 54,164.5C 51.2218,162.001 48.3885,159.501 45.5,157C 43.5273,156.505 41.5273,156.338 39.5,156.5C 39.67,155.178 39.3366,154.011 38.5,153C 36.8333,152.667 35.1667,152.333 33.5,152C 30.9156,148.549 27.5822,146.383 23.5,145.5C 22.8333,145.167 22.1667,144.833 21.5,144.5C 21.5,143.5 21.5,142.5 21.5,141.5 Z"/></g>
<g><path style="opacity:1" fill="#94fafe" d="M 258.5,170.5 C 256.771,171.236 255.771,172.57 255.5,174.5C 254.833,174.5 254.5,174.833 254.5,175.5C 251.487,175.107 248.82,175.774 246.5,177.5C 246.414,176.504 246.748,175.671 247.5,175C 249.618,174.74 251.284,173.74 252.5,172C 254.345,170.872 256.345,170.372 258.5,170.5 Z"/></g>
<g><path style="opacity:1" fill="#acfcff" d="M 150.5,175.5 C 154.58,176.244 157.913,178.244 160.5,181.5C 162.423,182.308 164.423,182.808 166.5,183C 168.43,185.653 171.096,186.986 174.5,187C 177.99,190.392 181.99,193.058 186.5,195C 187.823,195.816 188.489,196.983 188.5,198.5C 186.416,196.17 183.749,195.003 180.5,195C 177.2,191.346 173.2,189.013 168.5,188C 166.804,185.018 164.137,183.684 160.5,184C 157.682,180.444 154.349,177.611 150.5,175.5 Z"/></g>
<g><path style="opacity:1" fill="#73f8fd" d="M 254.5,175.5 C 253.048,176.302 251.382,176.802 249.5,177C 248.833,178 248.167,179 247.5,180C 243.863,179.684 241.196,181.018 239.5,184C 235.807,185.714 232.141,187.381 228.5,189C 227.663,190.011 227.33,191.178 227.5,192.5C 225.473,192.338 223.473,192.505 221.5,193C 219.804,195.982 217.137,197.316 213.5,197C 212.934,197.995 212.267,198.828 211.5,199.5C 211.33,198.178 211.663,197.011 212.5,196C 214.382,195.802 216.048,195.302 217.5,194.5C 218.167,194.5 218.5,194.167 218.5,193.5C 220.516,191.987 222.849,191.153 225.5,191C 226.167,190 226.833,189 227.5,188C 231.577,186.4 235.244,184.234 238.5,181.5C 238.414,180.504 238.748,179.671 239.5,179C 242.036,178.814 244.369,178.314 246.5,177.5C 248.82,175.774 251.487,175.107 254.5,175.5 Z"/></g>
<g><path style="opacity:1" fill="#9afbfe" d="M 238.5,181.5 C 235.244,184.234 231.577,186.4 227.5,188C 226.833,189 226.167,190 225.5,191C 222.849,191.153 220.516,191.987 218.5,193.5C 218.414,192.504 218.748,191.671 219.5,191C 221.218,190.654 222.885,190.154 224.5,189.5C 227.421,187.512 230.088,185.178 232.5,182.5C 234.409,181.652 236.409,181.318 238.5,181.5 Z"/></g>
<g><path style="opacity:1" fill="#2decf3" d="M 358.5,154.5 C 356.212,155.074 354.045,156.074 352,157.5C 351.667,166.167 351.333,174.833 351,183.5C 350,186.5 349,189.5 348,192.5C 347.667,204.167 347.333,215.833 347,227.5C 344.426,233.787 342.926,240.287 342.5,247C 341.451,247.492 340.451,247.326 339.5,246.5C 338.668,238.521 338.168,230.521 338,222.5C 337.385,220.884 336.385,219.551 335,218.5C 334.667,210.5 334.333,202.5 334,194.5C 333.333,193.833 332.667,193.167 332,192.5C 331.828,188.129 331.328,183.796 330.5,179.5C 328.171,178.229 327.005,176.229 327,173.5C 326.282,172.549 325.449,172.383 324.5,173C 321.37,175.128 318.537,177.628 316,180.5C 315.503,183.146 315.336,185.813 315.5,188.5C 314.571,189.936 313.405,191.269 312,192.5C 311.667,198.167 311.333,203.833 311,209.5C 307.882,212.07 306.715,215.404 307.5,219.5C 304.012,218.857 301.512,216.857 300,213.5C 299.803,205.451 299.303,197.451 298.5,189.5C 297.998,188.479 297.332,188.312 296.5,189C 294.195,190.626 292.195,192.46 290.5,194.5C 290.351,193.448 290.517,192.448 291,191.5C 293.124,190.378 294.957,188.878 296.5,187C 297.996,186.493 299.163,186.993 300,188.5C 300.333,196.167 300.667,203.833 301,211.5C 302.268,213.717 303.768,215.717 305.5,217.5C 305.861,213.614 307.361,210.281 310,207.5C 310.333,201.833 310.667,196.167 311,190.5C 313.937,187.116 315.271,183.116 315,178.5C 318.197,176.333 321.03,173.833 323.5,171C 324.833,170.333 326.167,170.333 327.5,171C 328.358,173.882 329.858,176.382 332,178.5C 332.333,181.5 332.667,184.5 333,187.5C 333.615,189.116 334.615,190.449 336,191.5C 336.333,199.833 336.667,208.167 337,216.5C 338,217.5 339,218.5 340,219.5C 340.168,227.521 340.668,235.521 341.5,243.5C 342.069,236.626 343.569,229.96 346,223.5C 346.333,211.5 346.667,199.5 347,187.5C 348,185.167 349,182.833 350,180.5C 350.333,172.167 350.667,163.833 351,155.5C 353.381,154.565 355.881,154.232 358.5,154.5 Z"/></g>
<g><path style="opacity:1" fill="#a7fcfe" d="M 217.5,194.5 C 216.048,195.302 214.382,195.802 212.5,196C 211.663,197.011 211.33,198.178 211.5,199.5C 210.5,199.5 209.5,199.5 208.5,199.5C 206.372,200.957 204.038,201.957 201.5,202.5C 201.751,200.83 202.418,199.33 203.5,198C 208.266,196.781 212.933,195.615 217.5,194.5 Z"/></g>
<g><path style="opacity:1" fill="#67f6fc" d="M 208.5,199.5 C 209.5,199.5 210.5,199.5 211.5,199.5C 209.73,200.764 208.063,202.264 206.5,204C 204.567,204.251 202.734,204.751 201,205.5C 200.5,217.829 200.333,230.162 200.5,242.5C 197.537,243.741 194.537,243.741 191.5,242.5C 189.543,240.515 187.21,239.015 184.5,238C 183.748,237.329 183.414,236.496 183.5,235.5C 186.929,237.719 190.595,239.719 194.5,241.5C 195.833,241.5 197.167,241.5 198.5,241.5C 198.333,229.495 198.5,217.495 199,205.5C 200.826,203.926 202.993,203.093 205.5,203C 206.71,201.961 207.71,200.794 208.5,199.5 Z"/></g>
<g><path style="opacity:1" fill="#66f6fc" d="M 105.5,202.5 C 103.886,207.623 103.053,212.957 103,218.5C 102,219.167 101,219.833 100,220.5C 99.8255,225.351 99.3255,230.018 98.5,234.5C 98.3341,229.489 98.5007,224.489 99,219.5C 100,218.833 101,218.167 102,217.5C 102.333,212.833 102.667,208.167 103,203.5C 103.671,202.748 104.504,202.414 105.5,202.5 Z"/></g>
<g><path style="opacity:1" fill="#81f9fd" d="M 194.5,241.5 C 190.595,239.719 186.929,237.719 183.5,235.5C 182.325,235.719 181.325,235.386 180.5,234.5C 179.079,231.06 176.413,229.56 172.5,230C 170.576,228.095 168.243,226.928 165.5,226.5C 162.18,222.179 157.847,219.512 152.5,218.5C 151.079,215.06 148.413,213.56 144.5,214C 139.504,211.817 135.171,208.65 131.5,204.5C 129.167,203.833 126.833,203.167 124.5,202.5C 123.079,199.06 120.413,197.56 116.5,198C 114.316,195.632 111.649,194.965 108.5,196C 108.141,198.63 107.141,200.797 105.5,202.5C 106.137,199.544 106.637,196.544 107,193.5C 107.689,192.643 108.522,191.977 109.5,191.5C 113.973,195.011 118.973,197.011 124.5,197.5C 124.33,198.822 124.663,199.989 125.5,201C 127.9,201.186 130.234,201.686 132.5,202.5C 136.838,205.868 141.172,209.201 145.5,212.5C 150.415,213.987 155.082,215.82 159.5,218C 161.228,221.001 163.561,223.334 166.5,225C 168.577,225.192 170.577,225.692 172.5,226.5C 174.418,229.106 177.084,230.106 180.5,229.5C 180.33,230.822 180.663,231.989 181.5,233C 183.167,233.333 184.833,233.667 186.5,234C 189.473,236.294 192.14,238.794 194.5,241.5 Z"/></g>
<g><path style="opacity:1" fill="#66f6fc" d="M 48.5,158.5 C 51.3646,158.055 53.8646,158.722 56,160.5C 56.3333,171.167 56.6667,181.833 57,192.5C 57.2132,198.634 58.2132,204.634 60,210.5C 60.1669,231.508 60.6669,252.508 61.5,273.5C 62.1674,270.358 62.834,267.358 63.5,264.5C 63.665,267.85 63.4983,271.183 63,274.5C 62,275.833 61,275.833 60,274.5C 59.8331,253.492 59.3331,232.492 58.5,211.5C 57.5726,209.887 56.7393,208.221 56,206.5C 55.6667,191.833 55.3333,177.167 55,162.5C 53.2521,160.372 51.0855,159.039 48.5,158.5 Z"/></g>
<g><path style="opacity:1" fill="#88f9fe" d="M 48.5,155.5 C 51.0809,157.004 53.9143,158.004 57,158.5C 57.3333,169.5 57.6667,180.5 58,191.5C 59,195.833 60,200.167 61,204.5C 61.4999,223.497 61.6666,242.497 61.5,261.5C 62.8221,261.67 63.9887,261.337 65,260.5C 65.3333,255.833 65.6667,251.167 66,246.5C 67.0113,245.663 68.1779,245.33 69.5,245.5C 69.3343,241.154 69.501,236.821 70,232.5C 71.1127,231.695 72.2794,231.028 73.5,230.5C 73.7778,232.346 73.1112,233.68 71.5,234.5C 70.5091,238.445 70.1758,242.445 70.5,246.5C 69.1779,246.33 68.0113,246.663 67,247.5C 66.5007,252.489 66.3341,257.489 66.5,262.5C 64.9731,262.427 63.9731,263.094 63.5,264.5C 62.834,267.358 62.1674,270.358 61.5,273.5C 60.6669,252.508 60.1669,231.508 60,210.5C 58.2132,204.634 57.2132,198.634 57,192.5C 56.6667,181.833 56.3333,171.167 56,160.5C 53.8646,158.722 51.3646,158.055 48.5,158.5C 48.5,157.5 48.5,156.5 48.5,155.5 Z"/></g>
<g><path style="opacity:1" fill="#17e1e8" d="M 315.5,188.5 C 313.812,195.956 312.978,203.623 313,211.5C 312.311,212.357 311.478,213.023 310.5,213.5C 310.767,219.406 308.1,221.906 302.5,221C 301.348,218.851 299.848,217.018 298,215.5C 297.5,207.841 297.334,200.174 297.5,192.5C 293.274,195.646 288.607,198.146 283.5,200C 281.5,200.333 279.5,200.667 277.5,201C 274.585,205.904 270.252,208.237 264.5,208C 263.934,208.995 263.267,209.828 262.5,210.5C 262.33,209.178 262.663,208.011 263.5,207C 268.229,205.311 272.229,202.644 275.5,199C 277.81,198.503 280.143,198.337 282.5,198.5C 282.33,197.178 282.663,196.011 283.5,195C 285.81,194.503 288.143,194.337 290.5,194.5C 292.195,192.46 294.195,190.626 296.5,189C 297.332,188.312 297.998,188.479 298.5,189.5C 299.303,197.451 299.803,205.451 300,213.5C 301.512,216.857 304.012,218.857 307.5,219.5C 306.715,215.404 307.882,212.07 311,209.5C 311.333,203.833 311.667,198.167 312,192.5C 313.405,191.269 314.571,189.936 315.5,188.5 Z"/></g>
<g><path style="opacity:1" fill="#63f5fb" d="M 96.5,235.5 C 95.7659,236.708 95.4326,238.041 95.5,239.5C 94.1667,239.5 92.8333,239.5 91.5,239.5C 91.6657,235.154 91.499,230.821 91,226.5C 90,225.5 89,224.5 88,223.5C 87.6667,218.833 87.3333,214.167 87,209.5C 84.5725,208.219 82.0725,207.219 79.5,206.5C 79.6653,210.182 79.4986,213.848 79,217.5C 78.2917,218.381 77.4584,219.047 76.5,219.5C 78.3169,214.759 78.9836,209.759 78.5,204.5C 79.8221,204.67 80.9887,204.337 82,203.5C 83.5707,205.923 85.7374,207.256 88.5,207.5C 88.3341,212.511 88.5007,217.511 89,222.5C 90,223.167 91,223.833 92,224.5C 92.3333,228.5 92.6667,232.5 93,236.5C 93.3333,236.833 93.6667,237.167 94,237.5C 94.4169,236.244 95.2502,235.577 96.5,235.5 Z"/></g>
<g><path style="opacity:1" fill="#04dfe7" d="M 244.5,220.5 C 244.714,222.144 244.38,223.644 243.5,225C 235.351,226.952 228.351,230.952 222.5,237C 219.175,236.775 216.842,238.108 215.5,241C 209.879,242.292 205.046,245.125 201,249.5C 200.5,299.499 200.333,349.499 200.5,399.5C 199.833,399.5 199.167,399.5 198.5,399.5C 197.63,348.565 197.297,298.065 197.5,248C 198.167,247 198.833,246 199.5,245C 202.104,244.61 204.438,243.776 206.5,242.5C 207.267,241.828 207.934,240.995 208.5,240C 210.81,239.503 213.143,239.337 215.5,239.5C 215.33,238.178 215.663,237.011 216.5,236C 221.339,234.084 225.672,231.418 229.5,228C 231.167,227.667 232.833,227.333 234.5,227C 236.196,224.018 238.863,222.684 242.5,223C 243.066,222.005 243.733,221.172 244.5,220.5 Z"/></g>
<g><path style="opacity:1" fill="#0edee5" d="M 360.5,152.5 C 360.166,156.648 357.833,158.315 353.5,157.5C 353.666,167.506 353.5,177.506 353,187.5C 352.751,190.177 351.751,192.51 350,194.5C 349.667,207.167 349.333,219.833 349,232.5C 348.74,234.618 347.74,236.284 346,237.5C 345.942,242.519 345.108,247.352 343.5,252C 340.162,253.206 338.329,252.04 338,248.5C 337.667,240.5 337.333,232.5 337,224.5C 335.684,223.026 334.684,221.359 334,219.5C 333.667,211.5 333.333,203.5 333,195.5C 331.615,194.449 330.615,193.116 330,191.5C 329.667,188.167 329.333,184.833 329,181.5C 327.303,180.636 326.137,179.303 325.5,177.5C 324.277,176.386 322.944,176.219 321.5,177C 317.431,179.878 315.431,183.711 315.5,188.5C 315.336,185.813 315.503,183.146 316,180.5C 318.537,177.628 321.37,175.128 324.5,173C 325.449,172.383 326.282,172.549 327,173.5C 327.005,176.229 328.171,178.229 330.5,179.5C 331.328,183.796 331.828,188.129 332,192.5C 332.667,193.167 333.333,193.833 334,194.5C 334.333,202.5 334.667,210.5 335,218.5C 336.385,219.551 337.385,220.884 338,222.5C 338.168,230.521 338.668,238.521 339.5,246.5C 340.451,247.326 341.451,247.492 342.5,247C 342.926,240.287 344.426,233.787 347,227.5C 347.333,215.833 347.667,204.167 348,192.5C 349,189.5 350,186.5 351,183.5C 351.333,174.833 351.667,166.167 352,157.5C 354.045,156.074 356.212,155.074 358.5,154.5C 359.167,153.833 359.833,153.167 360.5,152.5 Z"/></g>
<g><path style="opacity:1" fill="#48f0f7" d="M 76.5,219.5 C 75.7151,224.752 75.2151,230.085 75,235.5C 74.3333,236.167 73.6667,236.833 73,237.5C 72.5014,241.152 72.3347,244.818 72.5,248.5C 71.5,248.5 70.5,248.5 69.5,248.5C 69.8242,252.555 69.4909,256.555 68.5,260.5C 67.8182,261.243 67.1515,261.909 66.5,262.5C 66.3341,257.489 66.5007,252.489 67,247.5C 68.0113,246.663 69.1779,246.33 70.5,246.5C 70.1758,242.445 70.5091,238.445 71.5,234.5C 73.1112,233.68 73.7778,232.346 73.5,230.5C 73.8746,226.558 74.8746,222.891 76.5,219.5 Z"/></g>
<g><path style="opacity:0.012" fill="#93e8eb" d="M 33.5,306.5 C 34.4013,307.29 35.0679,308.29 35.5,309.5C 33.9519,309.179 33.2852,308.179 33.5,306.5 Z"/></g>
<g><path style="opacity:0.012" fill="#93e8eb" d="M 365.5,306.5 C 365.715,308.179 365.048,309.179 363.5,309.5C 363.932,308.29 364.599,307.29 365.5,306.5 Z"/></g>
<g><path style="opacity:0.012" fill="#95e7ea" d="M 41.5,311.5 C 42.5,311.833 43.1667,312.5 43.5,313.5C 43.5654,313.938 43.3988,314.272 43,314.5C 41.9614,313.756 41.4614,312.756 41.5,311.5 Z"/></g>
<g><path style="opacity:0.208" fill="#b2f2f4" d="M 346.5,317.5 C 345.194,318.467 344.527,319.801 344.5,321.5C 343.167,321.5 341.833,321.5 340.5,321.5C 341.234,320.292 341.567,318.959 341.5,317.5C 343.167,317.5 344.833,317.5 346.5,317.5 Z"/></g>
<g><path style="opacity:0.114" fill="#b1f3f5" d="M 53.5,317.5 C 54.8734,317.343 56.2068,317.51 57.5,318C 57.6191,319.145 57.9524,320.312 58.5,321.5C 55.6665,322.222 53.9998,320.888 53.5,317.5 Z"/></g>
<g><path style="opacity:0.624" fill="#37e2e9" d="M 350.5,313.5 C 349.766,314.708 349.433,316.041 349.5,317.5C 348.5,317.5 347.5,317.5 346.5,317.5C 344.833,317.5 343.167,317.5 341.5,317.5C 341.567,318.959 341.234,320.292 340.5,321.5C 338.088,321.694 337.088,323.027 337.5,325.5C 336.5,325.5 335.5,325.5 334.5,325.5C 333.193,324.198 333.193,322.865 334.5,321.5C 337.214,318.785 340.214,316.451 343.5,314.5C 346.979,315.844 348.812,314.511 349,310.5C 349.232,311.737 349.732,312.737 350.5,313.5 Z"/></g>
<g><path style="opacity:0.463" fill="#33e2e9" d="M 81.5,333.5 C 80.1667,333.5 78.8333,333.5 77.5,333.5C 77.2993,329.65 75.4659,328.65 72,330.5C 70.3247,329.405 69.158,327.905 68.5,326C 66.1538,326.792 63.8205,326.625 61.5,325.5C 61.5,324.167 61.5,322.833 61.5,321.5C 60.5,321.5 59.5,321.5 58.5,321.5C 57.9524,320.312 57.6191,319.145 57.5,318C 56.2068,317.51 54.8734,317.343 53.5,317.5C 52.1667,317.5 50.8333,317.5 49.5,317.5C 49.2407,313.932 47.2407,312.599 43.5,313.5C 43.1667,312.5 42.5,311.833 41.5,311.5C 39.8984,309.926 37.8984,309.259 35.5,309.5C 35.0679,308.29 34.4013,307.29 33.5,306.5C 30.797,305.798 28.797,304.131 27.5,301.5C 25.3423,302.586 23.3423,302.253 21.5,300.5C 24.2069,300.495 27.0402,299.828 30,298.5C 33.2595,301.968 36.9262,304.968 41,307.5C 41.3333,307.167 41.6667,306.833 42,306.5C 43.0672,307.943 44.2338,309.276 45.5,310.5C 47.0064,311.747 48.5064,311.747 50,310.5C 51.3333,312.167 52.6667,313.833 54,315.5C 54.5613,314.978 55.228,314.645 56,314.5C 57.8219,317.15 60.3219,318.817 63.5,319.5C 64.2508,320.376 64.7508,321.376 65,322.5C 66.6667,322.5 68.3333,322.5 70,322.5C 71.1667,324 72.3333,325.5 73.5,327C 75.1124,327.72 76.6124,327.554 78,326.5C 80.7016,328.043 81.8682,330.376 81.5,333.5 Z"/></g>
<g><path style="opacity:0.702" fill="#3fe3ea" d="M 330.5,325.5 C 329.766,326.708 329.433,328.041 329.5,329.5C 327.459,329.854 325.626,329.854 324,329.5C 322.59,331.884 320.59,333.55 318,334.5C 317.517,335.448 317.351,336.448 317.5,337.5C 315.09,338.438 312.756,338.438 310.5,337.5C 311.015,333.547 313.348,331.381 317.5,331C 318.667,329.5 319.833,328 321,326.5C 325.319,328.397 327.986,327.063 329,322.5C 329.232,323.737 329.732,324.737 330.5,325.5 Z"/></g>
<g><path style="opacity:0.141" fill="#b3f4f6" d="M 81.5,333.5 C 82.1667,333.5 82.8333,333.5 83.5,333.5C 85.2014,334.211 86.2014,335.545 86.5,337.5C 84.9657,338.203 83.299,338.036 81.5,337C 82.6843,335.855 82.6843,334.688 81.5,333.5 Z"/></g>
<g><path style="opacity:0.012" fill="#93e8eb" d="M 89.5,338.5 C 90.4013,339.29 91.0679,340.29 91.5,341.5C 89.9519,341.179 89.2852,340.179 89.5,338.5 Z"/></g>
<g><path style="opacity:0.012" fill="#a0e9ec" d="M 101.5,345.5 C 103.483,345.157 104.817,345.824 105.5,347.5C 104.005,347.011 102.671,346.345 101.5,345.5 Z"/></g>
<g><path style="opacity:0.208" fill="#b3f3f5" d="M 298.5,345.5 C 297.194,346.467 296.527,347.801 296.5,349.5C 295.167,349.5 293.833,349.5 292.5,349.5C 293.234,348.292 293.567,346.959 293.5,345.5C 295.167,345.5 296.833,345.5 298.5,345.5 Z"/></g>
<g><path style="opacity:0.114" fill="#aef2f4" d="M 109.5,350.5 C 111.619,350.468 112.952,351.468 113.5,353.5C 113.565,353.938 113.399,354.272 113,354.5C 111.933,353.809 110.766,353.309 109.5,353C 110.598,352.23 110.598,351.397 109.5,350.5 Z"/></g>
<g><path style="opacity:0.318" fill="#2fe2e9" d="M 302.5,341.5 C 301.766,342.708 301.433,344.041 301.5,345.5C 300.5,345.5 299.5,345.5 298.5,345.5C 296.833,345.5 295.167,345.5 293.5,345.5C 293.567,346.959 293.234,348.292 292.5,349.5C 291.391,349.557 290.391,349.89 289.5,350.5C 288.599,351.29 287.932,352.29 287.5,353.5C 285.799,353.966 284.299,353.966 283,353.5C 281.812,354.563 281.312,355.897 281.5,357.5C 280.167,357.5 278.833,357.5 277.5,357.5C 275.517,357.157 274.183,357.824 273.5,359.5C 272.5,359.833 271.833,360.5 271.5,361.5C 270.833,361.833 270.167,362.167 269.5,362.5C 267.381,362.468 266.048,363.468 265.5,365.5C 262.5,365.167 261.167,366.5 261.5,369.5C 260.5,369.5 259.5,369.5 258.5,369.5C 257.193,368.198 257.193,366.865 258.5,365.5C 261.267,362.559 264.433,360.225 268,358.5C 268.333,358.833 268.667,359.167 269,359.5C 270.333,357.833 271.667,356.167 273,354.5C 274.398,355.051 275.732,355.384 277,355.5C 278.085,353.627 279.418,351.96 281,350.5C 281.333,350.833 281.667,351.167 282,351.5C 286.666,348.774 291.166,345.774 295.5,342.5C 298.979,343.844 300.812,342.511 301,338.5C 301.232,339.737 301.732,340.737 302.5,341.5 Z"/></g>
<g><path style="opacity:0.012" fill="#93e8eb" d="M 289.5,350.5 C 289.715,352.179 289.048,353.179 287.5,353.5C 287.932,352.29 288.599,351.29 289.5,350.5 Z"/></g>
<g><path style="opacity:0.463" fill="#2de2e9" d="M 83.5,333.5 C 84.6009,332.402 85.9343,332.235 87.5,333C 90.0439,334.755 92.3773,336.755 94.5,339C 97.6253,338.257 99.9586,339.59 101.5,343C 103.112,343.72 104.612,343.554 106,342.5C 106.49,343.793 106.657,345.127 106.5,346.5C 108.201,346.966 109.701,346.966 111,346.5C 114.823,348.259 118.323,351.092 121.5,355C 125.367,353.975 128.201,355.475 130,359.5C 131.117,359.335 132.284,359.002 133.5,358.5C 137.061,361.862 140.895,364.862 145,367.5C 145.333,367.167 145.667,366.833 146,366.5C 147.067,367.943 148.234,369.276 149.5,370.5C 151.006,371.747 152.506,371.747 154,370.5C 155.333,372.167 156.667,373.833 158,375.5C 163.274,376.979 168.274,379.645 173,383.5C 173.333,383.167 173.667,382.833 174,382.5C 175.167,384 176.333,385.5 177.5,387C 179.112,387.72 180.612,387.554 182,386.5C 184.238,388.309 185.405,390.642 185.5,393.5C 184.167,393.5 182.833,393.5 181.5,393.5C 181.67,392.178 181.337,391.011 180.5,390C 178.82,390.771 177.153,390.605 175.5,389.5C 175.167,388.5 174.5,387.833 173.5,387.5C 173.134,386.305 172.301,385.639 171,385.5C 169.667,386.833 168.333,386.833 167,385.5C 165.699,383.845 164.199,382.511 162.5,381.5C 161.766,380.292 161.433,378.959 161.5,377.5C 160.167,377.5 158.833,377.5 157.5,377.5C 156.167,377.5 154.833,377.5 153.5,377.5C 153.241,373.932 151.241,372.599 147.5,373.5C 147.167,372.5 146.5,371.833 145.5,371.5C 145.134,370.305 144.301,369.639 143,369.5C 141.31,370.149 139.477,370.149 137.5,369.5C 137.843,367.517 137.176,366.183 135.5,365.5C 134.856,362.196 132.856,360.862 129.5,361.5C 128.167,361.5 126.833,361.5 125.5,361.5C 125.299,357.65 123.466,356.65 120,358.5C 118.325,357.405 117.158,355.905 116.5,354C 115.552,353.517 114.552,353.351 113.5,353.5C 112.952,351.468 111.619,350.468 109.5,350.5C 107.781,349.978 106.448,348.978 105.5,347.5C 104.817,345.824 103.483,345.157 101.5,345.5C 100.167,345.5 98.8333,345.5 97.5,345.5C 97.2407,341.932 95.2407,340.599 91.5,341.5C 91.0679,340.29 90.4013,339.29 89.5,338.5C 88.609,337.89 87.609,337.557 86.5,337.5C 86.2014,335.545 85.2014,334.211 83.5,333.5 Z"/></g>
<g><path style="opacity:0.012" fill="#a0e9ec" d="M 277.5,357.5 C 276.329,358.345 274.995,359.011 273.5,359.5C 274.183,357.824 275.517,357.157 277.5,357.5 Z"/></g>
<g><path style="opacity:0.012" fill="#93e8eb" d="M 273.5,359.5 C 274.66,361.203 273.993,361.869 271.5,361.5C 271.833,360.5 272.5,359.833 273.5,359.5 Z"/></g>
<g><path style="opacity:0.012" fill="#9febee" d="M 129.5,361.5 C 132.856,360.862 134.856,362.196 135.5,365.5C 133.12,364.747 131.12,363.413 129.5,361.5 Z"/></g>
<g><path style="opacity:0.012" fill="#aaeef0" d="M 269.5,362.5 C 268.402,363.397 268.402,364.23 269.5,365C 268.234,365.309 267.067,365.809 266,366.5C 265.601,366.272 265.435,365.938 265.5,365.5C 266.048,363.468 267.381,362.468 269.5,362.5 Z"/></g>
<g><path style="opacity:0.012" fill="#95e7ea" d="M 145.5,371.5 C 146.5,371.833 147.167,372.5 147.5,373.5C 147.565,373.938 147.399,374.272 147,374.5C 145.961,373.756 145.461,372.756 145.5,371.5 Z"/></g>
<g><path style="opacity:0.463" fill="#29e2e9" d="M 254.5,369.5 C 253.766,370.708 253.433,372.041 253.5,373.5C 252.5,373.5 251.5,373.5 250.5,373.5C 246.817,372.68 244.483,374.013 243.5,377.5C 242.833,377.833 242.167,378.167 241.5,378.5C 240.599,379.29 239.932,380.29 239.5,381.5C 236.99,381.054 234.99,381.72 233.5,383.5C 232.5,383.833 231.833,384.5 231.5,385.5C 227.759,384.599 225.759,385.932 225.5,389.5C 224.5,389.5 223.5,389.5 222.5,389.5C 220.833,389.5 219.167,389.5 217.5,389.5C 217.567,390.959 217.234,392.292 216.5,393.5C 214.973,393.427 213.973,394.094 213.5,395.5C 212.5,395.833 211.833,396.5 211.5,397.5C 208.99,397.054 206.99,397.72 205.5,399.5C 204.833,399.5 204.167,399.5 203.5,399.5C 202.829,398.153 202.829,396.986 203.5,396C 205.5,395.667 207.5,395.333 209.5,395C 212.236,391.465 215.569,388.632 219.5,386.5C 222.979,387.844 224.812,386.511 225,382.5C 226.049,383.517 227.216,383.684 228.5,383C 229.938,381.431 231.438,379.931 233,378.5C 233.333,378.833 233.667,379.167 234,379.5C 236.463,377.203 239.297,375.537 242.5,374.5C 243.985,370.84 246.485,369.84 250,371.5C 251.735,370.318 252.735,368.651 253,366.5C 253.232,367.737 253.732,368.737 254.5,369.5 Z"/></g>
<g><path style="opacity:0.035" fill="#a0eef1" d="M 250.5,373.5 C 249.194,374.467 248.527,375.801 248.5,377.5C 246.64,378.071 244.973,378.071 243.5,377.5C 244.483,374.013 246.817,372.68 250.5,373.5 Z"/></g>
<g><path style="opacity:0.141" fill="#b3f4f6" d="M 157.5,377.5 C 158.833,377.5 160.167,377.5 161.5,377.5C 161.433,378.959 161.766,380.292 162.5,381.5C 160.966,382.203 159.299,382.036 157.5,381C 158.684,379.855 158.684,378.688 157.5,377.5 Z"/></g>
<g><path style="opacity:0.012" fill="#93e8eb" d="M 241.5,378.5 C 241.715,380.179 241.048,381.179 239.5,381.5C 239.932,380.29 240.599,379.29 241.5,378.5 Z"/></g>
<g><path style="opacity:0.012" fill="#93e8eb" d="M 233.5,383.5 C 233.631,384.239 233.464,384.906 233,385.5C 232.31,386.738 231.81,386.738 231.5,385.5C 231.833,384.5 232.5,383.833 233.5,383.5 Z"/></g>
<g><path style="opacity:0.012" fill="#93e8eb" d="M 173.5,387.5 C 174.5,387.833 175.167,388.5 175.5,389.5C 175.565,389.938 175.399,390.272 175,390.5C 173.961,389.756 173.461,388.756 173.5,387.5 Z"/></g>
<g><path style="opacity:0.208" fill="#aef3f5" d="M 222.5,389.5 C 221.389,390.66 220.389,391.993 219.5,393.5C 218.473,394.791 217.473,394.791 216.5,393.5C 217.234,392.292 217.567,390.959 217.5,389.5C 219.167,389.5 220.833,389.5 222.5,389.5 Z"/></g>
<g><path style="opacity:0.141" fill="#b2f4f6" d="M 185.5,393.5 C 186.833,393.5 188.167,393.5 189.5,393.5C 189.433,394.959 189.766,396.292 190.5,397.5C 187.575,398.281 185.908,396.948 185.5,393.5 Z"/></g>
<g><path style="opacity:0.012" fill="#93e8eb" d="M 213.5,395.5 C 213.631,396.239 213.464,396.906 213,397.5C 212.31,398.738 211.81,398.738 211.5,397.5C 211.833,396.5 212.5,395.833 213.5,395.5 Z"/></g>
</svg>
