<?xml version="1.0" encoding="UTF-8"?>
<!DOCTYPE svg PUBLIC "-//W3C//DTD SVG 1.1//EN" "http://www.w3.org/Graphics/SVG/1.1/DTD/svg11.dtd">
<svg xmlns="http://www.w3.org/2000/svg" version="1.1" width="300px" height="300px" style="shape-rendering:geometricPrecision; text-rendering:geometricPrecision; image-rendering:optimizeQuality; fill-rule:evenodd; clip-rule:evenodd" xmlns:xlink="http://www.w3.org/1999/xlink">
<g><path style="opacity:0.992" fill="#bcfcfe" d="M 144.5,-0.5 C 147.833,-0.5 151.167,-0.5 154.5,-0.5C 157.305,0.319481 160.305,0.819481 163.5,1C 162.167,1.66667 162.167,2.33333 163.5,3C 166.146,3.49742 168.813,3.66409 171.5,3.5C 171.5,4.5 171.5,5.5 171.5,6.5C 174.518,6.33537 177.518,6.50204 180.5,7C 179.167,7.66667 179.167,8.33333 180.5,9C 182.833,9.33333 185.167,9.66667 187.5,10C 186.167,10.6667 186.167,11.3333 187.5,12C 193.1,13.1256 198.767,14.2923 204.5,15.5C 204.5,16.5 204.5,17.5 204.5,18.5C 209.391,20.7858 214.725,21.9525 220.5,22C 219.167,22.6667 219.167,23.3333 220.5,24C 223.146,24.4974 225.813,24.6641 228.5,24.5C 228.5,25.5 228.5,26.5 228.5,27.5C 230.833,27.5 233.167,27.5 235.5,27.5C 235.5,28.5 235.5,29.5 235.5,30.5C 238.518,30.3354 241.518,30.502 244.5,31C 243.167,31.6667 243.167,32.3333 244.5,33C 246.5,33.3333 248.5,33.6667 250.5,34C 249.828,35.5793 250.495,36.746 252.5,37.5C 252.983,39.8701 254.149,40.5368 256,39.5C 256.49,40.7932 256.657,42.1266 256.5,43.5C 257.5,43.5 258.5,43.5 259.5,43.5C 259.023,47.6896 260.689,50.6896 264.5,52.5C 265.167,53.8333 266.167,54.8333 267.5,55.5C 268.167,56.8333 269.167,57.8333 270.5,58.5C 271.254,60.5053 272.421,61.172 274,60.5C 274.219,61.938 274.719,63.2713 275.5,64.5C 276.086,64.2907 276.586,63.9574 277,63.5C 276.84,66.5087 278.007,68.6754 280.5,70C 279.742,71.3639 280.242,72.5305 282,73.5C 282.333,73.1667 282.667,72.8333 283,72.5C 283.494,74.1341 283.66,75.8008 283.5,77.5C 283.167,77.5 282.833,77.5 282.5,77.5C 281.399,76.4017 280.066,76.235 278.5,77C 277.748,77.6708 277.414,78.5041 277.5,79.5C 276.127,79.3433 274.793,79.51 273.5,80C 268.571,83.3888 263.238,86.2221 257.5,88.5C 256.614,89.325 256.281,90.325 256.5,91.5C 252.561,94.1032 248.227,96.2699 243.5,98C 242.177,98.8159 241.511,99.9826 241.5,101.5C 239.801,101.34 238.134,101.506 236.5,102C 232.934,103.906 229.601,106.24 226.5,109C 225.207,109.49 223.873,109.657 222.5,109.5C 220.952,109.821 220.285,110.821 220.5,112.5C 218.5,112.5 216.5,112.5 214.5,112.5C 214.5,113.5 214.5,114.5 214.5,115.5C 211.687,115.025 209.687,116.025 208.5,118.5C 206.934,121.741 204.267,123.241 200.5,123C 197.222,124.807 194.222,126.974 191.5,129.5C 187.736,130.764 184.07,132.264 180.5,134C 175.568,138.466 169.901,141.299 163.5,142.5C 163.5,143.5 163.5,144.5 163.5,145.5C 161.5,145.5 159.5,145.5 157.5,145.5C 157.649,146.552 157.483,147.552 157,148.5C 154.905,150.125 152.739,151.458 150.5,152.5C 149.833,152.5 149.167,152.5 148.5,152.5C 143.001,149.903 137.668,146.903 132.5,143.5C 131.713,142.758 131.047,141.925 130.5,141C 123.652,138.765 117.319,135.598 111.5,131.5C 111.5,130.5 111.5,129.5 111.5,128.5C 109.076,128.808 106.743,128.474 104.5,127.5C 99.7303,121.067 93.7303,116.067 86.5,112.5C 81.7303,106.067 75.7303,101.067 68.5,97.5C 63.7139,91.0476 57.7139,86.0476 50.5,82.5C 48.8333,80.8333 47.1667,79.1667 45.5,77.5C 44.6143,76.675 44.281,75.675 44.5,74.5C 36.8261,74.3336 29.1594,74.5003 21.5,75C 19.9698,76.1203 18.3032,76.9536 16.5,77.5C 16.5,74.1667 16.5,70.8333 16.5,67.5C 17.3764,67.6309 18.0431,67.2975 18.5,66.5C 18.3696,64.5774 18.0362,62.7441 17.5,61C 18.1905,59.9326 18.6905,58.7659 19,57.5C 19.414,57.9574 19.914,58.2907 20.5,58.5C 21.4742,56.2573 21.8076,53.924 21.5,51.5C 23.8568,51.6633 26.1902,51.4966 28.5,51C 28.9574,50.586 29.2907,50.086 29.5,49.5C 32.8333,48.8333 36.1667,48.1667 39.5,47.5C 39.7093,46.914 40.0426,46.414 40.5,46C 43.5535,45.8214 46.5535,45.3214 49.5,44.5C 49.2907,43.914 48.9574,43.414 48.5,43C 51.5535,42.8214 54.5535,42.3214 57.5,41.5C 59.4825,39.9755 61.8159,38.9755 64.5,38.5C 64.2907,37.914 63.9574,37.414 63.5,37C 65.5,36.6667 67.5,36.3333 69.5,36C 70.8333,35.3333 70.8333,34.6667 69.5,34C 71.9005,33.8142 74.2338,33.3142 76.5,32.5C 76.2907,31.914 75.9574,31.414 75.5,31C 77.5,30.6667 79.5,30.3333 81.5,30C 82.8333,29.3333 82.8333,28.6667 81.5,28C 83.9005,27.8142 86.2338,27.3142 88.5,26.5C 88.2907,25.914 87.9574,25.414 87.5,25C 89.5,24.6667 91.5,24.3333 93.5,24C 94.8333,23.3333 94.8333,22.6667 93.5,22C 95.5,21.6667 97.5,21.3333 99.5,21C 100.833,20.3333 100.833,19.6667 99.5,19C 101.9,18.8142 104.234,18.3142 106.5,17.5C 106.291,16.914 105.957,16.414 105.5,16C 107.9,15.8142 110.234,15.3142 112.5,14.5C 112.291,13.914 111.957,13.414 111.5,13C 113.81,12.5034 116.143,12.3367 118.5,12.5C 118.5,11.5 118.5,10.5 118.5,9.5C 120.735,9.79472 122.735,9.46138 124.5,8.5C 125.995,8.01131 127.329,7.34464 128.5,6.5C 129.791,6.73731 130.791,6.40397 131.5,5.5C 132.71,5.06795 133.71,4.40128 134.5,3.5C 137.656,1.78001 140.989,0.446677 144.5,-0.5 Z"/></g>
<g><path style="opacity:0.008" fill="#83e7eb" d="M 134.5,3.5 C 133.71,4.40128 132.71,5.06795 131.5,5.5C 131.821,3.95186 132.821,3.28519 134.5,3.5 Z"/></g>
<g><path style="opacity:0.024" fill="#84e8ec" d="M 128.5,6.5 C 127.329,7.34464 125.995,8.01131 124.5,8.5C 125.183,6.82351 126.517,6.15684 128.5,6.5 Z"/></g>
<g><path style="opacity:0.008" fill="#83e6e9" d="M 252.5,36.5 C 253.833,37.1667 253.833,37.1667 252.5,36.5 Z"/></g>
<g><path style="opacity:0.008" fill="#83e6e9" d="M 264.5,51.5 C 265.833,52.1667 265.833,52.1667 264.5,51.5 Z"/></g>
<g><path style="opacity:0.008" fill="#83e6e9" d="M 267.5,54.5 C 268.833,55.1667 268.833,55.1667 267.5,54.5 Z"/></g>
<g><path style="opacity:0.008" fill="#83e6e9" d="M 270.5,57.5 C 271.833,58.1667 271.833,58.1667 270.5,57.5 Z"/></g>
<g><path style="opacity:0.051" fill="#aef3f6" d="M 16.5,67.5 C 16.5,70.8333 16.5,74.1667 16.5,77.5C 16.5,87.1667 16.5,96.8333 16.5,106.5C 16.1667,106.5 15.8333,106.5 15.5,106.5C 14.9329,97.2887 14.5996,88.1221 14.5,79C 15.0801,74.4827 15.7468,70.6493 16.5,67.5 Z"/></g>
<g><path style="opacity:1" fill="#9cfbfe" d="M 148.5,152.5 C 148.5,162.167 148.5,171.833 148.5,181.5C 144.117,179.651 139.784,177.651 135.5,175.5C 135.586,174.504 135.252,173.671 134.5,173C 131.997,172.871 129.997,171.871 128.5,170C 126.866,169.506 125.199,169.34 123.5,169.5C 123.297,167.362 122.297,165.695 120.5,164.5C 114.875,161.903 109.209,159.403 103.5,157C 101.597,155.553 99.9301,153.886 98.5,152C 95.9973,151.871 93.9973,150.871 92.5,149C 90.8659,148.506 89.1992,148.34 87.5,148.5C 85.8243,146.166 83.491,145.166 80.5,145.5C 80.7947,147.735 80.4614,149.735 79.5,151.5C 78.5041,151.414 77.6708,151.748 77,152.5C 76.5014,156.152 76.3347,159.818 76.5,163.5C 75.5,163.5 74.5,163.5 73.5,163.5C 74.038,168.467 73.3713,173.134 71.5,177.5C 70.1667,173.833 68.8333,170.167 67.5,166.5C 67.1667,166.5 66.8333,166.5 66.5,166.5C 66.6641,163.813 66.4974,161.146 66,158.5C 65.7216,157.584 65.2216,156.918 64.5,156.5C 63.8664,153.001 62.0331,152.001 59,153.5C 57.8998,160.305 56.5664,166.971 55,173.5C 52.7232,176.699 51.8898,180.365 52.5,184.5C 51.5,184.5 50.5,184.5 49.5,184.5C 49.665,187.85 49.4983,191.183 49,194.5C 48.3333,195.167 47.6667,195.833 47,196.5C 46.8307,184.659 46.3307,172.993 45.5,161.5C 43.0407,147.645 41.874,133.645 42,119.5C 39.8239,119.012 37.9906,118.012 36.5,116.5C 34.604,115.534 32.604,115.201 30.5,115.5C 30.5858,114.504 30.2524,113.671 29.5,113C 25.1585,110.681 20.8252,108.515 16.5,106.5C 16.5,96.8333 16.5,87.1667 16.5,77.5C 18.3032,76.9536 19.9698,76.1203 21.5,75C 29.1594,74.5003 36.8261,74.3336 44.5,74.5C 44.281,75.675 44.6143,76.675 45.5,77.5C 47.1667,79.1667 48.8333,80.8333 50.5,82.5C 57.7139,86.0476 63.7139,91.0476 68.5,97.5C 75.7303,101.067 81.7303,106.067 86.5,112.5C 93.7303,116.067 99.7303,121.067 104.5,127.5C 106.743,128.474 109.076,128.808 111.5,128.5C 111.5,129.5 111.5,130.5 111.5,131.5C 117.319,135.598 123.652,138.765 130.5,141C 131.047,141.925 131.713,142.758 132.5,143.5C 137.668,146.903 143.001,149.903 148.5,152.5 Z"/></g>
<g><path style="opacity:1" fill="#93fafe" d="M 282.5,77.5 C 280.716,77.8925 279.05,78.5592 277.5,79.5C 277.414,78.5041 277.748,77.6708 278.5,77C 280.066,76.235 281.399,76.4017 282.5,77.5 Z"/></g>
<g><path style="opacity:1" fill="#47f7fd" d="M 282.5,77.5 C 282.5,87.5 282.5,97.5 282.5,107.5C 281.07,107.579 279.736,107.246 278.5,106.5C 277.3,108.765 275.633,110.598 273.5,112C 270.253,113.868 266.753,115.368 263,116.5C 262.667,123.167 262.333,129.833 262,136.5C 261.138,138.087 260.471,139.754 260,141.5C 259.667,150.833 259.333,160.167 259,169.5C 257.189,173.988 256.189,178.654 256,183.5C 254.667,170.167 253.333,156.833 252,143.5C 249.907,140.956 248.907,137.956 249,134.5C 247.456,132.532 246.289,130.365 245.5,128C 244.5,127.333 243.5,127.333 242.5,128C 240.36,130.14 238.194,132.306 236,134.5C 235.946,137.861 234.946,140.861 233,143.5C 232.667,147.833 232.333,152.167 232,156.5C 230.019,158.359 229.019,160.692 229,163.5C 228.617,162.944 228.117,162.611 227.5,162.5C 226.542,162.047 225.708,161.381 225,160.5C 224.959,153.996 224.292,147.662 223,141.5C 217.389,145.251 211.556,148.584 205.5,151.5C 200.813,153.668 196.146,155.835 191.5,158C 190.748,158.671 190.414,159.504 190.5,160.5C 177.312,167.365 164.646,175.031 152.5,183.5C 149.428,183.817 146.428,183.484 143.5,182.5C 140.588,180.441 137.921,178.107 135.5,175.5C 139.784,177.651 144.117,179.651 148.5,181.5C 149.19,171.932 149.857,162.265 150.5,152.5C 154.049,152.121 157.049,150.621 159.5,148C 163.313,147.01 166.98,145.677 170.5,144C 177.052,138.196 184.052,133.363 191.5,129.5C 194.222,126.974 197.222,124.807 200.5,123C 204.267,123.241 206.934,121.741 208.5,118.5C 210.558,117.067 212.892,116.4 215.5,116.5C 215.5,115.5 215.5,114.5 215.5,113.5C 217.5,113.5 219.5,113.5 221.5,113.5C 221.433,112.041 221.766,110.708 222.5,109.5C 223.873,109.657 225.207,109.49 226.5,109C 229.601,106.24 232.934,103.906 236.5,102C 238.134,101.506 239.801,101.34 241.5,101.5C 252.33,96.2275 262.664,90.2275 272.5,83.5C 274.167,82.1667 275.833,80.8333 277.5,79.5C 279.05,78.5592 280.716,77.8925 282.5,77.5 Z"/></g>
<g><path style="opacity:1" fill="#6df8fd" d="M 272.5,83.5 C 262.664,90.2275 252.33,96.2275 241.5,101.5C 241.511,99.9826 242.177,98.8159 243.5,98C 248.227,96.2699 252.561,94.1032 256.5,91.5C 260.413,89.5931 264.08,87.2598 267.5,84.5C 269.045,83.5481 270.712,83.2148 272.5,83.5 Z"/></g>
<g><path style="opacity:1" fill="#9bfbfe" d="M 277.5,79.5 C 275.833,80.8333 274.167,82.1667 272.5,83.5C 270.712,83.2148 269.045,83.5481 267.5,84.5C 264.08,87.2598 260.413,89.5931 256.5,91.5C 256.281,90.325 256.614,89.325 257.5,88.5C 263.238,86.2221 268.571,83.3888 273.5,80C 274.793,79.51 276.127,79.3433 277.5,79.5 Z"/></g>
<g><path style="opacity:0.996" fill="#02d8df" d="M 283.5,110.5 C 283.667,148.835 283.5,187.168 283,225.5C 281.301,226.406 279.467,226.739 277.5,226.5C 277.649,227.552 277.483,228.552 277,229.5C 275.443,228.795 274.277,229.461 273.5,231.5C 268.503,233.962 263.503,236.296 258.5,238.5C 258.668,235.316 257.334,234.816 254.5,237C 253.167,239 251.5,240.667 249.5,242C 250.381,242.708 251.047,243.542 251.5,244.5C 248.314,245.771 244.98,246.771 241.5,247.5C 241.649,248.552 241.483,249.552 241,250.5C 238.679,249.639 237.513,250.639 237.5,253.5C 235.801,253.34 234.134,253.506 232.5,254C 231.692,255.706 230.359,256.539 228.5,256.5C 227.739,255.609 226.739,254.942 225.5,254.5C 218.254,258.822 210.921,263.155 203.5,267.5C 202.817,270.461 201.984,270.795 201,268.5C 198.427,269.654 196.261,271.32 194.5,273.5C 193.193,274.865 193.193,276.198 194.5,277.5C 191.412,277.639 188.745,278.639 186.5,280.5C 185.791,279.596 184.791,279.263 183.5,279.5C 183.473,281.199 182.806,282.533 181.5,283.5C 180.596,284.209 180.263,285.209 180.5,286.5C 178.801,286.34 177.134,286.506 175.5,287C 174.167,287.667 174.167,288.333 175.5,289C 173.5,289.333 171.5,289.667 169.5,290C 168.692,291.706 167.359,292.539 165.5,292.5C 164.244,292.461 163.244,292.961 162.5,294C 163.577,294.47 164.577,294.303 165.5,293.5C 161.85,295.472 158.184,297.472 154.5,299.5C 152.833,299.5 151.167,299.5 149.5,299.5C 149.333,261.499 149.5,223.499 150,185.5C 150.995,184.934 151.828,184.267 152.5,183.5C 164.646,175.031 177.312,167.365 190.5,160.5C 192.746,159.79 195.08,159.29 197.5,159C 198.337,157.989 198.67,156.822 198.5,155.5C 201.812,155.851 204.145,154.518 205.5,151.5C 211.556,148.584 217.389,145.251 223,141.5C 224.292,147.662 224.959,153.996 225,160.5C 225.708,161.381 226.542,162.047 227.5,162.5C 227.821,164.048 228.821,164.715 230.5,164.5C 232.441,154.803 234.608,145.137 237,135.5C 239.301,132.612 242.134,130.612 245.5,129.5C 247.381,134.753 249.214,140.086 251,145.5C 251.333,151.5 251.667,157.5 252,163.5C 252.915,164.328 253.581,165.328 254,166.5C 254.5,172.825 254.666,179.158 254.5,185.5C 255.5,185.5 256.5,185.5 257.5,185.5C 257.192,180.629 258.025,175.963 260,171.5C 260.065,153.349 261.399,135.349 264,117.5C 268.803,115.076 273.636,112.576 278.5,110C 280.265,109.36 281.932,109.527 283.5,110.5 Z"/></g>
<g><path style="opacity:0.999" fill="#05e7f0" d="M 15.5,106.5 C 15.8333,106.5 16.1667,106.5 16.5,106.5C 20.8252,108.515 25.1585,110.681 29.5,113C 30.2524,113.671 30.5858,114.504 30.5,115.5C 32.5313,115.972 34.1979,116.972 35.5,118.5C 36.6413,120.088 38.1413,121.421 40,122.5C 40.3333,133.833 40.6667,145.167 41,156.5C 41.4186,157.672 42.0853,158.672 43,159.5C 43.4999,175.83 43.6666,192.163 43.5,208.5C 45.1439,208.714 46.6439,208.38 48,207.5C 48.0027,203.533 48.836,199.866 50.5,196.5C 50.0157,192.173 50.6823,188.173 52.5,184.5C 53.3171,182.031 53.8171,179.365 54,176.5C 54.6667,175.833 55.3333,175.167 56,174.5C 56.498,171.518 56.6646,168.518 56.5,165.5C 57.8221,165.67 58.9887,165.337 60,164.5C 60.4974,161.854 60.6641,159.187 60.5,156.5C 61.8333,156.5 63.1667,156.5 64.5,156.5C 65.2216,156.918 65.7216,157.584 66,158.5C 66.4974,161.146 66.6641,163.813 66.5,166.5C 67.2276,171.451 67.7276,176.451 68,181.5C 69.3333,182.833 70.6667,182.833 72,181.5C 73.98,176.77 74.98,171.77 75,166.5C 76,165.833 77,165.167 78,164.5C 78.2275,160.083 78.7275,155.75 79.5,151.5C 80.4614,149.735 80.7947,147.735 80.5,145.5C 83.491,145.166 85.8243,146.166 87.5,148.5C 88.5676,149.434 89.901,149.768 91.5,149.5C 91.7993,152.642 93.4659,154.809 96.5,156C 100.726,156.729 104.393,158.562 107.5,161.5C 113.95,162.888 119.283,166.054 123.5,171C 127.129,173.216 131.129,174.716 135.5,175.5C 137.921,178.107 140.588,180.441 143.5,182.5C 146.428,183.484 149.428,183.817 152.5,183.5C 151.828,184.267 150.995,184.934 150,185.5C 149.5,223.499 149.333,261.499 149.5,299.5C 148.167,299.5 146.833,299.5 145.5,299.5C 143.736,297.879 141.736,296.546 139.5,295.5C 136.547,293.68 133.214,292.513 129.5,292C 130.833,291.333 130.833,290.667 129.5,290C 127.5,289.667 125.5,289.333 123.5,289C 124.774,288.023 124.774,287.189 123.5,286.5C 121.784,285.029 119.784,284.029 117.5,283.5C 116.448,283.649 115.448,283.483 114.5,283C 115.833,282.333 115.833,281.667 114.5,281C 111.997,280.871 109.997,279.871 108.5,278C 106.5,277.667 104.5,277.333 102.5,277C 102.833,276.667 103.167,276.333 103.5,276C 101.43,275.052 99.9299,273.552 99,271.5C 96.7096,272.275 94.8762,271.442 93.5,269C 91.5,268.667 89.5,268.333 87.5,268C 88.5981,267.23 88.5981,266.397 87.5,265.5C 85.9545,264.36 84.2879,263.36 82.5,262.5C 82.1667,262.5 81.8333,262.5 81.5,262.5C 80.1986,261.36 79.0319,260.027 78,258.5C 77.6012,258.728 77.4346,259.062 77.5,259.5C 74.3379,257.283 70.6712,256.117 66.5,256C 67.7736,255.023 67.7736,254.189 66.5,253.5C 64.9545,252.36 63.2879,251.36 61.5,250.5C 60.1266,250.657 58.7932,250.49 57.5,250C 58.8333,249.333 58.8333,248.667 57.5,248C 54.9973,247.871 52.9973,246.871 51.5,245C 49.5,244.667 47.5,244.333 45.5,244C 46.7736,243.023 46.7736,242.189 45.5,241.5C 44.1986,240.36 43.0319,239.027 42,237.5C 41.6174,238.056 41.1174,238.389 40.5,238.5C 39.1266,238.657 37.7932,238.49 36.5,238C 37.8333,237.333 37.8333,236.667 36.5,236C 33.9973,235.871 31.9973,234.871 30.5,233C 28.5,232.667 26.5,232.333 24.5,232C 24.9574,231.586 25.2907,231.086 25.5,230.5C 22.8003,227.6 19.467,226.266 15.5,226.5C 15.5,186.5 15.5,146.5 15.5,106.5 Z"/></g>
<g><path style="opacity:1" fill="#97fafe" d="M 222.5,109.5 C 221.766,110.708 221.433,112.041 221.5,113.5C 219.5,113.5 217.5,113.5 215.5,113.5C 215.5,114.5 215.5,115.5 215.5,116.5C 212.892,116.4 210.558,117.067 208.5,118.5C 209.687,116.025 211.687,115.025 214.5,115.5C 214.5,114.5 214.5,113.5 214.5,112.5C 216.5,112.5 218.5,112.5 220.5,112.5C 220.285,110.821 220.952,109.821 222.5,109.5 Z"/></g>
<g><path style="opacity:1" fill="#7ff9fe" d="M 191.5,129.5 C 184.052,133.363 177.052,138.196 170.5,144C 166.98,145.677 163.313,147.01 159.5,148C 157.049,150.621 154.049,152.121 150.5,152.5C 152.739,151.458 154.905,150.125 157,148.5C 157.483,147.552 157.649,146.552 157.5,145.5C 159.5,145.5 161.5,145.5 163.5,145.5C 163.5,144.5 163.5,143.5 163.5,142.5C 169.901,141.299 175.568,138.466 180.5,134C 184.07,132.264 187.736,130.764 191.5,129.5 Z"/></g>
<g><path style="opacity:1" fill="#82f9fd" d="M 148.5,152.5 C 149.167,152.5 149.833,152.5 150.5,152.5C 149.857,162.265 149.19,171.932 148.5,181.5C 148.5,171.833 148.5,162.167 148.5,152.5 Z"/></g>
<g><path style="opacity:1" fill="#55f2f8" d="M 64.5,156.5 C 63.1667,156.5 61.8333,156.5 60.5,156.5C 60.6641,159.187 60.4974,161.854 60,164.5C 58.9887,165.337 57.8221,165.67 56.5,165.5C 56.6646,168.518 56.498,171.518 56,174.5C 55.3333,175.167 54.6667,175.833 54,176.5C 53.8171,179.365 53.3171,182.031 52.5,184.5C 51.8898,180.365 52.7232,176.699 55,173.5C 56.5664,166.971 57.8998,160.305 59,153.5C 62.0331,152.001 63.8664,153.001 64.5,156.5 Z"/></g>
<g><path style="opacity:1" fill="#24e8ef" d="M 205.5,151.5 C 204.145,154.518 201.812,155.851 198.5,155.5C 198.67,156.822 198.337,157.989 197.5,159C 195.08,159.29 192.746,159.79 190.5,160.5C 190.414,159.504 190.748,158.671 191.5,158C 196.146,155.835 200.813,153.668 205.5,151.5 Z"/></g>
<g><path style="opacity:1" fill="#8bf9fe" d="M 45.5,161.5 C 46.3307,172.993 46.8307,184.659 47,196.5C 47.6667,195.833 48.3333,195.167 49,194.5C 49.4983,191.183 49.665,187.85 49.5,184.5C 50.5,184.5 51.5,184.5 52.5,184.5C 50.6823,188.173 50.0157,192.173 50.5,196.5C 49.391,196.557 48.391,196.89 47.5,197.5C 46.6829,199.969 46.1829,202.635 46,205.5C 45.5001,190.837 45.3334,176.17 45.5,161.5 Z"/></g>
<g><path style="opacity:1" fill="#6bf5fb" d="M 30.5,115.5 C 32.604,115.201 34.604,115.534 36.5,116.5C 37.9906,118.012 39.8239,119.012 42,119.5C 41.874,133.645 43.0407,147.645 45.5,161.5C 45.3334,176.17 45.5001,190.837 46,205.5C 46.1829,202.635 46.6829,199.969 47.5,197.5C 47.5,200.5 47.5,203.5 47.5,206.5C 46.5,206.5 45.5,206.5 44.5,206.5C 44.6666,190.497 44.4999,174.497 44,158.5C 43.5291,156.754 42.8624,155.087 42,153.5C 41.6667,142.833 41.3333,132.167 41,121.5C 39.4167,120.029 37.5834,119.029 35.5,118.5C 34.1979,116.972 32.5313,115.972 30.5,115.5 Z"/></g>
<g><path style="opacity:1" fill="#33eef5" d="M 35.5,118.5 C 37.5834,119.029 39.4167,120.029 41,121.5C 41.3333,132.167 41.6667,142.833 42,153.5C 42.8624,155.087 43.5291,156.754 44,158.5C 44.4999,174.497 44.6666,190.497 44.5,206.5C 45.5,206.5 46.5,206.5 47.5,206.5C 47.5,203.5 47.5,200.5 47.5,197.5C 48.391,196.89 49.391,196.557 50.5,196.5C 48.836,199.866 48.0027,203.533 48,207.5C 46.6439,208.38 45.1439,208.714 43.5,208.5C 43.6666,192.163 43.4999,175.83 43,159.5C 42.0853,158.672 41.4186,157.672 41,156.5C 40.6667,145.167 40.3333,133.833 40,122.5C 38.1413,121.421 36.6413,120.088 35.5,118.5 Z"/></g>
<g><path style="opacity:1" fill="#2eedf4" d="M 282.5,77.5 C 282.833,77.5 283.167,77.5 283.5,77.5C 283.5,88.5 283.5,99.5 283.5,110.5C 281.932,109.527 280.265,109.36 278.5,110C 273.636,112.576 268.803,115.076 264,117.5C 261.399,135.349 260.065,153.349 260,171.5C 258.025,175.963 257.192,180.629 257.5,185.5C 256.5,185.5 255.5,185.5 254.5,185.5C 254.666,179.158 254.5,172.825 254,166.5C 253.581,165.328 252.915,164.328 252,163.5C 251.667,157.5 251.333,151.5 251,145.5C 249.214,140.086 247.381,134.753 245.5,129.5C 242.134,130.612 239.301,132.612 237,135.5C 234.608,145.137 232.441,154.803 230.5,164.5C 228.821,164.715 227.821,164.048 227.5,162.5C 228.117,162.611 228.617,162.944 229,163.5C 229.019,160.692 230.019,158.359 232,156.5C 232.333,152.167 232.667,147.833 233,143.5C 234.946,140.861 235.946,137.861 236,134.5C 238.194,132.306 240.36,130.14 242.5,128C 243.5,127.333 244.5,127.333 245.5,128C 246.289,130.365 247.456,132.532 249,134.5C 248.907,137.956 249.907,140.956 252,143.5C 253.333,156.833 254.667,170.167 256,183.5C 256.189,178.654 257.189,173.988 259,169.5C 259.333,160.167 259.667,150.833 260,141.5C 260.471,139.754 261.138,138.087 262,136.5C 262.333,129.833 262.667,123.167 263,116.5C 266.753,115.368 270.253,113.868 273.5,112C 275.633,110.598 277.3,108.765 278.5,106.5C 279.736,107.246 281.07,107.579 282.5,107.5C 282.5,97.5 282.5,87.5 282.5,77.5 Z"/></g>
<g><path style="opacity:1" fill="#58f2f9" d="M 87.5,148.5 C 89.1992,148.34 90.8659,148.506 92.5,149C 93.9973,150.871 95.9973,151.871 98.5,152C 99.9301,153.886 101.597,155.553 103.5,157C 109.209,159.403 114.875,161.903 120.5,164.5C 122.297,165.695 123.297,167.362 123.5,169.5C 125.199,169.34 126.866,169.506 128.5,170C 129.997,171.871 131.997,172.871 134.5,173C 135.252,173.671 135.586,174.504 135.5,175.5C 131.129,174.716 127.129,173.216 123.5,171C 119.283,166.054 113.95,162.888 107.5,161.5C 104.393,158.562 100.726,156.729 96.5,156C 93.4659,154.809 91.7993,152.642 91.5,149.5C 89.901,149.768 88.5676,149.434 87.5,148.5 Z"/></g>
<g><path style="opacity:1" fill="#40eff6" d="M 79.5,151.5 C 78.7275,155.75 78.2275,160.083 78,164.5C 77,165.167 76,165.833 75,166.5C 74.98,171.77 73.98,176.77 72,181.5C 70.6667,182.833 69.3333,182.833 68,181.5C 67.7276,176.451 67.2276,171.451 66.5,166.5C 66.8333,166.5 67.1667,166.5 67.5,166.5C 68.4299,170.4 68.7633,174.4 68.5,178.5C 69.791,178.737 70.791,178.404 71.5,177.5C 73.3713,173.134 74.038,168.467 73.5,163.5C 74.5,163.5 75.5,163.5 76.5,163.5C 76.3347,159.818 76.5014,156.152 77,152.5C 77.6708,151.748 78.5041,151.414 79.5,151.5 Z"/></g>
<g><path style="opacity:1" fill="#70f6fc" d="M 67.5,166.5 C 68.8333,170.167 70.1667,173.833 71.5,177.5C 70.791,178.404 69.791,178.737 68.5,178.5C 68.7633,174.4 68.4299,170.4 67.5,166.5 Z"/></g>
<g><path style="opacity:0.565" fill="#49e3ea" d="M 258.5,238.5 C 257.325,238.281 256.325,238.614 255.5,239.5C 256.425,240.562 257.425,240.562 258.5,239.5C 257.838,241.832 256.505,242.499 254.5,241.5C 253.265,242.34 252.265,243.34 251.5,244.5C 251.047,243.542 250.381,242.708 249.5,242C 251.5,240.667 253.167,239 254.5,237C 257.334,234.816 258.668,235.316 258.5,238.5 Z"/></g>
<g><path style="opacity:0.098" fill="#c2f7f9" d="M 258.5,238.5 C 258.5,238.833 258.5,239.167 258.5,239.5C 257.425,240.562 256.425,240.562 255.5,239.5C 256.325,238.614 257.325,238.281 258.5,238.5 Z"/></g>
<g><path style="opacity:0.024" fill="#99edf1" d="M 45.5,241.5 C 43.8333,241.5 42.1667,241.5 40.5,241.5C 40.5,240.5 40.5,239.5 40.5,238.5C 41.1174,238.389 41.6174,238.056 42,237.5C 43.0319,239.027 44.1986,240.36 45.5,241.5 Z"/></g>
<g><path style="opacity:0.008" fill="#95ebee" d="M 61.5,250.5 C 63.2879,251.36 64.9545,252.36 66.5,253.5C 64.8333,253.5 63.1667,253.5 61.5,253.5C 61.5,252.5 61.5,251.5 61.5,250.5 Z"/></g>
<g><path style="opacity:0.216" fill="#3ae2ea" d="M 228.5,256.5 C 226.744,257.216 224.744,258.216 222.5,259.5C 220.566,260.11 218.899,261.11 217.5,262.5C 216.596,263.209 216.263,264.209 216.5,265.5C 214.801,265.34 213.134,265.506 211.5,266C 210.167,266.667 210.167,267.333 211.5,268C 209.899,268.273 208.399,268.773 207,269.5C 206.667,269.167 206.333,268.833 206,268.5C 205.517,269.448 205.351,270.448 205.5,271.5C 204.167,271.5 202.833,271.5 201.5,271.5C 199.712,272.36 198.045,273.36 196.5,274.5C 196.068,275.71 195.401,276.71 194.5,277.5C 193.193,276.198 193.193,274.865 194.5,273.5C 196.261,271.32 198.427,269.654 201,268.5C 201.984,270.795 202.817,270.461 203.5,267.5C 210.921,263.155 218.254,258.822 225.5,254.5C 226.739,254.942 227.739,255.609 228.5,256.5 Z"/></g>
<g><path style="opacity:0.008" fill="#8de9ed" d="M 81.5,262.5 C 79.3812,262.532 78.0478,261.532 77.5,259.5C 77.4346,259.062 77.6012,258.728 78,258.5C 79.0319,260.027 80.1986,261.36 81.5,262.5 Z"/></g>
<g><path style="opacity:0.008" fill="#96ecef" d="M 222.5,259.5 C 222.5,260.5 222.5,261.5 222.5,262.5C 220.833,262.5 219.167,262.5 217.5,262.5C 218.899,261.11 220.566,260.11 222.5,259.5 Z"/></g>
<g><path style="opacity:0.024" fill="#8eebee" d="M 82.5,262.5 C 84.2879,263.36 85.9545,264.36 87.5,265.5C 84.5398,266.849 82.8731,265.849 82.5,262.5 Z"/></g>
<g><path style="opacity:0.024" fill="#97edf0" d="M 201.5,271.5 C 201.091,274.866 199.425,275.866 196.5,274.5C 198.045,273.36 199.712,272.36 201.5,271.5 Z"/></g>
<g><path style="opacity:0.008" fill="#98ecef" d="M 186.5,280.5 C 186.5,281.5 186.5,282.5 186.5,283.5C 184.833,283.5 183.167,283.5 181.5,283.5C 182.806,282.533 183.473,281.199 183.5,279.5C 184.791,279.263 185.791,279.596 186.5,280.5 Z"/></g>
<g><path style="opacity:0.008" fill="#92eaed" d="M 117.5,283.5 C 119.784,284.029 121.784,285.029 123.5,286.5C 123.565,286.938 123.399,287.272 123,287.5C 121.601,286.773 120.101,286.273 118.5,286C 117.748,285.329 117.414,284.496 117.5,283.5 Z"/></g>
<g><path style="opacity:0.098" fill="#c2f6f8" d="M 165.5,292.5 C 165.5,292.833 165.5,293.167 165.5,293.5C 164.577,294.303 163.577,294.47 162.5,294C 163.244,292.961 164.244,292.461 165.5,292.5 Z"/></g>
<g><path style="opacity:0.024" fill="#93ebee" d="M 139.5,295.5 C 141.736,296.546 143.736,297.879 145.5,299.5C 144.833,299.5 144.167,299.5 143.5,299.5C 142.432,298.566 141.099,298.232 139.5,298.5C 139.5,297.5 139.5,296.5 139.5,295.5 Z"/></g>
</svg>
