<?xml version="1.0" encoding="UTF-8"?>
<!DOCTYPE svg PUBLIC "-//W3C//DTD SVG 1.1//EN" "http://www.w3.org/Graphics/SVG/1.1/DTD/svg11.dtd">
<svg xmlns="http://www.w3.org/2000/svg" version="1.1" width="500px" height="500px" style="shape-rendering:geometricPrecision; text-rendering:geometricPrecision; image-rendering:optimizeQuality; fill-rule:evenodd; clip-rule:evenodd" xmlns:xlink="http://www.w3.org/1999/xlink">
<g><path style="opacity:0.995" fill="#bcfcfe" d="M 242.5,-0.5 C 247.5,-0.5 252.5,-0.5 257.5,-0.5C 261.715,1.43644 266.381,2.1031 271.5,1.5C 271.286,3.14387 271.62,4.64387 272.5,6C 276.871,6.17248 281.204,6.67248 285.5,7.5C 286.04,8.7481 286.707,9.91476 287.5,11C 291.167,11.3333 294.833,11.6667 298.5,12C 299.257,13.5122 300.257,14.8455 301.5,16C 304.817,16.4983 308.15,16.665 311.5,16.5C 311.286,18.1439 311.62,19.6439 312.5,21C 316.833,21.3333 321.167,21.6667 325.5,22C 326.167,23.3333 326.833,24.6667 327.5,26C 331.821,26.499 336.154,26.6657 340.5,26.5C 340.421,27.9305 340.754,29.2638 341.5,30.5C 344.768,31.487 348.102,31.8204 351.5,31.5C 351.286,33.1439 351.62,34.6439 352.5,36C 357.155,36.4992 361.821,36.6658 366.5,36.5C 366.286,38.1439 366.62,39.6439 367.5,41C 370.482,41.498 373.482,41.6646 376.5,41.5C 377.281,43.3223 378.448,43.9889 380,43.5C 380.29,45.0441 380.956,46.3774 382,47.5C 382.399,47.2716 382.565,46.9382 382.5,46.5C 385.518,46.3354 388.518,46.502 391.5,47C 392.257,48.5122 393.257,49.8455 394.5,51C 398.486,51.4988 402.486,51.6655 406.5,51.5C 406.286,53.1439 406.62,54.6439 407.5,56C 410.482,56.498 413.482,56.6646 416.5,56.5C 416.019,60.3491 417.686,62.3491 421.5,62.5C 421.351,63.552 421.517,64.552 422,65.5C 425.495,68.3429 428.829,71.3429 432,74.5C 432.333,76.8333 432.667,79.1667 433,81.5C 434.011,82.3366 435.178,82.67 436.5,82.5C 436.5,85.8333 438.167,87.5 441.5,87.5C 441.5,90.8333 443.167,92.5 446.5,92.5C 446.5,95.8333 448.167,97.5 451.5,97.5C 451.67,100.676 453.337,102.676 456.5,103.5C 457.233,106.401 459.067,108.067 462,108.5C 461.712,112.768 463.546,115.602 467.5,117C 466.346,121.026 468.013,122.859 472.5,122.5C 472.5,125.167 472.5,127.833 472.5,130.5C 472.167,130.5 471.833,130.5 471.5,130.5C 471.158,129.662 470.492,129.328 469.5,129.5C 469.157,127.775 468.157,127.275 466.5,128C 464.545,128.953 462.878,130.287 461.5,132C 457.079,131.612 453.745,133.279 451.5,137C 449.1,137.186 446.766,137.686 444.5,138.5C 441.041,143.4 436.374,146.566 430.5,148C 429.257,149.154 428.257,150.488 427.5,152C 422.804,151.516 419.137,153.183 416.5,157C 410.515,159.092 405.348,162.592 401,167.5C 395.686,165.041 392.519,166.541 391.5,172C 387.259,171.709 384.259,173.376 382.5,177C 378.452,179.084 374.452,181.084 370.5,183C 369.257,184.154 368.257,185.488 367.5,187C 362.758,186.513 359.092,188.18 356.5,192C 350.922,193.732 346.255,196.898 342.5,201.5C 340.234,202.314 337.9,202.814 335.5,203C 333.968,203.7 332.968,204.866 332.5,206.5C 330.234,207.314 327.9,207.814 325.5,208C 323.833,209.667 322.167,211.333 320.5,213C 317.144,215.345 313.477,217.178 309.5,218.5C 307.481,221.692 304.481,223.192 300.5,223C 298.947,224.097 297.614,225.43 296.5,227C 291.924,226.328 289.257,228.161 288.5,232.5C 287.448,232.351 286.448,232.517 285.5,233C 282.979,236.261 279.645,237.927 275.5,238C 274.257,239.154 273.257,240.488 272.5,242C 270.167,242.333 267.833,242.667 265.5,243C 263.833,244.667 262.167,246.333 260.5,248C 256.222,250.607 251.722,252.774 247,254.5C 243.619,251.21 239.452,249.544 234.5,249.5C 233.738,248.372 233.071,247.205 232.5,246C 227.322,242.578 222.322,238.911 217.5,235C 215.5,234.667 213.5,234.333 211.5,234C 209.34,229.586 206.007,227.919 201.5,229C 198.532,225.853 195.198,223.186 191.5,221C 189.975,219.991 188.308,219.491 186.5,219.5C 186.5,218.5 186.5,217.5 186.5,216.5C 186.67,215.178 186.337,214.011 185.5,213C 182.833,212.667 180.167,212.333 177.5,212C 171.5,205.667 165.5,199.333 159.5,193C 155.056,191.889 151.056,189.889 147.5,187C 141.5,180.667 135.5,174.333 129.5,168C 125.056,166.889 121.056,164.889 117.5,162C 111.5,155.667 105.5,149.333 99.5,143C 95.9798,142.496 93.4798,140.663 92,137.5C 91.6667,137.833 91.3333,138.167 91,138.5C 89.9326,137.809 88.7659,137.309 87.5,137C 83.399,132.143 79.0657,127.476 74.5,123C 61.9677,122.047 49.301,122.381 36.5,124C 34.249,124.748 32.9156,126.248 32.5,128.5C 31.5,128.5 30.5,128.5 29.5,128.5C 29.1422,125.19 28.8088,121.857 28.5,118.5C 27.8331,123.317 27.1665,127.983 26.5,132.5C 26.3338,126.158 26.5005,119.825 27,113.5C 28.3333,112.833 29.6667,112.167 31,111.5C 31.3333,107.167 31.6667,102.833 32,98.5C 33.3333,97.8333 34.6667,97.1667 36,96.5C 36.3333,93.5 36.6667,90.5 37,87.5C 40.4106,86.7069 43.9106,86.2069 47.5,86C 48.9389,85.0094 49.9389,83.676 50.5,82C 55.8642,81.8295 61.1975,81.3295 66.5,80.5C 67.2458,79.2638 67.5792,77.9305 67.5,76.5C 72.1785,76.6658 76.8452,76.4992 81.5,76C 82.3802,74.6439 82.7135,73.1439 82.5,71.5C 87.1667,71.5 91.8333,71.5 96.5,71.5C 96.4208,70.0695 96.7542,68.7362 97.5,67.5C 100.447,66.6786 103.447,66.1786 106.5,66C 107.38,64.6439 107.714,63.1439 107.5,61.5C 110.518,61.6646 113.518,61.498 116.5,61C 117.38,59.6439 117.714,58.1439 117.5,56.5C 120.518,56.6646 123.518,56.498 126.5,56C 127.38,54.6439 127.714,53.1439 127.5,51.5C 130.518,51.6646 133.518,51.498 136.5,51C 137.38,49.6439 137.714,48.1439 137.5,46.5C 140.518,46.6646 143.518,46.498 146.5,46C 147.38,44.6439 147.714,43.1439 147.5,41.5C 150.518,41.6646 153.518,41.498 156.5,41C 157.38,39.6439 157.714,38.1439 157.5,36.5C 160.518,36.6646 163.518,36.498 166.5,36C 167.38,34.6439 167.714,33.1439 167.5,31.5C 170.518,31.6646 173.518,31.498 176.5,31C 177.167,29.6667 177.833,28.3333 178.5,27C 181.167,26.6667 183.833,26.3333 186.5,26C 187.167,24.6667 187.833,23.3333 188.5,22C 191.587,21.7411 194.587,21.2411 197.5,20.5C 198.592,18.4643 200.592,17.131 203.5,16.5C 205.292,16.634 206.958,16.3007 208.5,15.5C 208.435,15.9382 208.601,16.2716 209,16.5C 210.758,15.5305 211.258,14.3639 210.5,13C 211.449,12.3828 212.282,12.5494 213,13.5C 213.995,12.9341 214.828,12.2674 215.5,11.5C 216.552,11.6495 217.552,11.4828 218.5,11C 219.636,9.47021 220.636,8.13687 221.5,7C 224.5,6.66667 227.5,6.33333 230.5,6C 231.167,4.66667 231.833,3.33333 232.5,2C 235.5,1.66667 238.5,1.33333 241.5,1C 242.056,0.617425 242.389,0.117425 242.5,-0.5 Z"/></g>
<g><path style="opacity:0.024" fill="#8decf0" d="M 215.5,11.5 C 214.828,12.2674 213.995,12.9341 213,13.5C 212.282,12.5494 211.449,12.3828 210.5,13C 211.258,14.3639 210.758,15.5305 209,16.5C 208.601,16.2716 208.435,15.9382 208.5,15.5C 208.539,14.4168 208.873,13.4168 209.5,12.5C 211.396,11.5344 213.396,11.2011 215.5,11.5 Z"/></g>
<g><path style="opacity:0.086" fill="#90edf1" d="M 203.5,16.5 C 200.592,17.131 198.592,18.4643 197.5,20.5C 198.234,19.2921 198.567,17.9587 198.5,16.5C 200.167,16.5 201.833,16.5 203.5,16.5 Z"/></g>
<g><path style="opacity:0.024" fill="#8becf0" d="M 376.5,41.5 C 380.314,40.9807 382.314,42.6473 382.5,46.5C 382.565,46.9382 382.399,47.2716 382,47.5C 380.956,46.3774 380.29,45.0441 380,43.5C 378.448,43.9889 377.281,43.3223 376.5,41.5 Z"/></g>
<g><path style="opacity:0.282" fill="#acf7fa" d="M 29.5,128.5 C 29.5,144.833 29.5,161.167 29.5,177.5C 28.5,177.833 27.8333,178.5 27.5,179.5C 27.1667,179.5 26.8333,179.5 26.5,179.5C 26.5,163.833 26.5,148.167 26.5,132.5C 27.1665,127.983 27.8331,123.317 28.5,118.5C 28.8088,121.857 29.1422,125.19 29.5,128.5 Z"/></g>
<g><path style="opacity:1" fill="#b5fdfe" d="M 186.5,216.5 C 184.817,215.339 182.984,214.339 181,213.5C 179.535,214.33 178.035,214.496 176.5,214C 167.957,203.779 157.957,195.446 146.5,189C 140.887,182.544 134.887,176.544 128.5,171C 126.222,170.014 123.889,169.18 121.5,168.5C 115.262,162.551 109.262,156.385 103.5,150C 97.8748,146.337 92.2081,142.671 86.5,139C 81.9343,134.524 77.601,129.857 73.5,125C 65.0996,123.698 56.933,123.198 49,123.5C 45.5894,124.293 42.0894,124.793 38.5,125C 36.1133,125.564 34.1133,126.73 32.5,128.5C 32.9156,126.248 34.249,124.748 36.5,124C 49.301,122.381 61.9677,122.047 74.5,123C 79.0657,127.476 83.399,132.143 87.5,137C 88.7659,137.309 89.9326,137.809 91,138.5C 91.3333,138.167 91.6667,137.833 92,137.5C 93.4798,140.663 95.9798,142.496 99.5,143C 105.5,149.333 111.5,155.667 117.5,162C 121.056,164.889 125.056,166.889 129.5,168C 135.5,174.333 141.5,180.667 147.5,187C 151.056,189.889 155.056,191.889 159.5,193C 165.5,199.333 171.5,205.667 177.5,212C 180.167,212.333 182.833,212.667 185.5,213C 186.337,214.011 186.67,215.178 186.5,216.5 Z"/></g>
<g><path style="opacity:1" fill="#9cfbfe" d="M 186.5,216.5 C 186.5,217.5 186.5,218.5 186.5,219.5C 188.308,219.491 189.975,219.991 191.5,221C 195.198,223.186 198.532,225.853 201.5,229C 206.007,227.919 209.34,229.586 211.5,234C 213.5,234.333 215.5,234.667 217.5,235C 222.322,238.911 227.322,242.578 232.5,246C 233.071,247.205 233.738,248.372 234.5,249.5C 239.452,249.544 243.619,251.21 247,254.5C 251.722,252.774 256.222,250.607 260.5,248C 262.167,246.333 263.833,244.667 265.5,243C 267.833,242.667 270.167,242.333 272.5,242C 273.257,240.488 274.257,239.154 275.5,238C 279.645,237.927 282.979,236.261 285.5,233C 286.448,232.517 287.448,232.351 288.5,232.5C 285.501,236.489 281.501,238.822 276.5,239.5C 273.944,243.445 270.277,245.278 265.5,245C 260.552,249.264 255.052,252.764 249,255.5C 247.867,262.733 247.367,270.066 247.5,277.5C 247.584,285.854 247.917,294.188 248.5,302.5C 246.167,302.5 243.833,302.5 241.5,302.5C 239.405,299.724 236.738,297.558 233.5,296C 231.091,294.293 228.425,293.46 225.5,293.5C 225.703,291.61 225.037,290.11 223.5,289C 219.466,289.352 216.466,287.852 214.5,284.5C 211.689,283.92 209.023,283.254 206.5,282.5C 207.126,278.625 205.459,276.791 201.5,277C 200.833,275.667 200.167,274.333 199.5,273C 196.189,272.943 193.189,272.11 190.5,270.5C 187.495,268.701 184.162,268.034 180.5,268.5C 180.703,266.61 180.037,265.11 178.5,264C 176.5,263.333 174.5,262.667 172.5,262C 167.583,258.045 162.249,254.878 156.5,252.5C 155.833,251.5 155.167,250.5 154.5,249.5C 151.689,248.92 149.023,248.254 146.5,247.5C 146.579,246.07 146.246,244.736 145.5,243.5C 142.743,242.247 140.409,240.413 138.5,238C 136.536,237.376 134.869,237.876 133.5,239.5C 132.349,243.423 131.515,247.423 131,251.5C 128.28,253.269 126.446,255.769 125.5,259C 126.31,263.133 126.644,267.633 126.5,272.5C 125.178,272.33 124.011,272.663 123,273.5C 122.5,279.825 122.334,286.158 122.5,292.5C 120.685,293.63 118.685,294.296 116.5,294.5C 116.828,289.125 116.495,283.792 115.5,278.5C 114.833,278.167 114.167,277.833 113.5,277.5C 112.743,271.486 111.909,265.486 111,259.5C 107.806,257.485 104.806,255.152 102,252.5C 100.527,252.903 99.1939,253.57 98,254.5C 97.2979,260.189 96.4646,265.856 95.5,271.5C 94.5224,271.977 93.6891,272.643 93,273.5C 92.5007,278.489 92.3341,283.489 92.5,288.5C 90.7708,289.117 89.2708,290.117 88,291.5C 86.9054,296.78 86.4054,302.113 86.5,307.5C 85.1779,307.33 84.0113,307.663 83,308.5C 82.1546,315.259 80.9879,321.926 79.5,328.5C 78.5416,328.953 77.7083,329.619 77,330.5C 76.8331,306.16 76.3331,281.826 75.5,257.5C 73.5043,252.022 72.3376,246.355 72,240.5C 71.5001,226.504 71.3334,212.504 71.5,198.5C 68.5448,197.841 65.5448,197.508 62.5,197.5C 59.7326,194.147 56.0659,192.647 51.5,193C 50.2567,191.846 49.2567,190.512 48.5,189C 44.5783,186.89 40.5783,185.057 36.5,183.5C 34.1667,181.5 31.8333,179.5 29.5,177.5C 29.5,161.167 29.5,144.833 29.5,128.5C 30.5,128.5 31.5,128.5 32.5,128.5C 34.1133,126.73 36.1133,125.564 38.5,125C 42.0894,124.793 45.5894,124.293 49,123.5C 56.933,123.198 65.0996,123.698 73.5,125C 77.601,129.857 81.9343,134.524 86.5,139C 92.2081,142.671 97.8748,146.337 103.5,150C 109.262,156.385 115.262,162.551 121.5,168.5C 123.889,169.18 126.222,170.014 128.5,171C 134.887,176.544 140.887,182.544 146.5,189C 157.957,195.446 167.957,203.779 176.5,214C 178.035,214.496 179.535,214.33 181,213.5C 182.984,214.339 184.817,215.339 186.5,216.5 Z"/></g>
<g><path style="opacity:0.212" fill="#51eff4" d="M 469.5,129.5 C 470.492,129.328 471.158,129.662 471.5,130.5C 472.152,147.201 471.485,163.534 469.5,179.5C 469.5,163.167 469.5,146.833 469.5,130.5C 469.5,130.167 469.5,129.833 469.5,129.5 Z"/></g>
<g><path style="opacity:0.999" fill="#47f7fd" d="M 467.5,130.5 C 468.167,130.5 468.833,130.5 469.5,130.5C 469.5,146.833 469.5,163.167 469.5,179.5C 468.833,179.5 468.167,179.5 467.5,179.5C 466.883,179.389 466.383,179.056 466,178.5C 462.592,181.453 459.092,184.287 455.5,187C 451.541,186.651 448.874,188.317 447.5,192C 445.167,192.333 442.833,192.667 440.5,193C 439.333,193.5 438.5,194.333 438,195.5C 437.667,205.833 437.333,216.167 437,226.5C 434.66,230.521 433.326,234.854 433,239.5C 432.667,253.5 432.333,267.5 432,281.5C 428.554,289.075 426.887,296.741 427,304.5C 426.667,295.167 426.333,285.833 426,276.5C 425.047,274.545 423.713,272.878 422,271.5C 421.667,261.5 421.333,251.5 421,241.5C 420.047,239.545 418.713,237.878 417,236.5C 416.667,232.833 416.333,229.167 416,225.5C 413.565,222.066 411.565,218.4 410,214.5C 409,213.833 408,213.167 407,212.5C 404.679,215.269 401.846,217.436 398.5,219C 393.285,222.838 391.118,228.005 392,234.5C 389.852,235.977 388.518,237.977 388,240.5C 387.667,247.167 387.333,253.833 387,260.5C 383.318,263.334 381.818,266.834 382.5,271C 380.171,270.007 378.337,268.173 377,265.5C 376.927,255.094 376.26,244.761 375,234.5C 373.274,233.424 371.441,233.257 369.5,234C 366.968,236.447 364.634,239.114 362.5,242C 358.179,241.567 354.846,243.067 352.5,246.5C 350.234,247.314 347.9,247.814 345.5,248C 341.319,252.589 336.319,255.922 330.5,258C 327.77,261.532 324.104,263.365 319.5,263.5C 318.585,264.328 317.919,265.328 317.5,266.5C 311.443,268.298 306.11,271.798 301.5,277C 297.494,276.65 294.494,278.15 292.5,281.5C 287.98,281.419 284.647,283.253 282.5,287C 276.809,289.213 271.809,292.38 267.5,296.5C 265.234,297.314 262.9,297.814 260.5,298C 255.077,303.418 248.41,305.585 240.5,304.5C 239.71,303.206 238.71,302.039 237.5,301C 233.029,299.843 229.029,297.843 225.5,295C 224.257,293.846 223.257,292.512 222.5,291C 217.913,291.567 214.579,289.901 212.5,286C 210.167,285.667 207.833,285.333 205.5,285C 204.748,284.329 204.414,283.496 204.5,282.5C 205.167,282.5 205.833,282.5 206.5,282.5C 209.023,283.254 211.689,283.92 214.5,284.5C 216.466,287.852 219.466,289.352 223.5,289C 225.037,290.11 225.703,291.61 225.5,293.5C 228.425,293.46 231.091,294.293 233.5,296C 236.738,297.558 239.405,299.724 241.5,302.5C 244.23,303.817 247.063,303.817 250,302.5C 250.333,287.5 250.667,272.5 251,257.5C 253.266,256.044 255.766,255.21 258.5,255C 260.904,252 263.57,249.333 266.5,247C 271.512,247.33 275.179,245.33 277.5,241C 281.137,241.316 283.804,239.982 285.5,237C 288.757,236.251 291.424,234.584 293.5,232C 295.608,231.64 297.608,230.973 299.5,230C 300.337,228.989 300.67,227.822 300.5,226.5C 305.456,226.548 309.456,224.715 312.5,221C 318.443,220.07 323.109,217.07 326.5,212C 328.5,211.667 330.5,211.333 332.5,211C 333.756,210.583 334.423,209.75 334.5,208.5C 337.505,206.701 340.838,206.034 344.5,206.5C 344.351,205.448 344.517,204.448 345,203.5C 348.875,198.943 353.709,196.11 359.5,195C 360.167,194 360.833,193 361.5,192C 366.512,192.33 370.179,190.33 372.5,186C 376.248,186.22 379.248,184.887 381.5,182C 384.229,181.995 386.229,180.829 387.5,178.5C 391.893,177.329 395.226,174.829 397.5,171C 399.833,170.667 402.167,170.333 404.5,170C 405.257,168.488 406.257,167.154 407.5,166C 411.548,163.916 415.548,161.916 419.5,160C 421.776,156.428 425.11,154.594 429.5,154.5C 430.127,153.583 430.461,152.583 430.5,151.5C 435.108,151.583 438.775,149.916 441.5,146.5C 445.281,144.05 449.281,142.05 453.5,140.5C 455.873,136.216 459.54,134.383 464.5,135C 465.386,133.385 466.386,131.885 467.5,130.5 Z"/></g>
<g><path style="opacity:1" fill="#70f7fc" d="M 467.5,130.5 C 466.386,131.885 465.386,133.385 464.5,135C 459.54,134.383 455.873,136.216 453.5,140.5C 449.281,142.05 445.281,144.05 441.5,146.5C 438.775,149.916 435.108,151.583 430.5,151.5C 430.611,150.883 430.944,150.383 431.5,150C 433.5,149.667 435.5,149.333 437.5,149C 441.056,144.111 445.723,140.777 451.5,139C 454.592,135.263 458.592,133.597 463.5,134C 464.103,131.929 465.436,130.762 467.5,130.5 Z"/></g>
<g><path style="opacity:0.2" fill="#18e1e9" d="M 26.5,179.5 C 26.8333,179.5 27.1667,179.5 27.5,179.5C 27.3284,180.492 27.6618,181.158 28.5,181.5C 28.3333,244.834 28.5,308.168 29,371.5C 29.6667,372.833 30.3333,372.833 31,371.5C 32.487,372.253 32.6537,373.086 31.5,374C 34.1623,376.102 36.329,375.602 38,372.5C 38.4652,373.931 39.2986,375.097 40.5,376C 38.2985,376.777 38.2985,377.944 40.5,379.5C 42.1017,380.55 42.935,379.883 43,377.5C 43.1894,379.795 44.5228,381.795 47,383.5C 47.6667,382.833 48.3333,382.167 49,381.5C 50,382.833 51,384.167 52,385.5C 52.3333,384.5 52.6667,383.5 53,382.5C 54.353,384.434 55.853,386.267 57.5,388C 56.1667,388.667 56.1667,389.333 57.5,390C 60.5127,390.909 63.5127,391.742 66.5,392.5C 66.5,393.5 66.5,394.5 66.5,395.5C 68.8809,394.58 71.2143,394.58 73.5,395.5C 74.2916,396.7 74.2916,398.033 73.5,399.5C 72.2421,396.636 70.2421,395.97 67.5,397.5C 63.926,398.092 61.926,396.592 61.5,393C 58.8333,392.667 56.1667,392.333 53.5,392C 52.8333,390.667 52.1667,389.333 51.5,388C 48.8333,387.667 46.1667,387.333 43.5,387C 42.8095,385.933 42.3095,384.766 42,383.5C 40.0177,382.906 38.1844,381.74 36.5,380C 37.8333,379.333 37.8333,378.667 36.5,378C 32.9912,378.021 29.8245,377.188 27,375.5C 26.5,310.168 26.3333,244.834 26.5,179.5 Z"/></g>
<g><path style="opacity:1" fill="#6ff7fc" d="M 430.5,151.5 C 430.461,152.583 430.127,153.583 429.5,154.5C 425.11,154.594 421.776,156.428 419.5,160C 415.548,161.916 411.548,163.916 407.5,166C 406.257,167.154 405.257,168.488 404.5,170C 402.167,170.333 399.833,170.667 397.5,171C 395.226,174.829 391.893,177.329 387.5,178.5C 386.229,180.829 384.229,181.995 381.5,182C 379.248,184.887 376.248,186.22 372.5,186C 370.179,190.33 366.512,192.33 361.5,192C 360.833,193 360.167,194 359.5,195C 353.709,196.11 348.875,198.943 345,203.5C 344.517,204.448 344.351,205.448 344.5,206.5C 340.838,206.034 337.505,206.701 334.5,208.5C 334.511,206.983 335.177,205.816 336.5,205C 338.952,204.71 341.285,204.044 343.5,203C 346.271,200.108 349.271,197.442 352.5,195C 355.963,194.212 358.963,192.546 361.5,190C 365.741,190.291 368.741,188.624 370.5,185C 375.071,183.406 379.405,181.406 383.5,179C 384.743,177.846 385.743,176.512 386.5,175C 388.833,174.667 391.167,174.333 393.5,174C 395.579,170.099 398.913,168.433 403.5,169C 404.376,167.414 405.376,165.914 406.5,164.5C 413.132,159.851 420.132,156.351 427.5,154C 428.373,152.955 429.373,152.122 430.5,151.5 Z"/></g>
<g><path style="opacity:0.995" fill="#00d8df" d="M 456.5,383.5 C 456.67,384.822 456.337,385.989 455.5,387C 452.833,387.333 450.167,387.667 447.5,388C 446.833,389.333 446.167,390.667 445.5,392C 442.833,392.333 440.167,392.667 437.5,393C 436.77,396.198 434.77,397.698 431.5,397.5C 430.312,396.952 429.145,396.619 428,396.5C 426.824,398.196 425.657,399.862 424.5,401.5C 422.366,402.703 421.032,404.537 420.5,407C 417.833,407.333 415.167,407.667 412.5,408C 411.833,409.333 411.167,410.667 410.5,412C 408.19,412.497 405.857,412.663 403.5,412.5C 403.565,412.062 403.399,411.728 403,411.5C 401.493,414.006 399.327,415.672 396.5,416.5C 395.45,417.429 395.45,418.095 396.5,418.5C 396.5,418.833 396.5,419.167 396.5,419.5C 394.596,419.738 393.262,420.738 392.5,422.5C 390.833,422.5 389.167,422.5 387.5,422.5C 385.345,422.372 383.345,422.872 381.5,424C 381.833,424.333 382.167,424.667 382.5,425C 379.975,425.896 377.808,425.396 376,423.5C 374.887,425.697 373.554,428.031 372,430.5C 370.742,427.945 368.909,427.278 366.5,428.5C 364.378,430.451 362.878,432.785 362,435.5C 361.667,434.833 361.333,434.167 361,433.5C 359.714,436.858 357.547,438.358 354.5,438C 354.576,441.001 353.409,441.167 351,438.5C 349.962,440.754 348.629,443.088 347,445.5C 345.982,443.436 344.649,443.102 343,444.5C 341.943,443.373 340.777,442.873 339.5,443C 339.833,443.333 340.167,443.667 340.5,444C 338.43,444.948 336.93,446.448 336,448.5C 334.951,447.483 333.784,447.316 332.5,448C 333.833,448.667 334.833,449.667 335.5,451C 331.251,448.283 328.418,449.45 327,454.5C 326.667,454.167 326.333,453.833 326,453.5C 325.5,454.667 324.667,455.5 323.5,456C 323.833,456.333 324.167,456.667 324.5,457C 322.166,460.846 319.333,461.346 316,458.5C 315.5,459.667 314.667,460.5 313.5,461C 314.167,461.333 314.833,461.667 315.5,462C 313.667,462.5 312.5,463.667 312,465.5C 309.196,461.678 306.029,461.845 302.5,466C 302.833,466.333 303.167,466.667 303.5,467C 302.809,468.067 302.309,469.234 302,470.5C 301.333,467.833 300.667,467.833 300,470.5C 299.667,470.167 299.333,469.833 299,469.5C 297.442,471.359 295.609,472.859 293.5,474C 294.696,474.654 294.696,475.154 293.5,475.5C 292.186,474.687 291.019,473.687 290,472.5C 289.085,473.328 288.419,474.328 288,475.5C 286.443,474.795 285.277,475.461 284.5,477.5C 285.5,478.167 286.5,478.833 287.5,479.5C 284.687,481.323 282.187,480.656 280,477.5C 277.333,479.74 276.333,482.406 277,485.5C 275.742,482.945 273.909,482.278 271.5,483.5C 269.586,485.202 268.086,487.202 267,489.5C 265.951,488.483 264.784,488.316 263.5,489C 266.167,489.667 266.167,490.333 263.5,491C 264.833,491.667 264.833,492.333 263.5,493C 265.569,493.324 265.902,494.158 264.5,495.5C 260.805,496.505 257.138,496.672 253.5,496C 254.823,496.816 255.489,497.983 255.5,499.5C 254.167,499.5 252.833,499.5 251.5,499.5C 251.333,436.832 251.5,374.166 252,311.5C 254.229,308.636 257.063,306.636 260.5,305.5C 261.04,304.252 261.707,303.085 262.5,302C 265.167,301.667 267.833,301.333 270.5,301C 271.167,299.667 271.833,298.333 272.5,297C 274.833,296.667 277.167,296.333 279.5,296C 281.904,293 284.57,290.333 287.5,288C 292.258,288.208 295.591,286.208 297.5,282C 302.058,282.394 305.391,280.727 307.5,277C 309.556,276.689 311.556,276.189 313.5,275.5C 315.277,273.107 317.61,271.44 320.5,270.5C 321.04,269.252 321.707,268.085 322.5,267C 325.167,266.667 327.833,266.333 330.5,266C 331.167,264.667 331.833,263.333 332.5,262C 335.226,261.818 337.893,261.318 340.5,260.5C 343.172,257.748 345.839,254.915 348.5,252C 350.833,251.667 353.167,251.333 355.5,251C 356.167,249.667 356.833,248.333 357.5,247C 360.167,246.667 362.833,246.333 365.5,246C 367.035,240.863 369.369,240.363 372.5,244.5C 371.096,253.182 371.262,261.849 373,270.5C 374.878,272.043 376.378,273.876 377.5,276C 384.929,278.6 388.429,275.766 388,267.5C 389,266.833 390,266.167 391,265.5C 392.146,257.885 392.812,250.218 393,242.5C 394,241.833 395,241.167 396,240.5C 396.101,235.054 396.768,229.721 398,224.5C 400.311,222.89 402.811,221.557 405.5,220.5C 406.711,222.422 408.044,224.255 409.5,226C 410.448,226.483 411.448,226.649 412.5,226.5C 412.334,231.511 412.501,236.511 413,241.5C 415.587,243.367 417.087,245.867 417.5,249C 416.1,258.152 416.266,267.318 418,276.5C 419,277.5 420,278.5 421,279.5C 421.168,288.518 421.668,297.518 422.5,306.5C 423.267,312.309 426.267,314.309 431.5,312.5C 431.334,308.154 431.501,303.821 432,299.5C 433.333,297.5 434.667,295.5 436,293.5C 437.666,277.18 438,260.847 437,244.5C 438.333,242.5 439.667,240.5 441,238.5C 442.255,224.863 442.755,211.196 442.5,197.5C 447.115,197.766 450.448,195.933 452.5,192C 455.226,191.818 457.893,191.318 460.5,190.5C 461.246,189.264 461.579,187.93 461.5,186.5C 463.167,186.5 464.833,186.5 466.5,186.5C 466.45,184.41 467.45,183.077 469.5,182.5C 470.833,245.833 470.833,309.167 469.5,372.5C 467.374,374.715 464.708,375.882 461.5,376C 459.43,376.948 457.93,378.448 457,380.5C 456.195,378.099 455.362,378.266 454.5,381C 455.756,381.417 456.423,382.25 456.5,383.5 Z"/></g>
<g><path style="opacity:1" fill="#00e6f0" d="M 28.5,181.5 C 31.2974,181.967 32.6308,183.633 32.5,186.5C 33.9305,186.421 35.2638,186.754 36.5,187.5C 38.2824,191.725 41.2824,193.225 45.5,192C 47.0368,193.11 47.7035,194.61 47.5,196.5C 50.4869,196.998 53.4869,197.498 56.5,198C 57.3366,199.011 57.67,200.178 57.5,201.5C 60.9391,201.589 63.7724,202.922 66,205.5C 66.1916,219.699 66.6916,233.866 67.5,248C 66.5562,255.771 66.7229,263.271 68,270.5C 70.6154,273.106 72.1154,276.272 72.5,280C 71.3496,301.803 71.183,323.636 72,345.5C 73.5943,350.752 76.5943,351.752 81,348.5C 82.3507,342.928 82.8507,337.262 82.5,331.5C 84.9115,331.863 86.4115,330.863 87,328.5C 87.1705,323.136 87.6705,317.802 88.5,312.5C 90.1338,312.032 91.3005,311.032 92,309.5C 92.7886,305.909 92.6219,302.409 91.5,299C 92.3636,297.303 93.6969,296.137 95.5,295.5C 95.9802,287.996 96.9802,280.663 98.5,273.5C 99.1499,273.196 99.8165,272.863 100.5,272.5C 101.167,269.167 101.833,265.833 102.5,262.5C 103.814,263.313 104.981,264.313 106,265.5C 106.138,271.581 106.804,277.581 108,283.5C 109,284.167 110,284.833 111,285.5C 111.148,291.249 111.814,296.915 113,302.5C 117.879,305.481 121.046,304.148 122.5,298.5C 124.323,297.509 125.823,296.176 127,294.5C 127.333,289.167 127.667,283.833 128,278.5C 129.57,277.386 130.903,276.053 132,274.5C 132.333,269.5 132.667,264.5 133,259.5C 136.981,256.145 138.481,251.811 137.5,246.5C 138.978,246.238 140.311,246.571 141.5,247.5C 142.966,252.114 145.966,253.614 150.5,252C 151.743,253.154 152.743,254.488 153.5,256C 157.737,258.415 162.07,260.581 166.5,262.5C 168.033,266.684 170.866,268.017 175,266.5C 176.614,267.817 177.781,269.483 178.5,271.5C 181.109,272.23 183.776,272.73 186.5,273C 187.337,274.011 187.67,275.178 187.5,276.5C 190.877,276.69 193.544,278.19 195.5,281C 199.826,280.989 202.826,282.989 204.5,287C 209.015,285.344 212.015,286.844 213.5,291.5C 215.371,292.767 217.204,292.767 219,291.5C 221.167,292.333 222.667,293.833 223.5,296C 224.793,296.49 226.127,296.657 227.5,296.5C 227.383,298.484 228.05,300.15 229.5,301.5C 231.861,302.021 234.194,302.354 236.5,302.5C 237.228,304.193 238.228,305.693 239.5,307C 242.817,307.498 246.15,307.665 249.5,307.5C 248.504,371.429 248.171,435.429 248.5,499.5C 246.5,499.5 244.5,499.5 242.5,499.5C 242.167,498.833 241.833,498.167 241.5,497.5C 240.402,496.603 240.402,495.77 241.5,495C 239.665,494.072 239.332,492.906 240.5,491.5C 239.723,489.461 238.557,488.795 237,489.5C 233.45,488.617 230.117,487.284 227,485.5C 225.374,485.854 223.541,485.854 221.5,485.5C 221.5,484.5 221.5,483.5 221.5,482.5C 218.402,482.587 218.068,482.087 220.5,481C 219.107,478.317 217.774,478.15 216.5,480.5C 215.614,479.675 215.281,478.675 215.5,477.5C 213.857,477.52 212.524,476.853 211.5,475.5C 210.914,475.709 210.414,476.043 210,476.5C 209.333,475.167 208.667,473.833 208,472.5C 207.667,473.5 207.333,474.5 207,475.5C 205.305,472.305 202.805,469.972 199.5,468.5C 198.353,468.818 197.519,469.484 197,470.5C 196.517,469.552 196.351,468.552 196.5,467.5C 193.912,467.457 191.746,466.457 190,464.5C 189.586,464.957 189.086,465.291 188.5,465.5C 187.228,462.404 185.394,459.737 183,457.5C 182.751,458.624 182.251,459.624 181.5,460.5C 180.576,458.61 179.243,457.11 177.5,456C 176.551,455.383 175.718,455.549 175,456.5C 174.333,455.167 173.667,453.833 173,452.5C 172.667,453.5 172.333,454.5 172,455.5C 170.132,453.35 168.965,451.183 168.5,449C 165.873,448.788 163.873,449.121 162.5,450C 161.624,448.415 160.291,447.415 158.5,447C 159.167,446.667 159.833,446.333 160.5,446C 159.299,445.097 158.465,443.931 158,442.5C 156.28,445.617 153.78,446.283 150.5,444.5C 148.543,441.983 145.876,440.816 142.5,441C 143.357,440.311 144.023,439.478 144.5,438.5C 143.194,437.088 142.36,435.421 142,433.5C 141.15,434.424 140.15,434.424 139,433.5C 138.055,433.905 137.388,434.572 137,435.5C 135.132,433.35 133.965,431.183 133.5,429C 131.653,429.141 129.82,429.308 128,429.5C 126.629,428.419 125.129,427.585 123.5,427C 124.167,426.667 124.833,426.333 125.5,426C 124.299,425.097 123.465,423.931 123,422.5C 122.187,425.766 120.354,426.266 117.5,424C 117.833,423.667 118.167,423.333 118.5,423C 116.277,422.348 115.11,420.848 115,418.5C 114.026,420.878 113.359,420.544 113,417.5C 112.667,418.5 112.333,419.5 112,420.5C 109.83,418.833 107.996,416.833 106.5,414.5C 103.938,413.359 101.272,412.526 98.5,412C 99.1667,411.667 99.8333,411.333 100.5,411C 99.2986,410.097 98.4652,408.931 98,407.5C 96.6949,410.306 94.5282,411.14 91.5,410C 88.7506,408.654 88.4172,407.32 90.5,406C 89.2986,405.097 88.4652,403.931 88,402.5C 87.6667,403.5 87.3333,404.5 87,405.5C 86.0031,403.834 84.5031,402.334 82.5,401C 81.5509,400.383 80.7175,400.549 80,401.5C 79.3333,400.167 78.6667,398.833 78,397.5C 77.5172,398.448 77.3505,399.448 77.5,400.5C 76.1667,400.5 74.8333,400.5 73.5,400.5C 73.5,400.167 73.5,399.833 73.5,399.5C 74.2916,398.033 74.2916,396.7 73.5,395.5C 71.2143,394.58 68.8809,394.58 66.5,395.5C 66.5,394.5 66.5,393.5 66.5,392.5C 63.5127,391.742 60.5127,390.909 57.5,390C 56.1667,389.333 56.1667,388.667 57.5,388C 55.853,386.267 54.353,384.434 53,382.5C 52.6667,383.5 52.3333,384.5 52,385.5C 51,384.167 50,382.833 49,381.5C 48.3333,382.167 47.6667,382.833 47,383.5C 44.5228,381.795 43.1894,379.795 43,377.5C 42.935,379.883 42.1017,380.55 40.5,379.5C 38.2985,377.944 38.2985,376.777 40.5,376C 39.2986,375.097 38.4652,373.931 38,372.5C 36.329,375.602 34.1623,376.102 31.5,374C 32.6537,373.086 32.487,372.253 31,371.5C 30.3333,372.833 29.6667,372.833 29,371.5C 28.5,308.168 28.3333,244.834 28.5,181.5 Z"/></g>
<g><path style="opacity:1" fill="#9cfbfe" d="M 469.5,129.5 C 469.5,129.833 469.5,130.167 469.5,130.5C 468.833,130.5 468.167,130.5 467.5,130.5C 465.436,130.762 464.103,131.929 463.5,134C 458.592,133.597 454.592,135.263 451.5,139C 445.723,140.777 441.056,144.111 437.5,149C 435.5,149.333 433.5,149.667 431.5,150C 430.944,150.383 430.611,150.883 430.5,151.5C 429.373,152.122 428.373,152.955 427.5,154C 420.132,156.351 413.132,159.851 406.5,164.5C 405.376,165.914 404.376,167.414 403.5,169C 398.913,168.433 395.579,170.099 393.5,174C 391.167,174.333 388.833,174.667 386.5,175C 385.743,176.512 384.743,177.846 383.5,179C 379.405,181.406 375.071,183.406 370.5,185C 368.741,188.624 365.741,190.291 361.5,190C 358.963,192.546 355.963,194.212 352.5,195C 349.271,197.442 346.271,200.108 343.5,203C 341.285,204.044 338.952,204.71 336.5,205C 335.177,205.816 334.511,206.983 334.5,208.5C 331.587,209.241 328.587,209.741 325.5,210C 322.467,215.71 317.801,219.044 311.5,220C 309.833,221 308.5,222.333 307.5,224C 305.5,224.333 303.5,224.667 301.5,225C 300.944,225.383 300.611,225.883 300.5,226.5C 296.407,228.309 292.407,230.309 288.5,232.5C 289.257,228.161 291.924,226.328 296.5,227C 297.614,225.43 298.947,224.097 300.5,223C 304.481,223.192 307.481,221.692 309.5,218.5C 313.477,217.178 317.144,215.345 320.5,213C 322.167,211.333 323.833,209.667 325.5,208C 327.9,207.814 330.234,207.314 332.5,206.5C 332.968,204.866 333.968,203.7 335.5,203C 337.9,202.814 340.234,202.314 342.5,201.5C 346.255,196.898 350.922,193.732 356.5,192C 359.092,188.18 362.758,186.513 367.5,187C 368.257,185.488 369.257,184.154 370.5,183C 374.452,181.084 378.452,179.084 382.5,177C 384.259,173.376 387.259,171.709 391.5,172C 392.519,166.541 395.686,165.041 401,167.5C 405.348,162.592 410.515,159.092 416.5,157C 419.137,153.183 422.804,151.516 427.5,152C 428.257,150.488 429.257,149.154 430.5,148C 436.374,146.566 441.041,143.4 444.5,138.5C 446.766,137.686 449.1,137.186 451.5,137C 453.745,133.279 457.079,131.612 461.5,132C 462.878,130.287 464.545,128.953 466.5,128C 468.157,127.275 469.157,127.775 469.5,129.5 Z"/></g>
<g><path style="opacity:1" fill="#6bf7fc" d="M 334.5,208.5 C 334.423,209.75 333.756,210.583 332.5,211C 330.5,211.333 328.5,211.667 326.5,212C 323.109,217.07 318.443,220.07 312.5,221C 309.456,224.715 305.456,226.548 300.5,226.5C 300.611,225.883 300.944,225.383 301.5,225C 303.5,224.667 305.5,224.333 307.5,224C 308.5,222.333 309.833,221 311.5,220C 317.801,219.044 322.467,215.71 325.5,210C 328.587,209.741 331.587,209.241 334.5,208.5 Z"/></g>
<g><path style="opacity:1" fill="#76f8fd" d="M 300.5,226.5 C 300.67,227.822 300.337,228.989 299.5,230C 297.608,230.973 295.608,231.64 293.5,232C 291.424,234.584 288.757,236.251 285.5,237C 283.804,239.982 281.137,241.316 277.5,241C 275.179,245.33 271.512,247.33 266.5,247C 263.57,249.333 260.904,252 258.5,255C 255.766,255.21 253.266,256.044 251,257.5C 250.667,272.5 250.333,287.5 250,302.5C 247.063,303.817 244.23,303.817 241.5,302.5C 243.833,302.5 246.167,302.5 248.5,302.5C 247.917,294.188 247.584,285.854 247.5,277.5C 247.367,270.066 247.867,262.733 249,255.5C 255.052,252.764 260.552,249.264 265.5,245C 270.277,245.278 273.944,243.445 276.5,239.5C 281.501,238.822 285.501,236.489 288.5,232.5C 292.407,230.309 296.407,228.309 300.5,226.5 Z"/></g>
<g><path style="opacity:1" fill="#0edfe6" d="M 471.5,130.5 C 471.833,130.5 472.167,130.5 472.5,130.5C 472.667,212.167 472.5,293.834 472,375.5C 469.493,377.155 466.659,377.989 463.5,378C 462.54,379.419 461.707,380.919 461,382.5C 459.289,381.419 457.789,381.752 456.5,383.5C 456.423,382.25 455.756,381.417 454.5,381C 455.362,378.266 456.195,378.099 457,380.5C 457.93,378.448 459.43,376.948 461.5,376C 464.708,375.882 467.374,374.715 469.5,372.5C 470.833,309.167 470.833,245.833 469.5,182.5C 467.45,183.077 466.45,184.41 466.5,186.5C 464.833,186.5 463.167,186.5 461.5,186.5C 461.579,187.93 461.246,189.264 460.5,190.5C 457.893,191.318 455.226,191.818 452.5,192C 450.448,195.933 447.115,197.766 442.5,197.5C 442.755,211.196 442.255,224.863 441,238.5C 439.667,240.5 438.333,242.5 437,244.5C 438,260.847 437.666,277.18 436,293.5C 434.667,295.5 433.333,297.5 432,299.5C 431.501,303.821 431.334,308.154 431.5,312.5C 426.267,314.309 423.267,312.309 422.5,306.5C 421.668,297.518 421.168,288.518 421,279.5C 420,278.5 419,277.5 418,276.5C 416.266,267.318 416.1,258.152 417.5,249C 417.087,245.867 415.587,243.367 413,241.5C 412.501,236.511 412.334,231.511 412.5,226.5C 411.448,226.649 410.448,226.483 409.5,226C 408.044,224.255 406.711,222.422 405.5,220.5C 402.811,221.557 400.311,222.89 398,224.5C 396.768,229.721 396.101,235.054 396,240.5C 395,241.167 394,241.833 393,242.5C 392.812,250.218 392.146,257.885 391,265.5C 390,266.167 389,266.833 388,267.5C 388.429,275.766 384.929,278.6 377.5,276C 376.378,273.876 374.878,272.043 373,270.5C 371.262,261.849 371.096,253.182 372.5,244.5C 369.369,240.363 367.035,240.863 365.5,246C 362.833,246.333 360.167,246.667 357.5,247C 356.833,248.333 356.167,249.667 355.5,251C 353.167,251.333 350.833,251.667 348.5,252C 345.839,254.915 343.172,257.748 340.5,260.5C 337.893,261.318 335.226,261.818 332.5,262C 331.833,263.333 331.167,264.667 330.5,266C 327.833,266.333 325.167,266.667 322.5,267C 321.707,268.085 321.04,269.252 320.5,270.5C 317.61,271.44 315.277,273.107 313.5,275.5C 311.556,276.189 309.556,276.689 307.5,277C 305.391,280.727 302.058,282.394 297.5,282C 295.591,286.208 292.258,288.208 287.5,288C 284.57,290.333 281.904,293 279.5,296C 277.167,296.333 274.833,296.667 272.5,297C 271.833,298.333 271.167,299.667 270.5,301C 267.833,301.333 265.167,301.667 262.5,302C 261.707,303.085 261.04,304.252 260.5,305.5C 257.063,306.636 254.229,308.636 252,311.5C 251.5,374.166 251.333,436.832 251.5,499.5C 250.5,499.5 249.5,499.5 248.5,499.5C 248.171,435.429 248.504,371.429 249.5,307.5C 252.397,306.871 255.064,305.871 257.5,304.5C 259.256,303.448 259.923,301.781 259.5,299.5C 264.419,300.628 268.085,299.128 270.5,295C 275.983,292.859 280.983,289.859 285.5,286C 288.224,285.73 290.891,285.23 293.5,284.5C 294.244,283.009 294.91,281.509 295.5,280C 297.891,279.713 300.224,279.213 302.5,278.5C 305.767,275.194 309.433,272.361 313.5,270C 315.473,269.505 317.473,269.338 319.5,269.5C 319.5,267.833 319.5,266.167 319.5,264.5C 322.833,264.5 326.167,264.5 329.5,264.5C 329.286,262.856 329.62,261.356 330.5,260C 335.528,258.733 340.195,256.9 344.5,254.5C 344.286,252.856 344.62,251.356 345.5,250C 348.482,249.502 351.482,249.335 354.5,249.5C 354.286,247.856 354.62,246.356 355.5,245C 357.833,244.667 360.167,244.333 362.5,244C 365.113,240.6 368.28,237.767 372,235.5C 372.667,236.167 373.333,236.833 374,237.5C 374.215,247.527 374.715,257.527 375.5,267.5C 377.483,269.984 379.65,272.317 382,274.5C 384.093,271.956 385.093,268.956 385,265.5C 386.713,264.122 388.047,262.455 389,260.5C 389.333,253.833 389.667,247.167 390,240.5C 393.817,236.321 395.484,231.321 395,225.5C 398.767,220.902 403.267,217.735 408.5,216C 409.508,219.533 411.175,222.7 413.5,225.5C 414.325,229.122 414.825,232.789 415,236.5C 416.333,238.5 417.667,240.5 419,242.5C 419.333,252.167 419.667,261.833 420,271.5C 420.953,273.455 422.287,275.122 424,276.5C 424.333,286.833 424.667,297.167 425,307.5C 426.797,310.096 428.131,309.763 429,306.5C 429.333,302.833 429.667,299.167 430,295.5C 431.917,290.999 433.251,286.332 434,281.5C 434.333,267.5 434.667,253.5 435,239.5C 436.34,235.49 437.673,231.49 439,227.5C 439.333,217.167 439.667,206.833 440,196.5C 442.166,194.879 444.666,194.045 447.5,194C 449.677,190.263 453.01,188.263 457.5,188C 461.09,185.386 464.424,182.552 467.5,179.5C 468.167,179.5 468.833,179.5 469.5,179.5C 471.485,163.534 472.152,147.201 471.5,130.5 Z"/></g>
<g><path style="opacity:1" fill="#86f9fd" d="M 146.5,247.5 C 145.833,247.167 145.167,246.833 144.5,246.5C 144.586,245.504 144.252,244.671 143.5,244C 141.238,242.953 139.071,241.787 137,240.5C 135.347,240.82 134.347,241.82 134,243.5C 134.562,248.557 132.896,252.557 129,255.5C 128.667,260.833 128.333,266.167 128,271.5C 127.363,273.303 126.197,274.636 124.5,275.5C 123.833,281.319 123.167,286.986 122.5,292.5C 122.334,286.158 122.5,279.825 123,273.5C 124.011,272.663 125.178,272.33 126.5,272.5C 126.644,267.633 126.31,263.133 125.5,259C 126.446,255.769 128.28,253.269 131,251.5C 131.515,247.423 132.349,243.423 133.5,239.5C 134.869,237.876 136.536,237.376 138.5,238C 140.409,240.413 142.743,242.247 145.5,243.5C 146.246,244.736 146.579,246.07 146.5,247.5 Z"/></g>
<g><path style="opacity:1" fill="#84f9fd" d="M 122.5,292.5 C 121.367,295.971 119.033,297.971 115.5,298.5C 115.666,292.824 115.499,287.157 115,281.5C 113.418,280.04 112.085,278.373 111,276.5C 110.667,271.833 110.333,267.167 110,262.5C 108.629,260.959 107.129,259.625 105.5,258.5C 103.603,254.087 101.436,253.754 99,257.5C 98.6667,261.833 98.3333,266.167 98,270.5C 96.418,271.96 95.0847,273.627 94,275.5C 93.8247,280.019 93.3247,284.353 92.5,288.5C 92.3341,283.489 92.5007,278.489 93,273.5C 93.6891,272.643 94.5224,271.977 95.5,271.5C 96.4646,265.856 97.2979,260.189 98,254.5C 99.1939,253.57 100.527,252.903 102,252.5C 104.806,255.152 107.806,257.485 111,259.5C 111.909,265.486 112.743,271.486 113.5,277.5C 114.167,277.833 114.833,278.167 115.5,278.5C 116.495,283.792 116.828,289.125 116.5,294.5C 118.685,294.296 120.685,293.63 122.5,292.5 Z"/></g>
<g><path style="opacity:1" fill="#48f1f8" d="M 144.5,246.5 C 145.167,246.833 145.833,247.167 146.5,247.5C 149.023,248.254 151.689,248.92 154.5,249.5C 155.167,250.5 155.833,251.5 156.5,252.5C 162.249,254.878 167.583,258.045 172.5,262C 174.5,262.667 176.5,263.333 178.5,264C 180.037,265.11 180.703,266.61 180.5,268.5C 184.162,268.034 187.495,268.701 190.5,270.5C 190.33,271.822 190.663,272.989 191.5,274C 195.833,275.182 199.833,277.015 203.5,279.5C 204.127,280.417 204.461,281.417 204.5,282.5C 201.303,281.404 198.637,279.571 196.5,277C 192.381,276.572 189.381,274.572 187.5,271C 183.179,271.433 179.846,269.933 177.5,266.5C 171.583,264.437 166.25,261.271 161.5,257C 157.341,256.628 154.341,254.628 152.5,251C 150.167,250.667 147.833,250.333 145.5,250C 144.663,248.989 144.33,247.822 144.5,246.5 Z"/></g>
<g><path style="opacity:1" fill="#80f8fd" d="M 62.5,197.5 C 65.5448,197.508 68.5448,197.841 71.5,198.5C 71.3334,212.504 71.5001,226.504 72,240.5C 72.3376,246.355 73.5043,252.022 75.5,257.5C 76.3331,281.826 76.8331,306.16 77,330.5C 77.7083,329.619 78.5416,328.953 79.5,328.5C 78.6076,333.438 78.2743,338.438 78.5,343.5C 77.5,343.5 76.5,343.5 75.5,343.5C 75.6666,317.831 75.5,292.165 75,266.5C 72.505,258.357 71.1717,250.024 71,241.5C 70.6667,228.167 70.3333,214.833 70,201.5C 69.6924,200.692 69.1924,200.025 68.5,199.5C 66.3432,198.95 64.3432,198.283 62.5,197.5 Z"/></g>
<g><path style="opacity:1" fill="#75f7fc" d="M 190.5,270.5 C 193.189,272.11 196.189,272.943 199.5,273C 200.167,274.333 200.833,275.667 201.5,277C 205.459,276.791 207.126,278.625 206.5,282.5C 205.833,282.5 205.167,282.5 204.5,282.5C 204.461,281.417 204.127,280.417 203.5,279.5C 199.833,277.015 195.833,275.182 191.5,274C 190.663,272.989 190.33,271.822 190.5,270.5 Z"/></g>
<g><path style="opacity:1" fill="#1eebf3" d="M 29.5,177.5 C 31.8333,179.5 34.1667,181.5 36.5,183.5C 39.6823,186.34 43.349,188.34 47.5,189.5C 47.3832,191.484 48.0499,193.15 49.5,194.5C 52.1071,195.318 54.7737,195.818 57.5,196C 60.3601,198.554 63.6935,200.221 67.5,201C 68.1258,201.75 68.6258,202.584 69,203.5C 69.3333,218.833 69.6667,234.167 70,249.5C 70.084,255.017 71.084,260.351 73,265.5C 73.1668,291.84 73.6668,318.173 74.5,344.5C 77.1571,346.114 78.9905,345.448 80,342.5C 80.3333,338.833 80.6667,335.167 81,331.5C 82.7398,330.284 83.7398,328.618 84,326.5C 84.3333,321.5 84.6667,316.5 85,311.5C 86.6667,310.5 88.3333,309.5 90,308.5C 89.7487,301.796 91.0821,295.463 94,289.5C 94.3333,285.167 94.6667,280.833 95,276.5C 95.4224,274.574 96.5891,273.574 98.5,273.5C 96.9802,280.663 95.9802,287.996 95.5,295.5C 93.6969,296.137 92.3636,297.303 91.5,299C 92.6219,302.409 92.7886,305.909 92,309.5C 91.3005,311.032 90.1338,312.032 88.5,312.5C 87.6705,317.802 87.1705,323.136 87,328.5C 86.4115,330.863 84.9115,331.863 82.5,331.5C 82.8507,337.262 82.3507,342.928 81,348.5C 76.5943,351.752 73.5943,350.752 72,345.5C 71.183,323.636 71.3496,301.803 72.5,280C 72.1154,276.272 70.6154,273.106 68,270.5C 66.7229,263.271 66.5562,255.771 67.5,248C 66.6916,233.866 66.1916,219.699 66,205.5C 63.7724,202.922 60.9391,201.589 57.5,201.5C 57.67,200.178 57.3366,199.011 56.5,198C 53.4869,197.498 50.4869,196.998 47.5,196.5C 47.7035,194.61 47.0368,193.11 45.5,192C 41.2824,193.225 38.2824,191.725 36.5,187.5C 35.2638,186.754 33.9305,186.421 32.5,186.5C 32.6308,183.633 31.2974,181.967 28.5,181.5C 27.6618,181.158 27.3284,180.492 27.5,179.5C 27.8333,178.5 28.5,177.833 29.5,177.5 Z"/></g>
<g><path style="opacity:1" fill="#4df2f9" d="M 144.5,246.5 C 142.804,246.315 141.471,245.481 140.5,244C 138.866,243.506 137.199,243.34 135.5,243.5C 136.479,249.139 134.979,253.806 131,257.5C 130.667,262.833 130.333,268.167 130,273.5C 128,274.167 126.667,275.5 126,277.5C 127.151,286.462 124.651,293.962 118.5,300C 116.633,300.711 115.133,300.211 114,298.5C 113.667,293.833 113.333,289.167 113,284.5C 112.163,282.156 110.829,280.156 109,278.5C 108.667,273.167 108.333,267.833 108,262.5C 106.519,261.529 105.685,260.196 105.5,258.5C 107.129,259.625 108.629,260.959 110,262.5C 110.333,267.167 110.667,271.833 111,276.5C 112.085,278.373 113.418,280.04 115,281.5C 115.499,287.157 115.666,292.824 115.5,298.5C 119.033,297.971 121.367,295.971 122.5,292.5C 123.167,286.986 123.833,281.319 124.5,275.5C 126.197,274.636 127.363,273.303 128,271.5C 128.333,266.167 128.667,260.833 129,255.5C 132.896,252.557 134.562,248.557 134,243.5C 134.347,241.82 135.347,240.82 137,240.5C 139.071,241.787 141.238,242.953 143.5,244C 144.252,244.671 144.586,245.504 144.5,246.5 Z"/></g>
<g><path style="opacity:1" fill="#32eef5" d="M 467.5,179.5 C 464.424,182.552 461.09,185.386 457.5,188C 453.01,188.263 449.677,190.263 447.5,194C 444.666,194.045 442.166,194.879 440,196.5C 439.667,206.833 439.333,217.167 439,227.5C 437.673,231.49 436.34,235.49 435,239.5C 434.667,253.5 434.333,267.5 434,281.5C 433.251,286.332 431.917,290.999 430,295.5C 429.667,299.167 429.333,302.833 429,306.5C 428.131,309.763 426.797,310.096 425,307.5C 424.667,297.167 424.333,286.833 424,276.5C 422.287,275.122 420.953,273.455 420,271.5C 419.667,261.833 419.333,252.167 419,242.5C 417.667,240.5 416.333,238.5 415,236.5C 414.825,232.789 414.325,229.122 413.5,225.5C 411.175,222.7 409.508,219.533 408.5,216C 403.267,217.735 398.767,220.902 395,225.5C 395.484,231.321 393.817,236.321 390,240.5C 389.667,247.167 389.333,253.833 389,260.5C 388.047,262.455 386.713,264.122 385,265.5C 385.093,268.956 384.093,271.956 382,274.5C 379.65,272.317 377.483,269.984 375.5,267.5C 374.715,257.527 374.215,247.527 374,237.5C 373.333,236.833 372.667,236.167 372,235.5C 368.28,237.767 365.113,240.6 362.5,244C 360.167,244.333 357.833,244.667 355.5,245C 354.62,246.356 354.286,247.856 354.5,249.5C 351.482,249.335 348.482,249.502 345.5,250C 344.62,251.356 344.286,252.856 344.5,254.5C 340.195,256.9 335.528,258.733 330.5,260C 329.62,261.356 329.286,262.856 329.5,264.5C 326.167,264.5 322.833,264.5 319.5,264.5C 319.5,266.167 319.5,267.833 319.5,269.5C 317.473,269.338 315.473,269.505 313.5,270C 309.433,272.361 305.767,275.194 302.5,278.5C 300.224,279.213 297.891,279.713 295.5,280C 294.91,281.509 294.244,283.009 293.5,284.5C 290.891,285.23 288.224,285.73 285.5,286C 280.983,289.859 275.983,292.859 270.5,295C 268.085,299.128 264.419,300.628 259.5,299.5C 259.923,301.781 259.256,303.448 257.5,304.5C 251.682,305.651 246.015,305.651 240.5,304.5C 248.41,305.585 255.077,303.418 260.5,298C 262.9,297.814 265.234,297.314 267.5,296.5C 271.809,292.38 276.809,289.213 282.5,287C 284.647,283.253 287.98,281.419 292.5,281.5C 294.494,278.15 297.494,276.65 301.5,277C 306.11,271.798 311.443,268.298 317.5,266.5C 317.919,265.328 318.585,264.328 319.5,263.5C 324.104,263.365 327.77,261.532 330.5,258C 336.319,255.922 341.319,252.589 345.5,248C 347.9,247.814 350.234,247.314 352.5,246.5C 354.846,243.067 358.179,241.567 362.5,242C 364.634,239.114 366.968,236.447 369.5,234C 371.441,233.257 373.274,233.424 375,234.5C 376.26,244.761 376.927,255.094 377,265.5C 378.337,268.173 380.171,270.007 382.5,271C 381.818,266.834 383.318,263.334 387,260.5C 387.333,253.833 387.667,247.167 388,240.5C 388.518,237.977 389.852,235.977 392,234.5C 391.118,228.005 393.285,222.838 398.5,219C 401.846,217.436 404.679,215.269 407,212.5C 408,213.167 409,213.833 410,214.5C 411.565,218.4 413.565,222.066 416,225.5C 416.333,229.167 416.667,232.833 417,236.5C 418.713,237.878 420.047,239.545 421,241.5C 421.333,251.5 421.667,261.5 422,271.5C 423.713,272.878 425.047,274.545 426,276.5C 426.333,285.833 426.667,295.167 427,304.5C 426.887,296.741 428.554,289.075 432,281.5C 432.333,267.5 432.667,253.5 433,239.5C 433.326,234.854 434.66,230.521 437,226.5C 437.333,216.167 437.667,205.833 438,195.5C 438.5,194.333 439.333,193.5 440.5,193C 442.833,192.667 445.167,192.333 447.5,192C 448.874,188.317 451.541,186.651 455.5,187C 459.092,184.287 462.592,181.453 466,178.5C 466.383,179.056 466.883,179.389 467.5,179.5 Z"/></g>
<g><path style="opacity:1" fill="#19eaf3" d="M 144.5,246.5 C 144.33,247.822 144.663,248.989 145.5,250C 147.833,250.333 150.167,250.667 152.5,251C 154.341,254.628 157.341,256.628 161.5,257C 166.25,261.271 171.583,264.437 177.5,266.5C 179.846,269.933 183.179,271.433 187.5,271C 189.381,274.572 192.381,276.572 196.5,277C 198.637,279.571 201.303,281.404 204.5,282.5C 204.414,283.496 204.748,284.329 205.5,285C 207.833,285.333 210.167,285.667 212.5,286C 214.579,289.901 217.913,291.567 222.5,291C 223.257,292.512 224.257,293.846 225.5,295C 229.029,297.843 233.029,299.843 237.5,301C 238.71,302.039 239.71,303.206 240.5,304.5C 246.015,305.651 251.682,305.651 257.5,304.5C 255.064,305.871 252.397,306.871 249.5,307.5C 246.15,307.665 242.817,307.498 239.5,307C 238.228,305.693 237.228,304.193 236.5,302.5C 234.194,302.354 231.861,302.021 229.5,301.5C 228.05,300.15 227.383,298.484 227.5,296.5C 226.127,296.657 224.793,296.49 223.5,296C 222.667,293.833 221.167,292.333 219,291.5C 217.204,292.767 215.371,292.767 213.5,291.5C 212.015,286.844 209.015,285.344 204.5,287C 202.826,282.989 199.826,280.989 195.5,281C 193.544,278.19 190.877,276.69 187.5,276.5C 187.67,275.178 187.337,274.011 186.5,273C 183.776,272.73 181.109,272.23 178.5,271.5C 177.781,269.483 176.614,267.817 175,266.5C 170.866,268.017 168.033,266.684 166.5,262.5C 162.07,260.581 157.737,258.415 153.5,256C 152.743,254.488 151.743,253.154 150.5,252C 145.966,253.614 142.966,252.114 141.5,247.5C 140.311,246.571 138.978,246.238 137.5,246.5C 138.481,251.811 136.981,256.145 133,259.5C 132.667,264.5 132.333,269.5 132,274.5C 130.903,276.053 129.57,277.386 128,278.5C 127.667,283.833 127.333,289.167 127,294.5C 125.823,296.176 124.323,297.509 122.5,298.5C 121.046,304.148 117.879,305.481 113,302.5C 111.814,296.915 111.148,291.249 111,285.5C 110,284.833 109,284.167 108,283.5C 106.804,277.581 106.138,271.581 106,265.5C 104.981,264.313 103.814,263.313 102.5,262.5C 101.833,265.833 101.167,269.167 100.5,272.5C 99.8165,272.863 99.1499,273.196 98.5,273.5C 99.2212,267.85 99.8878,262.183 100.5,256.5C 102.322,256.831 103.989,257.498 105.5,258.5C 105.685,260.196 106.519,261.529 108,262.5C 108.333,267.833 108.667,273.167 109,278.5C 110.829,280.156 112.163,282.156 113,284.5C 113.333,289.167 113.667,293.833 114,298.5C 115.133,300.211 116.633,300.711 118.5,300C 124.651,293.962 127.151,286.462 126,277.5C 126.667,275.5 128,274.167 130,273.5C 130.333,268.167 130.667,262.833 131,257.5C 134.979,253.806 136.479,249.139 135.5,243.5C 137.199,243.34 138.866,243.506 140.5,244C 141.471,245.481 142.804,246.315 144.5,246.5 Z"/></g>
<g><path style="opacity:1" fill="#56f4fa" d="M 36.5,183.5 C 40.5783,185.057 44.5783,186.89 48.5,189C 49.2567,190.512 50.2567,191.846 51.5,193C 56.0659,192.647 59.7326,194.147 62.5,197.5C 64.3432,198.283 66.3432,198.95 68.5,199.5C 69.1924,200.025 69.6924,200.692 70,201.5C 70.3333,214.833 70.6667,228.167 71,241.5C 71.1717,250.024 72.505,258.357 75,266.5C 75.5,292.165 75.6666,317.831 75.5,343.5C 76.5,343.5 77.5,343.5 78.5,343.5C 78.2743,338.438 78.6076,333.438 79.5,328.5C 80.7942,327.71 81.9609,326.71 83,325.5C 83.3333,320.5 83.6667,315.5 84,310.5C 85.3333,309.167 86.6667,307.833 88,306.5C 88.3333,302.5 88.6667,298.5 89,294.5C 90.0222,292.336 91.1889,290.336 92.5,288.5C 93.3247,284.353 93.8247,280.019 94,275.5C 95.0847,273.627 96.418,271.96 98,270.5C 98.3333,266.167 98.6667,261.833 99,257.5C 101.436,253.754 103.603,254.087 105.5,258.5C 103.989,257.498 102.322,256.831 100.5,256.5C 99.8878,262.183 99.2212,267.85 98.5,273.5C 96.5891,273.574 95.4224,274.574 95,276.5C 94.6667,280.833 94.3333,285.167 94,289.5C 91.0821,295.463 89.7487,301.796 90,308.5C 88.3333,309.5 86.6667,310.5 85,311.5C 84.6667,316.5 84.3333,321.5 84,326.5C 83.7398,328.618 82.7398,330.284 81,331.5C 80.6667,335.167 80.3333,338.833 80,342.5C 78.9905,345.448 77.1571,346.114 74.5,344.5C 73.6668,318.173 73.1668,291.84 73,265.5C 71.084,260.351 70.084,255.017 70,249.5C 69.6667,234.167 69.3333,218.833 69,203.5C 68.6258,202.584 68.1258,201.75 67.5,201C 63.6935,200.221 60.3601,198.554 57.5,196C 54.7737,195.818 52.1071,195.318 49.5,194.5C 48.0499,193.15 47.3832,191.484 47.5,189.5C 43.349,188.34 39.6823,186.34 36.5,183.5 Z"/></g>
<g><path style="opacity:1" fill="#87f9fd" d="M 92.5,288.5 C 91.1889,290.336 90.0222,292.336 89,294.5C 88.6667,298.5 88.3333,302.5 88,306.5C 86.6667,307.833 85.3333,309.167 84,310.5C 83.6667,315.5 83.3333,320.5 83,325.5C 81.9609,326.71 80.7942,327.71 79.5,328.5C 80.9879,321.926 82.1546,315.259 83,308.5C 84.0113,307.663 85.1779,307.33 86.5,307.5C 86.4054,302.113 86.9054,296.78 88,291.5C 89.2708,290.117 90.7708,289.117 92.5,288.5 Z"/></g>
<g><path style="opacity:0.086" fill="#acf4f6" d="M 73.5,399.5 C 73.5,399.833 73.5,400.167 73.5,400.5C 72.609,401.11 71.609,401.443 70.5,401.5C 70.1667,401.5 69.8333,401.5 69.5,401.5C 68.8333,400.167 68.1667,398.833 67.5,397.5C 70.2421,395.97 72.2421,396.636 73.5,399.5 Z"/></g>
<g><path style="opacity:0.153" fill="#aff4f7" d="M 431.5,397.5 C 431.23,402.282 428.897,403.615 424.5,401.5C 425.657,399.862 426.824,398.196 428,396.5C 429.145,396.619 430.312,396.952 431.5,397.5 Z"/></g>
<g><path style="opacity:0.024" fill="#8becef" d="M 69.5,401.5 C 68.8333,402.167 68.8333,402.167 69.5,401.5 Z"/></g>
<g><path style="opacity:0.133" fill="#2ee2ea" d="M 241.5,497.5 C 240.391,497.443 239.391,497.11 238.5,496.5C 238.5,495.833 238.167,495.5 237.5,495.5C 237.586,494.504 237.252,493.671 236.5,493C 234.934,492.235 233.601,492.402 232.5,493.5C 231.279,492.972 230.113,492.305 229,491.5C 228.667,491.833 228.333,492.167 228,492.5C 227.727,490.671 226.893,489.171 225.5,488C 222.854,487.503 220.187,487.336 217.5,487.5C 217.714,485.856 217.38,484.356 216.5,483C 213.833,482.667 211.167,482.333 208.5,482C 208.043,479.044 206.377,477.211 203.5,476.5C 202.517,473.013 200.183,471.68 196.5,472.5C 193.459,472.594 191.793,471.094 191.5,468C 188.833,467.667 186.167,467.333 183.5,467C 182.833,465.667 182.167,464.333 181.5,463C 178.833,462.667 176.167,462.333 173.5,462C 172.9,458.564 170.9,456.731 167.5,456.5C 168.501,455.211 168.334,453.878 167,452.5C 165.708,451.209 164.542,451.209 163.5,452.5C 159.518,453.422 157.184,451.922 156.5,448C 153.518,447.502 150.518,447.335 147.5,447.5C 147.714,445.856 147.38,444.356 146.5,443C 143.325,443.053 140.658,442.22 138.5,440.5C 139.648,441.895 140.648,441.728 141.5,440C 140.012,437.912 138.345,437.078 136.5,437.5C 135.194,437.121 133.861,436.788 132.5,436.5C 131.738,435.372 131.071,434.205 130.5,433C 127.854,432.503 125.187,432.336 122.5,432.5C 122.714,430.856 122.38,429.356 121.5,428C 119.527,427.505 117.527,427.338 115.5,427.5C 114.71,426.599 113.71,425.932 112.5,425.5C 112.262,423.596 111.262,422.262 109.5,421.5C 108.833,421.167 108.167,420.833 107.5,420.5C 107.586,419.504 107.252,418.671 106.5,418C 104.866,417.506 103.199,417.34 101.5,417.5C 100.312,416.316 99.1455,416.316 98,417.5C 97.7266,415.899 97.2266,414.399 96.5,413C 93.5184,412.502 90.5184,412.335 87.5,412.5C 87.7135,410.856 87.3802,409.356 86.5,408C 83.8333,407.667 81.1667,407.333 78.5,407C 77.8333,405.667 77.1667,404.333 76.5,403C 74.5347,402.18 72.5347,401.68 70.5,401.5C 71.609,401.443 72.609,401.11 73.5,400.5C 74.8333,400.5 76.1667,400.5 77.5,400.5C 77.3505,399.448 77.5172,398.448 78,397.5C 78.6667,398.833 79.3333,400.167 80,401.5C 80.7175,400.549 81.5509,400.383 82.5,401C 84.5031,402.334 86.0031,403.834 87,405.5C 87.3333,404.5 87.6667,403.5 88,402.5C 88.4652,403.931 89.2986,405.097 90.5,406C 88.4172,407.32 88.7506,408.654 91.5,410C 94.5282,411.14 96.6949,410.306 98,407.5C 98.4652,408.931 99.2986,410.097 100.5,411C 99.8333,411.333 99.1667,411.667 98.5,412C 101.272,412.526 103.938,413.359 106.5,414.5C 107.996,416.833 109.83,418.833 112,420.5C 112.333,419.5 112.667,418.5 113,417.5C 113.359,420.544 114.026,420.878 115,418.5C 115.11,420.848 116.277,422.348 118.5,423C 118.167,423.333 117.833,423.667 117.5,424C 120.354,426.266 122.187,425.766 123,422.5C 123.465,423.931 124.299,425.097 125.5,426C 124.833,426.333 124.167,426.667 123.5,427C 125.129,427.585 126.629,428.419 128,429.5C 129.82,429.308 131.653,429.141 133.5,429C 133.965,431.183 135.132,433.35 137,435.5C 137.388,434.572 138.055,433.905 139,433.5C 140.15,434.424 141.15,434.424 142,433.5C 142.36,435.421 143.194,437.088 144.5,438.5C 144.023,439.478 143.357,440.311 142.5,441C 145.876,440.816 148.543,441.983 150.5,444.5C 153.78,446.283 156.28,445.617 158,442.5C 158.465,443.931 159.299,445.097 160.5,446C 159.833,446.333 159.167,446.667 158.5,447C 160.291,447.415 161.624,448.415 162.5,450C 163.873,449.121 165.873,448.788 168.5,449C 168.965,451.183 170.132,453.35 172,455.5C 172.333,454.5 172.667,453.5 173,452.5C 173.667,453.833 174.333,455.167 175,456.5C 175.718,455.549 176.551,455.383 177.5,456C 179.243,457.11 180.576,458.61 181.5,460.5C 182.251,459.624 182.751,458.624 183,457.5C 185.394,459.737 187.228,462.404 188.5,465.5C 189.086,465.291 189.586,464.957 190,464.5C 191.746,466.457 193.912,467.457 196.5,467.5C 196.351,468.552 196.517,469.552 197,470.5C 197.519,469.484 198.353,468.818 199.5,468.5C 202.805,469.972 205.305,472.305 207,475.5C 207.333,474.5 207.667,473.5 208,472.5C 208.667,473.833 209.333,475.167 210,476.5C 210.414,476.043 210.914,475.709 211.5,475.5C 212.524,476.853 213.857,477.52 215.5,477.5C 215.281,478.675 215.614,479.675 216.5,480.5C 217.774,478.15 219.107,478.317 220.5,481C 218.068,482.087 218.402,482.587 221.5,482.5C 221.5,483.5 221.5,484.5 221.5,485.5C 223.541,485.854 225.374,485.854 227,485.5C 230.117,487.284 233.45,488.617 237,489.5C 238.557,488.795 239.723,489.461 240.5,491.5C 239.332,492.906 239.665,494.072 241.5,495C 240.402,495.77 240.402,496.603 241.5,497.5 Z"/></g>
<g><path style="opacity:0.051" fill="#68e7ed" d="M 403.5,412.5 C 402.833,413.833 402.167,415.167 401.5,416.5C 399.486,416.392 397.82,417.058 396.5,418.5C 395.45,418.095 395.45,417.429 396.5,416.5C 399.327,415.672 401.493,414.006 403,411.5C 403.399,411.728 403.565,412.062 403.5,412.5 Z"/></g>
<g><path style="opacity:0.024" fill="#8becef" d="M 401.5,416.5 C 402.833,417.167 402.833,417.167 401.5,416.5 Z"/></g>
<g><path style="opacity:0.192" fill="#bdf8fa" d="M 101.5,417.5 C 103.199,417.34 104.866,417.506 106.5,418C 107.252,418.671 107.586,419.504 107.5,420.5C 105.833,419.833 104.167,419.167 102.5,418.5C 101.833,418.5 101.5,418.167 101.5,417.5 Z"/></g>
<g><path style="opacity:0.024" fill="#91edf1" d="M 102.5,418.5 C 104.167,419.167 105.833,419.833 107.5,420.5C 108.167,420.833 108.833,421.167 109.5,421.5C 106.06,423.334 103.727,422.334 102.5,418.5 Z"/></g>
<g><path style="opacity:0.024" fill="#82ebef" d="M 396.5,419.5 C 396.306,421.912 394.973,422.912 392.5,422.5C 393.262,420.738 394.596,419.738 396.5,419.5 Z"/></g>
<g><path style="opacity:0.024" fill="#8becef" d="M 112.5,425.5 C 113.71,425.932 114.71,426.599 115.5,427.5C 113.821,427.715 112.821,427.048 112.5,425.5 Z"/></g>
<g><path style="opacity:0.051" fill="#baf6f8" d="M 371.5,432.5 C 371.446,434.632 370.446,435.965 368.5,436.5C 367.833,436.167 367.167,435.833 366.5,435.5C 366.472,431.516 368.139,430.516 371.5,432.5 Z"/></g>
<g><path style="opacity:0.306" fill="#2ae2e9" d="M 387.5,422.5 C 386.933,424.03 386.267,425.53 385.5,427C 382.833,427.333 380.167,427.667 377.5,428C 376.773,429.399 376.273,430.899 376,432.5C 374.701,432.034 373.201,432.034 371.5,432.5C 368.139,430.516 366.472,431.516 366.5,435.5C 364.973,435.427 363.973,436.094 363.5,437.5C 362.053,438.622 361.053,440.122 360.5,442C 357.833,442.333 355.167,442.667 352.5,443C 351.445,447.046 348.779,448.546 344.5,447.5C 343.811,446.226 342.977,446.226 342,447.5C 341.51,448.793 341.343,450.127 341.5,451.5C 339.883,452.038 338.216,452.371 336.5,452.5C 333.808,454.206 331.141,455.872 328.5,457.5C 327.053,458.622 326.053,460.122 325.5,462C 322.833,462.333 320.167,462.667 317.5,463C 317.074,466.592 315.074,468.092 311.5,467.5C 310.399,466.402 309.066,466.235 307.5,467C 306.778,468.751 305.778,470.251 304.5,471.5C 303.306,472.272 302.306,473.272 301.5,474.5C 299.596,474.738 298.262,475.738 297.5,477.5C 293.518,476.578 291.184,478.078 290.5,482C 287.833,482.333 285.167,482.667 282.5,483C 281.77,486.198 279.77,487.698 276.5,487.5C 274.011,487.241 272.344,488.241 271.5,490.5C 270.508,490.328 269.842,490.662 269.5,491.5C 267.366,492.703 266.032,494.537 265.5,497C 262.833,497.333 260.167,497.667 257.5,498C 256.944,498.383 256.611,498.883 256.5,499.5C 256.167,499.5 255.833,499.5 255.5,499.5C 255.489,497.983 254.823,496.816 253.5,496C 257.138,496.672 260.805,496.505 264.5,495.5C 265.902,494.158 265.569,493.324 263.5,493C 264.833,492.333 264.833,491.667 263.5,491C 266.167,490.333 266.167,489.667 263.5,489C 264.784,488.316 265.951,488.483 267,489.5C 268.086,487.202 269.586,485.202 271.5,483.5C 273.909,482.278 275.742,482.945 277,485.5C 276.333,482.406 277.333,479.74 280,477.5C 282.187,480.656 284.687,481.323 287.5,479.5C 286.5,478.833 285.5,478.167 284.5,477.5C 285.277,475.461 286.443,474.795 288,475.5C 288.419,474.328 289.085,473.328 290,472.5C 291.019,473.687 292.186,474.687 293.5,475.5C 294.696,475.154 294.696,474.654 293.5,474C 295.609,472.859 297.442,471.359 299,469.5C 299.333,469.833 299.667,470.167 300,470.5C 300.667,467.833 301.333,467.833 302,470.5C 302.309,469.234 302.809,468.067 303.5,467C 303.167,466.667 302.833,466.333 302.5,466C 306.029,461.845 309.196,461.678 312,465.5C 312.5,463.667 313.667,462.5 315.5,462C 314.833,461.667 314.167,461.333 313.5,461C 314.667,460.5 315.5,459.667 316,458.5C 319.333,461.346 322.166,460.846 324.5,457C 324.167,456.667 323.833,456.333 323.5,456C 324.667,455.5 325.5,454.667 326,453.5C 326.333,453.833 326.667,454.167 327,454.5C 328.418,449.45 331.251,448.283 335.5,451C 334.833,449.667 333.833,448.667 332.5,448C 333.784,447.316 334.951,447.483 336,448.5C 336.93,446.448 338.43,444.948 340.5,444C 340.167,443.667 339.833,443.333 339.5,443C 340.777,442.873 341.943,443.373 343,444.5C 344.649,443.102 345.982,443.436 347,445.5C 348.629,443.088 349.962,440.754 351,438.5C 353.409,441.167 354.576,441.001 354.5,438C 357.547,438.358 359.714,436.858 361,433.5C 361.333,434.167 361.667,434.833 362,435.5C 362.878,432.785 364.378,430.451 366.5,428.5C 368.909,427.278 370.742,427.945 372,430.5C 373.554,428.031 374.887,425.697 376,423.5C 377.808,425.396 379.975,425.896 382.5,425C 382.167,424.667 381.833,424.333 381.5,424C 383.345,422.872 385.345,422.372 387.5,422.5 Z"/></g>
<g><path style="opacity:0.024" fill="#8cecf0" d="M 366.5,435.5 C 367.167,435.833 367.833,436.167 368.5,436.5C 367.081,437.451 365.415,437.784 363.5,437.5C 363.973,436.094 364.973,435.427 366.5,435.5 Z"/></g>
<g><path style="opacity:0.114" fill="#b3f4f7" d="M 138.5,440.5 C 137.599,439.71 136.932,438.71 136.5,437.5C 138.345,437.078 140.012,437.912 141.5,440C 140.648,441.728 139.648,441.895 138.5,440.5 Z"/></g>
<g><path style="opacity:0.024" fill="#94eef1" d="M 344.5,447.5 C 343.143,448.59 342.143,449.924 341.5,451.5C 341.343,450.127 341.51,448.793 342,447.5C 342.977,446.226 343.811,446.226 344.5,447.5 Z"/></g>
<g><path style="opacity:0.051" fill="#aff3f6" d="M 163.5,452.5 C 164.542,451.209 165.708,451.209 167,452.5C 168.334,453.878 168.501,455.211 167.5,456.5C 166.717,454.672 165.384,453.339 163.5,452.5 Z"/></g>
<g><path style="opacity:0.024" fill="#95eef2" d="M 336.5,452.5 C 336.567,453.959 336.234,455.292 335.5,456.5C 333.283,457.369 330.95,457.702 328.5,457.5C 331.141,455.872 333.808,454.206 336.5,452.5 Z"/></g>
<g><path style="opacity:0.024" fill="#8becef" d="M 335.5,456.5 C 336.833,457.167 336.833,457.167 335.5,456.5 Z"/></g>
<g><path style="opacity:0.051" fill="#b0f4f6" d="M 311.5,467.5 C 310.199,468.882 309.366,470.548 309,472.5C 307.571,472.53 306.071,472.197 304.5,471.5C 305.778,470.251 306.778,468.751 307.5,467C 309.066,466.235 310.399,466.402 311.5,467.5 Z"/></g>
<g><path style="opacity:0.051" fill="#b1f4f6" d="M 196.5,472.5 C 200.183,471.68 202.517,473.013 203.5,476.5C 202.399,477.598 201.066,477.765 199.5,477C 198.614,475.385 197.614,473.885 196.5,472.5 Z"/></g>
<g><path style="opacity:0.024" fill="#82ebef" d="M 301.5,474.5 C 301.306,476.912 299.973,477.912 297.5,477.5C 298.262,475.738 299.596,474.738 301.5,474.5 Z"/></g>
<g><path style="opacity:0.051" fill="#bbf6f8" d="M 276.5,487.5 C 276.34,489.153 275.674,490.486 274.5,491.5C 273.391,491.443 272.391,491.11 271.5,490.5C 272.344,488.241 274.011,487.241 276.5,487.5 Z"/></g>
<g><path style="opacity:0.024" fill="#8cecf0" d="M 271.5,490.5 C 272.391,491.11 273.391,491.443 274.5,491.5C 272.833,492.833 271.167,492.833 269.5,491.5C 269.842,490.662 270.508,490.328 271.5,490.5 Z"/></g>
<g><path style="opacity:0.153" fill="#c0f9fa" d="M 232.5,493.5 C 233.601,492.402 234.934,492.235 236.5,493C 237.252,493.671 237.586,494.504 237.5,495.5C 235.833,494.833 234.167,494.167 232.5,493.5 Z"/></g>
<g><path style="opacity:0.024" fill="#92edf1" d="M 232.5,493.5 C 234.167,494.167 235.833,494.833 237.5,495.5C 238.167,495.5 238.5,495.833 238.5,496.5C 237.021,497.148 235.521,497.481 234,497.5C 233.59,496.099 233.09,494.766 232.5,493.5 Z"/></g>
</svg>
