<?xml version="1.0" standalone="no"?>
<!DOCTYPE svg PUBLIC "-//W3C//DTD SVG 20010904//EN"
 "http://www.w3.org/TR/2001/REC-SVG-20010904/DTD/svg10.dtd">
<svg version="1.0" xmlns="http://www.w3.org/2000/svg"
 width="500.000000pt" height="500.000000pt" viewBox="0 0 500.000000 500.000000"
 preserveAspectRatio="xMidYMid meet">

<g transform="translate(0.000000,500.000000) scale(0.100000,-0.100000)"
fill="#000000" stroke="none">
<path d="M2290 4964 c-19 -3 -84 -11 -145 -20 -897 -124 -1671 -759 -1974
-1619 -267 -754 -154 -1580 304 -2240 506 -727 1384 -1132 2266 -1045 575 57
1141 331 1535 742 432 452 671 1016 691 1634 18 549 -130 1049 -442 1499 -387
555 -982 924 -1665 1030 -101 16 -489 29 -570 19z m-380 -1849 l0 -495 590 0
590 0 0 495 0 495 110 0 110 0 0 -495 0 -495 815 0 815 0 0 -185 0 -185 -815
0 -815 0 0 -535 0 -535 -110 0 -110 0 0 535 0 535 -590 0 -590 0 0 -535 0
-535 -110 0 -110 0 0 535 0 535 -815 0 -815 0 0 185 0 185 815 0 815 0 0 495
0 495 110 0 110 0 0 -495z"/>
<path d="M720 2440 l0 -140 35 0 35 0 0 55 0 55 40 0 40 0 0 -55 0 -55 35 0
35 0 0 140 0 140 -35 0 -35 0 0 -55 0 -55 -40 0 -40 0 0 55 0 55 -35 0 -35 0
0 -140z"/>
<path d="M1300 2440 l0 -140 96 0 95 0 -3 33 c-3 32 -4 32 -60 35 -50 3 -58 6
-58 22 0 17 7 20 55 20 l55 0 0 35 0 35 -55 0 c-48 0 -55 2 -55 20 0 18 7 20
60 20 l60 0 0 30 0 30 -95 0 -95 0 0 -140z"/>
<path d="M1836 2568 c4 -7 25 -38 47 -69 l39 -57 -39 -58 c-60 -89 -59 -84
-16 -84 34 0 41 5 63 40 14 22 27 40 31 40 3 0 15 -18 28 -40 20 -36 26 -40
62 -40 45 0 46 -5 -14 83 l-39 59 46 69 46 69 -39 0 c-34 0 -42 -5 -61 -35
-12 -19 -25 -35 -30 -35 -4 0 -18 16 -31 35 -20 30 -30 35 -62 35 -28 0 -36
-3 -31 -12z"/>
<path d="M2477 2569 c-11 -6 -25 -26 -33 -44 -24 -59 4 -99 82 -115 59 -12 72
-35 27 -46 -20 -5 -30 -2 -44 14 -17 22 -63 30 -74 13 -10 -16 18 -62 46 -77
48 -24 106 -18 140 15 56 57 20 141 -61 141 -12 0 -30 5 -41 11 -16 8 -18 13
-8 25 15 18 43 18 59 -1 7 -8 25 -15 41 -15 37 0 39 31 4 65 -19 20 -34 25
-72 25 -26 0 -56 -5 -66 -11z"/>
<path d="M3010 2440 l0 -140 35 0 35 0 0 51 0 52 41 -52 c37 -46 45 -51 80
-51 21 0 39 3 39 6 0 3 -22 33 -50 67 -27 34 -50 64 -50 68 0 3 20 32 45 65
24 32 45 62 45 67 0 4 -17 7 -38 7 -35 0 -42 -5 -75 -52 l-37 -53 0 53 0 52
-35 0 -35 0 0 -140z"/>
<path d="M3590 2440 l0 -140 35 0 c35 0 35 0 35 45 0 25 3 45 8 45 4 0 19 -20
34 -45 24 -40 32 -45 63 -45 19 0 35 3 35 8 0 4 -11 24 -25 44 -30 45 -30 46
-3 75 34 36 31 98 -5 129 -24 21 -38 24 -103 24 l-74 0 0 -140z m130 65 c19
-23 4 -45 -30 -45 -27 0 -30 3 -30 30 0 25 4 30 24 30 13 0 29 -7 36 -15z"/>
<path d="M4150 2550 c0 -28 3 -30 35 -30 l35 0 0 -110 0 -110 35 0 35 0 0 110
0 110 40 0 c38 0 40 2 40 30 l0 30 -110 0 -110 0 0 -30z"/>
</g>
</svg>
