<?xml version="1.0" encoding="UTF-8"?>
<!DOCTYPE svg PUBLIC "-//W3C//DTD SVG 1.1//EN" "http://www.w3.org/Graphics/SVG/1.1/DTD/svg11.dtd">
<svg xmlns="http://www.w3.org/2000/svg" version="1.1" width="688px" height="688px" style="shape-rendering:geometricPrecision; text-rendering:geometricPrecision; image-rendering:optimizeQuality; fill-rule:evenodd; clip-rule:evenodd" xmlns:xlink="http://www.w3.org/1999/xlink">
<g><path style="opacity:0.985" fill="#125032" d="M 509.5,138.5 C 509.167,138.5 508.833,138.5 508.5,138.5C 507.473,137.152 506.14,136.652 504.5,137C 500.167,142.667 495.833,148.333 491.5,154C 497.039,159.044 502.706,163.877 508.5,168.5C 508.833,169.167 509.167,169.833 509.5,170.5C 509.5,180.833 509.5,191.167 509.5,201.5C 484.785,174.794 455.451,154.794 421.5,141.5C 420.833,141.5 420.5,141.167 420.5,140.5C 420.5,132.833 420.5,125.167 420.5,117.5C 421.822,117.33 422.989,117.663 424,118.5C 426.5,111.667 429,104.833 431.5,98C 431.355,97.228 431.022,96.5613 430.5,96C 427.568,94.8551 424.568,94.0218 421.5,93.5C 421.027,92.0937 420.027,91.427 418.5,91.5C 418.158,90.6618 417.492,90.3284 416.5,90.5C 415.833,90.5 415.167,90.5 414.5,90.5C 414.5,89.8333 414.167,89.5 413.5,89.5C 412.5,89.5 411.5,89.5 410.5,89.5C 410.5,88.8333 410.167,88.5 409.5,88.5C 408.833,88.5 408.167,88.5 407.5,88.5C 407.158,87.6618 406.492,87.3284 405.5,87.5C 404.833,87.5 404.167,87.5 403.5,87.5C 402.791,86.596 401.791,86.2627 400.5,86.5C 399.833,86.5 399.167,86.5 398.5,86.5C 397.791,85.596 396.791,85.2627 395.5,85.5C 394.833,85.5 394.167,85.5 393.5,85.5C 392.791,84.596 391.791,84.2627 390.5,84.5C 389.833,84.5 389.167,84.5 388.5,84.5C 381.714,82.941 374.714,81.941 367.5,81.5C 366.167,81.5 364.833,81.5 363.5,81.5C 358.36,80.5119 353.026,80.1786 347.5,80.5C 344.721,80.2786 342.054,80.612 339.5,81.5C 334.167,80.1667 328.833,80.1667 323.5,81.5C 322.167,81.5 320.833,81.5 319.5,81.5C 312.273,81.8543 305.273,82.8543 298.5,84.5C 298.167,84.5 297.833,84.5 297.5,84.5C 295.585,84.2155 293.919,84.5489 292.5,85.5C 292.167,85.5 291.833,85.5 291.5,85.5C 289.901,85.2322 288.568,85.5655 287.5,86.5C 287.167,86.5 286.833,86.5 286.5,86.5C 285.209,86.2627 284.209,86.596 283.5,87.5C 283.167,87.5 282.833,87.5 282.5,87.5C 281.209,87.2627 280.209,87.596 279.5,88.5C 279.167,88.5 278.833,88.5 278.5,88.5C 277.209,88.2627 276.209,88.596 275.5,89.5C 275.167,89.5 274.833,89.5 274.5,89.5C 273.209,89.2627 272.209,89.596 271.5,90.5C 271.167,90.5 270.833,90.5 270.5,90.5C 269.209,90.2627 268.209,90.596 267.5,91.5C 266.209,91.2627 265.209,91.596 264.5,92.5C 264.167,92.5 263.833,92.5 263.5,92.5C 262.508,92.3284 261.842,92.6618 261.5,93.5C 261.167,93.5 260.833,93.5 260.5,93.5C 259.508,93.3284 258.842,93.6618 258.5,94.5C 258.167,94.5 257.833,94.5 257.5,94.5C 256.508,94.3284 255.842,94.6618 255.5,95.5C 249.121,97.0668 243.121,99.4002 237.5,102.5C 236.508,102.328 235.842,102.662 235.5,103.5C 235.167,103.5 234.833,103.5 234.5,103.5C 233.508,103.328 232.842,103.662 232.5,104.5C 231.508,104.328 230.842,104.662 230.5,105.5C 229.508,105.328 228.842,105.662 228.5,106.5C 227.508,106.328 226.842,106.662 226.5,107.5C 225.508,107.328 224.842,107.662 224.5,108.5C 223.508,108.328 222.842,108.662 222.5,109.5C 221.508,109.328 220.842,109.662 220.5,110.5C 219.508,110.328 218.842,110.662 218.5,111.5C 217.508,111.328 216.842,111.662 216.5,112.5C 215.508,112.328 214.842,112.662 214.5,113.5C 213.508,113.328 212.842,113.662 212.5,114.5C 211.833,114.5 211.5,114.833 211.5,115.5C 210.508,115.328 209.842,115.662 209.5,116.5C 208.508,116.328 207.842,116.662 207.5,117.5C 206.508,117.328 205.842,117.662 205.5,118.5C 204.833,118.5 204.5,118.833 204.5,119.5C 203.508,119.328 202.842,119.662 202.5,120.5C 201.833,120.5 201.5,120.833 201.5,121.5C 200.508,121.328 199.842,121.662 199.5,122.5C 198.833,122.5 198.5,122.833 198.5,123.5C 198.167,123.5 197.833,123.5 197.5,123.5C 196.833,123.5 196.5,123.833 196.5,124.5C 190.811,127.676 185.477,131.342 180.5,135.5C 179.833,135.5 179.5,135.833 179.5,136.5C 178.833,136.5 178.5,136.833 178.5,137.5C 177.833,137.5 177.5,137.833 177.5,138.5C 176.508,138.328 175.842,138.662 175.5,139.5C 174.833,139.5 174.5,139.833 174.5,140.5C 173.833,140.5 173.5,140.833 173.5,141.5C 172.833,141.5 172.5,141.833 172.5,142.5C 171.833,142.5 171.5,142.833 171.5,143.5C 170.508,143.328 169.842,143.662 169.5,144.5C 168.833,144.5 168.5,144.833 168.5,145.5C 167.833,145.5 167.5,145.833 167.5,146.5C 166.833,146.5 166.5,146.833 166.5,147.5C 165.833,147.5 165.5,147.833 165.5,148.5C 163.251,149.08 161.585,150.413 160.5,152.5C 159.833,152.5 159.5,152.833 159.5,153.5C 158.833,153.5 158.5,153.833 158.5,154.5C 157.833,154.5 157.5,154.833 157.5,155.5C 156.833,155.5 156.5,155.833 156.5,156.5C 155.833,156.5 155.5,156.833 155.5,157.5C 154.833,157.5 154.5,157.833 154.5,158.5C 153.833,158.5 153.5,158.833 153.5,159.5C 152.833,159.5 152.5,159.833 152.5,160.5C 151.833,160.5 151.5,160.833 151.5,161.5C 150.833,161.5 150.5,161.833 150.5,162.5C 149.833,162.5 149.5,162.833 149.5,163.5C 148.833,163.5 148.5,163.833 148.5,164.5C 147.833,164.5 147.5,164.833 147.5,165.5C 142.085,170.579 137.418,176.246 133.5,182.5C 132.833,182.5 132.5,182.833 132.5,183.5C 131.833,183.5 131.5,183.833 131.5,184.5C 130.094,184.973 129.427,185.973 129.5,187.5C 128.833,187.5 128.5,187.833 128.5,188.5C 127.094,188.973 126.427,189.973 126.5,191.5C 125.833,191.5 125.5,191.833 125.5,192.5C 124.662,192.842 124.328,193.508 124.5,194.5C 123.833,194.5 123.5,194.833 123.5,195.5C 122.094,195.973 121.427,196.973 121.5,198.5C 120.094,198.973 119.427,199.973 119.5,201.5C 118.662,201.842 118.328,202.508 118.5,203.5C 117.833,203.5 117.5,203.833 117.5,204.5C 116.662,204.842 116.328,205.508 116.5,206.5C 115.833,206.5 115.5,206.833 115.5,207.5C 114.662,207.842 114.328,208.508 114.5,209.5C 113.662,209.842 113.328,210.508 113.5,211.5C 112.833,211.5 112.5,211.833 112.5,212.5C 111.662,212.842 111.328,213.508 111.5,214.5C 110.662,214.842 110.328,215.508 110.5,216.5C 109.662,216.842 109.328,217.508 109.5,218.5C 108.833,218.5 108.5,218.833 108.5,219.5C 104.712,225.412 101.712,231.745 99.5,238.5C 98.6618,238.842 98.3284,239.508 98.5,240.5C 97.6618,240.842 97.3284,241.508 97.5,242.5C 96.6618,242.842 96.3284,243.508 96.5,244.5C 95.596,245.209 95.2627,246.209 95.5,247.5C 94.6618,247.842 94.3284,248.508 94.5,249.5C 93.596,250.209 93.2627,251.209 93.5,252.5C 92.0687,253.78 91.4021,255.447 91.5,257.5C 90.596,258.209 90.2627,259.209 90.5,260.5C 89.596,261.209 89.2627,262.209 89.5,263.5C 88.596,264.209 88.2627,265.209 88.5,266.5C 87.596,267.209 87.2627,268.209 87.5,269.5C 86.5655,270.568 86.2322,271.901 86.5,273.5C 85.596,274.209 85.2627,275.209 85.5,276.5C 84.5655,277.568 84.2322,278.901 84.5,280.5C 82.0738,287.886 80.4071,295.552 79.5,303.5C 79.5,303.833 79.5,304.167 79.5,304.5C 78.5386,306.265 78.2053,308.265 78.5,310.5C 77.5269,312.948 77.1936,315.615 77.5,318.5C 76.5184,321.962 76.185,325.629 76.5,329.5C 76.5,329.833 76.5,330.167 76.5,330.5C 75.1667,340.5 75.1667,350.5 76.5,360.5C 76.5,362.5 76.5,364.5 76.5,366.5C 76.1936,369.385 76.5269,372.052 77.5,374.5C 77.5,375.833 77.5,377.167 77.5,378.5C 77.2155,380.415 77.5489,382.081 78.5,383.5C 78.5,384.5 78.5,385.5 78.5,386.5C 78.2627,387.791 78.596,388.791 79.5,389.5C 79.5569,390.609 79.8902,391.609 80.5,392.5C 79.1667,393.5 79.1667,394.5 80.5,395.5C 80.5,395.833 80.5,396.167 80.5,396.5C 81.2145,402.751 82.5478,408.751 84.5,414.5C 84.5,414.833 84.5,415.167 84.5,415.5C 84.2627,416.791 84.596,417.791 85.5,418.5C 85.5,418.833 85.5,419.167 85.5,419.5C 85.3284,420.492 85.6618,421.158 86.5,421.5C 86.5,422.167 86.5,422.833 86.5,423.5C 86.3284,424.492 86.6618,425.158 87.5,425.5C 87.5,425.833 87.5,426.167 87.5,426.5C 87.3284,427.492 87.6618,428.158 88.5,428.5C 88.5,428.833 88.5,429.167 88.5,429.5C 88.3284,430.492 88.6618,431.158 89.5,431.5C 89.5,431.833 89.5,432.167 89.5,432.5C 89.3284,433.492 89.6618,434.158 90.5,434.5C 90.5,434.833 90.5,435.167 90.5,435.5C 90.3284,436.492 90.6618,437.158 91.5,437.5C 91.5,437.833 91.5,438.167 91.5,438.5C 91.5,439.167 91.8333,439.5 92.5,439.5C 92.5,440.167 92.5,440.833 92.5,441.5C 92.5,442.167 92.8333,442.5 93.5,442.5C 93.5,442.833 93.5,443.167 93.5,443.5C 93.3284,444.492 93.6618,445.158 94.5,445.5C 94.5,445.833 94.5,446.167 94.5,446.5C 94.5,447.167 94.8333,447.5 95.5,447.5C 95.5,448.167 95.5,448.833 95.5,449.5C 95.5,450.167 95.8333,450.5 96.5,450.5C 96.5,450.833 96.5,451.167 96.5,451.5C 96.5,452.167 96.8333,452.5 97.5,452.5C 97.5,452.833 97.5,453.167 97.5,453.5C 97.5,454.167 97.8333,454.5 98.5,454.5C 98.5,455.167 98.5,455.833 98.5,456.5C 98.5,457.167 98.8333,457.5 99.5,457.5C 99.5,457.833 99.5,458.167 99.5,458.5C 99.5,459.167 99.8333,459.5 100.5,459.5C 102.659,465.151 105.326,470.484 108.5,475.5C 108.5,475.833 108.5,476.167 108.5,476.5C 108.5,477.167 108.833,477.5 109.5,477.5C 110.167,478.833 110.833,480.167 111.5,481.5C 111.5,482.167 111.833,482.5 112.5,482.5C 112.5,482.833 112.5,483.167 112.5,483.5C 112.5,484.167 112.833,484.5 113.5,484.5C 113.833,485.167 114.167,485.833 114.5,486.5C 114.5,487.167 114.833,487.5 115.5,487.5C 116.167,488.833 116.833,490.167 117.5,491.5C 117.5,492.167 117.833,492.5 118.5,492.5C 118.833,493.167 119.167,493.833 119.5,494.5C 119.5,495.167 119.833,495.5 120.5,495.5C 120.833,496.167 121.167,496.833 121.5,497.5C 121.5,498.167 121.833,498.5 122.5,498.5C 122.833,499.167 123.167,499.833 123.5,500.5C 123.5,501.167 123.833,501.5 124.5,501.5C 124.833,502.167 125.167,502.833 125.5,503.5C 125.5,504.167 125.833,504.5 126.5,504.5C 126.5,505.167 126.833,505.5 127.5,505.5C 127.833,506.167 128.167,506.833 128.5,507.5C 128.5,508.167 128.833,508.5 129.5,508.5C 130.5,509.833 131.5,511.167 132.5,512.5C 132.5,513.167 132.833,513.5 133.5,513.5C 133.833,514.167 134.167,514.833 134.5,515.5C 134.833,548.507 134.5,581.507 133.5,614.5C 61.0413,556.962 18.5413,481.962 6,389.5C -6.01986,258.751 39.4801,153.251 142.5,73C 234.78,9.19347 335.114,-7.47319 443.5,23C 466.106,30.2002 487.772,39.5335 508.5,51C 509.495,80.0929 509.829,109.26 509.5,138.5 Z M 319.5,81.5 C 319.837,89.5385 320.503,97.5385 321.5,105.5C 336.465,104.465 351.465,104.465 366.5,105.5C 366.627,98.0988 367.294,90.7655 368.5,83.5C 368.137,82.8165 367.804,82.1499 367.5,81.5C 374.714,81.941 381.714,82.941 388.5,84.5C 387.167,84.5 385.833,84.5 384.5,84.5C 383.313,92.4751 382.313,100.475 381.5,108.5C 394.848,110.087 407.848,113.087 420.5,117.5C 420.5,125.167 420.5,132.833 420.5,140.5C 353.504,117.8 289.504,124.133 228.5,159.5C 228.167,159.5 227.833,159.5 227.5,159.5C 215.5,159.5 203.5,159.5 191.5,159.5C 192.983,157.516 194.649,155.683 196.5,154C 192.05,148.273 187.717,142.44 183.5,136.5C 182.675,135.614 181.675,135.281 180.5,135.5C 185.477,131.342 190.811,127.676 196.5,124.5C 199.303,130.827 202.803,136.827 207,142.5C 207.72,144.255 208.887,145.089 210.5,145C 222.311,137.009 234.811,130.176 248,124.5C 245.68,117.5 243.013,110.5 240,103.5C 239.329,102.748 238.496,102.414 237.5,102.5C 243.121,99.4002 249.121,97.0668 255.5,95.5C 256.871,103.789 259.705,111.455 264,118.5C 277.495,113.668 291.328,110.168 305.5,108C 305.957,107.586 306.291,107.086 306.5,106.5C 305.103,99.8893 303.936,93.2227 303,86.5C 301.951,84.8934 300.451,84.2267 298.5,84.5C 305.273,82.8543 312.273,81.8543 319.5,81.5 Z M 165.5,148.5 C 164.415,150.587 162.749,151.92 160.5,152.5C 161.585,150.413 163.251,149.08 165.5,148.5 Z M 131.5,184.5 C 131.573,186.027 130.906,187.027 129.5,187.5C 129.427,185.973 130.094,184.973 131.5,184.5 Z M 128.5,188.5 C 128.573,190.027 127.906,191.027 126.5,191.5C 126.427,189.973 127.094,188.973 128.5,188.5 Z M 123.5,195.5 C 123.573,197.027 122.906,198.027 121.5,198.5C 121.427,196.973 122.094,195.973 123.5,195.5 Z M 121.5,198.5 C 121.573,200.027 120.906,201.027 119.5,201.5C 119.427,199.973 120.094,198.973 121.5,198.5 Z"/></g>
<g><path style="opacity:0.99" fill="#125031" d="M 359.5,687.5 C 349.167,687.5 338.833,687.5 328.5,687.5C 275.473,684.441 225.473,670.274 178.5,645C 177.505,615.907 177.171,586.74 177.5,557.5C 179.229,558.117 180.729,559.117 182,560.5C 186.743,554.679 191.243,548.679 195.5,542.5C 189.803,536.802 183.803,531.468 177.5,526.5C 177.5,526.167 177.5,525.833 177.5,525.5C 177.5,514.833 177.5,504.167 177.5,493.5C 201.888,520.875 231.222,541.209 265.5,554.5C 265.5,554.833 265.5,555.167 265.5,555.5C 265.5,563.167 265.5,570.833 265.5,578.5C 264.5,578.5 263.5,578.5 262.5,578.5C 260.757,585.73 258.423,592.73 255.5,599.5C 258.773,601.034 262.106,602.368 265.5,603.5C 277.647,607.287 289.98,610.287 302.5,612.5C 308.161,612.907 313.828,613.24 319.5,613.5C 335.736,616.145 352.069,616.145 368.5,613.5C 373.956,613.482 379.289,612.815 384.5,611.5C 401.147,609.672 417.147,605.672 432.5,599.5C 437.735,597.871 442.735,595.871 447.5,593.5C 462.879,587.646 477.213,579.979 490.5,570.5C 495.469,567.522 500.135,564.189 504.5,560.5C 511.803,555.5 518.803,550 525.5,544C 531.098,538.909 536.098,533.409 540.5,527.5C 544.513,523.485 548.179,519.152 551.5,514.5C 562.499,502.165 571.499,488.498 578.5,473.5C 581.341,469.151 583.674,464.484 585.5,459.5C 593.092,444.626 598.759,428.959 602.5,412.5C 604.012,407.271 605.012,401.938 605.5,396.5C 609.03,380.841 610.697,364.841 610.5,348.5C 610.389,332.056 609.056,315.723 606.5,299.5C 605.294,294.136 603.961,288.803 602.5,283.5C 598.929,267.45 593.596,252.116 586.5,237.5C 584.438,232.375 582.104,227.375 579.5,222.5C 571.729,207.94 562.729,194.273 552.5,181.5C 551.164,179.99 549.997,178.323 549,176.5C 548.333,143.5 548.333,110.5 549,77.5C 642.004,152.204 686.337,249.538 682,369.5C 670.642,490.458 613.142,581.958 509.5,644C 462.626,669.714 412.626,684.214 359.5,687.5 Z M 460.5,535.5 C 460.833,535.5 461.167,535.5 461.5,535.5C 473.833,535.5 486.167,535.5 498.5,535.5C 496.022,537.803 493.355,539.969 490.5,542C 495.066,548.325 499.732,554.491 504.5,560.5C 500.135,564.189 495.469,567.522 490.5,570.5C 486.84,563.852 482.674,557.518 478,551.5C 465.236,559.133 452.07,566.133 438.5,572.5C 441.788,579.405 444.788,586.405 447.5,593.5C 442.735,595.871 437.735,597.871 432.5,599.5C 429.763,592.122 426.93,584.789 424,577.5C 410.233,582.65 396.066,586.317 381.5,588.5C 382.391,596.181 383.391,603.848 384.5,611.5C 379.289,612.815 373.956,613.482 368.5,613.5C 367.354,605.896 366.688,598.229 366.5,590.5C 351.498,591.811 336.498,591.811 321.5,590.5C 320.593,598.141 319.927,605.807 319.5,613.5C 313.828,613.24 308.161,612.907 302.5,612.5C 303.725,604.819 305.058,597.153 306.5,589.5C 292.683,586.469 279.016,582.802 265.5,578.5C 265.5,570.833 265.5,563.167 265.5,555.5C 330.77,578.089 393.77,572.922 454.5,540C 456.747,538.723 458.747,537.223 460.5,535.5 Z"/></g>
<g><path style="opacity:0.32" fill="#075730" d="M 347.5,80.5 C 352.64,81.4881 357.974,81.8214 363.5,81.5C 364.833,81.5 366.167,81.5 367.5,81.5C 367.804,82.1499 368.137,82.8165 368.5,83.5C 367.294,90.7655 366.627,98.0988 366.5,105.5C 351.465,104.465 336.465,104.465 321.5,105.5C 320.503,97.5385 319.837,89.5385 319.5,81.5C 320.833,81.5 322.167,81.5 323.5,81.5C 328.833,81.5 334.167,81.5 339.5,81.5C 342.054,80.612 344.721,80.2786 347.5,80.5 Z"/></g>
<g><path style="opacity:0.318" fill="#075730" d="M 297.5,84.5 C 297.833,84.5 298.167,84.5 298.5,84.5C 300.451,84.2267 301.951,84.8934 303,86.5C 303.936,93.2227 305.103,99.8893 306.5,106.5C 306.291,107.086 305.957,107.586 305.5,108C 291.328,110.168 277.495,113.668 264,118.5C 259.705,111.455 256.871,103.789 255.5,95.5C 256.492,95.6716 257.158,95.3382 257.5,94.5C 257.833,94.5 258.167,94.5 258.5,94.5C 259.492,94.6716 260.158,94.3382 260.5,93.5C 260.833,93.5 261.167,93.5 261.5,93.5C 262.492,93.6716 263.158,93.3382 263.5,92.5C 263.833,92.5 264.167,92.5 264.5,92.5C 265.791,92.7373 266.791,92.404 267.5,91.5C 268.791,91.7373 269.791,91.404 270.5,90.5C 270.833,90.5 271.167,90.5 271.5,90.5C 272.791,90.7373 273.791,90.404 274.5,89.5C 274.833,89.5 275.167,89.5 275.5,89.5C 276.791,89.7373 277.791,89.404 278.5,88.5C 278.833,88.5 279.167,88.5 279.5,88.5C 280.791,88.7373 281.791,88.404 282.5,87.5C 282.833,87.5 283.167,87.5 283.5,87.5C 284.791,87.7373 285.791,87.404 286.5,86.5C 286.833,86.5 287.167,86.5 287.5,86.5C 289.099,86.7678 290.432,86.4345 291.5,85.5C 291.833,85.5 292.167,85.5 292.5,85.5C 294.415,85.7845 296.081,85.4511 297.5,84.5 Z"/></g>
<g><path style="opacity:0.325" fill="#075730" d="M 388.5,84.5 C 389.167,84.5 389.833,84.5 390.5,84.5C 391.209,85.404 392.209,85.7373 393.5,85.5C 394.167,85.5 394.833,85.5 395.5,85.5C 396.209,86.404 397.209,86.7373 398.5,86.5C 399.167,86.5 399.833,86.5 400.5,86.5C 401.209,87.404 402.209,87.7373 403.5,87.5C 404.167,87.5 404.833,87.5 405.5,87.5C 405.842,88.3382 406.508,88.6716 407.5,88.5C 408.167,88.5 408.833,88.5 409.5,88.5C 410.167,88.5 410.5,88.8333 410.5,89.5C 411.5,89.5 412.5,89.5 413.5,89.5C 414.167,89.5 414.5,89.8333 414.5,90.5C 415.167,90.5 415.833,90.5 416.5,90.5C 416.842,91.3382 417.508,91.6716 418.5,91.5C 420.027,91.427 421.027,92.0937 421.5,93.5C 421.801,101.586 421.467,109.586 420.5,117.5C 407.848,113.087 394.848,110.087 381.5,108.5C 382.313,100.475 383.313,92.4751 384.5,84.5C 385.833,84.5 387.167,84.5 388.5,84.5 Z"/></g>
<g><path style="opacity:0.997" fill="#0f5231" d="M 421.5,93.5 C 424.568,94.0218 427.568,94.8551 430.5,96C 431.022,96.5613 431.355,97.228 431.5,98C 429,104.833 426.5,111.667 424,118.5C 422.989,117.663 421.822,117.33 420.5,117.5C 421.467,109.586 421.801,101.586 421.5,93.5 Z"/></g>
<g><path style="opacity:0.319" fill="#075730" d="M 237.5,102.5 C 238.496,102.414 239.329,102.748 240,103.5C 243.013,110.5 245.68,117.5 248,124.5C 234.811,130.176 222.311,137.009 210.5,145C 208.887,145.089 207.72,144.255 207,142.5C 202.803,136.827 199.303,130.827 196.5,124.5C 197.167,124.5 197.5,124.167 197.5,123.5C 197.833,123.5 198.167,123.5 198.5,123.5C 199.167,123.5 199.5,123.167 199.5,122.5C 200.492,122.672 201.158,122.338 201.5,121.5C 202.167,121.5 202.5,121.167 202.5,120.5C 203.492,120.672 204.158,120.338 204.5,119.5C 205.167,119.5 205.5,119.167 205.5,118.5C 206.492,118.672 207.158,118.338 207.5,117.5C 208.492,117.672 209.158,117.338 209.5,116.5C 210.492,116.672 211.158,116.338 211.5,115.5C 212.167,115.5 212.5,115.167 212.5,114.5C 213.492,114.672 214.158,114.338 214.5,113.5C 215.492,113.672 216.158,113.338 216.5,112.5C 217.492,112.672 218.158,112.338 218.5,111.5C 219.492,111.672 220.158,111.338 220.5,110.5C 221.492,110.672 222.158,110.338 222.5,109.5C 223.492,109.672 224.158,109.338 224.5,108.5C 225.492,108.672 226.158,108.338 226.5,107.5C 227.492,107.672 228.158,107.338 228.5,106.5C 229.492,106.672 230.158,106.338 230.5,105.5C 231.492,105.672 232.158,105.338 232.5,104.5C 233.492,104.672 234.158,104.338 234.5,103.5C 234.833,103.5 235.167,103.5 235.5,103.5C 236.492,103.672 237.158,103.338 237.5,102.5 Z"/></g>
<g><path style="opacity:1" fill="#0f5131" d="M 447.5,102.5 C 462.709,108.77 477.042,116.604 490.5,126C 486.5,132 482.5,138 478.5,144C 465.717,137.123 452.717,130.29 439.5,123.5C 442.933,116.748 445.6,109.748 447.5,102.5 Z"/></g>
<g><path style="opacity:0.322" fill="#075730" d="M 420.5,140.5 C 420.5,141.167 420.833,141.5 421.5,141.5C 421.5,149.833 421.5,158.167 421.5,166.5C 421.167,166.5 420.833,166.5 420.5,166.5C 368.667,146.21 317.001,146.544 265.5,167.5C 265.5,165.167 265.5,162.833 265.5,160.5C 252.989,160.829 240.655,160.495 228.5,159.5C 289.504,124.133 353.504,117.8 420.5,140.5 Z"/></g>
<g><path style="opacity:0.32" fill="#075730" d="M 180.5,135.5 C 181.675,135.281 182.675,135.614 183.5,136.5C 187.717,142.44 192.05,148.273 196.5,154C 194.649,155.683 192.983,157.516 191.5,159.5C 186.881,160.314 182.214,160.647 177.5,160.5C 177.5,164.167 177.5,167.833 177.5,171.5C 172.869,175.63 168.369,179.963 164,184.5C 158.333,179.5 152.667,174.5 147,169.5C 146.805,168.181 146.972,166.847 147.5,165.5C 148.167,165.5 148.5,165.167 148.5,164.5C 149.167,164.5 149.5,164.167 149.5,163.5C 150.167,163.5 150.5,163.167 150.5,162.5C 151.167,162.5 151.5,162.167 151.5,161.5C 152.167,161.5 152.5,161.167 152.5,160.5C 153.167,160.5 153.5,160.167 153.5,159.5C 154.167,159.5 154.5,159.167 154.5,158.5C 155.167,158.5 155.5,158.167 155.5,157.5C 156.167,157.5 156.5,157.167 156.5,156.5C 157.167,156.5 157.5,156.167 157.5,155.5C 158.167,155.5 158.5,155.167 158.5,154.5C 159.167,154.5 159.5,154.167 159.5,153.5C 160.167,153.5 160.5,153.167 160.5,152.5C 162.749,151.92 164.415,150.587 165.5,148.5C 166.167,148.5 166.5,148.167 166.5,147.5C 167.167,147.5 167.5,147.167 167.5,146.5C 168.167,146.5 168.5,146.167 168.5,145.5C 169.167,145.5 169.5,145.167 169.5,144.5C 170.492,144.672 171.158,144.338 171.5,143.5C 172.167,143.5 172.5,143.167 172.5,142.5C 173.167,142.5 173.5,142.167 173.5,141.5C 174.167,141.5 174.5,141.167 174.5,140.5C 175.167,140.5 175.5,140.167 175.5,139.5C 176.492,139.672 177.158,139.338 177.5,138.5C 178.167,138.5 178.5,138.167 178.5,137.5C 179.167,137.5 179.5,137.167 179.5,136.5C 180.167,136.5 180.5,136.167 180.5,135.5 Z"/></g>
<g><path style="opacity:1" fill="#0f5231" d="M 508.5,138.5 C 508.5,148.5 508.5,158.5 508.5,168.5C 502.706,163.877 497.039,159.044 491.5,154C 495.833,148.333 500.167,142.667 504.5,137C 506.14,136.652 507.473,137.152 508.5,138.5 Z"/></g>
<g><path style="opacity:0.325" fill="#075730" d="M 508.5,138.5 C 508.833,138.5 509.167,138.5 509.5,138.5C 520.897,147.391 531.564,157.225 541.5,168C 535.69,173.733 529.69,179.233 523.5,184.5C 519.146,179.479 514.479,174.812 509.5,170.5C 509.167,169.833 508.833,169.167 508.5,168.5C 508.5,158.5 508.5,148.5 508.5,138.5 Z"/></g>
<g><path style="opacity:1" fill="#0f5231" d="M 421.5,141.5 C 455.451,154.794 484.785,174.794 509.5,201.5C 509.5,201.833 509.5,202.167 509.5,202.5C 508.505,214.322 508.172,226.322 508.5,238.5C 486.138,206.471 457.138,182.471 421.5,166.5C 421.5,158.167 421.5,149.833 421.5,141.5 Z"/></g>
<g><path style="opacity:0.969" fill="#125031" d="M 191.5,159.5 C 203.5,159.5 215.5,159.5 227.5,159.5C 218.124,166.384 208.79,173.551 199.5,181C 191.635,187.699 184.302,194.865 177.5,202.5C 177.5,192.167 177.5,181.833 177.5,171.5C 177.5,167.833 177.5,164.167 177.5,160.5C 182.214,160.647 186.881,160.314 191.5,159.5 Z"/></g>
<g><path style="opacity:0.999" fill="#0f5231" d="M 227.5,159.5 C 227.833,159.5 228.167,159.5 228.5,159.5C 240.655,160.495 252.989,160.829 265.5,160.5C 265.5,162.833 265.5,165.167 265.5,167.5C 240.029,177.991 217.862,193.325 199,213.5C 191.333,222.205 184.166,231.205 177.5,240.5C 177.5,227.833 177.5,215.167 177.5,202.5C 184.302,194.865 191.635,187.699 199.5,181C 208.79,173.551 218.124,166.384 227.5,159.5 Z"/></g>
<g><path style="opacity:0.979" fill="#125031" d="M 420.5,166.5 C 420.833,166.5 421.167,166.5 421.5,166.5C 457.138,182.471 486.138,206.471 508.5,238.5C 508.833,239.833 509.167,241.167 509.5,242.5C 509.5,252.5 509.5,262.5 509.5,272.5C 507.167,272.5 504.833,272.5 502.5,272.5C 502.167,272.5 501.833,272.5 501.5,272.5C 500.538,269.243 499.038,266.243 497,263.5C 491.82,266.667 486.653,269.667 481.5,272.5C 480.833,272.5 480.167,272.5 479.5,272.5C 459.833,272.5 440.167,272.5 420.5,272.5C 420.5,248.167 420.5,223.833 420.5,199.5C 421.215,196.093 421.215,192.76 420.5,189.5C 420.5,181.833 420.5,174.167 420.5,166.5 Z"/></g>
<g><path style="opacity:0.993" fill="#125031" d="M 265.5,167.5 C 265.5,175.167 265.5,182.833 265.5,190.5C 265.5,192.5 265.5,194.5 265.5,196.5C 265.5,231.833 265.5,267.167 265.5,302.5C 339.833,302.5 414.167,302.5 488.5,302.5C 488.833,302.5 489.167,302.5 489.5,302.5C 500.939,343.689 496.939,383.189 477.5,421C 483.472,425.324 489.805,429.158 496.5,432.5C 501.383,424.729 505.717,416.729 509.5,408.5C 509.5,423.5 509.5,438.5 509.5,453.5C 509.567,454.959 509.234,456.292 508.5,457.5C 490.568,482.928 468.234,503.762 441.5,520C 434.471,523.28 427.471,526.446 420.5,529.5C 420.5,521.833 420.5,514.167 420.5,506.5C 421.372,503.579 421.372,500.579 420.5,497.5C 420.5,461.833 420.5,426.167 420.5,390.5C 346.5,390.5 272.5,390.5 198.5,390.5C 198.167,390.5 197.833,390.5 197.5,390.5C 186.581,350.273 190.914,311.773 210.5,275C 203.586,271.293 196.752,267.46 190,263.5C 185.7,272.308 181.533,280.975 177.5,289.5C 177.5,274.167 177.5,258.833 177.5,243.5C 177.5,242.5 177.5,241.5 177.5,240.5C 184.166,231.205 191.333,222.205 199,213.5C 217.862,193.325 240.029,177.991 265.5,167.5 Z"/></g>
<g><path style="opacity:0.319" fill="#075730" d="M 265.5,196.5 C 265.5,194.5 265.5,192.5 265.5,190.5C 287.897,179.651 311.564,173.651 336.5,172.5C 337.166,180.483 337.499,188.483 337.5,196.5C 315.767,197.766 295.101,203.1 275.5,212.5C 274.833,212.167 274.167,211.833 273.5,211.5C 271.059,206.28 268.392,201.28 265.5,196.5 Z"/></g>
<g><path style="opacity:0.319" fill="#075730" d="M 420.5,189.5 C 421.215,192.76 421.215,196.093 420.5,199.5C 417.896,203.946 415.063,208.28 412,212.5C 392.247,202.972 371.414,197.638 349.5,196.5C 350.323,188.529 350.656,180.529 350.5,172.5C 374.932,173.775 398.266,179.442 420.5,189.5 Z"/></g>
<g><path style="opacity:0.319" fill="#075730" d="M 552.5,181.5 C 562.729,194.273 571.729,207.94 579.5,222.5C 572.396,225.886 565.396,229.553 558.5,233.5C 551.147,220.32 542.814,207.82 533.5,196C 539.533,190.664 545.867,185.83 552.5,181.5 Z"/></g>
<g><path style="opacity:0.319" fill="#075730" d="M 108.5,219.5 C 109.167,219.5 109.5,219.167 109.5,218.5C 110.338,218.158 110.672,217.492 110.5,216.5C 111.338,216.158 111.672,215.492 111.5,214.5C 112.338,214.158 112.672,213.492 112.5,212.5C 113.167,212.5 113.5,212.167 113.5,211.5C 114.338,211.158 114.672,210.492 114.5,209.5C 115.338,209.158 115.672,208.492 115.5,207.5C 116.167,207.5 116.5,207.167 116.5,206.5C 117.338,206.158 117.672,205.492 117.5,204.5C 118.167,204.5 118.5,204.167 118.5,203.5C 119.338,203.158 119.672,202.492 119.5,201.5C 120.906,201.027 121.573,200.027 121.5,198.5C 122.906,198.027 123.573,197.027 123.5,195.5C 124.167,195.5 124.5,195.167 124.5,194.5C 125.338,194.158 125.672,193.492 125.5,192.5C 126.167,192.5 126.5,192.167 126.5,191.5C 127.906,191.027 128.573,190.027 128.5,188.5C 129.167,188.5 129.5,188.167 129.5,187.5C 130.906,187.027 131.573,186.027 131.5,184.5C 132.167,184.5 132.5,184.167 132.5,183.5C 133.167,183.5 133.5,183.167 133.5,182.5C 135.719,181.46 137.719,181.96 139.5,184C 144.341,188.01 149.008,192.177 153.5,196.5C 144.744,208.426 136.578,220.76 129,233.5C 122.739,229.618 116.239,226.118 109.5,223C 108.663,221.989 108.33,220.822 108.5,219.5 Z"/></g>
<g><path style="opacity:1" fill="#0f5231" d="M 250.5,199.5 C 255.166,205.518 259.499,211.851 263.5,218.5C 244.9,230.266 229.4,245.266 217,263.5C 210.672,259.329 204.505,254.995 198.5,250.5C 212.357,229.915 229.69,212.915 250.5,199.5 Z"/></g>
<g><path style="opacity:1" fill="#0f5231" d="M 435.5,199.5 C 457.508,212.339 475.508,229.505 489.5,251C 483.167,255.167 476.833,259.333 470.5,263.5C 458.102,245.935 442.936,231.269 425,219.5C 425.032,217.402 425.699,215.402 427,213.5C 430.096,208.972 432.929,204.305 435.5,199.5 Z"/></g>
<g><path style="opacity:0.322" fill="#075730" d="M 509.5,202.5 C 550.492,249.646 568.659,304.646 564,367.5C 559.424,415.953 541.257,458.286 509.5,494.5C 508.505,482.345 508.171,470.011 508.5,457.5C 509.234,456.292 509.567,454.959 509.5,453.5C 540.618,403.774 548.451,350.441 533,293.5C 527.742,275.185 519.908,258.185 509.5,242.5C 509.167,241.167 508.833,239.833 508.5,238.5C 508.172,226.322 508.505,214.322 509.5,202.5 Z"/></g>
<g><path style="opacity:0.32" fill="#075730" d="M 177.5,202.5 C 177.5,215.167 177.5,227.833 177.5,240.5C 177.5,241.5 177.5,242.5 177.5,243.5C 147.075,292.635 139.242,345.302 154,401.5C 159.195,419.88 167.029,436.88 177.5,452.5C 177.5,453.5 177.5,454.5 177.5,455.5C 177.5,468.167 177.5,480.833 177.5,493.5C 150.522,463.205 133.355,427.871 126,387.5C 115.026,317.698 132.193,256.032 177.5,202.5 Z"/></g>
<g><path style="opacity:0.319" fill="#075730" d="M 84.5,280.5 C 85.4345,279.432 85.7678,278.099 85.5,276.5C 86.404,275.791 86.7373,274.791 86.5,273.5C 87.4345,272.432 87.7678,271.099 87.5,269.5C 88.404,268.791 88.7373,267.791 88.5,266.5C 89.404,265.791 89.7373,264.791 89.5,263.5C 90.404,262.791 90.7373,261.791 90.5,260.5C 91.404,259.791 91.7373,258.791 91.5,257.5C 92.9313,256.22 93.5979,254.553 93.5,252.5C 94.404,251.791 94.7373,250.791 94.5,249.5C 95.3382,249.158 95.6716,248.492 95.5,247.5C 96.404,246.791 96.7373,245.791 96.5,244.5C 97.3382,244.158 97.6716,243.492 97.5,242.5C 98.3382,242.158 98.6716,241.492 98.5,240.5C 99.3382,240.158 99.6716,239.492 99.5,238.5C 100.738,237.588 102.072,237.421 103.5,238C 110,240.885 116.333,244.052 122.5,247.5C 116.432,261.209 111.265,275.209 107,289.5C 100.26,287.44 93.4269,285.606 86.5,284C 85.0267,283.29 84.3601,282.124 84.5,280.5 Z"/></g>
<g><path style="opacity:0.319" fill="#075730" d="M 586.5,237.5 C 593.596,252.116 598.929,267.45 602.5,283.5C 594.925,285.269 587.425,287.269 580,289.5C 576.126,275.876 571.459,262.543 566,249.5C 565.316,248.216 565.483,247.049 566.5,246C 573.072,242.879 579.739,240.045 586.5,237.5 Z"/></g>
<g><path style="opacity:0.997" fill="#0f5231" d="M 197.5,390.5 C 190.833,390.5 184.167,390.5 177.5,390.5C 177.5,357.833 177.5,325.167 177.5,292.5C 177.5,291.5 177.5,290.5 177.5,289.5C 181.533,280.975 185.7,272.308 190,263.5C 196.752,267.46 203.586,271.293 210.5,275C 190.914,311.773 186.581,350.273 197.5,390.5 Z"/></g>
<g><path style="opacity:0.962" fill="#0e5231" d="M 501.5,272.5 C 494.833,272.5 488.167,272.5 481.5,272.5C 486.653,269.667 491.82,266.667 497,263.5C 499.038,266.243 500.538,269.243 501.5,272.5 Z"/></g>
<g><path style="opacity:0.329" fill="#075730" d="M 479.5,272.5 C 480.167,272.5 480.833,272.5 481.5,272.5C 488.167,272.5 494.833,272.5 501.5,272.5C 501.833,272.5 502.167,272.5 502.5,272.5C 522.337,316.248 524.67,360.914 509.5,406.5C 508.502,372.004 508.168,337.337 508.5,302.5C 502.167,302.5 495.833,302.5 489.5,302.5C 489.167,302.5 488.833,302.5 488.5,302.5C 485.194,293.052 481.194,283.885 476.5,275C 477.571,274.148 478.571,273.315 479.5,272.5 Z"/></g>
<g><path style="opacity:0.32" fill="#075730" d="M 177.5,292.5 C 177.5,325.167 177.5,357.833 177.5,390.5C 184.167,390.5 190.833,390.5 197.5,390.5C 197.833,390.5 198.167,390.5 198.5,390.5C 201.517,401.554 205.517,412.221 210.5,422.5C 209.833,422.5 209.167,422.5 208.5,422.5C 200.5,422.5 192.5,422.5 184.5,422.5C 169.518,389.986 164.685,355.986 170,320.5C 171.314,310.725 173.814,301.391 177.5,292.5 Z"/></g>
<g><path style="opacity:0.318" fill="#075730" d="M 80.5,396.5 C 80.5,396.167 80.5,395.833 80.5,395.5C 80.5,394.5 80.5,393.5 80.5,392.5C 79.8902,391.609 79.5569,390.609 79.5,389.5C 79.7373,388.209 79.404,387.209 78.5,386.5C 78.5,385.5 78.5,384.5 78.5,383.5C 78.7845,381.585 78.4511,379.919 77.5,378.5C 77.5,377.167 77.5,375.833 77.5,374.5C 77.8064,371.615 77.4731,368.948 76.5,366.5C 76.5,364.5 76.5,362.5 76.5,360.5C 76.5,350.5 76.5,340.5 76.5,330.5C 76.5,330.167 76.5,329.833 76.5,329.5C 77.4816,326.038 77.815,322.371 77.5,318.5C 78.4731,316.052 78.8064,313.385 78.5,310.5C 79.4614,308.735 79.7947,306.735 79.5,304.5C 79.5,304.167 79.5,303.833 79.5,303.5C 80.1614,302.282 80.8281,300.949 81.5,299.5C 88.7979,301.106 96.1312,302.606 103.5,304C 104.022,304.561 104.355,305.228 104.5,306C 99.2237,334.826 99.2237,363.66 104.5,392.5C 96.5222,393.962 88.5222,395.296 80.5,396.5 Z"/></g>
<g><path style="opacity:0.319" fill="#075730" d="M 606.5,299.5 C 609.056,315.723 610.389,332.056 610.5,348.5C 610.697,364.841 609.03,380.841 605.5,396.5C 597.803,395.217 590.136,393.717 582.5,392C 585.612,377.544 586.945,362.877 586.5,348C 586.993,333.447 585.66,319.114 582.5,305C 590.395,302.849 598.395,301.016 606.5,299.5 Z"/></g>
<g><path style="opacity:0.999" fill="#0f5231" d="M 489.5,302.5 C 495.833,302.5 502.167,302.5 508.5,302.5C 508.168,337.337 508.502,372.004 509.5,406.5C 509.5,407.167 509.5,407.833 509.5,408.5C 505.717,416.729 501.383,424.729 496.5,432.5C 489.805,429.158 483.472,425.324 477.5,421C 496.939,383.189 500.939,343.689 489.5,302.5 Z"/></g>
<g><path style="opacity:0.319" fill="#075730" d="M 100.5,459.5 C 99.8333,459.5 99.5,459.167 99.5,458.5C 99.5,458.167 99.5,457.833 99.5,457.5C 98.8333,457.5 98.5,457.167 98.5,456.5C 98.5,455.833 98.5,455.167 98.5,454.5C 97.8333,454.5 97.5,454.167 97.5,453.5C 97.5,453.167 97.5,452.833 97.5,452.5C 96.8333,452.5 96.5,452.167 96.5,451.5C 96.5,451.167 96.5,450.833 96.5,450.5C 95.8333,450.5 95.5,450.167 95.5,449.5C 95.5,448.833 95.5,448.167 95.5,447.5C 94.8333,447.5 94.5,447.167 94.5,446.5C 94.5,446.167 94.5,445.833 94.5,445.5C 94.6716,444.508 94.3382,443.842 93.5,443.5C 93.5,443.167 93.5,442.833 93.5,442.5C 92.8333,442.5 92.5,442.167 92.5,441.5C 92.5,440.833 92.5,440.167 92.5,439.5C 91.8333,439.5 91.5,439.167 91.5,438.5C 91.5,438.167 91.5,437.833 91.5,437.5C 91.6716,436.508 91.3382,435.842 90.5,435.5C 90.5,435.167 90.5,434.833 90.5,434.5C 90.6716,433.508 90.3382,432.842 89.5,432.5C 89.5,432.167 89.5,431.833 89.5,431.5C 89.6716,430.508 89.3382,429.842 88.5,429.5C 88.5,429.167 88.5,428.833 88.5,428.5C 88.6716,427.508 88.3382,426.842 87.5,426.5C 87.5,426.167 87.5,425.833 87.5,425.5C 87.6716,424.508 87.3382,423.842 86.5,423.5C 86.5,422.833 86.5,422.167 86.5,421.5C 86.6716,420.508 86.3382,419.842 85.5,419.5C 85.5,419.167 85.5,418.833 85.5,418.5C 85.7373,417.209 85.404,416.209 84.5,415.5C 84.5,415.167 84.5,414.833 84.5,414.5C 84.62,413.414 85.2867,412.747 86.5,412.5C 93.4713,410.505 100.471,409.005 107.5,408C 111.374,422.081 116.374,435.748 122.5,449C 115.392,452.98 108.058,456.48 100.5,459.5 Z"/></g>
<g><path style="opacity:0.32" fill="#075730" d="M 602.5,412.5 C 598.759,428.959 593.092,444.626 585.5,459.5C 579.379,456.275 573.045,453.275 566.5,450.5C 566.167,449.833 565.833,449.167 565.5,448.5C 571.091,435.896 575.591,422.896 579,409.5C 579.388,408.572 580.055,407.905 581,407.5C 588.09,409.564 595.256,411.231 602.5,412.5 Z"/></g>
<g><path style="opacity:0.985" fill="#125031" d="M 184.5,422.5 C 186.489,425.806 188.489,429.139 190.5,432.5C 196.562,429.139 202.562,425.806 208.5,422.5C 209.167,422.5 209.833,422.5 210.5,422.5C 228.833,422.5 247.167,422.5 265.5,422.5C 265.5,448.5 265.5,474.5 265.5,500.5C 265.5,502.5 265.5,504.5 265.5,506.5C 265.5,514.167 265.5,521.833 265.5,529.5C 229.154,513.152 199.821,488.486 177.5,455.5C 177.5,454.5 177.5,453.5 177.5,452.5C 177.5,442.5 177.5,432.5 177.5,422.5C 179.833,422.5 182.167,422.5 184.5,422.5 Z"/></g>
<g><path style="opacity:0.933" fill="#0e5231" d="M 184.5,422.5 C 192.5,422.5 200.5,422.5 208.5,422.5C 202.562,425.806 196.562,429.139 190.5,432.5C 188.489,429.139 186.489,425.806 184.5,422.5 Z"/></g>
<g><path style="opacity:1" fill="#0f5231" d="M 216.5,432.5 C 229.349,450.515 245.016,465.681 263.5,478C 259.458,484.585 255.291,491.085 251,497.5C 230.42,484.254 213.087,467.587 199,447.5C 198.251,446.365 198.417,445.365 199.5,444.5C 205.409,440.724 211.075,436.724 216.5,432.5 Z"/></g>
<g><path style="opacity:1" fill="#0f5231" d="M 469.5,433.5 C 476.57,436.877 483.237,441.043 489.5,446C 475.485,465.681 458.485,482.348 438.5,496C 437.5,496.667 436.5,496.667 435.5,496C 431.576,490.15 427.909,484.15 424.5,478C 442.201,465.832 457.201,450.999 469.5,433.5 Z"/></g>
<g><path style="opacity:0.997" fill="#0f5231" d="M 177.5,455.5 C 199.821,488.486 229.154,513.152 265.5,529.5C 265.5,537.833 265.5,546.167 265.5,554.5C 231.222,541.209 201.888,520.875 177.5,493.5C 177.5,480.833 177.5,468.167 177.5,455.5 Z"/></g>
<g><path style="opacity:0.993" fill="#0f5231" d="M 508.5,457.5 C 508.171,470.011 508.505,482.345 509.5,494.5C 509.5,494.833 509.5,495.167 509.5,495.5C 502.41,502.417 495.077,509.251 487.5,516C 478.932,522.748 470.266,529.248 461.5,535.5C 461.167,535.5 460.833,535.5 460.5,535.5C 447.5,535.5 434.5,535.5 421.5,535.5C 421.675,533.379 421.341,531.379 420.5,529.5C 427.471,526.446 434.471,523.28 441.5,520C 468.234,503.762 490.568,482.928 508.5,457.5 Z"/></g>
<g><path style="opacity:0.319" fill="#075730" d="M 134.5,515.5 C 134.167,514.833 133.833,514.167 133.5,513.5C 132.833,513.5 132.5,513.167 132.5,512.5C 131.5,511.167 130.5,509.833 129.5,508.5C 128.833,508.5 128.5,508.167 128.5,507.5C 128.167,506.833 127.833,506.167 127.5,505.5C 126.833,505.5 126.5,505.167 126.5,504.5C 125.833,504.5 125.5,504.167 125.5,503.5C 125.167,502.833 124.833,502.167 124.5,501.5C 123.833,501.5 123.5,501.167 123.5,500.5C 123.167,499.833 122.833,499.167 122.5,498.5C 121.833,498.5 121.5,498.167 121.5,497.5C 121.167,496.833 120.833,496.167 120.5,495.5C 119.833,495.5 119.5,495.167 119.5,494.5C 119.167,493.833 118.833,493.167 118.5,492.5C 117.833,492.5 117.5,492.167 117.5,491.5C 116.833,490.167 116.167,488.833 115.5,487.5C 114.833,487.5 114.5,487.167 114.5,486.5C 114.167,485.833 113.833,485.167 113.5,484.5C 112.833,484.5 112.5,484.167 112.5,483.5C 112.5,483.167 112.5,482.833 112.5,482.5C 111.833,482.5 111.5,482.167 111.5,481.5C 110.833,480.167 110.167,478.833 109.5,477.5C 108.833,477.5 108.5,477.167 108.5,476.5C 108.5,476.167 108.5,475.833 108.5,475.5C 108.369,474.624 108.702,473.957 109.5,473.5C 116.19,469.985 122.856,466.818 129.5,464C 136.468,476.107 144.301,487.607 153,498.5C 153.711,500.367 153.211,501.867 151.5,503C 145.937,507.409 140.271,511.576 134.5,515.5 Z"/></g>
<g><path style="opacity:0.32" fill="#075730" d="M 578.5,473.5 C 571.499,488.498 562.499,502.165 551.5,514.5C 545.233,510.239 539.233,505.573 533.5,500.5C 542.576,488.685 550.909,476.352 558.5,463.5C 565.22,466.86 571.886,470.193 578.5,473.5 Z"/></g>
<g><path style="opacity:0.319" fill="#075730" d="M 265.5,506.5 C 265.5,504.5 265.5,502.5 265.5,500.5C 268.57,494.696 271.903,489.03 275.5,483.5C 294.953,493.53 315.619,498.863 337.5,499.5C 337.499,507.517 337.166,515.517 336.5,523.5C 311.642,522.702 287.975,517.035 265.5,506.5 Z"/></g>
<g><path style="opacity:0.319" fill="#075730" d="M 420.5,497.5 C 421.372,500.579 421.372,503.579 420.5,506.5C 398.417,517.187 375.083,522.854 350.5,523.5C 350.61,515.475 350.276,507.475 349.5,499.5C 371.72,498.989 392.72,493.656 412.5,483.5C 415.194,488.229 417.86,492.896 420.5,497.5 Z"/></g>
<g><path style="opacity:0.949" fill="#125031" d="M 509.5,495.5 C 509.5,505.5 509.5,515.5 509.5,525.5C 508.676,528.764 508.342,532.098 508.5,535.5C 505.167,535.5 501.833,535.5 498.5,535.5C 486.167,535.5 473.833,535.5 461.5,535.5C 470.266,529.248 478.932,522.748 487.5,516C 495.077,509.251 502.41,502.417 509.5,495.5 Z"/></g>
<g><path style="opacity:0.32" fill="#075730" d="M 177.5,525.5 C 177.5,525.833 177.5,526.167 177.5,526.5C 177.5,536.833 177.5,547.167 177.5,557.5C 166.257,548.927 155.923,539.261 146.5,528.5C 151.537,522.462 157.203,517.129 163.5,512.5C 168.187,516.855 172.854,521.188 177.5,525.5 Z"/></g>
<g><path style="opacity:0.321" fill="#075730" d="M 540.5,527.5 C 536.098,533.409 531.098,538.909 525.5,544C 518.803,550 511.803,555.5 504.5,560.5C 499.732,554.491 495.066,548.325 490.5,542C 493.355,539.969 496.022,537.803 498.5,535.5C 501.833,535.5 505.167,535.5 508.5,535.5C 508.342,532.098 508.676,528.764 509.5,525.5C 514.146,521.188 518.813,516.855 523.5,512.5C 529.509,517.179 535.175,522.179 540.5,527.5 Z"/></g>
<g><path style="opacity:1" fill="#0f5231" d="M 177.5,526.5 C 183.803,531.468 189.803,536.802 195.5,542.5C 191.243,548.679 186.743,554.679 182,560.5C 180.729,559.117 179.229,558.117 177.5,557.5C 177.5,547.167 177.5,536.833 177.5,526.5 Z"/></g>
<g><path style="opacity:0.319" fill="#075730" d="M 265.5,529.5 C 317.22,550.775 368.886,550.775 420.5,529.5C 421.341,531.379 421.675,533.379 421.5,535.5C 434.5,535.5 447.5,535.5 460.5,535.5C 458.747,537.223 456.747,538.723 454.5,540C 393.77,572.922 330.77,578.089 265.5,555.5C 265.5,555.167 265.5,554.833 265.5,554.5C 265.5,546.167 265.5,537.833 265.5,529.5 Z"/></g>
<g><path style="opacity:0.319" fill="#075730" d="M 490.5,570.5 C 477.213,579.979 462.879,587.646 447.5,593.5C 444.788,586.405 441.788,579.405 438.5,572.5C 452.07,566.133 465.236,559.133 478,551.5C 482.674,557.518 486.84,563.852 490.5,570.5 Z"/></g>
<g><path style="opacity:1" fill="#0f5231" d="M 208.5,552.5 C 221.039,559.602 234.039,565.936 247.5,571.5C 245.607,579.287 242.607,586.62 238.5,593.5C 223.736,587.287 209.736,579.787 196.5,571C 200.723,564.95 204.723,558.784 208.5,552.5 Z"/></g>
<g><path style="opacity:0.953" fill="#0e5231" d="M 265.5,578.5 C 265.5,586.833 265.5,595.167 265.5,603.5C 262.106,602.368 258.773,601.034 255.5,599.5C 258.423,592.73 260.757,585.73 262.5,578.5C 263.5,578.5 264.5,578.5 265.5,578.5 Z"/></g>
<g><path style="opacity:0.318" fill="#075730" d="M 432.5,599.5 C 417.147,605.672 401.147,609.672 384.5,611.5C 383.391,603.848 382.391,596.181 381.5,588.5C 396.066,586.317 410.233,582.65 424,577.5C 426.93,584.789 429.763,592.122 432.5,599.5 Z"/></g>
<g><path style="opacity:0.318" fill="#075730" d="M 265.5,578.5 C 279.016,582.802 292.683,586.469 306.5,589.5C 305.058,597.153 303.725,604.819 302.5,612.5C 289.98,610.287 277.647,607.287 265.5,603.5C 265.5,595.167 265.5,586.833 265.5,578.5 Z"/></g>
<g><path style="opacity:0.318" fill="#075730" d="M 368.5,613.5 C 352.069,616.145 335.736,616.145 319.5,613.5C 319.927,605.807 320.593,598.141 321.5,590.5C 336.498,591.811 351.498,591.811 366.5,590.5C 366.688,598.229 367.354,605.896 368.5,613.5 Z"/></g>
</svg>
